<svg width="127" height="60" viewBox="0 0 127 60" fill="none" xmlns="http://www.w3.org/2000/svg">
<path d="M10.352 10.416V13.776H8.564V12H1.544V3.6H3.476V10.416H7.22V3.6H9.152V10.416H10.352ZM17.6838 8.796C17.6838 8.82 17.6718 8.988 17.6478 9.3H12.7638C12.8518 9.7 13.0598 10.016 13.3878 10.248C13.7158 10.48 14.1238 10.596 14.6118 10.596C14.9478 10.596 15.2438 10.548 15.4998 10.452C15.7638 10.348 16.0078 10.188 16.2318 9.972L17.2278 11.052C16.6198 11.748 15.7318 12.096 14.5638 12.096C13.8358 12.096 13.1918 11.956 12.6318 11.676C12.0718 11.388 11.6398 10.992 11.3358 10.488C11.0318 9.984 10.8798 9.412 10.8798 8.772C10.8798 8.14 11.0278 7.572 11.3238 7.068C11.6278 6.556 12.0398 6.16 12.5598 5.88C13.0878 5.592 13.6758 5.448 14.3238 5.448C14.9558 5.448 15.5278 5.584 16.0398 5.856C16.5518 6.128 16.9518 6.52 17.2398 7.032C17.5358 7.536 17.6838 8.124 17.6838 8.796ZM14.3358 6.864C13.9118 6.864 13.5558 6.984 13.2678 7.224C12.9798 7.464 12.8038 7.792 12.7398 8.208H15.9198C15.8558 7.8 15.6798 7.476 15.3918 7.236C15.1038 6.988 14.7518 6.864 14.3358 6.864ZM19.1188 5.544H20.9788V8.064H23.7868V5.544H25.6588V12H23.7868V9.588H20.9788V12H19.1188V5.544ZM32.8748 7.08H30.6908V12H28.8308V7.08H26.6468V5.544H32.8748V7.08ZM37.6767 5.448C38.2767 5.448 38.8207 5.588 39.3087 5.868C39.8047 6.14 40.1927 6.528 40.4727 7.032C40.7527 7.528 40.8927 8.108 40.8927 8.772C40.8927 9.436 40.7527 10.02 40.4727 10.524C40.1927 11.02 39.8047 11.408 39.3087 11.688C38.8207 11.96 38.2767 12.096 37.6767 12.096C36.8527 12.096 36.2047 11.836 35.7327 11.316V14.328H33.8607V5.544H35.6487V6.288C36.1127 5.728 36.7887 5.448 37.6767 5.448ZM37.3527 10.56C37.8327 10.56 38.2247 10.4 38.5287 10.08C38.8407 9.752 38.9967 9.316 38.9967 8.772C38.9967 8.228 38.8407 7.796 38.5287 7.476C38.2247 7.148 37.8327 6.984 37.3527 6.984C36.8727 6.984 36.4767 7.148 36.1647 7.476C35.8607 7.796 35.7087 8.228 35.7087 8.772C35.7087 9.316 35.8607 9.752 36.1647 10.08C36.4767 10.4 36.8727 10.56 37.3527 10.56ZM44.6072 5.448C45.6072 5.448 46.3752 5.688 46.9112 6.168C47.4472 6.64 47.7152 7.356 47.7152 8.316V12H45.9632V11.196C45.6112 11.796 44.9552 12.096 43.9952 12.096C43.4992 12.096 43.0672 12.012 42.6992 11.844C42.3392 11.676 42.0632 11.444 41.8712 11.148C41.6792 10.852 41.5832 10.516 41.5832 10.14C41.5832 9.54 41.8072 9.068 42.2552 8.724C42.7112 8.38 43.4112 8.208 44.3552 8.208H45.8432C45.8432 7.8 45.7192 7.488 45.4712 7.272C45.2232 7.048 44.8512 6.936 44.3552 6.936C44.0112 6.936 43.6712 6.992 43.3352 7.104C43.0072 7.208 42.7272 7.352 42.4952 7.536L41.8232 6.228C42.1752 5.98 42.5952 5.788 43.0832 5.652C43.5792 5.516 44.0872 5.448 44.6072 5.448ZM44.4632 10.836C44.7832 10.836 45.0672 10.764 45.3152 10.62C45.5632 10.468 45.7392 10.248 45.8432 9.96V9.3H44.5592C43.7912 9.3 43.4072 9.552 43.4072 10.056C43.4072 10.296 43.4992 10.488 43.6832 10.632C43.8752 10.768 44.1352 10.836 44.4632 10.836ZM55.5334 5.544V12H53.6614V7.08H51.6214L51.5614 8.22C51.5294 9.068 51.4494 9.772 51.3214 10.332C51.1934 10.892 50.9854 11.332 50.6974 11.652C50.4094 11.972 50.0094 12.132 49.4974 12.132C49.2254 12.132 48.9014 12.084 48.5254 11.988L48.6214 10.452C48.7494 10.468 48.8414 10.476 48.8974 10.476C49.1774 10.476 49.3854 10.376 49.5214 10.176C49.6654 9.968 49.7614 9.708 49.8094 9.396C49.8574 9.076 49.8934 8.656 49.9174 8.136L50.0134 5.544H55.5334ZM57.3336 5.544H59.1936V8.064H62.0016V5.544H63.8736V12H62.0016V9.588H59.1936V12H57.3336V5.544ZM65.6656 5.544H67.5256V9.384L70.6696 5.544H72.3856V12H70.5256V8.16L67.3936 12H65.6656V5.544ZM74.1852 5.544H76.0452V9.384L79.1892 5.544H80.9052V12H79.0452V8.16L75.9132 12H74.1852V5.544ZM77.4252 4.848C76.0172 4.848 75.3092 4.228 75.3012 2.988H76.5252C76.5332 3.268 76.6092 3.488 76.7532 3.648C76.9052 3.8 77.1252 3.876 77.4132 3.876C77.7012 3.876 77.9212 3.8 78.0732 3.648C78.2332 3.488 78.3132 3.268 78.3132 2.988H79.5612C79.5532 4.228 78.8412 4.848 77.4252 4.848ZM89.9071 5.448C90.5071 5.448 91.0511 5.588 91.5391 5.868C92.0351 6.14 92.4231 6.528 92.7031 7.032C92.9831 7.528 93.1231 8.108 93.1231 8.772C93.1231 9.436 92.9831 10.02 92.7031 10.524C92.4231 11.02 92.0351 11.408 91.5391 11.688C91.0511 11.96 90.5071 12.096 89.9071 12.096C89.0831 12.096 88.4351 11.836 87.9631 11.316V14.328H86.0911V5.544H87.8791V6.288C88.3431 5.728 89.0191 5.448 89.9071 5.448ZM89.5831 10.56C90.0631 10.56 90.4551 10.4 90.7591 10.08C91.0711 9.752 91.2271 9.316 91.2271 8.772C91.2271 8.228 91.0711 7.796 90.7591 7.476C90.4551 7.148 90.0631 6.984 89.5831 6.984C89.1031 6.984 88.7071 7.148 88.3951 7.476C88.0911 7.796 87.9391 8.228 87.9391 8.772C87.9391 9.316 88.0911 9.752 88.3951 10.08C88.7071 10.4 89.1031 10.56 89.5831 10.56ZM94.4352 5.544H96.2952V9.384L99.4392 5.544H101.155V12H99.2952V8.16L96.1632 12H94.4352V5.544ZM102.955 5.544H104.815V8.064H107.623V5.544H109.495V12H107.623V9.588H104.815V12H102.955V5.544ZM114.311 12.096C113.631 12.096 113.019 11.956 112.475 11.676C111.939 11.388 111.519 10.992 111.215 10.488C110.911 9.984 110.759 9.412 110.759 8.772C110.759 8.132 110.911 7.56 111.215 7.056C111.519 6.552 111.939 6.16 112.475 5.88C113.019 5.592 113.631 5.448 114.311 5.448C114.991 5.448 115.599 5.592 116.135 5.88C116.671 6.16 117.091 6.552 117.395 7.056C117.699 7.56 117.851 8.132 117.851 8.772C117.851 9.412 117.699 9.984 117.395 10.488C117.091 10.992 116.671 11.388 116.135 11.676C115.599 11.956 114.991 12.096 114.311 12.096ZM114.311 10.56C114.791 10.56 115.183 10.4 115.487 10.08C115.799 9.752 115.955 9.316 115.955 8.772C115.955 8.228 115.799 7.796 115.487 7.476C115.183 7.148 114.791 6.984 114.311 6.984C113.831 6.984 113.435 7.148 113.123 7.476C112.811 7.796 112.655 8.228 112.655 8.772C112.655 9.316 112.811 9.752 113.123 10.08C113.435 10.4 113.831 10.56 114.311 10.56ZM121.982 9.552H121.01V12H119.138V5.544H121.01V8.052H122.018L123.77 5.544H125.762L123.506 8.64L125.918 12H123.71L121.982 9.552Z" fill="#8F5E14"/>
<path d="M62.795 59.7053C62.9891 59.9053 63.2446 60 63.5 60C63.7554 60 64.0109 59.9053 64.205 59.7053C64.8079 59.1055 79 44.9089 79 32.9645C79 24.1667 72.0521 17 63.5 17C54.9479 17 48 24.1667 48 32.9645C48 44.9089 62.1921 59.1055 62.795 59.7053Z" fill="#8F5E14"/>
<path d="M72 34.8117V32.3609L70.0078 29.3727V27H56.9922V29.3726L55 32.3609V34.8117L55.9961 35.3097V43.0039H55V44H72V43.0039H71.0039V35.3098L72 34.8117ZM69.5098 34.9432L68.0156 34.1961V33.0098H71.0039V34.1961L69.5098 34.9432ZM55.9961 34.1961V33.0098H58.9844V34.1961L57.4902 34.9432L55.9961 34.1961ZM67.8766 32.0137L67.2125 30.0215H69.2432L70.5714 32.0137H67.8766ZM66.1625 30.0215L66.8266 32.0137H63.998V30.0215H66.1625ZM63.002 32.0137H60.1734L60.8375 30.0215H63.002V32.0137ZM59.1234 32.0137H56.4287L57.7568 30.0215H59.7875L59.1234 32.0137ZM59.9805 33.0098H63.002V34.1938L61.4764 34.9441L59.9805 34.1961V33.0098ZM63.998 33.0098H67.0195V34.1961L65.5236 34.944L63.998 34.1938V33.0098ZM57.9883 27.9961H69.0117V29.0254H57.9883V27.9961ZM63.998 40.9785H58.9844V37.9902H63.998V40.9785ZM68.0156 40.9785H67.0195V41.9746H68.0156V43.0039H64.9941V37.9902H68.0156V40.9785ZM70.0078 43.0039H69.0117C69.0117 41.8478 69.0117 38.7452 69.0117 36.9941C67.8629 36.9941 59.1588 36.9941 57.9883 36.9941V41.9746H63.998V43.0039H56.9922V35.8078L57.4902 36.0568L59.4824 35.0608L61.4728 36.056L63.5 35.0589L65.5272 36.0559L67.5176 35.0608L69.5098 36.0568L70.0078 35.8078V43.0039Z" fill="#E9DFD0"/>
</svg>
