<svg width="100" height="60" viewBox="0 0 100 60" fill="none" xmlns="http://www.w3.org/2000/svg">
<path d="M49.0528 59.7051C49.2469 59.905 49.5024 59.9998 49.7578 59.9998C50.0133 59.9998 50.2687 59.905 50.4628 59.7051C51.0657 59.1053 65.2578 44.9087 65.2578 32.9643C65.2578 24.1664 58.3099 16.9998 49.7578 16.9998C41.2057 16.9998 34.2578 24.1664 34.2578 32.9643C34.2578 44.9087 48.4499 59.1053 49.0528 59.7051Z" fill="#8F5E14"/>
<g clip-path="url(#clip0)">
<path d="M57.7985 35.6436C58.0522 35.6436 58.2578 35.438 58.2578 35.1843V34.4379C58.2578 34.3245 58.2192 34.2144 58.1484 34.1258L56.1684 31.6479C56.0735 31.5292 55.9297 31.46 55.7777 31.46H51.4119C51.2641 31.46 51.1238 31.3946 51.0288 31.2814L50.3576 30.4815C50.2919 30.4031 50.2559 30.3041 50.2559 30.2018C50.2559 29.9615 50.4507 29.7667 50.691 29.7667H52.6322C52.9084 29.7667 53.1322 29.5428 53.1322 29.2667V27.4998C53.1322 27.2236 52.9084 26.9998 52.6322 26.9998H49.7598C49.4836 26.9998 49.2598 27.2236 49.2598 27.4998V30.1782C49.2598 30.2957 49.2184 30.4095 49.1428 30.4996L48.4868 31.2814C48.3918 31.3946 48.2516 31.46 48.1038 31.46H43.7379C43.5859 31.46 43.4422 31.5292 43.3473 31.6479L41.3672 34.1258C41.2964 34.2144 41.2578 34.3245 41.2578 34.4379V35.1843C41.2578 35.438 41.4635 35.6436 41.7171 35.6436C41.9708 35.6436 42.1764 35.8493 42.1764 36.1029V42.5443C42.1764 42.798 41.9708 43.0037 41.7171 43.0037C41.4635 43.0037 41.2578 43.2093 41.2578 43.463V43.5017C41.2578 43.7768 41.4808 43.9998 41.7559 43.9998H57.7598C58.0348 43.9998 58.2578 43.7768 58.2578 43.5017V43.463C58.2578 43.2093 58.0522 43.0037 57.7985 43.0037C57.5449 43.0037 57.3392 42.798 57.3392 42.5444V36.1029C57.3392 35.8493 57.5449 35.6436 57.7985 35.6436ZM50.2559 28.3832C50.2559 28.1693 50.4293 27.9958 50.6432 27.9958H51.7488C51.9627 27.9958 52.1362 28.1693 52.1362 28.3832C52.1362 28.5971 51.9627 28.7706 51.7488 28.7706H50.6432C50.4293 28.7706 50.2559 28.5971 50.2559 28.3832ZM42.2539 34.6211C42.2539 34.6151 42.2559 34.6093 42.2597 34.6046L43.8264 32.644C43.9213 32.5253 44.065 32.4561 44.217 32.4561H46.429C46.8537 32.4561 47.085 32.9522 46.812 33.2775L45.8123 34.4689C45.7173 34.5821 45.5771 34.6475 45.4293 34.6475H42.2804C42.2658 34.6475 42.2539 34.6357 42.2539 34.6211ZM49.2598 42.5037C49.2598 42.7798 49.0359 43.0037 48.7598 43.0037H48.6309C48.3547 43.0037 48.1309 42.7798 48.1309 42.5037V40.0395C48.1309 39.7633 48.3547 39.5395 48.6309 39.5395H48.7598C49.0359 39.5395 49.2598 39.7633 49.2598 40.0395V42.5037ZM51.3848 42.5037C51.3848 42.7798 51.1609 43.0037 50.8848 43.0037H50.7559C50.4797 43.0037 50.2559 42.7798 50.2559 42.5037V40.0395C50.2559 39.7633 50.4797 39.5395 50.7559 39.5395H50.8848C51.1609 39.5395 51.3848 39.7633 51.3848 40.0395V42.5037ZM56.3431 42.5037C56.3431 42.7798 56.1193 43.0037 55.8431 43.0037H52.8809C52.6047 43.0037 52.3809 42.7798 52.3809 42.5037V39.0434C52.3809 38.7672 52.157 38.5434 51.8809 38.5434H47.6348C47.3586 38.5434 47.1348 38.7672 47.1348 39.0434V42.5037C47.1348 42.7798 46.9109 43.0037 46.6348 43.0037H43.6725C43.3964 43.0037 43.1725 42.7798 43.1725 42.5037V36.1436C43.1725 35.8675 43.3964 35.6436 43.6725 35.6436H45.8938C46.0416 35.6436 46.1819 35.5782 46.2769 35.465L49.3748 31.7728C49.5746 31.5346 49.941 31.5346 50.1408 31.7728L53.2388 35.465C53.3338 35.5782 53.474 35.6436 53.6218 35.6436H55.8431C56.1193 35.6436 56.3431 35.8675 56.3431 36.1436V42.5037ZM57.2617 34.6211C57.2617 34.6357 57.2499 34.6475 57.2353 34.6475H54.0863C53.9385 34.6475 53.7983 34.5821 53.7033 34.4689L52.7037 33.2775C52.4307 32.9522 52.662 32.4561 53.0867 32.4561H55.2986C55.4506 32.4561 55.5944 32.5253 55.6892 32.644L57.2559 34.6046C57.2597 34.6093 57.2617 34.6151 57.2617 34.6211Z" fill="#E9DFD0"/>
<path d="M45.6299 37.2708H44.6338V38.6874H45.6299V37.2708Z" fill="#E9DFD0"/>
<path d="M45.6514 40.1038H44.6553V41.5204H45.6514V40.1038Z" fill="#E9DFD0"/>
<path d="M54.8818 37.2708H53.8857V38.6874H54.8818V37.2708Z" fill="#E9DFD0"/>
<path d="M54.8604 40.1038H53.8643V41.5204H54.8604V40.1038Z" fill="#E9DFD0"/>
<path d="M49.7578 33.9392C48.8973 33.9392 48.1973 34.6393 48.1973 35.4998C48.1973 36.3602 48.8973 37.0603 49.7578 37.0603C50.6183 37.0603 51.3184 36.3602 51.3184 35.4998C51.3184 34.6393 50.6183 33.9392 49.7578 33.9392ZM49.7578 36.0642C49.4466 36.0642 49.1934 35.811 49.1934 35.4998C49.1934 35.1885 49.4466 34.9353 49.7578 34.9353C50.0691 34.9353 50.3223 35.1885 50.3223 35.4998C50.3223 35.811 50.0691 36.0642 49.7578 36.0642Z" fill="#E9DFD0"/>
</g>
<path d="M9.96581 10.4158V13.7398H8.16581V11.9998H2.23781V13.7398H0.437813L0.449813 10.4158H0.785813C1.28981 10.3998 1.64581 10.0318 1.85381 9.31176C2.06181 8.59176 2.18981 7.56376 2.23781 6.22776L2.33381 3.59976H8.78981V10.4158H9.96581ZM3.95381 6.40776C3.91381 7.40776 3.82981 8.24776 3.70181 8.92776C3.57381 9.59976 3.37781 10.0958 3.11381 10.4158H6.86981V5.18376H3.98981L3.95381 6.40776ZM11.1305 5.54376H12.9905V9.38376L16.1345 5.54376H17.8505V11.9998H15.9905V8.15976L12.8585 11.9998H11.1305V5.54376ZM25.074 7.07976H22.89V11.9998H21.03V7.07976H18.846V5.54376H25.074V7.07976ZM31.7493 5.54376V11.9998H30.0813V10.1518H28.7013L27.4773 11.9998H25.4853L26.9613 9.88776C26.5133 9.71176 26.1693 9.45976 25.9293 9.13176C25.6973 8.79576 25.5813 8.39176 25.5813 7.91976C25.5813 7.15976 25.8533 6.57576 26.3973 6.16776C26.9493 5.75176 27.7053 5.54376 28.6653 5.54376H31.7493ZM28.7013 7.06776C28.3013 7.06776 27.9973 7.13976 27.7893 7.28376C27.5893 7.42776 27.4893 7.65976 27.4893 7.97976C27.4893 8.29976 27.5853 8.53576 27.7773 8.68776C27.9773 8.83176 28.2773 8.90376 28.6773 8.90376H30.0813V7.06776H28.7013ZM39.3564 5.54376V11.9998H37.4844V9.59976C36.9404 9.87176 36.3404 10.0078 35.6844 10.0078C34.8124 10.0078 34.1524 9.81176 33.7044 9.41976C33.2644 9.01976 33.0444 8.40376 33.0444 7.57176V5.54376H34.9164V7.45176C34.9164 7.84376 35.0164 8.12776 35.2164 8.30376C35.4244 8.47976 35.7204 8.56776 36.1044 8.56776C36.5924 8.56776 37.0524 8.46376 37.4844 8.25576V5.54376H39.3564ZM41.1539 5.54376H43.0139V9.38376L46.1579 5.54376H47.8739V11.9998H46.0139V8.15976L42.8819 11.9998H41.1539V5.54376ZM49.6734 5.54376H51.5334V9.38376L54.6774 5.54376H56.3934V11.9998H54.5334V8.15976L51.4014 11.9998H49.6734V5.54376ZM52.9134 4.84776C51.5054 4.84776 50.7974 4.22776 50.7894 2.98776H52.0134C52.0214 3.26776 52.0974 3.48776 52.2414 3.64776C52.3934 3.79976 52.6134 3.87576 52.9014 3.87576C53.1894 3.87576 53.4094 3.79976 53.5614 3.64776C53.7214 3.48776 53.8014 3.26776 53.8014 2.98776H55.0494C55.0414 4.22776 54.3294 4.84776 52.9134 4.84776ZM64.6634 12.0958C63.9754 12.0958 63.3554 11.9558 62.8034 11.6758C62.2594 11.3878 61.8314 10.9918 61.5194 10.4878C61.2154 9.98376 61.0634 9.41176 61.0634 8.77176C61.0634 8.13176 61.2154 7.55976 61.5194 7.05576C61.8314 6.55176 62.2594 6.15976 62.8034 5.87976C63.3554 5.59176 63.9754 5.44776 64.6634 5.44776C65.3434 5.44776 65.9354 5.59176 66.4394 5.87976C66.9514 6.15976 67.3234 6.56376 67.5554 7.09176L66.1034 7.87176C65.7674 7.27976 65.2834 6.98376 64.6514 6.98376C64.1634 6.98376 63.7594 7.14376 63.4394 7.46376C63.1194 7.78376 62.9594 8.21976 62.9594 8.77176C62.9594 9.32376 63.1194 9.75976 63.4394 10.0798C63.7594 10.3998 64.1634 10.5598 64.6514 10.5598C65.2914 10.5598 65.7754 10.2638 66.1034 9.67176L67.5554 10.4638C67.3234 10.9758 66.9514 11.3758 66.4394 11.6638C65.9354 11.9518 65.3434 12.0958 64.6634 12.0958ZM71.201 5.44776C72.201 5.44776 72.969 5.68776 73.505 6.16776C74.041 6.63976 74.309 7.35576 74.309 8.31576V11.9998H72.557V11.1958C72.205 11.7958 71.549 12.0958 70.589 12.0958C70.093 12.0958 69.661 12.0118 69.293 11.8438C68.933 11.6758 68.657 11.4438 68.465 11.1478C68.273 10.8518 68.177 10.5158 68.177 10.1398C68.177 9.53976 68.401 9.06776 68.849 8.72376C69.305 8.37976 70.005 8.20776 70.949 8.20776H72.437C72.437 7.79976 72.313 7.48776 72.065 7.27176C71.817 7.04776 71.445 6.93576 70.949 6.93576C70.605 6.93576 70.265 6.99176 69.929 7.10376C69.601 7.20776 69.321 7.35176 69.089 7.53576L68.417 6.22776C68.769 5.97976 69.189 5.78776 69.677 5.65176C70.173 5.51576 70.681 5.44776 71.201 5.44776ZM71.057 10.8358C71.377 10.8358 71.661 10.7638 71.909 10.6198C72.157 10.4678 72.333 10.2478 72.437 9.95976V9.29976H71.153C70.385 9.29976 70.001 9.55176 70.001 10.0558C70.001 10.2958 70.093 10.4878 70.277 10.6318C70.469 10.7678 70.729 10.8358 71.057 10.8358ZM83.1712 10.4638V13.3918H81.4312V11.9998H76.8952V13.3918H75.1552V10.4638H75.4192C75.8192 10.4558 76.0952 10.2198 76.2472 9.75576C76.3992 9.29176 76.4952 8.63176 76.5352 7.77576L76.6192 5.54376H82.2472V10.4638H83.1712ZM78.2272 7.90776C78.2032 8.56376 78.1512 9.09976 78.0712 9.51576C77.9992 9.93176 77.8592 10.2478 77.6512 10.4638H80.3752V7.07976H78.2632L78.2272 7.90776ZM87.3732 12.0958C86.6932 12.0958 86.0812 11.9558 85.5372 11.6758C85.0012 11.3878 84.5812 10.9918 84.2772 10.4878C83.9732 9.98376 83.8212 9.41176 83.8212 8.77176C83.8212 8.13176 83.9732 7.55976 84.2772 7.05576C84.5812 6.55176 85.0012 6.15976 85.5372 5.87976C86.0812 5.59176 86.6932 5.44776 87.3732 5.44776C88.0532 5.44776 88.6612 5.59176 89.1972 5.87976C89.7332 6.15976 90.1532 6.55176 90.4572 7.05576C90.7612 7.55976 90.9132 8.13176 90.9132 8.77176C90.9132 9.41176 90.7612 9.98376 90.4572 10.4878C90.1532 10.9918 89.7332 11.3878 89.1972 11.6758C88.6612 11.9558 88.0532 12.0958 87.3732 12.0958ZM87.3732 10.5598C87.8532 10.5598 88.2452 10.3998 88.5492 10.0798C88.8612 9.75176 89.0172 9.31576 89.0172 8.77176C89.0172 8.22776 88.8612 7.79576 88.5492 7.47576C88.2452 7.14776 87.8532 6.98376 87.3732 6.98376C86.8932 6.98376 86.4972 7.14776 86.1852 7.47576C85.8732 7.79576 85.7172 8.22776 85.7172 8.77176C85.7172 9.31576 85.8732 9.75176 86.1852 10.0798C86.4972 10.3998 86.8932 10.5598 87.3732 10.5598ZM95.0448 9.55176H94.0728V11.9998H92.2008V5.54376H94.0728V8.05176H95.0808L96.8328 5.54376H98.8248L96.5688 8.63976L98.9808 11.9998H96.7728L95.0448 9.55176Z" fill="#8F5E14"/>
<defs>
<clipPath id="clip0">
<rect width="17" height="17" fill="white" transform="translate(41.2578 26.9998)"/>
</clipPath>
</defs>
</svg>
