<svg width="102" height="102" viewBox="0 0 102 102" fill="none" xmlns="http://www.w3.org/2000/svg">
<circle cx="51" cy="51" r="51" fill="url(#paint0_radial)"/>
<g clip-path="url(#clip0)">
<path d="M54.2516 51.053V51.8125H51.5495V47.0566C51.5495 46.2598 51.5978 45.463 51.7064 44.6786L51.9235 43.0228H52.5146C52.9729 43.0228 53.3469 42.6368 53.3469 42.1513C53.3469 41.6657 52.9729 41.2798 52.5146 41.2798H48.4374C47.979 41.2798 47.605 41.6657 47.605 42.1513C47.605 42.6368 47.979 43.0228 48.4374 43.0228H49.0284L49.2456 44.6786C49.3421 45.463 49.4024 46.2598 49.4024 47.0566V51.8125H46.7003V51.053H44.5894V51.8125V53.4559V54.2153H46.7003V53.4559H49.4024V56.1824H46.7003V55.4229H44.5894V56.1824V57.8258V58.5852H46.7003V57.8258H49.4024V59.768H48.0514V61.9467H49.4024H51.5495H52.9006V59.768H51.5495V57.8258H54.2516V58.5852H56.3626V57.8258V56.1824V55.4229H54.2516V56.1824H51.5495V53.4559H54.2516V54.2153H56.3626V53.4559V51.8125V51.053H54.2516Z" fill="#8F5E14"/>
<path d="M52.5148 39.3374H51.9237L51.7066 37.7064C51.6101 36.9345 51.5498 36.1502 51.5498 35.3659V34.2827V32.4277V29.8754C51.5498 29.5144 51.3568 29.1782 51.0552 28.979C52.4665 27.6842 53.3833 26.7754 53.3833 25.6798C53.3833 24.746 52.6837 24.0239 51.7789 24.0239C51.2844 24.0239 50.7898 24.2605 50.4641 24.6589C50.1384 24.2729 49.6438 24.0239 49.1493 24.0239C48.2446 24.0239 47.5449 24.746 47.5449 25.6798C47.5449 26.7754 48.4617 27.6842 49.873 28.979C49.5715 29.1658 49.3785 29.5019 49.3785 29.8754V32.4277V34.457V35.3534C49.3785 36.1378 49.3302 36.9221 49.2216 37.694L49.0045 39.3249H48.4134C47.9551 39.3249 47.5811 39.7109 47.5811 40.184C47.5811 40.6571 47.9551 41.043 48.4134 41.043H52.5148C52.9732 41.043 53.3471 40.6571 53.3471 40.184C53.3471 39.7233 52.9732 39.3374 52.5148 39.3374Z" fill="#8F5E14"/>
<path d="M61.3208 24.8085C61.2243 21.8454 59.1133 19.9903 58.2448 19.2309C57.135 18.2598 55.9408 17.6622 54.819 17.3011V15.8694H54.0228V17.077C53.5041 16.9525 53.0096 16.8654 52.5633 16.8156C52.5633 16.8031 52.5633 16.7907 52.5633 16.7782C52.5633 14.8236 51.6344 13.23 50.4885 13.23C49.3425 13.23 48.4137 14.8236 48.4137 16.7782C48.4137 16.7907 48.4137 16.8031 48.4137 16.8156C47.9674 16.8654 47.4728 16.9401 46.9541 17.077V15.8694H46.1579V17.3011C45.0361 17.6622 43.8419 18.2598 42.7321 19.2309C41.8636 19.9903 39.7406 21.8454 39.6561 24.8085C39.5596 27.7965 41.6103 29.8009 42.0566 30.2491C44.0228 32.1788 46.2544 32.4154 46.9058 32.4029C47.1109 32.4029 47.5693 32.378 48.0277 32.0917C48.1965 31.9921 48.667 31.6933 48.8238 31.0957C48.9324 30.6848 48.9082 30.025 48.4981 29.7386C48.2207 29.5519 47.895 29.5892 47.8105 29.6017C47.4487 29.6515 47.2315 29.8631 47.0506 30.0001C46.2424 30.5852 45.024 30.3362 44.3847 30.0748C44.2279 30.0125 43.8298 29.8258 43.3594 29.3527C42.3099 28.3069 41.6344 26.5639 41.6947 24.9828C41.7792 22.5924 43.5524 20.3514 46.1579 19.3554V20.2518H46.9541V19.1562C47.0868 19.1437 47.2195 19.1313 47.3401 19.1313C48.5222 19.1686 49.6079 19.5795 50.4885 20.2642C51.369 19.5795 52.4547 19.1686 53.6368 19.1313C53.7575 19.1313 53.8902 19.1313 54.0228 19.1562V20.2518H54.819V19.3554C57.4245 20.3389 59.1978 22.5924 59.2822 24.9828C59.3425 26.5639 58.667 28.3069 57.6175 29.3527C57.1471 29.8258 56.749 30.0125 56.5922 30.0748C55.9529 30.3487 54.7345 30.5852 53.9263 30.0001C53.7454 29.8631 53.5283 29.6515 53.1664 29.6017C53.0699 29.5892 52.7442 29.5519 52.4788 29.7386C52.0687 30.025 52.0446 30.6848 52.1531 31.0957C52.3099 31.6933 52.7804 31.9921 52.9493 32.0917C53.4076 32.378 53.866 32.4029 54.0711 32.4029C54.7225 32.4154 56.9541 32.1788 58.9203 30.2491C59.3666 29.8009 61.4052 27.7965 61.3208 24.8085Z" fill="#8F5E14"/>
<path d="M77.9916 47.4424L77.9554 47.4299L77.6538 48.2641L77.69 48.2765L77.9916 47.4424Z" fill="#2D4E9D"/>
<path d="M81.3203 41.2905C80.9343 41.2905 80.9343 41.9006 81.3203 41.9006C81.7063 41.913 81.7063 41.2905 81.3203 41.2905Z" fill="#8F5E14"/>
<path d="M18.7758 43.6819C18.3898 43.6819 18.3898 44.2919 18.7758 44.2919C19.1618 44.2919 19.1618 43.6819 18.7758 43.6819Z" fill="#8F5E14"/>
<path d="M18.7751 42.9729C18.944 42.9729 18.944 42.699 18.7751 42.699C18.6062 42.699 18.6062 42.9729 18.7751 42.9729Z" fill="#8F5E14"/>
<path d="M80.79 45.238C80.404 45.238 80.404 45.8605 80.79 45.8605C81.176 45.8605 81.176 45.238 80.79 45.238Z" fill="#8F5E14"/>
<path d="M81.0551 43.3955C80.6691 43.3955 80.6691 44.018 81.0551 44.018C81.4411 44.018 81.4411 43.3955 81.0551 43.3955Z" fill="#8F5E14"/>
<path d="M27.6541 58.1617C28.1608 58.7842 28.6554 59.3195 29.1379 59.7802L32.3104 59.5685L42.8532 60.2533V59.5063L32.3104 58.8215V56.344L26.5806 56.7175C26.8942 57.1781 27.2561 57.6637 27.6541 58.1617Z" fill="#3E4752"/>
<path d="M25.0731 54.576L32.3108 53.6796L42.8536 55.074V54.327L32.3108 52.9326V50.4426L23.4326 51.5507C23.6497 52.0113 23.891 52.4969 24.1564 52.9949C24.4579 53.5551 24.7595 54.078 25.0731 54.576Z" fill="#3E4752"/>
<path d="M27.6538 58.1611C28.1604 58.7836 28.5947 59.319 29.0651 59.792H29.1375C28.6671 59.3065 28.1604 58.7712 27.6538 58.1611Z" fill="#2D4E9D"/>
<path d="M27.6538 58.1615C27.2557 57.6635 26.8938 57.1904 26.5802 56.7297H26.5078C26.8214 57.1779 27.2557 57.6635 27.6538 58.1615Z" fill="#2D4E9D"/>
<path d="M22.601 49.6338L32.3115 47.6044L42.8543 50.0571V49.3101L32.3115 46.8574V44.3799L21.5757 46.6333C21.7204 47.1064 21.8652 47.6044 22.0341 48.1149C22.215 48.6253 22.408 49.1482 22.601 49.6338Z" fill="#3E4752"/>
<path d="M21.056 44.5541L32.3105 41.8774L42.8533 44.6786V43.9316L32.3105 41.1304V38.6528L20.5493 41.4416C20.6096 41.9272 20.6699 42.4252 20.7544 42.9356C20.8509 43.5083 20.9474 44.0437 21.056 44.5541Z" fill="#3E4752"/>
<path d="M20.3804 39.4986L32.3105 35.9877L42.8533 39.4986V38.7516L32.3105 35.2407V32.7632L20.3684 36.2741C20.3563 36.7472 20.3442 37.2452 20.3442 37.7556C20.3442 38.3532 20.3563 38.9384 20.3804 39.4986Z" fill="#3E4752"/>
<path d="M36.3164 65.4455L42.8423 65.433V64.686L35.0498 64.7109C35.2428 64.8354 35.4479 64.9599 35.6529 65.0844C35.8821 65.2089 36.0993 65.3334 36.3164 65.4455Z" fill="#3E4752"/>
<path d="M73.4451 53.7541V50.8159L58.4512 52.4593V56.2939L73.4451 54.6381L74.3136 54.7377L74.8565 53.9035L73.4451 53.7541Z" fill="#3E4752"/>
<path d="M71.9735 57.875L58.4512 58.5971V62.4317L67.7033 61.9337C68.5235 61.2489 69.4403 60.5019 70.3088 59.6553C70.924 59.0577 71.4548 58.4601 71.9735 57.875Z" fill="#3E4752"/>
<path d="M61.1291 65.9293C61.9494 65.5558 62.7455 65.1325 63.4572 64.7466L58.4632 64.7341L58.4512 67.0249L61.1291 65.9293Z" fill="#3E4752"/>
<path d="M79.7536 34.9675C79.7657 34.7932 79.7536 34.6438 79.7415 34.5442C79.7054 34.5318 79.6812 34.5318 79.645 34.5193L73.4569 32.8012V29.863L58.4629 34.0338V37.8684L73.4569 33.6976L79.6933 35.4282C79.7295 35.4406 79.7777 35.4531 79.8139 35.4655C79.7657 35.2788 79.7536 35.1169 79.7536 35.0049C79.7536 34.9924 79.7536 34.98 79.7536 34.9675Z" fill="#3E4752"/>
<path d="M73.4451 39.7856V36.8474L58.4512 40.1716V44.0061L73.4451 40.682L79.4765 42.0141C79.5127 41.7278 79.5489 41.4414 79.5971 41.1551L73.4451 39.7856Z" fill="#3E4752"/>
<path d="M77.9566 47.4296L73.4451 46.5581V43.6199L58.4512 46.5207V50.3553L73.4451 47.4545L77.655 48.2637L77.9566 47.4296Z" fill="#3E4752"/>
<path d="M37.8834 7.37795C41.2731 5.9711 44.9522 5.16185 48.8123 5.0996C48.7881 5.08715 48.764 5.0747 48.752 5.0498C48.1488 5.03735 47.5457 5.01245 46.9305 5C43.0101 5.31125 39.2465 6.3695 35.7725 8.12494C35.8207 8.11249 35.8569 8.08759 35.9052 8.07515C36.5565 7.8386 37.1959 7.4402 37.8834 7.37795Z" fill="#8F5E14"/>
<path d="M18.2937 36.7476C18.2937 27.074 22.5157 18.4088 29.1623 12.5947C29.2708 12.383 29.3914 12.1838 29.5362 12.0095C28.7039 12.7067 27.9077 13.4537 27.1357 14.2381C21.3215 20.2514 18.1128 28.2443 18.1128 36.7476C18.1128 38.391 18.2334 40.0095 18.4626 41.6031C18.4747 41.1923 18.4867 40.7814 18.4867 40.3581C18.3661 39.1754 18.2937 37.9677 18.2937 36.7476Z" fill="#8F5E14"/>
<path d="M52.4184 68.3586C52.8044 68.3586 52.8044 67.7485 52.4184 67.7485C52.0324 67.7485 52.0324 68.3586 52.4184 68.3586Z" fill="#8F5E14"/>
<path d="M30.9829 10.7026C31.3689 10.7026 31.3689 10.0925 30.9829 10.0925C30.5969 10.0925 30.5969 10.7026 30.9829 10.7026Z" fill="#8F5E14"/>
<path d="M33.2509 9.74362C33.444 9.74362 33.444 9.43237 33.2509 9.43237C33.07 9.44482 33.07 9.74362 33.2509 9.74362Z" fill="#8F5E14"/>
<path d="M81.8885 36.0376C81.8764 35.7388 81.8523 35.4275 81.8282 35.1287C81.2491 27.5716 78.1128 20.5498 72.8656 15.134C69.874 12.0465 66.3879 9.68096 62.5881 8.08736C59.3915 6.49376 55.9415 5.47286 52.3589 5.08691C52.3107 5.12426 52.2624 5.13671 52.19 5.13671H50.6339C53.8668 5.29856 56.9789 5.98331 59.874 7.11626C57.0272 6.24476 54.0356 5.78411 50.9838 5.78411C42.7208 5.78411 34.9524 9.10826 29.102 15.134C23.5652 20.8486 20.3806 28.3559 20.067 36.3737C20.0549 36.8219 20.0429 37.2701 20.0429 37.7183C20.0429 38.3533 20.0549 38.9758 20.0911 39.5983C20.1273 40.2457 20.1876 40.8931 20.26 41.528C20.3806 42.5738 20.5495 43.6196 20.7666 44.6405C20.9114 45.3252 21.0803 46.01 21.2733 46.6947C21.5628 47.7156 21.9005 48.7241 22.2865 49.7201C22.5399 50.355 22.8052 50.99 23.0947 51.6C23.5773 52.6334 24.1201 53.6543 24.7112 54.6254C25.1575 55.3475 25.6279 56.0696 26.1225 56.7543C26.8945 57.825 27.7268 58.8459 28.6315 59.817C28.7884 59.9789 28.9331 60.1407 29.0899 60.3026C29.7534 60.9873 30.4289 61.6223 31.1406 62.2323C31.5266 62.556 31.9126 62.8797 32.2986 63.191C32.3951 63.2657 32.5037 63.3528 32.6002 63.4275C32.5037 63.3653 32.3951 63.2906 32.2986 63.2283C31.8282 62.9171 31.3698 62.5809 30.9235 62.2448C29.9464 61.5102 29.0175 60.701 28.137 59.8544C27.1478 58.9082 26.2311 57.8873 25.3746 56.8166C24.8438 56.1443 24.3372 55.4595 23.8547 54.7374C23.2033 53.7663 22.6122 52.7703 22.0694 51.7245C21.7678 51.1394 21.4783 50.5418 21.2009 49.9442C20.7666 48.9731 20.3806 47.9771 20.0429 46.9562C19.8378 46.3212 19.6448 45.6863 19.4759 45.0264C19.4759 45.263 19.4759 45.4995 19.4639 45.7361C19.5845 46.1594 19.7172 46.5702 19.8499 46.9935C20.1876 48.0144 20.5616 49.0104 20.9958 49.9815C21.2612 50.5791 21.5387 51.1643 21.8402 51.7494C22.371 52.7828 22.9741 53.7912 23.6134 54.7623C24.0839 55.472 24.5905 56.1567 25.1092 56.829C25.7727 57.6756 26.4844 58.4849 27.2443 59.2692C27.4494 59.4809 27.6424 59.6801 27.8475 59.8793C28.716 60.7259 29.6207 61.5227 30.5736 62.2572C31.1285 62.693 31.6955 63.1038 32.2865 63.4898C32.9259 63.9255 33.5893 64.3239 34.2648 64.7099C34.5302 64.8593 34.8077 65.0087 35.073 65.1581C35.2419 65.2577 35.4108 65.3697 35.5797 65.4693C40.2118 68.2208 45.4711 69.6774 50.9596 69.6774C53.7099 69.6774 56.412 69.3039 58.9934 68.5943C61.9729 67.7726 64.8197 66.4902 67.4373 64.7846C68.8125 63.8882 70.1152 62.8797 71.3577 61.7592C71.8643 61.2986 72.3589 60.8255 72.8414 60.3275C73.0344 60.1283 73.2395 59.9166 73.4325 59.705C74.7594 58.2608 75.9536 56.7045 76.9789 55.0611C77.1478 54.7872 77.3167 54.5009 77.4856 54.227C78.4988 52.484 79.3553 50.6538 80.0308 48.7614C80.0429 48.7241 80.067 48.6743 80.0791 48.6369C80.0549 48.6618 80.0429 48.6992 80.0187 48.7241C80.0067 48.7365 80.0067 48.749 79.9946 48.7614C79.9343 48.8361 79.8499 48.8735 79.7775 48.8735C79.6931 49.0104 79.6086 49.1349 79.5242 49.2719C79.4518 49.4088 79.3915 49.5458 79.3432 49.6952C79.3191 49.7823 79.2588 49.8446 79.1864 49.8819C78.5833 51.3759 77.8595 52.8201 77.0513 54.1896C76.8824 54.476 76.7136 54.7499 76.5447 55.0238C75.6159 56.4804 74.5785 57.8624 73.4325 59.1447C72.5881 60.0909 71.6955 60.9749 70.7425 61.809C69.488 62.9171 68.137 63.9131 66.7136 64.797C64.1683 66.3782 61.3818 67.5983 58.4385 68.3577C56.0501 68.9802 53.5411 69.3164 50.9717 69.3164C47.184 69.3164 43.5531 68.6067 40.1997 67.2995C42.576 68.034 45.0489 68.4698 47.57 68.5943H47.558C47.4735 68.5818 47.377 68.5818 47.2926 68.5694C47.2081 68.5569 47.1478 68.5196 47.0996 68.4698L46.0863 68.3702C46.0139 68.3577 45.9536 68.3328 45.9054 68.283C42.9862 67.9718 40.1997 67.2372 37.5821 66.1416C37.1719 65.9424 36.7739 65.7183 36.3879 65.5067C36.1707 65.3946 35.9536 65.2701 35.7365 65.1332C35.5314 65.0087 35.3263 64.8842 35.1333 64.7597C34.1563 64.1496 33.2154 63.4773 32.3107 62.7552C32.1177 62.6058 31.9367 62.444 31.7437 62.2946C30.827 61.5351 29.9584 60.7134 29.1382 59.8419H29.0658C28.5953 59.3688 28.1611 58.8335 27.6545 58.211C27.2564 57.713 26.8221 57.2399 26.5085 56.7792H26.5809C26.0742 56.082 25.5917 55.3724 25.1333 54.6254C24.8318 54.1398 24.5181 53.6045 24.2166 53.0442C23.9512 52.5462 23.7099 52.0607 23.4928 51.6C23.1912 50.9775 22.9138 50.3301 22.6605 49.6827C22.4675 49.1972 22.2865 48.6743 22.1056 48.1389C21.9367 47.6285 21.7799 47.1429 21.6472 46.6574C21.4542 45.9851 21.2853 45.3003 21.1285 44.6031C21.02 44.0927 20.9235 43.5574 20.827 42.9971C20.7425 42.4742 20.6701 41.9762 20.6219 41.5031C20.5495 40.8557 20.4892 40.2083 20.453 39.5485C20.4289 38.9882 20.4168 38.4031 20.4168 37.793C20.4168 37.2826 20.4289 36.797 20.4409 36.3115C21.1768 19.5413 34.5905 6.15761 50.9838 6.15761C55.9536 6.15761 60.6581 7.39016 64.8197 9.58136C73.1912 14.7605 78.9693 23.9362 79.681 34.5311L79.7292 35.44C79.7413 35.8757 79.7534 36.3115 79.7534 36.7472C79.7534 38.1914 79.6569 39.6232 79.4759 41.0176C79.4759 41.0051 79.4759 40.9927 79.4759 40.9802C79.4759 40.9927 79.4759 41.0051 79.4759 41.0176C79.4759 41.0549 79.4639 41.0798 79.4639 41.1172L79.3432 41.9762C79.3432 42.0011 79.3312 42.0136 79.3312 42.0385C79.3312 42.0509 79.3312 42.0634 79.3312 42.0758C79.3312 42.0634 79.3312 42.0509 79.3312 42.0385C79.0296 43.8811 78.5712 45.6614 77.9801 47.3795L77.9922 47.3546L77.9801 47.3795C77.9801 47.3919 77.9681 47.4168 77.9681 47.4293H78.0043L77.7027 48.2634L77.6665 48.251L77.6545 48.3008V48.2883C76.9066 50.2554 75.9777 52.1229 74.88 53.8659V53.8535V53.8659C74.88 53.8784 74.868 53.8784 74.868 53.8908L74.3251 54.725L74.3131 54.7374V54.7499V54.7374C73.6255 55.7583 72.8776 56.7419 72.0815 57.6756C72.0935 57.6632 72.0935 57.6632 72.1056 57.6507C72.0935 57.6632 72.0935 57.6632 72.0815 57.6756C72.0332 57.7379 71.9729 57.8001 71.9247 57.8624H71.9126C71.3818 58.4351 70.8149 59.0327 70.1997 59.6303C69.3312 60.4769 68.4627 61.2488 67.6424 61.9211H67.6545C67.6183 61.946 67.5941 61.9709 67.558 61.9958C67.5459 62.0082 67.5459 62.0082 67.5338 62.0207C67.5459 62.0082 67.5459 62.0082 67.558 61.9958C66.2672 63.0042 64.88 63.9131 63.4446 64.7099C63.4928 64.685 63.5411 64.6601 63.5893 64.6352C63.5411 64.6601 63.4928 64.685 63.4446 64.7099C63.4204 64.7223 63.4084 64.7348 63.3842 64.7472C62.6846 65.1332 61.9247 65.5067 61.1044 65.8802C60.1635 66.3035 59.2709 66.6645 58.4265 66.9633C58.2214 67.0754 58.0163 67.1874 57.8233 67.2995C58.0405 67.2372 58.2576 67.1625 58.4747 67.0878C60.3203 66.4778 62.1056 65.6934 63.8185 64.7472C65.2781 63.9255 66.6894 62.9793 68.0163 61.9086C69.0296 61.0869 70.0067 60.203 70.9235 59.2568C71.3698 58.7961 71.792 58.3355 72.2021 57.8499C73.0586 56.8664 73.8426 55.8206 74.5543 54.7499C74.7353 54.476 74.9162 54.2021 75.0972 53.9157C76.2069 52.1354 77.1358 50.2554 77.8716 48.2883C77.9801 48.0144 78.0766 47.7281 78.1731 47.4542C78.7763 45.6863 79.2347 43.8686 79.5362 42.0135C79.5845 41.7272 79.6207 41.4409 79.6689 41.1545C79.8619 39.7103 79.9584 38.2288 79.9584 36.7472C79.9584 36.3239 79.9464 35.9131 79.9343 35.4898C79.9222 35.191 79.9102 34.8797 79.8861 34.5809C79.3915 26.8868 76.2552 19.7281 70.9235 14.2252C69.8137 13.0798 68.6315 12.034 67.3891 11.0878C75.2057 16.2421 80.6219 24.9695 81.4421 35.0291C81.4663 35.3279 81.4904 35.6392 81.5025 35.938C81.5386 36.5356 81.5507 37.1207 81.5507 37.7308C81.5507 37.793 81.5507 37.8553 81.5507 37.9175C81.5628 37.8926 81.5869 37.8802 81.611 37.8553C81.7075 37.3324 81.804 36.8095 81.8885 36.2866C81.8885 36.187 81.8885 36.1123 81.8885 36.0376Z" fill="#8F5E14"/>
<path d="M17.0624 75.3924C17.3036 75.4049 17.4243 75.4173 17.6655 75.4422C18.341 78.3306 19.0165 81.219 19.6921 84.095H21.9116C21.1034 80.6961 20.2952 77.3097 19.4991 73.9109C20.2711 70.7237 20.9707 67.8602 21.7307 64.673C20.8621 64.5236 20.4279 64.424 19.5473 64.312C18.908 66.9265 18.2928 69.4538 17.6655 72.0558C17.4243 72.0309 17.4605 72.0309 17.2192 72.006C17.2192 69.3418 17.2192 66.6899 17.2192 64.0256C16.3989 63.9634 15.832 63.8513 15.0117 63.8513C15.0117 70.4623 15.0117 77.4591 15.0117 84.0825H17.2192C17.1951 81.2688 17.0624 78.1937 17.0624 75.3924Z" fill="#3E4752"/>
<path d="M25.7357 76.4513C26.9058 76.6132 27.4848 76.7626 28.6428 76.9244C28.6428 79.3148 28.6428 81.7177 28.6428 84.1081H30.416C30.416 78.0698 30.416 73.0525 30.416 67.0267C29.7767 66.8026 29.3063 66.5785 28.6428 66.4166C28.6428 69.0436 28.6428 71.1352 28.6428 73.7621C27.4727 73.6003 26.8937 73.4633 25.7357 73.289C25.7357 70.6621 25.7357 68.197 25.7357 65.57C25.0119 65.3833 24.6018 65.209 23.8057 65.1094C23.8057 71.3468 23.8057 77.8706 23.8057 84.1081H25.7357C25.7357 81.5807 25.7357 78.9413 25.7357 76.4513Z" fill="#3E4752"/>
<path d="M36.4597 77.4715C37.1111 77.5836 36.9784 77.6334 37.6418 77.7205C37.6418 79.2394 37.6418 82.3644 37.6418 84.1074H39.5719C39.5719 79.9989 39.5719 73.9233 39.5719 70.0015C38.1364 69.6405 37.3403 69.3168 35.8445 69.0802C34.9036 68.9308 34.1678 69.2172 33.6491 69.9268C33.1304 70.6365 32.865 71.62 32.865 72.8028C32.865 73.7241 33.0218 74.6703 33.3234 75.3675C33.6249 76.0647 34.0592 76.5751 34.6261 76.9237C34.1436 78.0442 33.0942 81.8788 32.3945 84.1074H34.3969C35.0725 81.966 35.941 78.6543 36.4597 77.4715ZM35.1448 71.7943C35.4343 71.4457 35.5429 71.3088 36.0857 71.3959C36.7733 71.508 36.9181 71.6325 37.6418 71.8068C37.6418 73.3381 37.6418 73.7739 37.6418 75.3052C36.9542 75.2181 36.9181 75.1558 36.2425 75.0438C35.6997 74.9566 35.4343 74.994 35.1448 74.5458C34.8553 74.0976 34.7106 73.9855 34.7106 73.2385C34.7106 72.5413 34.8553 72.1429 35.1448 71.7943Z" fill="#3E4752"/>
<path d="M44.2991 73.0398C45.9396 73.2141 46.3015 73.2763 47.93 73.2639C47.93 72.5791 47.93 71.7575 47.93 71.0727C46.012 71.0229 44.1423 70.7365 42.2002 70.5C42.2002 74.2723 42.2002 80.074 42.2002 84.0954H44.2991C44.2991 80.6343 44.2991 76.2145 44.2991 73.0398Z" fill="#3E4752"/>
<path d="M54.2887 76.3642C54.2887 78.8915 54.2887 81.5558 54.2887 84.0956H56.3514C56.3514 79.8377 56.3514 74.8702 56.3514 70.6372C55.7241 70.7617 55.121 70.8364 54.5299 70.8613C53.4201 73.6252 52.7929 76.3268 51.671 79.0783C51.671 76.3766 51.671 73.7497 51.671 71.0481C50.9714 71.0854 50.4648 71.0854 49.7651 71.0854C49.7651 75.281 49.7651 79.8751 49.7651 84.0956H51.5625C52.5878 81.4811 53.2271 78.9911 54.2887 76.3642Z" fill="#3E4752"/>
<path d="M61.2243 78.1441C62.7321 78.0694 62.4064 77.9947 63.9142 77.92C63.9142 79.8746 63.9142 82.1156 63.9142 84.1076H65.8805C65.8805 79.2272 65.8805 73.2761 65.8805 68.4082C65.2291 68.6199 64.5174 68.8315 63.9142 68.9685C63.9142 71.0476 63.9142 73.3633 63.9142 75.43C62.4064 75.5047 62.7321 75.5794 61.2243 75.6541C61.2243 73.5749 61.2243 71.6826 61.2243 69.6159C60.5729 69.7777 59.7647 70.0018 59.1133 70.1139C59.1133 74.9942 59.1133 79.2272 59.1133 84.1076H61.2243C61.2243 82.1156 61.2243 80.1236 61.2243 78.1441Z" fill="#3E4752"/>
<path d="M80.2104 76.1272C81.7182 76.0401 81.5493 75.9156 83.0451 75.8284C83.0451 78.4803 83.0451 81.4185 83.0451 84.0952H85.0113C85.0113 77.5341 85.0113 70.4252 85.0113 63.864C84.4082 63.864 83.6482 63.9885 83.0451 64.0259C83.0451 66.8022 83.0451 69.7155 83.0451 72.4918C81.5373 72.579 81.7061 72.7035 80.2104 72.7906C80.2104 70.0143 80.2104 67.1508 80.2104 64.3745C79.5469 64.4616 78.9197 64.6235 78.2441 64.6982C78.2441 71.222 78.2441 77.559 78.2441 84.0952H80.2104C80.2104 81.4434 80.2104 78.7791 80.2104 76.1272Z" fill="#3E4752"/>
<path d="M73.4679 71.8065V84.0946H75.4703V65.2952L73.1663 65.8928L70.7658 78.3303V66.6398L68.6187 67.4117V84.0946H71.0794L73.4679 71.8065Z" fill="#3E4752"/>
<path d="M33.8666 88.5032C33.7942 88.5032 33.7339 88.4783 33.6615 88.4409C33.6012 88.4036 33.5288 88.3289 33.4444 88.2044L32.998 87.5072L33.8183 86.2871H33.372L32.7327 87.2457C32.6241 87.308 32.4793 87.3454 32.3225 87.3454V86.2747H31.9606V87.3454C31.8038 87.3454 31.6591 87.308 31.5505 87.2457L30.9232 86.2871H30.4769L31.2972 87.5072L30.8509 88.2044C30.7785 88.3164 30.7061 88.4036 30.6337 88.4409C30.5734 88.4783 30.5011 88.5032 30.4287 88.5032H30.3442V88.8891H30.4649C30.5493 88.8891 30.6337 88.8767 30.7061 88.8642C30.7785 88.8518 30.8388 88.8144 30.9112 88.7522C30.9836 88.6899 31.0559 88.6028 31.1283 88.4783L31.6108 87.6815C31.7073 87.7313 31.828 87.7437 31.9486 87.7437V88.8767H32.3105V87.7437C32.4432 87.7437 32.5517 87.7188 32.6603 87.6815L33.1428 88.4783C33.2152 88.6028 33.2875 88.6899 33.3599 88.7522C33.4323 88.8144 33.4926 88.8518 33.565 88.8642C33.6253 88.8767 33.7097 88.8891 33.8062 88.8891H33.9389V88.5032H33.8666Z" fill="#3E4752"/>
<path d="M34.9283 88.2901V86.2856H34.5664V88.8753H34.9283L36.3999 86.8832V88.8753H36.7618V86.2856H36.3999L34.9283 88.2901Z" fill="#3E4752"/>
<path d="M37.2314 86.6716H38.1241V88.8753H38.486V86.6716H39.3666V86.2856H37.2314V86.6716Z" fill="#3E4752"/>
<path d="M40.0545 86.6731H40.344C40.3078 86.9968 40.2716 87.2831 40.2113 87.5196C40.151 87.7562 40.0666 87.9803 39.9459 88.1795C39.8615 88.3164 39.7891 88.4036 39.7168 88.4409C39.6444 88.4783 39.5841 88.5032 39.4996 88.5032H39.4272V88.8767H39.4996C39.7409 88.8767 39.9339 88.7895 40.0666 88.6277C40.3923 88.2293 40.5973 87.5695 40.6818 86.6606H41.4055V88.8642H41.7674V86.2747H39.8736L40.0545 86.6731Z" fill="#3E4752"/>
<path d="M44.3851 86.3979C44.18 86.2734 43.9508 86.2112 43.7096 86.2112C43.4683 86.2112 43.2512 86.2734 43.0461 86.3855C42.8411 86.4975 42.6722 86.6594 42.5515 86.871C42.4309 87.0702 42.3706 87.2943 42.3706 87.5433C42.3706 87.8048 42.4309 88.0289 42.5515 88.253C42.6722 88.4646 42.829 88.6389 43.0341 88.751C43.2391 88.8755 43.4683 88.9377 43.7216 88.9377C43.9629 88.9377 44.18 88.8755 44.3972 88.7634C44.6022 88.6389 44.7711 88.4771 44.8917 88.2779C45.0124 88.0662 45.0727 87.8421 45.0727 87.5931C45.0727 87.3441 45.0124 87.1076 44.8917 86.8959C44.747 86.6843 44.5902 86.5224 44.3851 86.3979ZM44.554 88.0662C44.4695 88.2156 44.3489 88.3401 44.1921 88.4273C44.0353 88.5144 43.8785 88.5642 43.6975 88.5642C43.5286 88.5642 43.3598 88.5269 43.2029 88.4397C43.0461 88.3526 42.9255 88.2405 42.8411 88.0911C42.7446 87.9417 42.7084 87.7799 42.7084 87.5931C42.7084 87.4064 42.7566 87.2321 42.8411 87.0827C42.9255 86.9333 43.0461 86.8088 43.2029 86.7216C43.3598 86.6345 43.5166 86.5971 43.7096 86.5971C43.8905 86.5971 44.0473 86.6345 44.2041 86.7216C44.361 86.8088 44.4816 86.9208 44.566 87.0702C44.6505 87.2196 44.6987 87.3815 44.6987 87.5682C44.6867 87.755 44.6505 87.9168 44.554 88.0662Z" fill="#3E4752"/>
<path d="M47.4138 87.5058C47.4862 87.456 47.5465 87.3937 47.5827 87.2941C47.6189 87.207 47.643 87.1073 47.643 86.9953C47.643 86.7712 47.5707 86.5969 47.438 86.4724C47.3053 86.3479 47.1243 86.2856 46.9072 86.2856H45.6406V88.8753H46.9072C47.052 88.8753 47.1967 88.8504 47.3294 88.8006C47.4621 88.7508 47.5707 88.6761 47.643 88.564C47.7275 88.452 47.7637 88.3275 47.7637 88.1656C47.7637 88.0038 47.7275 87.8544 47.6672 87.7423C47.5827 87.6303 47.5103 87.5556 47.4138 87.5058ZM45.9904 86.6716H46.8951C47.1485 86.6716 47.2691 86.7836 47.2691 86.9953C47.2691 87.1073 47.2329 87.207 47.1726 87.2568C47.1123 87.319 47.0158 87.3439 46.8951 87.3439H46.4609C46.3644 87.3439 46.28 87.3563 46.2076 87.3688C46.1352 87.3812 46.0628 87.4062 45.9904 87.456V86.6716ZM47.3294 88.3275C47.2812 88.3897 47.2208 88.4271 47.1605 88.452C47.0882 88.4769 47.0158 88.4893 46.9434 88.4893H46.0025V87.8419C46.1231 87.7672 46.292 87.7423 46.485 87.7423H46.9193C47.064 87.7423 47.1847 87.7672 47.2812 87.8295C47.3777 87.8917 47.4259 87.9789 47.4259 88.1283C47.3897 88.203 47.3656 88.2777 47.3294 88.3275Z" fill="#3E4752"/>
<path d="M48.7275 88.2901V86.2856H48.3535V88.8753H48.7275L50.1991 86.8832V88.8753H50.561V86.2856H50.1991L48.7275 88.2901Z" fill="#3E4752"/>
<path d="M52.4188 86.0996C52.6359 86.0996 52.7928 86.0498 52.8893 85.9502C52.9858 85.8506 53.0461 85.7261 53.0581 85.6016H52.6721C52.6721 85.6763 52.648 85.7385 52.6118 85.7883C52.5756 85.8381 52.5033 85.863 52.4068 85.863C52.3103 85.863 52.2379 85.8381 52.2017 85.7883C52.1655 85.7385 52.1414 85.6763 52.1414 85.6016H51.7554C51.7674 85.7385 51.8277 85.8506 51.9242 85.9502C52.0449 86.0498 52.2017 86.0996 52.4188 86.0996Z" fill="#3E4752"/>
<path d="M51.6592 88.2901V86.2856H51.2974V88.8753H51.6592L53.143 86.8832V88.8753H53.5048V86.2856H53.143L51.6592 88.2901Z" fill="#3E4752"/>
<path d="M57.3537 86.2856H56.063V88.8753H56.4249V87.8793C56.5455 87.8046 56.7144 87.7797 56.9074 87.7797H57.3537C57.5708 87.7797 57.7518 87.7174 57.8845 87.5805C58.0172 87.4435 58.0895 87.2568 58.0895 87.0327C58.0895 86.8085 58.0292 86.6218 57.8965 86.4973C57.7638 86.3728 57.5708 86.2856 57.3537 86.2856ZM57.3537 87.3937H56.9074C56.8109 87.3937 56.7264 87.4062 56.6541 87.4186C56.5817 87.4311 56.5093 87.456 56.4369 87.5058V86.6716H57.3537C57.4743 86.6716 57.5708 86.6965 57.6312 86.7587C57.6915 86.8085 57.7277 86.9082 57.7277 87.0327C57.7277 87.2692 57.595 87.3937 57.3537 87.3937Z" fill="#3E4752"/>
<path d="M59.1746 86.2485L59.3073 86.5722L58.2217 88.8879H58.6198L58.6801 88.7634C58.7042 88.7261 58.7404 88.6887 58.8007 88.6514C58.861 88.614 58.9454 88.5767 59.054 88.5518C59.1626 88.5269 59.2832 88.5144 59.428 88.5144H60.1879L60.3568 88.8879H60.7669L59.5606 86.2485H59.1746ZM59.5727 88.116C59.4159 88.116 59.2711 88.1285 59.1746 88.1534C59.0661 88.1783 58.9937 88.2156 58.9334 88.2654L59.4883 87.0329L60.0311 88.1285H59.5727V88.116Z" fill="#3E4752"/>
<path d="M61.6119 88.2901V86.2856H61.25V88.8753H61.6119L63.0956 86.8832V88.8753H63.4575V86.2856H63.0956L61.6119 88.2901Z" fill="#3E4752"/>
<path d="M62.3705 86.0996C62.5876 86.0996 62.7444 86.0498 62.8409 85.9502C62.9374 85.8506 62.9978 85.7261 63.0098 85.6016H62.6238C62.6238 85.6763 62.5997 85.7385 62.5635 85.7883C62.5273 85.8381 62.4549 85.863 62.3584 85.863C62.2619 85.863 62.1895 85.8381 62.1534 85.7883C62.1172 85.7385 62.093 85.6763 62.093 85.6016H61.707C61.7191 85.7385 61.7794 85.8506 61.8759 85.9502C61.9965 86.0498 62.1534 86.0996 62.3705 86.0996Z" fill="#3E4752"/>
<path d="M66.0491 86.3979C65.8441 86.2734 65.6149 86.2112 65.3736 86.2112C65.1324 86.2112 64.9152 86.2734 64.7102 86.3855C64.5051 86.4975 64.3362 86.6594 64.2156 86.871C64.095 87.0702 64.0347 87.2943 64.0347 87.5433C64.0347 87.8048 64.095 88.0289 64.2156 88.253C64.3362 88.4646 64.4931 88.6389 64.6981 88.751C64.9032 88.8755 65.1324 88.9377 65.3857 88.9377C65.6269 88.9377 65.8441 88.8755 66.0612 88.7634C66.2663 88.6389 66.4351 88.4771 66.5558 88.2779C66.6764 88.0662 66.7367 87.8421 66.7367 87.5931C66.7367 87.3441 66.6764 87.1076 66.5558 86.8959C66.4231 86.6843 66.2542 86.5224 66.0491 86.3979ZM66.2301 88.0662C66.1456 88.2156 66.025 88.3401 65.8682 88.4273C65.7114 88.5144 65.5546 88.5642 65.3736 88.5642C65.2047 88.5642 65.0359 88.5269 64.8791 88.4397C64.7222 88.3526 64.6016 88.2405 64.5172 88.0911C64.4207 87.9417 64.3845 87.7799 64.3845 87.5931C64.3845 87.4064 64.4327 87.2321 64.5172 87.0827C64.6016 86.9333 64.7222 86.8088 64.8791 86.7216C65.0359 86.6345 65.1927 86.5971 65.3857 86.5971C65.5666 86.5971 65.7234 86.6345 65.8803 86.7216C66.0371 86.8088 66.1577 86.9208 66.2421 87.0702C66.3266 87.2196 66.3748 87.3815 66.3748 87.5682C66.3628 87.755 66.3145 87.9168 66.2301 88.0662Z" fill="#3E4752"/>
<path d="M69.1382 86.2856V87.2941C69.0417 87.3439 68.9332 87.3564 68.8005 87.3564C68.716 87.3564 68.5592 87.3439 68.3059 87.3065C68.1491 87.2816 68.0405 87.2692 67.9802 87.2692C67.8596 87.2692 67.751 87.2941 67.6666 87.3439V86.2856H67.3047V88.8753H67.6666V87.7299C67.751 87.6801 67.8596 87.6552 67.9802 87.6552C68.0405 87.6552 68.1491 87.6676 68.3059 87.6925C68.5592 87.7174 68.716 87.7423 68.8005 87.7423C68.9332 87.7423 69.0417 87.7174 69.1382 87.6801V88.8877H69.5001V86.2981H69.1382V86.2856Z" fill="#3E4752"/>
</g>
<defs>
<radialGradient id="paint0_radial" cx="0" cy="0" r="1" gradientUnits="userSpaceOnUse" gradientTransform="translate(51 51) rotate(90) scale(51)">
<stop stop-color="#F9F7F1"/>
<stop offset="0.717958" stop-color="#F9F7F1" stop-opacity="0.536492"/>
<stop offset="1" stop-color="#F9F7F1" stop-opacity="0"/>
</radialGradient>
<clipPath id="clip0">
<rect width="70" height="84" fill="white" transform="translate(15 5)"/>
</clipPath>
</defs>
</svg>
