<svg width="123" height="61" viewBox="0 0 123 61" fill="none" xmlns="http://www.w3.org/2000/svg">
<path d="M61.0382 60.4079C61.2323 60.6079 61.4877 60.7026 61.7432 60.7026C61.9986 60.7026 62.254 60.6079 62.4482 60.4079C63.051 59.8081 77.2432 45.6116 77.2432 33.6671C77.2432 24.8693 70.2952 17.7026 61.7432 17.7026C53.1911 17.7026 46.2432 24.8693 46.2432 33.6671C46.2432 45.6116 60.4353 59.8081 61.0382 60.4079Z" fill="#8F5E14"/>
<g clip-path="url(#clip0)">
<path d="M60.5811 31.5205H61.2451V32.1845C61.2451 32.4595 61.4681 32.6825 61.7432 32.6825C62.0182 32.6825 62.2412 32.4595 62.2412 32.1845V31.5205H62.9053C63.1803 31.5205 63.4033 31.2976 63.4033 31.0225C63.4033 30.7475 63.1803 30.5246 62.9053 30.5246H62.2412V29.8605C62.2412 29.5855 62.0182 29.3625 61.7432 29.3625C61.4681 29.3625 61.2451 29.5855 61.2451 29.8605V30.5245H60.5811C60.306 30.5245 60.083 30.7475 60.083 31.0225C60.083 31.2975 60.306 31.5205 60.5811 31.5205Z" fill="#E9DFD0"/>
<path d="M69.7451 30.5246H65.0635V28.894C65.0635 28.2371 64.529 27.7026 63.872 27.7026H59.6143C58.9574 27.7026 58.4229 28.2371 58.4229 28.894V30.5246H53.7412C53.4662 30.5246 53.2432 30.7476 53.2432 31.0226V44.2047C53.2432 44.4797 53.4662 44.7026 53.7412 44.7026H69.7451C70.0202 44.7026 70.2432 44.4797 70.2432 44.2047C70.2432 43.7056 70.2432 31.5226 70.2432 31.0226C70.2432 30.7476 70.0202 30.5246 69.7451 30.5246ZM69.2471 31.5206V33.3466H65.0635V31.5206H69.2471ZM59.4189 28.894C59.4189 28.7863 59.5066 28.6986 59.6143 28.6986H63.872C63.9797 28.6986 64.0674 28.7863 64.0674 28.894V33.3466H59.4189C59.4189 33.2499 59.4189 28.9886 59.4189 28.894ZM54.2393 31.5206H58.4229V33.3466H54.2393V31.5206ZM61.2555 37.2185V43.7066H59.2311V37.2185H61.2555ZM64.2552 37.2185V43.7066H62.2516V37.2185H64.2552ZM58.235 43.7066H56.2314V37.2185H58.235V43.7066ZM65.2513 43.7066V37.2185H67.2549V43.7066H65.2513ZM69.2471 43.7066H68.251V36.7205C68.251 36.4455 68.028 36.2226 67.7529 36.2226H55.7334C55.4583 36.2226 55.2354 36.4455 55.2354 36.7205V43.7066H54.2393V34.3426H69.2471V43.7066Z" fill="#E9DFD0"/>
</g>
<path d="M9.43165 12.7026L9.41965 7.67464L6.94765 11.8146H6.08365L3.61165 7.77064V12.7026H1.78765V4.30264H3.39565L6.53965 9.52264L9.63565 4.30264H11.2437L11.2557 12.7026H9.43165ZM13.1863 6.24664H15.0583V12.7026H13.1863V6.24664ZM14.1223 5.34664C13.7783 5.34664 13.4983 5.24664 13.2823 5.04664C13.0663 4.84664 12.9583 4.59864 12.9583 4.30264C12.9583 4.00664 13.0663 3.75864 13.2823 3.55864C13.4983 3.35864 13.7783 3.25864 14.1223 3.25864C14.4663 3.25864 14.7463 3.35464 14.9623 3.54664C15.1783 3.73864 15.2863 3.97864 15.2863 4.26664C15.2863 4.57864 15.1783 4.83864 14.9623 5.04664C14.7463 5.24664 14.4663 5.34664 14.1223 5.34664ZM19.9266 12.7986C19.2386 12.7986 18.6186 12.6586 18.0666 12.3786C17.5226 12.0906 17.0946 11.6946 16.7826 11.1906C16.4786 10.6866 16.3266 10.1146 16.3266 9.47464C16.3266 8.83464 16.4786 8.26264 16.7826 7.75864C17.0946 7.25464 17.5226 6.86264 18.0666 6.58264C18.6186 6.29464 19.2386 6.15064 19.9266 6.15064C20.6066 6.15064 21.1986 6.29464 21.7026 6.58264C22.2146 6.86264 22.5866 7.26664 22.8186 7.79464L21.3666 8.57464C21.0306 7.98264 20.5466 7.68664 19.9146 7.68664C19.4266 7.68664 19.0226 7.84664 18.7026 8.16664C18.3826 8.48664 18.2226 8.92264 18.2226 9.47464C18.2226 10.0266 18.3826 10.4626 18.7026 10.7826C19.0226 11.1026 19.4266 11.2626 19.9146 11.2626C20.5546 11.2626 21.0386 10.9666 21.3666 10.3746L22.8186 11.1666C22.5866 11.6786 22.2146 12.0786 21.7026 12.3666C21.1986 12.6546 20.6066 12.7986 19.9266 12.7986ZM27.4482 8.31064C28.2882 8.31864 28.9322 8.51064 29.3802 8.88664C29.8282 9.25464 30.0522 9.77864 30.0522 10.4586C30.0522 11.1706 29.8002 11.7266 29.2962 12.1266C28.8002 12.5186 28.1002 12.7146 27.1962 12.7146L23.9562 12.7026V6.24664H25.8162V8.31064H27.4482ZM27.0282 11.3826C27.3882 11.3906 27.6642 11.3146 27.8562 11.1546C28.0482 10.9946 28.1442 10.7546 28.1442 10.4346C28.1442 10.1226 28.0482 9.89464 27.8562 9.75064C27.6722 9.60664 27.3962 9.53064 27.0282 9.52264L25.8162 9.51064V11.3826H27.0282ZM34.0658 10.2546H33.0938V12.7026H31.2218V6.24664H33.0938V8.75464H34.1018L35.8538 6.24664H37.8458L35.5898 9.34264L38.0018 12.7026H35.7938L34.0658 10.2546ZM41.3118 6.15064C42.3118 6.15064 43.0798 6.39064 43.6158 6.87064C44.1518 7.34264 44.4198 8.05864 44.4198 9.01864V12.7026H42.6678V11.8986C42.3158 12.4986 41.6598 12.7986 40.6998 12.7986C40.2038 12.7986 39.7718 12.7146 39.4038 12.5466C39.0438 12.3786 38.7678 12.1466 38.5758 11.8506C38.3838 11.5546 38.2878 11.2186 38.2878 10.8426C38.2878 10.2426 38.5118 9.77064 38.9598 9.42664C39.4158 9.08264 40.1158 8.91064 41.0598 8.91064H42.5478C42.5478 8.50264 42.4238 8.19064 42.1758 7.97464C41.9278 7.75064 41.5558 7.63864 41.0598 7.63864C40.7158 7.63864 40.3758 7.69464 40.0398 7.80664C39.7118 7.91064 39.4318 8.05464 39.1998 8.23864L38.5278 6.93064C38.8798 6.68264 39.2998 6.49064 39.7878 6.35464C40.2838 6.21864 40.7918 6.15064 41.3118 6.15064ZM41.1678 11.5386C41.4878 11.5386 41.7718 11.4666 42.0198 11.3226C42.2678 11.1706 42.4438 10.9506 42.5478 10.6626V10.0026H41.2638C40.4958 10.0026 40.1118 10.2546 40.1118 10.7586C40.1118 10.9986 40.2038 11.1906 40.3878 11.3346C40.5798 11.4706 40.8398 11.5386 41.1678 11.5386ZM55.8644 6.24664V12.7026H53.9924V7.78264H51.3044V12.7026H49.4444V6.24664H55.8644ZM60.6833 12.7986C60.0033 12.7986 59.3913 12.6586 58.8473 12.3786C58.3113 12.0906 57.8913 11.6946 57.5873 11.1906C57.2833 10.6866 57.1313 10.1146 57.1313 9.47464C57.1313 8.83464 57.2833 8.26264 57.5873 7.75864C57.8913 7.25464 58.3113 6.86264 58.8473 6.58264C59.3913 6.29464 60.0033 6.15064 60.6833 6.15064C61.3633 6.15064 61.9713 6.29464 62.5073 6.58264C63.0433 6.86264 63.4633 7.25464 63.7673 7.75864C64.0713 8.26264 64.2233 8.83464 64.2233 9.47464C64.2233 10.1146 64.0713 10.6866 63.7673 11.1906C63.4633 11.6946 63.0433 12.0906 62.5073 12.3786C61.9713 12.6586 61.3633 12.7986 60.6833 12.7986ZM60.6833 11.2626C61.1633 11.2626 61.5553 11.1026 61.8593 10.7826C62.1713 10.4546 62.3273 10.0186 62.3273 9.47464C62.3273 8.93064 62.1713 8.49864 61.8593 8.17864C61.5553 7.85064 61.1633 7.68664 60.6833 7.68664C60.2033 7.68664 59.8073 7.85064 59.4953 8.17864C59.1833 8.49864 59.0273 8.93064 59.0273 9.47464C59.0273 10.0186 59.1833 10.4546 59.4953 10.7826C59.8073 11.1026 60.2033 11.2626 60.6833 11.2626ZM71.6091 6.24664V12.7026H69.7371V7.78264H67.6971L67.6371 8.92264C67.6051 9.77064 67.5251 10.4746 67.3971 11.0346C67.2691 11.5946 67.0611 12.0346 66.7731 12.3546C66.4851 12.6746 66.0851 12.8346 65.5731 12.8346C65.3011 12.8346 64.9771 12.7866 64.6011 12.6906L64.6971 11.1546C64.8251 11.1706 64.9171 11.1786 64.9731 11.1786C65.2531 11.1786 65.4611 11.0786 65.5971 10.8786C65.7411 10.6706 65.8371 10.4106 65.8851 10.0986C65.9331 9.77864 65.9691 9.35864 65.9931 8.83864L66.0891 6.24664H71.6091ZM73.3973 6.24664H75.2693V12.7026H73.3973V6.24664ZM74.3333 5.34664C73.9893 5.34664 73.7093 5.24664 73.4933 5.04664C73.2773 4.84664 73.1693 4.59864 73.1693 4.30264C73.1693 4.00664 73.2773 3.75864 73.4933 3.55864C73.7093 3.35864 73.9893 3.25864 74.3333 3.25864C74.6773 3.25864 74.9573 3.35464 75.1733 3.54664C75.3893 3.73864 75.4973 3.97864 75.4973 4.26664C75.4973 4.57864 75.3893 4.83864 75.1733 5.04664C74.9573 5.24664 74.6773 5.34664 74.3333 5.34664ZM79.9095 10.2546H78.9375V12.7026H77.0655V6.24664H78.9375V8.75464H79.9455L81.6975 6.24664H83.6895L81.4335 9.34264L83.8455 12.7026H81.6375L79.9095 10.2546ZM90.9567 6.24664V12.7026H89.0847V7.78264H87.0447L86.9847 8.92264C86.9527 9.77064 86.8727 10.4746 86.7447 11.0346C86.6167 11.5946 86.4087 12.0346 86.1207 12.3546C85.8327 12.6746 85.4327 12.8346 84.9207 12.8346C84.6487 12.8346 84.3247 12.7866 83.9487 12.6906L84.0447 11.1546C84.1727 11.1706 84.2647 11.1786 84.3207 11.1786C84.6007 11.1786 84.8087 11.0786 84.9447 10.8786C85.0887 10.6706 85.1847 10.4106 85.2327 10.0986C85.2807 9.77864 85.3167 9.35864 85.3407 8.83864L85.4367 6.24664H90.9567ZM92.7449 6.24664H94.6169V12.7026H92.7449V6.24664ZM93.6809 5.34664C93.3369 5.34664 93.0569 5.24664 92.8409 5.04664C92.6249 4.84664 92.5169 4.59864 92.5169 4.30264C92.5169 4.00664 92.6249 3.75864 92.8409 3.55864C93.0569 3.35864 93.3369 3.25864 93.6809 3.25864C94.0249 3.25864 94.3049 3.35464 94.5209 3.54664C94.7369 3.73864 94.8449 3.97864 94.8449 4.26664C94.8449 4.57864 94.7369 4.83864 94.5209 5.04664C94.3049 5.24664 94.0249 5.34664 93.6809 5.34664ZM96.4132 6.24664H98.2732V8.76664H101.081V6.24664H102.953V12.7026H101.081V10.2906H98.2732V12.7026H96.4132V6.24664ZM104.733 6.24664H106.605V12.7026H104.733V6.24664ZM105.669 5.34664C105.325 5.34664 105.045 5.24664 104.829 5.04664C104.613 4.84664 104.505 4.59864 104.505 4.30264C104.505 4.00664 104.613 3.75864 104.829 3.55864C105.045 3.35864 105.325 3.25864 105.669 3.25864C106.013 3.25864 106.293 3.35464 106.509 3.54664C106.725 3.73864 106.833 3.97864 106.833 4.26664C106.833 4.57864 106.725 4.83864 106.509 5.04664C106.293 5.24664 106.013 5.34664 105.669 5.34664ZM111.245 10.2546H110.273V12.7026H108.401V6.24664H110.273V8.75464H111.281L113.033 6.24664H115.025L112.769 9.34264L115.181 12.7026H112.973L111.245 10.2546ZM118.491 6.15064C119.491 6.15064 120.259 6.39064 120.795 6.87064C121.331 7.34264 121.599 8.05864 121.599 9.01864V12.7026H119.847V11.8986C119.495 12.4986 118.839 12.7986 117.879 12.7986C117.383 12.7986 116.951 12.7146 116.583 12.5466C116.223 12.3786 115.947 12.1466 115.755 11.8506C115.563 11.5546 115.467 11.2186 115.467 10.8426C115.467 10.2426 115.691 9.77064 116.139 9.42664C116.595 9.08264 117.295 8.91064 118.239 8.91064H119.727C119.727 8.50264 119.603 8.19064 119.355 7.97464C119.107 7.75064 118.735 7.63864 118.239 7.63864C117.895 7.63864 117.555 7.69464 117.219 7.80664C116.891 7.91064 116.611 8.05464 116.379 8.23864L115.707 6.93064C116.059 6.68264 116.479 6.49064 116.967 6.35464C117.463 6.21864 117.971 6.15064 118.491 6.15064ZM118.347 11.5386C118.667 11.5386 118.951 11.4666 119.199 11.3226C119.447 11.1706 119.623 10.9506 119.727 10.6626V10.0026H118.443C117.675 10.0026 117.291 10.2546 117.291 10.7586C117.291 10.9986 117.383 11.1906 117.567 11.3346C117.759 11.4706 118.019 11.5386 118.347 11.5386Z" fill="#8F5E14"/>
<defs>
<clipPath id="clip0">
<rect width="17" height="17" fill="white" transform="translate(53.2432 27.7026)"/>
</clipPath>
</defs>
</svg>
