<svg width="125" height="61" viewBox="0 0 125 61" fill="none" xmlns="http://www.w3.org/2000/svg">
<path d="M1.044 4.09976H2.976V12.4998H1.044V4.09976ZM15.0115 8.27576C15.0115 9.38776 14.6315 10.2638 13.8715 10.9038C13.1195 11.5358 12.0355 11.8878 10.6195 11.9598V12.8718H8.83153V11.9478C7.40753 11.8678 6.31553 11.5118 5.55553 10.8798C4.80353 10.2398 4.42753 9.37176 4.42753 8.27576C4.42753 7.17176 4.80353 6.30776 5.55553 5.68376C6.31553 5.05176 7.40753 4.69176 8.83153 4.60376V3.73976H10.6195V4.59176C12.0355 4.67176 13.1195 5.03176 13.8715 5.67176C14.6315 6.31176 15.0115 7.17976 15.0115 8.27576ZM10.6195 10.4358C11.4675 10.3558 12.0995 10.1398 12.5155 9.78776C12.9315 9.42776 13.1395 8.91976 13.1395 8.26376C13.1395 6.98376 12.2995 6.27176 10.6195 6.12776V10.4358ZM6.31153 8.27576C6.31153 9.53976 7.15153 10.2598 8.83153 10.4358V6.12776C7.97553 6.20776 7.33953 6.42376 6.92353 6.77576C6.51553 7.11976 6.31153 7.61976 6.31153 8.27576ZM24.1699 4.09976V12.4998H22.2259V9.05576H18.4099V12.4998H16.4659V4.09976H18.4099V7.41176H22.2259V4.09976H24.1699ZM32.6945 5.68376H30.0065V12.4998H28.0865V5.68376H25.4105V4.09976H32.6945V5.68376ZM41.1358 4.09976L37.5598 10.7478C37.2158 11.3878 36.7998 11.8718 36.3118 12.1998C35.8318 12.5278 35.3078 12.6918 34.7398 12.6918C34.2998 12.6918 33.8438 12.5958 33.3718 12.4038L33.8398 10.9278C34.1758 11.0318 34.4558 11.0838 34.6798 11.0838C34.9198 11.0838 35.1358 11.0278 35.3278 10.9158C35.5198 10.7958 35.6958 10.6118 35.8558 10.3638L35.9278 10.2678L32.6158 4.09976H34.6918L36.9238 8.61176L39.2278 4.09976H41.1358ZM53.3378 4.09976V12.4998H51.3938V9.05576H47.5778V12.4998H45.6338V4.09976H47.5778V7.41176H51.3938V4.09976H53.3378ZM57.8064 5.94776C58.8064 5.94776 59.5744 6.18776 60.1104 6.66776C60.6464 7.13976 60.9144 7.85576 60.9144 8.81576V12.4998H59.1624V11.6958C58.8104 12.2958 58.1544 12.5958 57.1944 12.5958C56.6984 12.5958 56.2664 12.5118 55.8984 12.3438C55.5384 12.1758 55.2624 11.9438 55.0704 11.6478C54.8784 11.3518 54.7824 11.0158 54.7824 10.6398C54.7824 10.0398 55.0064 9.56776 55.4544 9.22376C55.9104 8.87976 56.6104 8.70776 57.5544 8.70776H59.0424C59.0424 8.29976 58.9184 7.98776 58.6704 7.77176C58.4224 7.54776 58.0504 7.43576 57.5544 7.43576C57.2104 7.43576 56.8704 7.49176 56.5344 7.60376C56.2064 7.70776 55.9264 7.85176 55.6944 8.03576L55.0224 6.72776C55.3744 6.47976 55.7944 6.28776 56.2824 6.15176C56.7784 6.01576 57.2864 5.94776 57.8064 5.94776ZM57.6624 11.3358C57.9824 11.3358 58.2664 11.2638 58.5144 11.1198C58.7624 10.9678 58.9384 10.7478 59.0424 10.4598V9.79976H57.7584C56.9904 9.79976 56.6064 10.0518 56.6064 10.5558C56.6064 10.7958 56.6984 10.9878 56.8824 11.1318C57.0744 11.2678 57.3344 11.3358 57.6624 11.3358ZM71.4566 9.24776C71.4566 10.2478 71.1206 11.0398 70.4486 11.6238C69.7846 12.1998 68.8326 12.5318 67.5926 12.6198V14.8278H65.8766V12.6198C64.6366 12.5318 63.6806 12.2038 63.0086 11.6358C62.3446 11.0598 62.0126 10.2638 62.0126 9.24776C62.0126 8.24776 62.3406 7.47176 62.9966 6.91976C63.6606 6.36776 64.6206 6.04776 65.8766 5.95976V3.59576H67.5926V5.95976C68.8326 6.04776 69.7846 6.37176 70.4486 6.93176C71.1206 7.49176 71.4566 8.26376 71.4566 9.24776ZM63.8246 9.24776C63.8246 9.82376 63.9886 10.2678 64.3166 10.5798C64.6446 10.8918 65.1646 11.0878 65.8766 11.1678V7.41176C65.1646 7.48376 64.6446 7.67176 64.3166 7.97576C63.9886 8.27176 63.8246 8.69576 63.8246 9.24776ZM67.5926 11.1678C68.3046 11.0878 68.8246 10.8918 69.1526 10.5798C69.4886 10.2678 69.6566 9.82376 69.6566 9.24776C69.6566 8.69576 69.4886 8.27176 69.1526 7.97576C68.8246 7.67176 68.3046 7.48376 67.5926 7.41176V11.1678ZM77.9138 7.57976H75.7298V12.4998H73.8698V7.57976H71.6858V6.04376H77.9138V7.57976ZM78.9117 6.04376H80.7717V9.88376L83.9157 6.04376H85.6317V12.4998H83.7717V8.65976L80.6397 12.4998H78.9117V6.04376ZM90.8177 6.04376H92.6897V12.4998H90.8177V6.04376ZM91.7537 5.14376C91.4097 5.14376 91.1297 5.04376 90.9137 4.84376C90.6977 4.64376 90.5897 4.39576 90.5897 4.09976C90.5897 3.80376 90.6977 3.55576 90.9137 3.35576C91.1297 3.15576 91.4097 3.05576 91.7537 3.05576C92.0977 3.05576 92.3777 3.15176 92.5937 3.34376C92.8097 3.53576 92.9177 3.77576 92.9177 4.06376C92.9177 4.37576 92.8097 4.63576 92.5937 4.84376C92.3777 5.04376 92.0977 5.14376 91.7537 5.14376ZM103.056 7.57976H99.7444V12.4998H97.8844V6.04376H103.056V7.57976ZM106.556 5.94776C107.556 5.94776 108.324 6.18776 108.86 6.66776C109.396 7.13976 109.664 7.85576 109.664 8.81576V12.4998H107.912V11.6958C107.56 12.2958 106.904 12.5958 105.944 12.5958C105.448 12.5958 105.016 12.5118 104.648 12.3438C104.288 12.1758 104.012 11.9438 103.82 11.6478C103.628 11.3518 103.532 11.0158 103.532 10.6398C103.532 10.0398 103.756 9.56776 104.204 9.22376C104.66 8.87976 105.36 8.70776 106.304 8.70776H107.792C107.792 8.29976 107.668 7.98776 107.42 7.77176C107.172 7.54776 106.8 7.43576 106.304 7.43576C105.96 7.43576 105.62 7.49176 105.284 7.60376C104.956 7.70776 104.676 7.85176 104.444 8.03576L103.772 6.72776C104.124 6.47976 104.544 6.28776 105.032 6.15176C105.528 6.01576 106.036 5.94776 106.556 5.94776ZM106.412 11.3358C106.732 11.3358 107.016 11.2638 107.264 11.1198C107.512 10.9678 107.688 10.7478 107.792 10.4598V9.79976H106.508C105.74 9.79976 105.356 10.0518 105.356 10.5558C105.356 10.7958 105.448 10.9878 105.632 11.1318C105.824 11.2678 106.084 11.3358 106.412 11.3358ZM115.42 9.13976C115.804 9.25976 116.1 9.44376 116.308 9.69176C116.524 9.93976 116.632 10.2358 116.632 10.5798C116.632 10.9878 116.492 11.3478 116.212 11.6598C115.932 11.9638 115.548 12.1998 115.06 12.3678C114.572 12.5358 114.02 12.6198 113.404 12.6198C112.9 12.6198 112.404 12.5678 111.916 12.4638C111.428 12.3598 110.976 12.2038 110.56 11.9958L111.064 10.6878C111.744 11.0158 112.496 11.1798 113.32 11.1798C113.76 11.1798 114.104 11.1158 114.352 10.9878C114.608 10.8518 114.736 10.6638 114.736 10.4238C114.736 10.2158 114.648 10.0598 114.472 9.95576C114.296 9.84376 114.04 9.78776 113.704 9.78776H112.384V8.62376H113.536C113.864 8.62376 114.116 8.57176 114.292 8.46776C114.468 8.36376 114.556 8.21176 114.556 8.01176C114.556 7.80376 114.444 7.64376 114.22 7.53176C114.004 7.41976 113.692 7.36376 113.284 7.36376C112.66 7.36376 111.98 7.51176 111.244 7.80776L110.788 6.51176C111.684 6.11976 112.556 5.92376 113.404 5.92376C113.988 5.92376 114.508 5.99576 114.964 6.13976C115.428 6.28376 115.792 6.49576 116.056 6.77576C116.32 7.04776 116.452 7.36776 116.452 7.73576C116.452 8.03976 116.36 8.31576 116.176 8.56376C115.992 8.80376 115.74 8.99576 115.42 9.13976ZM124.462 6.04376L121.546 12.8958C121.25 13.6398 120.882 14.1638 120.442 14.4678C120.01 14.7718 119.486 14.9238 118.87 14.9238C118.534 14.9238 118.202 14.8718 117.874 14.7678C117.546 14.6638 117.278 14.5198 117.07 14.3358L117.754 13.0038C117.898 13.1318 118.062 13.2318 118.246 13.3038C118.438 13.3758 118.626 13.4118 118.81 13.4118C119.066 13.4118 119.274 13.3478 119.434 13.2198C119.594 13.0998 119.738 12.8958 119.866 12.6078L119.89 12.5478L117.094 6.04376H119.026L120.838 10.4238L122.662 6.04376H124.462Z" fill="#8F5E14"/>
<path d="M61.795 60.2051C61.9891 60.405 62.2446 60.4998 62.5 60.4998C62.7554 60.4998 63.0109 60.405 63.205 60.2051C63.8079 59.6053 78 45.4087 78 33.4643C78 24.6664 71.0521 17.4998 62.5 17.4998C53.9479 17.4998 47 24.6664 47 33.4643C47 45.4087 61.1921 59.6053 61.795 60.2051Z" fill="#8F5E14"/>
<path d="M68.1777 36.1658H66.9492V29.5251H59.9766V31.5173H58.9805V29.5251H54V42.4744H71V38.988C71 37.4318 69.7339 36.1658 68.1777 36.1658ZM54.9961 30.5212H55.9922V31.5173H54.9961V30.5212ZM57.9844 41.4783H54.9961V32.5134H57.9844V41.4783ZM57.9844 31.5173H56.9883V30.5212H57.9844V31.5173ZM59.9766 41.4783H58.9805V40.4822H59.9766V41.4783ZM59.9766 39.4861H58.9805V38.49H59.9766V39.4861ZM59.9766 37.4939H58.9805V36.4978H59.9766V37.4939ZM59.9766 35.5017H58.9805V34.5056H59.9766V35.5017ZM59.9766 33.5095H58.9805V32.5134H59.9766V33.5095ZM62.9648 30.5212H63.9609V31.5173H62.9648V30.5212ZM60.9727 30.5212H61.9688V31.5173H60.9727V30.5212ZM65.9531 41.4783H60.9727V32.5134H65.9531V41.4783ZM65.9531 31.5173H64.957V30.5212H65.9531V31.5173ZM68.3438 41.4783H66.9492V38.822H67.8457C68.1203 38.822 68.3438 39.0454 68.3438 39.3201V41.4783ZM70.0039 41.4783H69.3398V39.3201C69.3398 38.4962 68.6696 37.8259 67.8457 37.8259H66.9492V37.1619H68.1777C69.1847 37.1619 70.0039 37.9811 70.0039 38.988V41.4783Z" fill="#E9DFD0"/>
<path d="M64.3161 36.2512L63.3301 35.2651L62.344 36.2512C62.0806 36.5146 61.9355 36.8648 61.9355 37.2373C61.9355 37.6098 62.0806 37.96 62.344 38.2234C62.6074 38.4868 62.9576 38.6318 63.3301 38.6318C63.7026 38.6318 64.0528 38.4868 64.3161 38.2234C64.5795 37.96 64.7246 37.6098 64.7246 37.2373C64.7246 36.8648 64.5795 36.5146 64.3161 36.2512ZM63.6118 37.519C63.5366 37.5943 63.4365 37.6357 63.3301 37.6357C63.2237 37.6357 63.1236 37.5943 63.0484 37.519C62.9731 37.4438 62.9316 37.3437 62.9316 37.2373C62.9316 37.1309 62.9731 37.0308 63.0484 36.9556L63.3301 36.6738L63.6118 36.9556C63.6871 37.0308 63.7285 37.1309 63.7285 37.2373C63.7285 37.3437 63.6871 37.4438 63.6118 37.519Z" fill="#E9DFD0"/>
</svg>
