<svg width="31" height="43" viewBox="0 0 31 43" fill="none" xmlns="http://www.w3.org/2000/svg">
<path d="M14.795 42.7053C14.9891 42.9053 15.2446 43 15.5 43C15.7554 43 16.0109 42.9053 16.205 42.7053C16.8079 42.1055 31 27.9089 31 15.9645C31 7.16667 24.0521 0 15.5 0C6.94792 0 0 7.16667 0 15.9645C0 27.9089 14.1921 42.1055 14.795 42.7053Z" fill="#8F5E14"/>
<path d="M11.4492 10C10.0761 10 8.95898 11.1171 8.95898 12.4902V19.9941H8.46094C8.18588 19.9941 7.96289 20.2171 7.96289 20.4922V26.0039H7.49805C7.22299 26.0039 7 26.2269 7 26.502C7 26.777 7.22299 27 7.49805 27H11.4492C11.7243 27 11.9473 26.777 11.9473 26.502C11.9473 26.2269 11.7243 26.0039 11.4492 26.0039H10.9512V20.4922C10.9512 20.2171 10.7282 19.9941 10.4531 19.9941H9.95508V12.4902C9.95508 11.6664 10.6253 10.9961 11.4492 10.9961C12.2731 10.9961 12.9434 11.6664 12.9434 12.4902V13.0716C11.8081 13.3029 10.9512 14.3091 10.9512 15.5117C10.9512 15.7868 11.1742 16.0098 11.4492 16.0098H12.9434V16.5078C12.9434 16.7829 13.1664 17.0059 13.4414 17.0059C13.7165 17.0059 13.9395 16.7829 13.9395 16.5078V16.0098H15.4336C15.7086 16.0098 15.9316 15.7868 15.9316 15.5117C15.9316 14.3091 15.0747 13.303 13.9395 13.0716V12.4902C13.9395 11.1171 12.8223 10 11.4492 10ZM9.95508 26.0039H8.95898V20.9902H9.95508V26.0039ZM14.8502 15.0137H12.0326C12.2382 14.4339 12.7921 14.0176 13.4414 14.0176C14.0907 14.0176 14.6447 14.4339 14.8502 15.0137Z" fill="#E9DFD0"/>
<path d="M23.502 18.002H13.4414C13.1664 18.002 12.9434 18.2249 12.9434 18.5V20.4922C12.9434 20.7672 13.1664 20.9902 13.4414 20.9902H14.9355V21.9863H13.4414C13.1664 21.9863 12.9434 22.2093 12.9434 22.4844V24.4766C12.9434 24.7516 13.1664 24.9746 13.4414 24.9746H13.9395V26.502C13.9395 26.777 14.1624 27 14.4375 27C14.7126 27 14.9355 26.777 14.9355 26.502V24.9746H22.0078V26.502C22.0078 26.777 22.2308 27 22.5059 27C22.7809 27 23.0039 26.777 23.0039 26.502V24.9746H23.502C23.777 24.9746 24 24.7516 24 24.4766V22.4844C24 22.2093 23.777 21.9863 23.502 21.9863H22.0078V20.9902H23.502C23.777 20.9902 24 20.7672 24 20.4922V18.5C24 18.2249 23.777 18.002 23.502 18.002ZM23.0039 22.9824V23.9785H13.9395V22.9824H23.0039ZM15.9316 21.9863V20.9902H21.0117V21.9863H15.9316ZM23.0039 19.9941H13.9395V18.998H23.0039V19.9941Z" fill="#E9DFD0"/>
</svg>
