<svg width="49" height="60" viewBox="0 0 49 60" fill="none" xmlns="http://www.w3.org/2000/svg">
<path d="M4.68 3.59976C5.424 3.59976 6.068 3.72376 6.612 3.97176C7.164 4.21976 7.588 4.57176 7.884 5.02776C8.18 5.48376 8.328 6.02376 8.328 6.64776C8.328 7.26376 8.18 7.80376 7.884 8.26776C7.588 8.72376 7.164 9.07576 6.612 9.32376C6.068 9.56376 5.424 9.68376 4.68 9.68376H2.988V11.9998H1.044V3.59976H4.68ZM4.572 8.09976C5.156 8.09976 5.6 7.97576 5.904 7.72776C6.208 7.47176 6.36 7.11176 6.36 6.64776C6.36 6.17576 6.208 5.81576 5.904 5.56776C5.6 5.31176 5.156 5.18376 4.572 5.18376H2.988V8.09976H4.572ZM11.9158 5.44776C12.9158 5.44776 13.6838 5.68776 14.2198 6.16776C14.7558 6.63976 15.0238 7.35576 15.0238 8.31576V11.9998H13.2718V11.1958C12.9198 11.7958 12.2638 12.0958 11.3038 12.0958C10.8078 12.0958 10.3758 12.0118 10.0078 11.8438C9.64781 11.6758 9.37181 11.4438 9.17981 11.1478C8.98781 10.8518 8.89181 10.5158 8.89181 10.1398C8.89181 9.53976 9.11581 9.06776 9.56381 8.72376C10.0198 8.37976 10.7198 8.20776 11.6638 8.20776H13.1518C13.1518 7.79976 13.0278 7.48776 12.7798 7.27176C12.5318 7.04776 12.1598 6.93576 11.6638 6.93576C11.3198 6.93576 10.9798 6.99176 10.6438 7.10376C10.3158 7.20776 10.0358 7.35176 9.80381 7.53576L9.13181 6.22776C9.48381 5.97976 9.90381 5.78776 10.3918 5.65176C10.8878 5.51576 11.3958 5.44776 11.9158 5.44776ZM11.7718 10.8358C12.0918 10.8358 12.3758 10.7638 12.6238 10.6198C12.8718 10.4678 13.0478 10.2478 13.1518 9.95976V9.29976H11.8678C11.0998 9.29976 10.7158 9.55176 10.7158 10.0558C10.7158 10.2958 10.8078 10.4878 10.9918 10.6318C11.1838 10.7678 11.4438 10.8358 11.7718 10.8358ZM22.074 7.07976H19.89V11.9998H18.03V7.07976H15.846V5.54376H22.074V7.07976ZM29.5985 5.54376L26.6825 12.3958C26.3865 13.1398 26.0185 13.6638 25.5785 13.9678C25.1465 14.2718 24.6225 14.4238 24.0065 14.4238C23.6705 14.4238 23.3385 14.3718 23.0105 14.2678C22.6825 14.1638 22.4145 14.0198 22.2065 13.8358L22.8905 12.5038C23.0345 12.6318 23.1985 12.7318 23.3825 12.8038C23.5745 12.8758 23.7625 12.9118 23.9465 12.9118C24.2025 12.9118 24.4105 12.8478 24.5705 12.7198C24.7305 12.5998 24.8745 12.3958 25.0025 12.1078L25.0265 12.0478L22.2305 5.54376H24.1625L25.9745 9.92376L27.7985 5.54376H29.5985ZM40.3536 5.54376V11.9998H30.5016V5.54376H32.3616V10.4638H34.5096V5.54376H36.3696V10.4638H38.4936V5.54376H40.3536ZM44.658 5.44776C45.658 5.44776 46.426 5.68776 46.962 6.16776C47.498 6.63976 47.766 7.35576 47.766 8.31576V11.9998H46.014V11.1958C45.662 11.7958 45.006 12.0958 44.046 12.0958C43.55 12.0958 43.118 12.0118 42.75 11.8438C42.39 11.6758 42.114 11.4438 41.922 11.1478C41.73 10.8518 41.634 10.5158 41.634 10.1398C41.634 9.53976 41.858 9.06776 42.306 8.72376C42.762 8.37976 43.462 8.20776 44.406 8.20776H45.894C45.894 7.79976 45.77 7.48776 45.522 7.27176C45.274 7.04776 44.902 6.93576 44.406 6.93576C44.062 6.93576 43.722 6.99176 43.386 7.10376C43.058 7.20776 42.778 7.35176 42.546 7.53576L41.874 6.22776C42.226 5.97976 42.646 5.78776 43.134 5.65176C43.63 5.51576 44.138 5.44776 44.658 5.44776ZM44.514 10.8358C44.834 10.8358 45.118 10.7638 45.366 10.6198C45.614 10.4678 45.79 10.2478 45.894 9.95976V9.29976H44.61C43.842 9.29976 43.458 9.55176 43.458 10.0558C43.458 10.2958 43.55 10.4878 43.734 10.6318C43.926 10.7678 44.186 10.8358 44.514 10.8358Z" fill="#8F5E14"/>
<path d="M23.795 59.7051C23.9891 59.905 24.2446 59.9998 24.5 59.9998C24.7554 59.9998 25.0109 59.905 25.205 59.7051C25.8079 59.1053 40 44.9087 40 32.9643C40 24.1664 33.0521 16.9998 24.5 16.9998C15.9479 16.9998 9 24.1664 9 32.9643C9 44.9087 23.1921 59.1053 23.795 59.7051Z" fill="#8F5E14"/>
<g clip-path="url(#clip0)">
<path d="M23.624 32.9062H25.3764V33.9023H23.624V32.9062Z" fill="#E9DFD0"/>
<path d="M28.9458 37.6128V37.0712L27.5005 36.5335V30.6962L24.5 26.9998L21.4995 30.6962V36.5378L20.0542 37.0699V37.6128H16V43.95H33V37.6128H28.9458ZM20.0542 42.9539H16.9961V40.6002H20.0542V42.9539ZM20.0542 39.6041H16.9961V38.6089H20.0542V39.6041ZM24.5 28.5803L25.9567 30.3749H23.0433L24.5 28.5803ZM22.4956 31.3709H26.5044V36.163L24.5213 35.4253L22.4955 36.1711V31.3709H22.4956ZM22.8424 42.9539H21.0503V39.3612H22.8424V42.9539ZM25.1615 42.9539H23.8385V39.3612H25.1615V42.9539ZM27.9497 42.9539H26.1575V39.3612H27.9497V42.9539ZM27.9497 38.3651H21.0503V37.7646L24.5196 36.4874L27.9497 37.7634V38.3651H27.9497ZM32.0039 42.9539H28.9458V40.6002H32.0039V42.9539ZM32.0039 39.6041H28.9458V38.6089H32.0039V39.6041Z" fill="#E9DFD0"/>
</g>
<defs>
<clipPath id="clip0">
<rect width="17" height="17" fill="white" transform="translate(16 26.9998)"/>
</clipPath>
</defs>
</svg>
