<svg width="48" height="61" viewBox="0 0 48 61" fill="none" xmlns="http://www.w3.org/2000/svg">
<path d="M7.385 8.12C7.897 8.272 8.289 8.52 8.561 8.864C8.833 9.208 8.969 9.632 8.969 10.136C8.969 10.88 8.685 11.46 8.117 11.876C7.557 12.292 6.753 12.5 5.705 12.5H1.565V4.1H5.477C6.453 4.1 7.213 4.288 7.757 4.664C8.301 5.04 8.573 5.576 8.573 6.272C8.573 6.688 8.469 7.056 8.261 7.376C8.053 7.688 7.761 7.936 7.385 8.12ZM3.497 7.58H5.309C5.733 7.58 6.053 7.496 6.269 7.328C6.485 7.152 6.593 6.896 6.593 6.56C6.593 6.232 6.481 5.98 6.257 5.804C6.041 5.628 5.725 5.54 5.309 5.54H3.497V7.58ZM5.633 11.06C6.545 11.06 7.001 10.7 7.001 9.98C7.001 9.284 6.545 8.936 5.633 8.936H3.497V11.06H5.633ZM13.3864 12.596C12.7064 12.596 12.0944 12.456 11.5504 12.176C11.0144 11.888 10.5944 11.492 10.2904 10.988C9.9864 10.484 9.8344 9.912 9.8344 9.272C9.8344 8.632 9.9864 8.06 10.2904 7.556C10.5944 7.052 11.0144 6.66 11.5504 6.38C12.0944 6.092 12.7064 5.948 13.3864 5.948C14.0664 5.948 14.6744 6.092 15.2104 6.38C15.7464 6.66 16.1664 7.052 16.4704 7.556C16.7744 8.06 16.9264 8.632 16.9264 9.272C16.9264 9.912 16.7744 10.484 16.4704 10.988C16.1664 11.492 15.7464 11.888 15.2104 12.176C14.6744 12.456 14.0664 12.596 13.3864 12.596ZM13.3864 11.06C13.8664 11.06 14.2584 10.9 14.5624 10.58C14.8744 10.252 15.0304 9.816 15.0304 9.272C15.0304 8.728 14.8744 8.296 14.5624 7.976C14.2584 7.648 13.8664 7.484 13.3864 7.484C12.9064 7.484 12.5104 7.648 12.1984 7.976C11.8864 8.296 11.7304 8.728 11.7304 9.272C11.7304 9.816 11.8864 10.252 12.1984 10.58C12.5104 10.9 12.9064 11.06 13.3864 11.06ZM21.058 10.052H20.086V12.5H18.214V6.044H20.086V8.552H21.094L22.846 6.044H24.838L22.582 9.14L24.994 12.5H22.786L21.058 10.052ZM29.8082 9.14C30.1922 9.26 30.4882 9.444 30.6962 9.692C30.9122 9.94 31.0202 10.236 31.0202 10.58C31.0202 10.988 30.8802 11.348 30.6002 11.66C30.3202 11.964 29.9362 12.2 29.4482 12.368C28.9602 12.536 28.4082 12.62 27.7922 12.62C27.2882 12.62 26.7922 12.568 26.3042 12.464C25.8162 12.36 25.3642 12.204 24.9482 11.996L25.4522 10.688C26.1322 11.016 26.8842 11.18 27.7082 11.18C28.1482 11.18 28.4922 11.116 28.7402 10.988C28.9962 10.852 29.1242 10.664 29.1242 10.424C29.1242 10.216 29.0362 10.06 28.8602 9.956C28.6842 9.844 28.4282 9.788 28.0922 9.788H26.7722V8.624H27.9242C28.2522 8.624 28.5042 8.572 28.6802 8.468C28.8562 8.364 28.9442 8.212 28.9442 8.012C28.9442 7.804 28.8322 7.644 28.6082 7.532C28.3922 7.42 28.0802 7.364 27.6722 7.364C27.0482 7.364 26.3682 7.512 25.6322 7.808L25.1762 6.512C26.0722 6.12 26.9442 5.924 27.7922 5.924C28.3762 5.924 28.8962 5.996 29.3522 6.14C29.8162 6.284 30.1802 6.496 30.4442 6.776C30.7082 7.048 30.8402 7.368 30.8402 7.736C30.8402 8.04 30.7482 8.316 30.5642 8.564C30.3802 8.804 30.1282 8.996 29.8082 9.14ZM34.8899 5.948C35.8899 5.948 36.6579 6.188 37.1939 6.668C37.7299 7.14 37.9979 7.856 37.9979 8.816V12.5H36.2459V11.696C35.8939 12.296 35.2379 12.596 34.2779 12.596C33.7819 12.596 33.3499 12.512 32.9819 12.344C32.6219 12.176 32.3459 11.944 32.1539 11.648C31.9619 11.352 31.8659 11.016 31.8659 10.64C31.8659 10.04 32.0899 9.568 32.5379 9.224C32.9939 8.88 33.6939 8.708 34.6379 8.708H36.1259C36.1259 8.3 36.0019 7.988 35.7539 7.772C35.5059 7.548 35.1339 7.436 34.6379 7.436C34.2939 7.436 33.9539 7.492 33.6179 7.604C33.2899 7.708 33.0099 7.852 32.7779 8.036L32.1059 6.728C32.4579 6.48 32.8779 6.288 33.3659 6.152C33.8619 6.016 34.3699 5.948 34.8899 5.948ZM34.7459 11.336C35.0659 11.336 35.3499 11.264 35.5979 11.12C35.8459 10.968 36.0219 10.748 36.1259 10.46V9.8H34.8419C34.0739 9.8 33.6899 10.052 33.6899 10.556C33.6899 10.796 33.7819 10.988 33.9659 11.132C34.1579 11.268 34.4179 11.336 34.7459 11.336ZM45.8161 6.044V12.5H43.9441V7.58H41.9041L41.8441 8.72C41.8121 9.568 41.7321 10.272 41.6041 10.832C41.4761 11.392 41.2681 11.832 40.9801 12.152C40.6921 12.472 40.2921 12.632 39.7801 12.632C39.5081 12.632 39.1841 12.584 38.8081 12.488L38.9041 10.952C39.0321 10.968 39.1241 10.976 39.1801 10.976C39.4601 10.976 39.6681 10.876 39.8041 10.676C39.9481 10.468 40.0441 10.208 40.0921 9.896C40.1401 9.576 40.1761 9.156 40.2001 8.636L40.2961 6.044H45.8161Z" fill="#8F5E14"/>
<path d="M23.316 60.2053C23.5101 60.4053 23.7656 60.5 24.021 60.5C24.2764 60.5 24.5319 60.4053 24.726 60.2053C25.3289 59.6055 39.521 45.4089 39.521 33.4645C39.521 24.6667 32.5731 17.5 24.021 17.5C15.4689 17.5 8.521 24.6667 8.521 33.4645C8.521 45.4089 22.7131 59.6055 23.316 60.2053Z" fill="#8F5E14"/>
<g clip-path="url(#clip0)">
<path d="M24.0212 33.5935C22.7981 33.5935 21.8066 34.585 21.8066 35.808C21.8066 37.0311 22.7981 38.0225 24.0212 38.0225C25.2442 38.0225 26.2357 37.0311 26.2357 35.808C26.2343 34.5855 25.2436 33.5949 24.0212 33.5935ZM24.0212 37.2244C23.2389 37.2244 22.6048 36.5903 22.6048 35.808C22.6048 35.0258 23.2389 34.3916 24.0212 34.3916C24.8034 34.3916 25.4376 35.0258 25.4376 35.808C25.4367 36.5899 24.803 37.2235 24.0212 37.2244Z" fill="#E9DFD0"/>
<path d="M24.5796 35.5285H24.3401V35.0895C24.3401 34.8691 24.1615 34.6904 23.9411 34.6904C23.7207 34.6904 23.542 34.8691 23.542 35.0895V35.9275C23.542 36.1479 23.7207 36.3266 23.9411 36.3266H24.5796C24.8 36.3266 24.9786 36.1479 24.9786 35.9275C24.9786 35.7071 24.8 35.5285 24.5796 35.5285Z" fill="#E9DFD0"/>
<path d="M31.3288 35.6079H27.7318V34.412C27.9002 34.5467 28.1446 34.5261 28.2879 34.365L29.3015 33.2095C29.4472 33.0448 29.4317 32.7931 29.267 32.6475C29.2655 32.6462 29.264 32.6449 29.2626 32.6436L24.2436 28.3467C24.0943 28.2188 23.8741 28.2188 23.7248 28.3467L18.7056 32.6436C18.5382 32.787 18.5187 33.0389 18.6621 33.2063C18.6623 33.2065 18.6624 33.2066 18.6626 33.2068L19.6556 34.3623C19.7275 34.4503 19.8351 34.5013 19.9486 34.5013C20.037 34.5013 20.1496 34.4718 20.1895 34.4121V35.6079H16.7122C16.0507 35.6134 15.518 36.1525 15.5205 36.8141V43.3641C15.5192 43.5753 15.6892 43.7475 15.9003 43.7489C15.9049 43.7489 15.9095 43.7489 15.9141 43.7487H32.1269C32.338 43.755 32.5141 43.5889 32.5203 43.3778C32.5204 43.3733 32.5205 43.3687 32.5205 43.3641V36.8141C32.523 36.1525 31.9904 35.6134 31.3288 35.6079ZM20.1895 42.9506H16.3186V36.8141C16.3156 36.5931 16.4913 36.411 16.7122 36.406H20.1895V42.9506ZM20.002 33.5408L19.5286 32.9901L23.9846 29.175L28.4378 32.9875L27.9523 33.5422L24.244 30.3687C24.0948 30.241 23.8751 30.2408 23.7257 30.3681L20.002 33.5408ZM24.9383 42.9506H23.0229V40.1173H24.9383V42.9506ZM26.9336 42.9506H25.7365V39.7191C25.7365 39.4987 25.5768 39.3192 25.3565 39.3192H22.6123C22.3968 39.3206 22.2232 39.4963 22.2246 39.7118C22.2246 39.7143 22.2247 39.7167 22.2247 39.7191V42.9506H20.9876V33.7327L23.9691 31.1966L26.9336 33.7297V42.9506ZM31.7224 42.9506H27.7318V36.406H31.3288C31.5497 36.411 31.7254 36.5931 31.7224 36.8141V42.9506Z" fill="#E9DFD0"/>
<path d="M17.4367 37.5305C17.2163 37.5305 17.0376 37.7092 17.0376 37.9296V38.6156C17.0376 38.836 17.2163 39.0147 17.4367 39.0147C17.6571 39.0147 17.8357 38.836 17.8357 38.6156V37.9296C17.8357 37.7092 17.6571 37.5305 17.4367 37.5305Z" fill="#E9DFD0"/>
<path d="M19.0724 37.5305C18.852 37.5305 18.6733 37.7092 18.6733 37.9296V38.6156C18.6733 38.836 18.852 39.0147 19.0724 39.0147C19.2928 39.0147 19.4715 38.836 19.4715 38.6156V37.9296C19.4715 37.7092 19.2928 37.5305 19.0724 37.5305Z" fill="#E9DFD0"/>
<path d="M17.4367 40.2026C17.2163 40.2026 17.0376 40.3813 17.0376 40.6017V41.2877C17.0376 41.5081 17.2163 41.6868 17.4367 41.6868C17.6571 41.6868 17.8357 41.5081 17.8357 41.2877V40.6017C17.8357 40.3813 17.6571 40.2026 17.4367 40.2026Z" fill="#E9DFD0"/>
<path d="M19.0724 40.2026C18.852 40.2026 18.6733 40.3813 18.6733 40.6017V41.2877C18.6733 41.5081 18.852 41.6868 19.0724 41.6868C19.2928 41.6868 19.4715 41.5081 19.4715 41.2877V40.6017C19.4715 40.3813 19.2928 40.2026 19.0724 40.2026Z" fill="#E9DFD0"/>
<path d="M28.9694 37.5305C28.749 37.5305 28.5703 37.7092 28.5703 37.9296V38.6156C28.5703 38.836 28.749 39.0147 28.9694 39.0147C29.1898 39.0147 29.3684 38.836 29.3684 38.6156V37.9296C29.3684 37.7092 29.1898 37.5305 28.9694 37.5305Z" fill="#E9DFD0"/>
<path d="M30.5656 37.5305C30.3452 37.5305 30.1665 37.7092 30.1665 37.9296V38.6156C30.1665 38.836 30.3452 39.0147 30.5656 39.0147C30.786 39.0147 30.9646 38.836 30.9646 38.6156V37.9296C30.9646 37.7092 30.786 37.5305 30.5656 37.5305Z" fill="#E9DFD0"/>
<path d="M28.9694 40.2026C28.749 40.2026 28.5703 40.3813 28.5703 40.6017V41.2877C28.5703 41.5081 28.749 41.6868 28.9694 41.6868C29.1898 41.6868 29.3684 41.5081 29.3684 41.2877V40.6017C29.3684 40.3813 29.1898 40.2026 28.9694 40.2026Z" fill="#E9DFD0"/>
<path d="M30.5656 40.2026C30.3452 40.2026 30.1665 40.3813 30.1665 40.6017V41.2877C30.1665 41.5081 30.3452 41.6868 30.5656 41.6868C30.786 41.6868 30.9646 41.5081 30.9646 41.2877V40.6017C30.9646 40.3813 30.786 40.2026 30.5656 40.2026Z" fill="#E9DFD0"/>
</g>
<defs>
<clipPath id="clip0">
<rect width="17" height="17" fill="white" transform="translate(15.521 27.5)"/>
</clipPath>
</defs>
</svg>
