<svg width="30" height="30" viewBox="0 0 30 30" fill="none" xmlns="http://www.w3.org/2000/svg">
<path d="M13.3379 27.6316H8.0752V29.9706H13.3379V27.6316Z" fill="#8F5E14"/>
<path d="M21.8721 27.6316H16.6094V29.9706H21.8721V27.6316Z" fill="#8F5E14"/>
<path d="M3.57145 27.6318C2.89299 27.6318 2.34097 27.0798 2.34097 26.4013V25.2318H0.00195312V26.4013C0.00195312 28.3696 1.60315 29.9708 3.57145 29.9708H4.74093V27.6318H3.57145Z" fill="#8F5E14"/>
<path d="M27.6033 25.2318V26.4013C27.6033 27.0798 27.0514 27.6318 26.3728 27.6318H25.2034V29.9708H26.3728C28.3411 29.9708 29.9423 28.3696 29.9423 26.4013V25.2318H27.6033Z" fill="#8F5E14"/>
<path d="M13.3379 0.0291748H8.0752V2.36819H13.3379V0.0291748Z" fill="#8F5E14"/>
<path d="M21.8721 0.0291748H16.6094V2.36819H21.8721V0.0291748Z" fill="#8F5E14"/>
<path d="M3.57224 0.0291748C1.60395 0.0291748 0.00268555 1.63043 0.00268555 3.59873V4.76821H2.3417H2.34176V3.59873C2.34176 2.92021 2.89372 2.36819 3.57224 2.36819H4.74172V0.0291748H3.57224Z" fill="#8F5E14"/>
<path d="M26.3728 0.0291748H25.2034V2.36819H26.3728C27.0513 2.36819 27.6033 2.92021 27.6033 3.59873V4.76821H29.9423V3.59873C29.9423 1.63043 28.3411 0.0291748 26.3728 0.0291748Z" fill="#8F5E14"/>
<path d="M2.33902 16.9283H0V22.1911H2.33902V16.9283Z" fill="#8F5E14"/>
<path d="M2.33902 8.39343H0V13.6562H2.33902V8.39343Z" fill="#8F5E14"/>
<path d="M29.9999 16.9283H27.6609V22.1911H29.9999V16.9283Z" fill="#8F5E14"/>
<path d="M29.9999 8.39343H27.6609V13.6562H29.9999V8.39343Z" fill="#8F5E14"/>
</svg>
