<svg width="40" height="40" viewBox="0 0 40 40" fill="none" xmlns="http://www.w3.org/2000/svg">
<path d="M17.7836 36.8422H10.7666V39.9609H17.7836V36.8422Z" fill="#8F5E14"/>
<path d="M29.163 36.8422H22.146V39.9609H29.163V36.8422Z" fill="#8F5E14"/>
<path d="M4.76177 36.8425C3.85715 36.8425 3.12113 36.1065 3.12113 35.2018V33.6425H0.00244141V35.2018C0.00244141 37.8262 2.13738 39.9612 4.76177 39.9612H6.32107V36.8425H4.76177Z" fill="#8F5E14"/>
<path d="M36.8044 33.6425V35.2018C36.8044 36.1065 36.0685 36.8425 35.1638 36.8425H33.6045V39.9612H35.1638C37.7882 39.9612 39.9231 37.8262 39.9231 35.2018V33.6425H36.8044Z" fill="#8F5E14"/>
<path d="M17.7836 0.0388184H10.7666V3.15751H17.7836V0.0388184Z" fill="#8F5E14"/>
<path d="M29.163 0.0388184H22.146V3.15751H29.163V0.0388184Z" fill="#8F5E14"/>
<path d="M4.76282 0.0388184C2.13843 0.0388184 0.00341797 2.17383 0.00341797 4.79822V6.35753H3.12211H3.12219V4.79822C3.12219 3.89353 3.85813 3.15751 4.76282 3.15751H6.32213V0.0388184H4.76282Z" fill="#8F5E14"/>
<path d="M35.1638 0.0388184H33.6045V3.15751H35.1638C36.0684 3.15751 36.8044 3.89353 36.8044 4.79822V6.35753H39.9231V4.79822C39.9231 2.17383 37.7882 0.0388184 35.1638 0.0388184Z" fill="#8F5E14"/>
<path d="M3.11869 22.5712H0V29.5882H3.11869V22.5712Z" fill="#8F5E14"/>
<path d="M3.11869 11.1912H0V18.2082H3.11869V11.1912Z" fill="#8F5E14"/>
<path d="M40 22.5712H36.8813V29.5882H40V22.5712Z" fill="#8F5E14"/>
<path d="M40 11.1912H36.8813V18.2082H40V11.1912Z" fill="#8F5E14"/>
</svg>
