<svg width="30" height="30" viewBox="0 0 30 30" fill="none" xmlns="http://www.w3.org/2000/svg">
<path d="M29.7429 4.58471L26.2197 0.996498C26.0509 0.824702 25.8203 0.727905 25.5795 0.727905C25.3388 0.727905 25.1081 0.824702 24.9394 0.996498L22.0513 3.93783L19.1632 0.996498C18.9945 0.824702 18.7639 0.727905 18.5231 0.727905C18.2824 0.727905 18.0517 0.824702 17.883 0.996498L14.9948 3.93783L12.1067 0.996498C11.9381 0.824702 11.7073 0.727905 11.4666 0.727905C11.2259 0.727905 10.9952 0.824702 10.8266 0.996498L7.94358 3.93285L5.06037 0.996498C4.89174 0.824702 4.661 0.727905 4.4203 0.727905C4.17959 0.727905 3.94891 0.824702 3.78022 0.996498L0.256991 4.58471C0.0922848 4.7524 0 4.97805 0 5.21318V28.3751C0 28.8704 0.4016 29.2722 0.897067 29.2722H7.94358H14.9901C14.9918 29.2722 14.9933 29.272 14.995 29.2719C14.9967 29.2719 14.9982 29.2722 14.9999 29.2722H22.0465C22.0482 29.2722 22.0498 29.2719 22.0514 29.2719C22.053 29.2719 22.0547 29.2722 22.0563 29.2722H29.1028C29.5982 29.2722 29.9999 28.8704 29.9999 28.3751V5.21318C29.9999 4.97805 29.9077 4.7524 29.7429 4.58471ZM7.04652 18.4782H6.69542C6.19996 18.4782 5.79836 18.8799 5.79836 19.3752C5.79836 19.8706 6.19996 20.2723 6.69542 20.2723H7.04652V27.4781H1.79413V12.6474H7.04657V18.4782H7.04652ZM7.04652 10.8532H1.79413V5.57992L4.4203 2.90536L7.04652 5.57992V10.8532ZM14.0931 27.4781H8.84065V20.2723H14.0931V27.4781ZM14.0931 18.4782H8.84065V12.6473H14.0931V18.4782ZM14.0931 10.8532H8.84065V5.57992L11.4669 2.90536L14.0931 5.57992V10.8532ZM21.1494 27.4781H15.8969V20.2723H21.1494V27.4781ZM21.1494 18.4782H15.8969V12.6473H21.1494V18.4782ZM21.1494 10.8532H15.8969V5.57992L18.5232 2.90536L21.1493 5.57992V10.8532H21.1494ZM28.2057 27.4781H22.9533V20.2723H28.2057V27.4781ZM28.2057 18.4781H22.9533V12.6472H23.3043C23.7997 12.6472 24.2014 12.2455 24.2014 11.7502C24.2014 11.2548 23.7997 10.8531 23.3043 10.8531H22.9533V5.57992L25.5795 2.90536L28.2057 5.57992V18.4781Z" fill="#8F5E14"/>
</svg>
