<svg width="40" height="40" viewBox="0 0 40 40" fill="none" xmlns="http://www.w3.org/2000/svg">
<g clip-path="url(#clip0)">
<path d="M30.7633 19.9999H7.91667C6.30833 19.9999 5 18.6916 5 17.0833V6.24992C5 4.64159 6.30833 3.33325 7.91667 3.33325H33.3117C34.2083 3.33325 35.0417 3.73659 35.5983 4.43992C36.155 5.14159 36.3567 6.04492 36.1517 6.91825L33.6033 17.7516C33.2917 19.0749 32.1233 19.9999 30.7633 19.9999ZM7.91667 5.83325C7.68667 5.83325 7.5 6.01992 7.5 6.24992V17.0833C7.5 17.3133 7.68667 17.4999 7.91667 17.4999H30.7633C30.9583 17.4999 31.125 17.3666 31.17 17.1783L33.7183 6.34492C33.7583 6.17492 33.685 6.04992 33.6383 5.99159C33.5917 5.93325 33.4867 5.83325 33.3117 5.83325H7.91667Z" fill="#8F5E14"/>
<path d="M33.3333 12.9166H6.25C5.56 12.9166 5 12.3566 5 11.6666C5 10.9766 5.56 10.4166 6.25 10.4166H33.3333C34.0233 10.4166 34.5833 10.9766 34.5833 11.6666C34.5833 12.3566 34.0233 12.9166 33.3333 12.9166Z" fill="#8F5E14"/>
<path d="M37.0841 18.3333H33.0508C32.3608 18.3333 31.8008 17.7733 31.8008 17.0833C31.8008 16.3933 32.3608 15.8333 33.0508 15.8333H37.0841C37.3141 15.8333 37.5008 15.6466 37.5008 15.4166V9.58329C37.5008 9.35329 37.3141 9.16663 37.0841 9.16663H34.9008C34.2108 9.16663 33.6508 8.60663 33.6508 7.91663C33.6508 7.22663 34.2108 6.66663 34.9008 6.66663H37.0841C38.6924 6.66663 40.0008 7.97496 40.0008 9.58329V15.4166C40.0008 17.025 38.6924 18.3333 37.0841 18.3333Z" fill="#8F5E14"/>
<path d="M1.25 36.6666C0.56 36.6666 0 36.1066 0 35.4166V27.9166C0 27.2266 0.56 26.6666 1.25 26.6666H7.08333C7.77333 26.6666 8.33333 27.2266 8.33333 27.9166V29.5833C8.33333 33.4883 5.155 36.6666 1.25 36.6666ZM2.5 29.1666V33.9933C4.42167 33.4483 5.83333 31.6766 5.83333 29.5833V29.1666H2.5Z" fill="#8F5E14"/>
<path d="M15.4163 33.3333H6.59961C5.90961 33.3333 5.34961 32.7733 5.34961 32.0833C5.34961 31.3933 5.90961 30.8333 6.59961 30.8333H15.4163C16.5646 30.8333 17.4996 29.8983 17.4996 28.75V24.1666C17.4996 23.4766 18.0596 22.9166 18.7496 22.9166C19.4396 22.9166 19.9996 23.4766 19.9996 24.1666V28.75C19.9996 31.2783 17.9429 33.3333 15.4163 33.3333Z" fill="#8F5E14"/>
<path d="M23.7493 24.9999H14.5827C12.9743 24.9999 11.666 23.6916 11.666 22.0833V19.1666C11.666 18.4766 12.226 17.9166 12.916 17.9166C13.606 17.9166 14.166 18.4766 14.166 19.1666V22.0833C14.166 22.3133 14.3527 22.4999 14.5827 22.4999H23.7493C23.9793 22.4999 24.166 22.3133 24.166 22.0833V19.1666C24.166 18.4766 24.726 17.9166 25.416 17.9166C26.106 17.9166 26.666 18.4766 26.666 19.1666V22.0833C26.666 23.6916 25.3577 24.9999 23.7493 24.9999Z" fill="#8F5E14"/>
</g>
<defs>
<clipPath id="clip0">
<rect width="40" height="40" fill="white"/>
</clipPath>
</defs>
</svg>
