<svg width="30" height="30" viewBox="0 0 30 30" fill="none" xmlns="http://www.w3.org/2000/svg">
<path d="M20.2734 17.6367C21.7273 17.6367 22.9102 16.4539 22.9102 15V2.63672C22.9102 1.18286 21.7273 0 20.2734 0H9.72656C8.27271 0 7.08984 1.18286 7.08984 2.63672V15C7.08984 16.4539 8.27271 17.6367 9.72656 17.6367H14.1211V21.1523H13.2422C12.8382 21.1523 12.4864 21.4277 12.3891 21.8198L10.7968 28.2422H7.96875C7.48329 28.2422 7.08984 28.6356 7.08984 29.1211C7.08984 29.6066 7.48329 30 7.96875 30H22.0312C22.5167 30 22.9102 29.6066 22.9102 29.1211C22.9102 28.6356 22.5167 28.2422 22.0312 28.2422H19.2032L17.6109 21.8198C17.5136 21.4277 17.1618 21.1523 16.7578 21.1523H15.8789V17.6367H20.2734ZM17.3923 28.2422H12.6077L13.9297 22.9102H16.0703L17.3923 28.2422ZM8.84766 15V2.63672C8.84766 2.15218 9.24202 1.75781 9.72656 1.75781H20.2734C20.758 1.75781 21.1523 2.15218 21.1523 2.63672V15C21.1523 15.4845 20.758 15.8789 20.2734 15.8789H9.72656C9.24202 15.8789 8.84766 15.4845 8.84766 15Z" fill="#8F5E14"/>
<path d="M15.8789 10.6055C17.8175 10.6055 19.3945 9.02847 19.3945 7.08984C19.3945 5.15121 17.8175 3.57422 15.8789 3.57422H11.4844C10.9989 3.57422 10.6055 3.96767 10.6055 4.45312V13.2422C10.6055 13.7276 10.9989 14.1211 11.4844 14.1211C11.9698 14.1211 12.3633 13.7276 12.3633 13.2422V10.6055H15.8789ZM12.3633 5.33203H15.8789C16.8482 5.33203 17.6367 6.12053 17.6367 7.08984C17.6367 8.05916 16.8482 8.84766 15.8789 8.84766H12.3633V5.33203Z" fill="#8F5E14"/>
</svg>
