<svg width="40" height="40" viewBox="0 0 40 40" fill="none" xmlns="http://www.w3.org/2000/svg">
<path d="M39.1719 37.5781C38.8957 37.5781 38.6719 37.3543 38.6719 37.0781V0.578125C38.6719 0.301982 38.448 0.078125 38.1719 0.078125H1.82812C1.55198 0.078125 1.32812 0.301983 1.32812 0.578125V37.0781C1.32812 37.3543 1.10427 37.5781 0.828125 37.5781H0.5C0.223858 37.5781 0 37.802 0 38.0781V39.4219C0 39.698 0.223858 39.9219 0.5 39.9219H4.5C4.77614 39.9219 5 39.698 5 39.4219V38.0781C5 37.802 4.77614 37.5781 4.5 37.5781H4.17188C3.89573 37.5781 3.67188 37.3543 3.67188 37.0781V2.92187C3.67188 2.64573 3.89573 2.42188 4.17188 2.42188H7.07812C7.35427 2.42188 7.57812 2.64573 7.57812 2.92188V24.5781C7.57812 24.8543 7.35427 25.0781 7.07812 25.0781H6.82812C6.55198 25.0781 6.32812 25.302 6.32812 25.5781V31.9219C6.32812 32.198 6.55198 32.4219 6.82812 32.4219H18.1719C18.448 32.4219 18.6719 32.198 18.6719 31.9219V25.5781C18.6719 25.302 18.448 25.0781 18.1719 25.0781H17.9219C17.6457 25.0781 17.4219 24.8543 17.4219 24.5781V2.92188C17.4219 2.64573 17.6457 2.42188 17.9219 2.42188H22.0781C22.3543 2.42188 22.5781 2.64573 22.5781 2.92188V24.5781C22.5781 24.8543 22.3543 25.0781 22.0781 25.0781H21.8281C21.552 25.0781 21.3281 25.302 21.3281 25.5781V31.9219C21.3281 32.198 21.552 32.4219 21.8281 32.4219H33.1719C33.448 32.4219 33.6719 32.198 33.6719 31.9219V25.5781C33.6719 25.302 33.448 25.0781 33.1719 25.0781H32.9219C32.6457 25.0781 32.4219 24.8543 32.4219 24.5781V2.92188C32.4219 2.64573 32.6457 2.42188 32.9219 2.42188H35.8281C36.1043 2.42188 36.3281 2.64573 36.3281 2.92188V37.0781C36.3281 37.3543 36.1043 37.5781 35.8281 37.5781H35.5C35.2239 37.5781 35 37.802 35 38.0781V39.4219C35 39.698 35.2239 39.9219 35.5 39.9219H39.5C39.7761 39.9219 40 39.698 40 39.4219V38.0781C40 37.802 39.7761 37.5781 39.5 37.5781H39.1719ZM9.92188 2.92188C9.92188 2.64573 10.1457 2.42188 10.4219 2.42188H14.5781C14.8543 2.42188 15.0781 2.64573 15.0781 2.92188V24.5781C15.0781 24.8543 14.8543 25.0781 14.5781 25.0781H10.4219C10.1457 25.0781 9.92188 24.8543 9.92188 24.5781V2.92188ZM16.3281 29.5781C16.3281 29.8543 16.1043 30.0781 15.8281 30.0781H9.17188C8.89573 30.0781 8.67188 29.8543 8.67188 29.5781V27.9219C8.67188 27.6457 8.89573 27.4219 9.17188 27.4219H15.8281C16.1043 27.4219 16.3281 27.6457 16.3281 27.9219V29.5781ZM24.9219 2.92188C24.9219 2.64573 25.1457 2.42188 25.4219 2.42188H29.5781C29.8543 2.42188 30.0781 2.64573 30.0781 2.92188V24.5781C30.0781 24.8543 29.8543 25.0781 29.5781 25.0781H25.4219C25.1457 25.0781 24.9219 24.8543 24.9219 24.5781V2.92188ZM31.3281 29.5781C31.3281 29.8543 31.1043 30.0781 30.8281 30.0781H24.1719C23.8957 30.0781 23.6719 29.8543 23.6719 29.5781V27.9219C23.6719 27.6457 23.8957 27.4219 24.1719 27.4219H30.8281C31.1043 27.4219 31.3281 27.6457 31.3281 27.9219V29.5781Z" fill="#8F5E14"/>
</svg>
