<svg width="30" height="30" viewBox="0 0 30 30" fill="none" xmlns="http://www.w3.org/2000/svg">
<g clip-path="url(#clip0)">
<path d="M23.0725 15H5.9375C4.73125 15 3.75 14.0188 3.75 12.8125V4.6875C3.75 3.48125 4.73125 2.5 5.9375 2.5H24.9837C25.6562 2.5 26.2812 2.8025 26.6987 3.33C27.1162 3.85625 27.2675 4.53375 27.1137 5.18875L25.2025 13.3138C24.9687 14.3063 24.0925 15 23.0725 15ZM5.9375 4.375C5.765 4.375 5.625 4.515 5.625 4.6875V12.8125C5.625 12.985 5.765 13.125 5.9375 13.125H23.0725C23.2187 13.125 23.3437 13.025 23.3775 12.8838L25.2887 4.75875C25.3187 4.63125 25.2637 4.5375 25.2287 4.49375C25.1937 4.45 25.115 4.375 24.9837 4.375H5.9375Z" fill="#8F5E14"/>
<path d="M25 9.6875H4.6875C4.17 9.6875 3.75 9.2675 3.75 8.75C3.75 8.2325 4.17 7.8125 4.6875 7.8125H25C25.5175 7.8125 25.9375 8.2325 25.9375 8.75C25.9375 9.2675 25.5175 9.6875 25 9.6875Z" fill="#8F5E14"/>
<path d="M27.8131 13.75H24.7881C24.2706 13.75 23.8506 13.33 23.8506 12.8125C23.8506 12.295 24.2706 11.875 24.7881 11.875H27.8131C27.9856 11.875 28.1256 11.735 28.1256 11.5625V7.1875C28.1256 7.015 27.9856 6.875 27.8131 6.875H26.1756C25.6581 6.875 25.2381 6.455 25.2381 5.9375C25.2381 5.42 25.6581 5 26.1756 5H27.8131C29.0193 5 30.0006 5.98125 30.0006 7.1875V11.5625C30.0006 12.7688 29.0193 13.75 27.8131 13.75Z" fill="#8F5E14"/>
<path d="M0.9375 27.5C0.42 27.5 0 27.08 0 26.5625V20.9375C0 20.42 0.42 20 0.9375 20H5.3125C5.83 20 6.25 20.42 6.25 20.9375V22.1875C6.25 25.1163 3.86625 27.5 0.9375 27.5ZM1.875 21.875V25.495C3.31625 25.0862 4.375 23.7575 4.375 22.1875V21.875H1.875Z" fill="#8F5E14"/>
<path d="M11.5622 25H4.94971C4.43221 25 4.01221 24.58 4.01221 24.0625C4.01221 23.545 4.43221 23.125 4.94971 23.125H11.5622C12.4234 23.125 13.1247 22.4238 13.1247 21.5625V18.125C13.1247 17.6075 13.5447 17.1875 14.0622 17.1875C14.5797 17.1875 14.9997 17.6075 14.9997 18.125V21.5625C14.9997 23.4588 13.4572 25 11.5622 25Z" fill="#8F5E14"/>
<path d="M17.812 18.75H10.937C9.73076 18.75 8.74951 17.7687 8.74951 16.5625V14.375C8.74951 13.8575 9.16951 13.4375 9.68701 13.4375C10.2045 13.4375 10.6245 13.8575 10.6245 14.375V16.5625C10.6245 16.735 10.7645 16.875 10.937 16.875H17.812C17.9845 16.875 18.1245 16.735 18.1245 16.5625V14.375C18.1245 13.8575 18.5445 13.4375 19.062 13.4375C19.5795 13.4375 19.9995 13.8575 19.9995 14.375V16.5625C19.9995 17.7687 19.0183 18.75 17.812 18.75Z" fill="#8F5E14"/>
</g>
<defs>
<clipPath id="clip0">
<rect width="30" height="30" fill="white"/>
</clipPath>
</defs>
</svg>
