<svg width="40" height="40" viewBox="0 0 40 40" fill="none" xmlns="http://www.w3.org/2000/svg">
<path d="M39.6573 6.11286L34.9596 1.32858C34.7346 1.09952 34.4271 0.970459 34.106 0.970459C33.785 0.970459 33.4775 1.09952 33.2525 1.32858L29.4018 5.25036L25.551 1.32858C25.326 1.09952 25.0185 0.970459 24.6975 0.970459C24.3765 0.970459 24.069 1.09952 23.844 1.32858L19.9931 5.25036L16.1423 1.32858C15.9174 1.09952 15.6098 0.970459 15.2888 0.970459C14.9679 0.970459 14.6603 1.09952 14.4354 1.32858L10.5914 5.24372L6.74716 1.32858C6.52232 1.09952 6.21466 0.970459 5.89373 0.970459C5.57279 0.970459 5.26521 1.09952 5.04029 1.32858L0.342655 6.11286C0.123046 6.33645 0 6.63731 0 6.95083V37.8334C0 38.4938 0.535467 39.0295 1.19609 39.0295H10.5914H19.9868C19.9891 39.0295 19.9911 39.0292 19.9934 39.0291C19.9956 39.0291 19.9977 39.0295 19.9999 39.0295H29.3953C29.3975 39.0295 29.3997 39.0291 29.4018 39.0291C29.4039 39.0291 29.4063 39.0295 29.4084 39.0295H38.8038C39.4642 39.0295 39.9998 38.4938 39.9998 37.8334V6.95083C39.9998 6.63731 39.8769 6.33645 39.6573 6.11286ZM9.39535 24.6375H8.92723C8.26661 24.6375 7.73114 25.1731 7.73114 25.8336C7.73114 26.494 8.26661 27.0297 8.92723 27.0297H9.39535V36.6374H2.39218V16.8631H9.39543V24.6375H9.39535ZM9.39535 14.4708H2.39218V7.43981L5.89373 3.87373L9.39535 7.43981V14.4708ZM18.7908 36.6374H11.7875V27.0297H18.7908V36.6374ZM18.7908 24.6375H11.7875V16.863H18.7908V24.6375ZM18.7908 14.4708H11.7875V7.43981L15.2892 3.87373L18.7908 7.43981V14.4708ZM28.1992 36.6374H21.1959V27.0297H28.1992V36.6374ZM28.1992 24.6375H21.1959V16.863H28.1992V24.6375ZM28.1992 14.4708H21.1959V7.43981L24.6976 3.87373L28.1991 7.43981V14.4708H28.1992ZM37.6077 36.6374H30.6044V27.0297H37.6077V36.6374ZM37.6077 24.6374H30.6044V16.8629H31.0725C31.7329 16.8629 32.2685 16.3273 32.2685 15.6668C32.2685 15.0063 31.7329 14.4707 31.0725 14.4707H30.6044V7.43981L34.106 3.87373L37.6077 7.43981V24.6374Z" fill="#8F5E14"/>
</svg>
