<svg width="30" height="30" viewBox="0 0 30 30" fill="none" xmlns="http://www.w3.org/2000/svg">
<path d="M29.5 15.2539C29.7761 15.2539 30 15.03 30 14.7539V12.9922C30 12.8788 29.9614 12.7687 29.8906 12.6801L26.1979 8.05894C26.103 7.94021 25.9593 7.87107 25.8073 7.87107H17.7406C17.5928 7.87107 17.4526 7.80568 17.3576 7.69245L15.9959 6.0695C15.9203 5.97945 15.8789 5.86567 15.8789 5.74812V5.38279C15.8789 5.10665 16.1028 4.88279 16.3789 4.88279H20.4549C20.731 4.88279 20.9549 4.65894 20.9549 4.38279V0.499999C20.9549 0.223857 20.731 0 20.4549 0H14.6211C14.345 0 14.1211 0.223858 14.1211 0.5V5.74818C14.1211 5.86573 14.0797 5.97951 14.0041 6.06956L12.6424 7.69246C12.5474 7.80568 12.4072 7.87107 12.2594 7.87107H4.19275C4.04076 7.87107 3.89702 7.94021 3.80214 8.05894L0.109394 12.6801C0.0385765 12.7687 0 12.8788 0 12.9922V14.7539C0 15.03 0.223858 15.2539 0.5 15.2539H1.12111C1.39726 15.2539 1.62111 15.4777 1.62111 15.7539V27.7422C1.62111 28.0183 1.39726 28.2422 1.12111 28.2422H0.5C0.223858 28.2422 0 28.466 0 28.7422V29.5C0 29.7761 0.223858 30 0.5 30H29.5C29.7761 30 30 29.7761 30 29.5V28.7422C30 28.466 29.7761 28.2422 29.5 28.2422H28.8789C28.6028 28.2422 28.3789 28.0183 28.3789 27.7422V15.7539C28.3789 15.4777 28.6028 15.2539 28.8789 15.2539H29.5ZM15.8789 2.25781C15.8789 1.98167 16.1028 1.75781 16.3789 1.75781H18.6971C18.9732 1.75781 19.1971 1.98167 19.1971 2.25781V2.62498C19.1971 2.90112 18.9732 3.12498 18.6971 3.12498H16.3789C16.1028 3.12498 15.8789 2.90112 15.8789 2.62498V2.25781ZM1.75781 13.4494C1.75781 13.4388 1.76141 13.4285 1.76803 13.4202L4.64765 9.81675C4.74253 9.69802 4.88627 9.62889 5.03825 9.62889H9.94547C10.3702 9.62889 10.6015 10.1249 10.3285 10.4503L7.9228 13.3175C7.8278 13.4307 7.68757 13.4961 7.53977 13.4961H1.8045C1.77871 13.4961 1.75781 13.4752 1.75781 13.4494ZM14.1211 27.7422C14.1211 28.0183 13.8972 28.2422 13.6211 28.2422H12.6289C12.3528 28.2422 12.1289 28.0183 12.1289 27.7422V22.6289C12.1289 22.3528 12.3528 22.1289 12.6289 22.1289H13.6211C13.8972 22.1289 14.1211 22.3528 14.1211 22.6289V27.7422ZM17.8711 27.7422C17.8711 28.0183 17.6472 28.2422 17.3711 28.2422H16.3789C16.1028 28.2422 15.8789 28.0183 15.8789 27.7422V22.6289C15.8789 22.3528 16.1028 22.1289 16.3789 22.1289H17.3711C17.6472 22.1289 17.8711 22.3528 17.8711 22.6289V27.7422ZM26.6211 27.7422C26.6211 28.0183 26.3973 28.2422 26.1211 28.2422H20.1289C19.8528 28.2422 19.6289 28.0183 19.6289 27.7422V20.8711C19.6289 20.595 19.405 20.3711 19.1289 20.3711H10.8711C10.595 20.3711 10.3711 20.595 10.3711 20.8711V27.7422C10.3711 28.0183 10.1472 28.2422 9.87109 28.2422H3.87893C3.60278 28.2422 3.37893 28.0183 3.37893 27.7422V15.7539C3.37893 15.4777 3.60278 15.2539 3.87893 15.2539H8.35949C8.50729 15.2539 8.64752 15.1885 8.74253 15.0753L14.617 8.07388C14.8168 7.83572 15.1832 7.83572 15.383 8.07387L21.2575 15.0753C21.3525 15.1885 21.4928 15.2539 21.6406 15.2539H26.1211C26.3973 15.2539 26.6211 15.4777 26.6211 15.7539V27.7422ZM28.2422 13.4494C28.2422 13.4752 28.2213 13.4961 28.1955 13.4961H22.4603C22.3125 13.4961 22.1723 13.4307 22.0773 13.3175L19.6716 10.4503C19.3986 10.1249 19.6299 9.62889 20.0546 9.62889H24.9618C25.1138 9.62889 25.2575 9.69802 25.3524 9.81675L28.232 13.4202C28.2386 13.4285 28.2422 13.4388 28.2422 13.4494Z" fill="#8F5E14"/>
<path d="M7.71509 18.1249H5.95728V20.6249H7.71509V18.1249Z" fill="#8F5E14"/>
<path d="M7.75366 23.1251H5.99585V25.6251H7.75366V23.1251Z" fill="#8F5E14"/>
<path d="M24.0427 18.1249H22.2849V20.6249H24.0427V18.1249Z" fill="#8F5E14"/>
<path d="M24.0042 23.1251H22.2463V25.6251H24.0042V23.1251Z" fill="#8F5E14"/>
<path d="M15 12.2461C13.4815 12.2461 12.2461 13.4815 12.2461 15C12.2461 16.5185 13.4815 17.7539 15 17.7539C16.5185 17.7539 17.7539 16.5185 17.7539 15C17.7539 13.4815 16.5185 12.2461 15 12.2461ZM15 15.9961C14.4507 15.9961 14.0039 15.5493 14.0039 15C14.0039 14.4507 14.4507 14.0039 15 14.0039C15.5493 14.0039 15.9961 14.4507 15.9961 15C15.9961 15.5493 15.5493 15.9961 15 15.9961Z" fill="#8F5E14"/>
</svg>
