<svg width="40" height="40" viewBox="0 0 40 40" fill="none" xmlns="http://www.w3.org/2000/svg">
<path d="M39.5 20.3385C39.7761 20.3385 40 20.1147 40 19.8385V17.2645C40 17.1511 39.9614 17.041 39.8906 16.9524L34.8805 10.6826C34.7856 10.5639 34.6419 10.4948 34.4899 10.4948H23.5764C23.4286 10.4948 23.2884 10.4294 23.1934 10.3161L21.2888 8.0462C21.2133 7.95615 21.1719 7.84237 21.1719 7.72482V7.01039C21.1719 6.73425 21.3957 6.51039 21.6719 6.51039H27.4398C27.716 6.51039 27.9398 6.28653 27.9398 6.01039V0.5C27.9398 0.223858 27.716 0 27.4398 0H19.3281C19.052 0 18.8281 0.223858 18.8281 0.5V7.7249C18.8281 7.84244 18.7867 7.95623 18.7112 8.04628L16.8066 10.3162C16.7116 10.4294 16.5714 10.4948 16.4236 10.4948H5.51017C5.35818 10.4948 5.21444 10.5639 5.11956 10.6826L0.109394 16.9524C0.0385766 17.041 0 17.1511 0 17.2645V19.8385C0 20.1147 0.223858 20.3385 0.5 20.3385H1.66148C1.93763 20.3385 2.16148 20.5624 2.16148 20.8385V37.1562C2.16148 37.4324 1.93763 37.6562 1.66148 37.6562H0.5C0.223858 37.6562 0 37.8801 0 38.1562V39.5C0 39.7761 0.223858 40 0.5 40H39.5C39.7761 40 40 39.7761 40 39.5V38.1562C40 37.8801 39.7761 37.6562 39.5 37.6562H38.3386C38.0625 37.6562 37.8386 37.4324 37.8386 37.1562V20.8385C37.8386 20.5624 38.0625 20.3385 38.3386 20.3385H39.5ZM21.1719 2.84375C21.1719 2.56761 21.3957 2.34375 21.6719 2.34375H25.0961C25.3722 2.34375 25.5961 2.56761 25.5961 2.84375V3.66664C25.5961 3.94278 25.3722 4.16664 25.0961 4.16664H21.6719C21.3957 4.16664 21.1719 3.94278 21.1719 3.66664V2.84375ZM2.34375 17.9325C2.34375 17.9184 2.34855 17.9047 2.35737 17.8937L6.24691 13.0264C6.34179 12.9076 6.48552 12.8385 6.63751 12.8385H13.618C14.0427 12.8385 14.274 13.3345 14.0011 13.6599L10.5138 17.8161C10.4188 17.9294 10.2785 17.9948 10.1307 17.9948H2.406C2.37162 17.9948 2.34375 17.9669 2.34375 17.9325ZM18.8281 37.1562C18.8281 37.4324 18.6043 37.6562 18.3281 37.6562H16.6719C16.3957 37.6562 16.1719 37.4324 16.1719 37.1562V30.0052C16.1719 29.7291 16.3957 29.5052 16.6719 29.5052H18.3281C18.6043 29.5052 18.8281 29.7291 18.8281 30.0052V37.1562ZM23.8281 37.1562C23.8281 37.4324 23.6043 37.6562 23.3281 37.6562H21.6719C21.3957 37.6562 21.1719 37.4324 21.1719 37.1562V30.0052C21.1719 29.7291 21.3957 29.5052 21.6719 29.5052H23.3281C23.6043 29.5052 23.8281 29.7291 23.8281 30.0052V37.1562ZM35.4948 37.1562C35.4948 37.4324 35.271 37.6562 34.9948 37.6562H26.6719C26.3957 37.6562 26.1719 37.4324 26.1719 37.1562V27.6615C26.1719 27.3853 25.948 27.1615 25.6719 27.1615H14.3281C14.052 27.1615 13.8281 27.3853 13.8281 27.6615V37.1562C13.8281 37.4324 13.6043 37.6562 13.3281 37.6562H5.00524C4.72909 37.6562 4.50523 37.4324 4.50523 37.1562V20.8385C4.50523 20.5624 4.72909 20.3385 5.00523 20.3385H11.2237C11.3715 20.3385 11.5117 20.2731 11.6067 20.1599L19.617 10.613C19.8168 10.3748 20.1832 10.3748 20.383 10.613L28.3933 20.1599C28.4883 20.2731 28.6286 20.3385 28.7764 20.3385H34.9948C35.271 20.3385 35.4948 20.5624 35.4948 20.8385V37.1562ZM37.6562 17.9325C37.6562 17.9669 37.6284 17.9948 37.594 17.9948H29.8693C29.7215 17.9948 29.5813 17.9294 29.4863 17.8161L25.999 13.6599C25.726 13.3345 25.9573 12.8385 26.3821 12.8385H33.3626C33.5146 12.8385 33.6583 12.9076 33.7532 13.0264L37.6426 17.8937C37.6514 17.9047 37.6562 17.9184 37.6562 17.9325Z" fill="#8F5E14"/>
</svg>
