<svg width="30" height="30" viewBox="0 0 30 30" fill="none" xmlns="http://www.w3.org/2000/svg">
<g clip-path="url(#clip0)">
<path d="M28.6118 6.61178L25.4348 8.07809V2.93479C25.4348 1.31654 24.1182 0 22.5 0H12.7174C11.0991 0 9.78258 1.31654 9.78258 2.93479V8.47828H6.84785V5.5435C6.84785 5.00326 6.40986 4.56522 5.86957 4.56522C5.32934 4.56522 4.89129 5.0032 4.89129 5.5435V8.47828H2.93479C1.31654 8.47828 0 9.79482 0 11.4131V29.0218C0 29.562 0.437988 30 0.978281 30C2.14371 30 27.8607 30 29.0218 30C29.562 30 30.0001 29.562 30.0001 29.0217V7.5C30 6.78645 29.2591 6.31336 28.6118 6.61178ZM9.78264 28.0435H1.9565V11.4131C1.9565 10.8737 2.39537 10.4348 2.93479 10.4348H9.78264V28.0435ZM19.5652 11.4131V28.0435H11.7391V2.93479C11.7391 2.39537 12.178 1.9565 12.7174 1.9565H22.5C23.0394 1.9565 23.4783 2.39537 23.4783 2.93479V8.98107L20.1335 10.5248C19.787 10.6847 19.5652 11.0314 19.5652 11.4131ZM28.0435 12.3913H25.1087C24.5685 12.3913 24.1304 12.8293 24.1304 13.3696C24.1304 13.9098 24.5684 14.3479 25.1087 14.3479H28.0435V16.3044H25.1087C24.5685 16.3044 24.1304 16.7423 24.1304 17.2826C24.1304 17.8229 24.5684 18.2609 25.1087 18.2609H28.0435V20.2174H25.1087C24.5685 20.2174 24.1304 20.6554 24.1304 21.1957C24.1304 21.736 24.5684 22.174 25.1087 22.174H28.0435V24.1305H25.1087C24.5685 24.1305 24.1304 24.5685 24.1304 25.1088C24.1304 25.6491 24.5684 26.0871 25.1087 26.0871H28.0435V28.0436C27.319 28.0436 22.2069 28.0436 21.5218 28.0436V12.039L28.0435 9.029V12.3913Z" fill="#8F5E14"/>
<path d="M16.6308 4.56519H14.6743C14.1341 4.56519 13.696 5.00317 13.696 5.54347C13.696 6.08376 14.134 6.52175 14.6743 6.52175H16.6308C17.1711 6.52175 17.6091 6.08376 17.6091 5.54347C17.6091 5.00317 17.1711 4.56519 16.6308 4.56519Z" fill="#8F5E14"/>
<path d="M16.6308 8.47827H14.6743C14.1341 8.47827 13.696 8.91626 13.696 9.45655C13.696 9.99685 14.134 10.4348 14.6743 10.4348H16.6308C17.1711 10.4348 17.6091 9.99685 17.6091 9.45655C17.6091 8.91626 17.1711 8.47827 16.6308 8.47827Z" fill="#8F5E14"/>
<path d="M16.6308 12.3912H14.6743C14.1341 12.3912 13.696 12.8292 13.696 13.3695C13.696 13.9098 14.134 14.3478 14.6743 14.3478H16.6308C17.1711 14.3478 17.6091 13.9098 17.6091 13.3695C17.6091 12.8292 17.1711 12.3912 16.6308 12.3912Z" fill="#8F5E14"/>
<path d="M16.6308 16.3043H14.6743C14.1341 16.3043 13.696 16.7423 13.696 17.2826C13.696 17.8229 14.134 18.2609 14.6743 18.2609H16.6308C17.1711 18.2609 17.6091 17.8229 17.6091 17.2826C17.6091 16.7423 17.1711 16.3043 16.6308 16.3043Z" fill="#8F5E14"/>
<path d="M16.6308 20.2174H14.6743C14.1341 20.2174 13.696 20.6554 13.696 21.1957C13.696 21.736 14.134 22.174 14.6743 22.174H16.6308C17.1711 22.174 17.6091 21.736 17.6091 21.1957C17.6091 20.6554 17.1711 20.2174 16.6308 20.2174Z" fill="#8F5E14"/>
<path d="M16.6308 24.1305H14.6743C14.1341 24.1305 13.696 24.5685 13.696 25.1088C13.696 25.6491 14.134 26.0871 14.6743 26.0871H16.6308C17.1711 26.0871 17.6091 25.6491 17.6091 25.1088C17.6091 24.5685 17.1711 24.1305 16.6308 24.1305Z" fill="#8F5E14"/>
<path d="M6.84842 12.3912H4.89186C4.35162 12.3912 3.91357 12.8292 3.91357 13.3695C3.91357 13.9098 4.35156 14.3478 4.89186 14.3478H6.84836C7.38859 14.3478 7.82664 13.9098 7.82664 13.3695C7.82664 12.8292 7.38865 12.3912 6.84842 12.3912Z" fill="#8F5E14"/>
<path d="M6.84842 16.3043H4.89186C4.35162 16.3043 3.91357 16.7423 3.91357 17.2826C3.91357 17.8229 4.35156 18.2609 4.89186 18.2609H6.84836C7.38859 18.2609 7.82664 17.8229 7.82664 17.2826C7.82664 16.7423 7.38865 16.3043 6.84842 16.3043Z" fill="#8F5E14"/>
<path d="M6.84842 20.2174H4.89186C4.35162 20.2174 3.91357 20.6554 3.91357 21.1957C3.91357 21.736 4.35156 22.174 4.89186 22.174H6.84836C7.38859 22.174 7.82664 21.736 7.82664 21.1957C7.82664 20.6554 7.38865 20.2174 6.84842 20.2174Z" fill="#8F5E14"/>
<path d="M6.84842 24.1305H4.89186C4.35162 24.1305 3.91357 24.5685 3.91357 25.1088C3.91357 25.6491 4.35156 26.0871 4.89186 26.0871H6.84836C7.38859 26.0871 7.82664 25.6491 7.82664 25.1088C7.82664 24.5685 7.38865 24.1305 6.84842 24.1305Z" fill="#8F5E14"/>
</g>
<defs>
<clipPath id="clip0">
<rect width="30" height="30" fill="white"/>
</clipPath>
</defs>
</svg>
