<svg width="30" height="30" viewBox="0 0 30 30" fill="none" xmlns="http://www.w3.org/2000/svg">
<path d="M29.502 28.1836C29.2269 28.1836 29.0039 27.9606 29.0039 27.6855V0.558594C29.0039 0.282452 28.78 0.0585938 28.5039 0.0585938H1.49609C1.21995 0.0585938 0.996094 0.282451 0.996094 0.558594V27.6855C0.996094 27.9606 0.773111 28.1836 0.498047 28.1836C0.222983 28.1836 0 28.4066 0 28.6816V29.4414C0 29.7175 0.223858 29.9414 0.5 29.9414H3.25C3.52614 29.9414 3.75 29.7175 3.75 29.4414V28.6816C3.75 28.4066 3.52702 28.1836 3.25195 28.1836C2.97689 28.1836 2.75391 27.9606 2.75391 27.6855V2.31641C2.75391 2.04026 2.97776 1.81641 3.25391 1.81641H5.18359C5.45974 1.81641 5.68359 2.04026 5.68359 2.31641V18.3398C5.68359 18.5987 5.47373 18.8086 5.21484 18.8086C4.95596 18.8086 4.74609 19.0185 4.74609 19.2773V23.8164C4.74609 24.0925 4.96995 24.3164 5.24609 24.3164H13.5039C13.78 24.3164 14.0039 24.0925 14.0039 23.8164V19.2773C14.0039 19.0185 13.794 18.8086 13.5352 18.8086C13.2763 18.8086 13.0664 18.5987 13.0664 18.3398V2.31641C13.0664 2.04026 13.2903 1.81641 13.5664 1.81641H16.4336C16.7097 1.81641 16.9336 2.04026 16.9336 2.31641V18.3398C16.9336 18.5987 16.7237 18.8086 16.4648 18.8086C16.206 18.8086 15.9961 19.0185 15.9961 19.2773V23.8164C15.9961 24.0925 16.22 24.3164 16.4961 24.3164H24.7539C25.03 24.3164 25.2539 24.0925 25.2539 23.8164V19.2773C25.2539 19.0185 25.044 18.8086 24.7852 18.8086C24.5263 18.8086 24.3164 18.5987 24.3164 18.3398V2.31641C24.3164 2.04026 24.5403 1.81641 24.8164 1.81641H26.7461C27.0222 1.81641 27.2461 2.04026 27.2461 2.31641V27.6855C27.2461 27.9606 27.0231 28.1836 26.748 28.1836C26.473 28.1836 26.25 28.4066 26.25 28.6816V29.4414C26.25 29.7175 26.4739 29.9414 26.75 29.9414H29.5C29.7761 29.9414 30 29.7175 30 29.4414V28.6816C30 28.4066 29.777 28.1836 29.502 28.1836ZM7.44141 2.31641C7.44141 2.04026 7.66526 1.81641 7.94141 1.81641H10.8086C11.0847 1.81641 11.3086 2.04026 11.3086 2.31641V18.3086C11.3086 18.5847 11.0847 18.8086 10.8086 18.8086H7.94141C7.66526 18.8086 7.44141 18.5847 7.44141 18.3086V2.31641ZM12.2461 22.0586C12.2461 22.3347 12.0222 22.5586 11.7461 22.5586H7.00391C6.72776 22.5586 6.50391 22.3347 6.50391 22.0586V21.0664C6.50391 20.7903 6.72776 20.5664 7.00391 20.5664H11.7461C12.0222 20.5664 12.2461 20.7903 12.2461 21.0664V22.0586ZM18.6914 2.31641C18.6914 2.04026 18.9153 1.81641 19.1914 1.81641H22.0586C22.3347 1.81641 22.5586 2.04026 22.5586 2.31641V18.3086C22.5586 18.5847 22.3347 18.8086 22.0586 18.8086H19.1914C18.9153 18.8086 18.6914 18.5847 18.6914 18.3086V2.31641ZM23.4961 22.0586C23.4961 22.3347 23.2722 22.5586 22.9961 22.5586H18.2539C17.9778 22.5586 17.7539 22.3347 17.7539 22.0586V21.0664C17.7539 20.7903 17.9778 20.5664 18.2539 20.5664H22.9961C23.2722 20.5664 23.4961 20.7903 23.4961 21.0664V22.0586Z" fill="#8F5E14"/>
</svg>
