<svg width="40" height="40" viewBox="0 0 40 40" fill="none" xmlns="http://www.w3.org/2000/svg">
<path d="M27.0312 23.5156C28.9697 23.5156 30.5469 21.9385 30.5469 20V3.51562C30.5469 1.57715 28.9697 0 27.0312 0H12.9688C11.0303 0 9.45312 1.57715 9.45312 3.51562V20C9.45312 21.9385 11.0303 23.5156 12.9688 23.5156H18.8281V28.2031H17.6562C17.1176 28.2031 16.6486 28.5703 16.5189 29.093L14.3958 37.6562H10.625C9.97772 37.6562 9.45312 38.1808 9.45312 38.8281C9.45312 39.4754 9.97772 40 10.625 40H29.375C30.0223 40 30.5469 39.4754 30.5469 38.8281C30.5469 38.1808 30.0223 37.6562 29.375 37.6562H25.6042L23.4811 29.093C23.3514 28.5703 22.8824 28.2031 22.3438 28.2031H21.1719V23.5156H27.0312ZM23.1897 37.6562H16.8103L18.573 30.5469H21.427L23.1897 37.6562ZM11.7969 20V3.51562C11.7969 2.86957 12.3227 2.34375 12.9688 2.34375H27.0312C27.6773 2.34375 28.2031 2.86957 28.2031 3.51562V20C28.2031 20.6461 27.6773 21.1719 27.0312 21.1719H12.9688C12.3227 21.1719 11.7969 20.6461 11.7969 20Z" fill="#8F5E14"/>
<path d="M21.1719 14.1406C23.7567 14.1406 25.8594 12.038 25.8594 9.45312C25.8594 6.86829 23.7567 4.76562 21.1719 4.76562H15.3125C14.6652 4.76562 14.1406 5.29022 14.1406 5.9375V17.6562C14.1406 18.3035 14.6652 18.8281 15.3125 18.8281C15.9598 18.8281 16.4844 18.3035 16.4844 17.6562V14.1406H21.1719ZM16.4844 7.10938H21.1719C22.4643 7.10938 23.5156 8.16071 23.5156 9.45312C23.5156 10.7455 22.4643 11.7969 21.1719 11.7969H16.4844V7.10938Z" fill="#8F5E14"/>
</svg>
