<svg width="30" height="30" viewBox="0 0 30 30" fill="none" xmlns="http://www.w3.org/2000/svg">
<g clip-path="url(#clip0)">
<path d="M29.1211 26.9527H26.7771V22.4998H27.656C28.1415 22.4998 28.5349 22.1061 28.5349 21.6208V9.84373C28.5349 9.45578 28.2806 9.11383 27.9092 9.00213L26.9529 8.71443V2.22654C26.9529 1.94548 26.8183 1.68112 26.591 1.51587C26.3635 1.35038 26.0708 1.30392 25.8032 1.39044L14.6342 5.00723L2.59712 1.38494C2.33093 1.30484 2.04254 1.35542 1.81961 1.52113C1.59645 1.68707 1.46507 1.94868 1.46507 2.22654V21.6208C1.46507 22.1061 1.85852 22.4998 2.34398 22.4998H3.22289V26.9527H0.878906C0.393448 26.9527 0 27.3463 0 27.8316C0 28.317 0.393448 28.7105 0.878906 28.7105H29.1211C29.6066 28.7105 30 28.317 30 27.8316C30 27.3463 29.6066 26.9527 29.1211 26.9527ZM25.0193 26.9527H23.2615V22.4998H25.0193V26.9527ZM19.9216 22.4998H21.5037V26.9527H19.9216V22.4998ZM25.1951 3.43504V8.18525L17.5916 5.89735L25.1951 3.43504ZM3.22289 18.9841H7.32422C7.80968 18.9841 8.20312 18.5907 8.20312 18.1052C8.20312 17.6198 7.80968 17.2263 7.32422 17.2263H3.22289V15.4685H7.32422C7.80968 15.4685 8.20312 15.0751 8.20312 14.5896C8.20312 14.1044 7.80968 13.7107 7.32422 13.7107H3.22289V11.9529H7.32422C7.80968 11.9529 8.20312 11.5594 8.20312 11.0742C8.20312 10.5887 7.80968 10.1953 7.32422 10.1953H3.22289V8.43451C3.24234 8.43588 3.26157 8.43748 3.28148 8.43748H7.32193C7.80716 8.43748 8.20061 8.0438 8.20061 7.55858C8.20061 7.07312 7.80716 6.67967 7.32193 6.67967H3.28148C3.26157 6.67967 3.24234 6.68127 3.22289 6.68264V3.40895L26.7771 10.497V13.7109H22.6756C22.1903 13.7109 21.7969 14.1044 21.7969 14.5898C21.7969 15.0751 22.1903 15.4687 22.6756 15.4687H26.7771V17.2263H22.6756C22.1903 17.2263 21.7969 17.62 21.7969 18.1052C21.7969 18.5907 22.1903 18.9841 22.6756 18.9841H26.7771V20.7419H19.9216V14.5898C19.9216 14.1044 19.5282 13.7109 19.0427 13.7109H11.1328C10.6474 13.7109 10.2539 14.1044 10.2539 14.5898V20.7419H3.22289V18.9841ZM10.2539 22.4998V26.9527H8.49609V22.4998H10.2539ZM4.9807 22.4998H6.73851V26.9527H4.9807V22.4998ZM15.9668 26.9527V23.2615C15.9668 22.776 15.5731 22.3826 15.0879 22.3826C14.6024 22.3826 14.209 22.776 14.209 23.2615V26.9527H12.0117V15.4685H18.1641V26.9527H15.9668Z" fill="#8F5E14"/>
</g>
<defs>
<clipPath id="clip0">
<rect width="30" height="30" fill="white"/>
</clipPath>
</defs>
</svg>
