<svg width="40" height="40" viewBox="0 0 40 40" fill="none" xmlns="http://www.w3.org/2000/svg">
<path d="M38.1491 8.8157L33.913 10.7708V3.91305C33.913 1.75539 32.1577 0 30 0H16.9565C14.7988 0 13.0434 1.75539 13.0434 3.91305V11.3044H9.13047V7.39133C9.13047 6.67102 8.54648 6.08695 7.82609 6.08695C7.10578 6.08695 6.52172 6.67094 6.52172 7.39133V11.3044H3.91305C1.75539 11.3044 0 13.0598 0 15.2174V38.6957C0 39.416 0.583984 40 1.30437 40C2.85828 40 37.1476 40 38.6957 40C39.416 40 40.0001 39.416 40.0001 38.6956V10C40 9.04859 39.0122 8.41781 38.1491 8.8157ZM13.0435 37.3913H2.60867V15.2174C2.60867 14.4982 3.19383 13.913 3.91305 13.913H13.0435V37.3913ZM26.087 15.2174V37.3913H15.6522V3.91305C15.6522 3.19383 16.2373 2.60867 16.9566 2.60867H30C30.7192 2.60867 31.3044 3.19383 31.3044 3.91305V11.9748L26.8447 14.033C26.3827 14.2463 26.087 14.7086 26.087 15.2174ZM37.3913 16.5217H33.4783C32.758 16.5217 32.1739 17.1057 32.1739 17.8261C32.1739 18.5464 32.7579 19.1305 33.4783 19.1305H37.3913V21.7391H33.4783C32.758 21.7391 32.1739 22.3231 32.1739 23.0435C32.1739 23.7639 32.7579 24.3479 33.4783 24.3479H37.3913V26.9566H33.4783C32.758 26.9566 32.1739 27.5405 32.1739 28.2609C32.1739 28.9813 32.7579 29.5653 33.4783 29.5653H37.3913V32.174H33.4783C32.758 32.174 32.1739 32.758 32.1739 33.4784C32.1739 34.1987 32.7579 34.7827 33.4783 34.7827H37.3913V37.3914C36.4253 37.3914 29.6091 37.3914 28.6957 37.3914V16.052L37.3913 12.0387V16.5217Z" fill="#8F5E14"/>
</svg>
