<svg width="30" height="30" viewBox="0 0 30 30" fill="none" xmlns="http://www.w3.org/2000/svg">
<path d="M24.2952 30H20.8001C20.3946 30 20.0658 29.6712 20.0658 29.2657V26.4695H9.93412V29.2657C9.93412 29.6712 9.60534 30 9.19983 30H5.70469C5.29917 30 4.97039 29.6712 4.97039 29.2657V28.6288H2.20963C1.80412 28.6288 1.47534 28.3 1.47534 27.8945V20.563C1.47534 20.1574 1.80412 19.8287 2.20963 19.8287H4.9703V19.1918C4.9703 18.7863 5.29908 18.4576 5.70459 18.4576H9.19974C9.60525 18.4576 9.93403 18.7863 9.93403 19.1918V21.988H20.0658V19.1918C20.0658 18.7863 20.3946 18.4576 20.8001 18.4576H24.2952C24.7008 18.4576 25.0295 18.7863 25.0295 19.1918V19.8287H27.7902C28.1957 19.8287 28.5245 20.1574 28.5245 20.563V27.8944C28.5245 28.2999 28.1957 28.6287 27.7902 28.6287H25.0295V29.2656C25.0295 29.6712 24.7008 30 24.2952 30ZM21.5345 28.5314H23.561V19.9261H21.5345V28.5314ZM6.43898 28.5314H8.46554V19.9261H6.43898V28.5314ZM25.0295 27.1601H27.0559V21.2973H25.0295V27.1601ZM2.94393 27.1601H4.9703V21.2973H2.94393V27.1601ZM9.93412 25.0009H20.0659V23.4566H9.93412V25.0009ZM13.3497 20.5029C13.2275 20.5029 13.1037 20.4725 12.9897 20.4082C12.6364 20.209 12.5116 19.7611 12.7107 19.4079C14.0207 17.0846 15.7895 15.1204 17.8704 13.6087C16.9622 12.351 15.9248 11.2064 14.7789 10.1918C11.9318 13.2578 8.04589 15.3223 3.72824 15.8458C3.82389 16.2321 3.93963 16.6138 4.07556 16.9902C4.21334 17.3715 4.0159 17.7925 3.63444 17.9302C3.25279 18.0681 2.83213 17.8705 2.69436 17.489C2.18302 16.0733 1.92372 14.5887 1.92372 13.0762C1.92372 5.8659 7.78971 0 15 0C22.2102 0 28.0761 5.8659 28.0761 13.0762C28.0761 14.3776 27.883 15.6647 27.502 16.9019C27.3826 17.2895 26.9715 17.5066 26.5841 17.3875C26.1965 17.2682 25.9792 16.8573 26.0985 16.4696C26.4363 15.3727 26.6075 14.231 26.6075 13.0762C26.6075 12.6293 26.5822 12.1883 26.5328 11.7545C24.1582 12.0296 21.9065 12.8119 19.9084 14.0181C20.341 14.7069 20.736 15.4181 21.09 16.1477C21.2669 16.5126 21.1146 16.9519 20.7498 17.1289C20.3849 17.3055 19.9456 17.1535 19.7687 16.7886C19.4407 16.1125 19.0802 15.459 18.6892 14.8298C16.7957 16.2149 15.1852 18.0095 13.9901 20.1292C13.855 20.3685 13.606 20.5029 13.3497 20.5029ZM6.11304 5.6167C4.41573 7.63545 3.39231 10.2385 3.39231 13.0762C3.39231 13.5199 3.41745 13.9609 3.46748 14.3978C7.43789 13.9372 11.0154 12.0587 13.6441 9.25668C11.4324 7.56239 8.88124 6.3162 6.11304 5.6167ZM15.7257 9.08669C16.9763 10.1925 18.1063 11.4423 19.0861 12.7987C21.2521 11.479 23.6954 10.6181 26.2736 10.3063C25.3569 6.57651 22.6327 3.54939 19.0868 2.21123C18.4605 4.76712 17.2956 7.09813 15.7257 9.08669ZM7.28057 4.41457C9.91319 5.1909 12.4127 6.46664 14.5942 8.15111C16.0418 6.30941 17.1124 4.14866 17.6801 1.78094C16.8197 1.5768 15.922 1.46859 15 1.46859C12.0389 1.46859 9.33338 2.58288 7.28057 4.41457Z" fill="#8F5E14"/>
</svg>
