<svg width="40" height="40" viewBox="0 0 40 40" fill="none" xmlns="http://www.w3.org/2000/svg">
<path d="M32.3933 40H27.7331C27.1924 40 26.7541 39.5616 26.7541 39.0209V35.2927H13.2452V39.0209C13.2452 39.5616 12.8068 40 12.2661 40H7.60592C7.06524 40 6.62686 39.5616 6.62686 39.0209V38.1717H2.94585C2.40517 38.1717 1.9668 37.7334 1.9668 37.1927V27.4173C1.9668 26.8766 2.40517 26.4382 2.94585 26.4382H6.62674V25.5891C6.62674 25.0484 7.06512 24.6101 7.6058 24.6101H12.266C12.8067 24.6101 13.245 25.0484 13.245 25.5891V29.3174H26.7541V25.5891C26.7541 25.0484 27.1924 24.6101 27.7331 24.6101H32.3933C32.934 24.6101 33.3724 25.0484 33.3724 25.5891V26.4382H37.0533C37.594 26.4382 38.0323 26.8766 38.0323 27.4173V37.1926C38.0323 37.7332 37.594 38.1716 37.0533 38.1716H33.3724V39.0208C33.3724 39.5616 32.9341 40 32.3933 40ZM28.7123 38.0419H31.4144V26.5682H28.7123V38.0419ZM8.58498 38.0419H11.2871V26.5682H8.58498V38.0419ZM33.3724 36.2135H36.0742V28.3963H33.3724V36.2135ZM3.92491 36.2135H6.62674V28.3963H3.92491V36.2135ZM13.2452 33.3346H26.7542V31.2755H13.2452V33.3346ZM17.7993 27.3372C17.6364 27.3372 17.4713 27.2966 17.3193 27.2109C16.8482 26.9454 16.6818 26.3481 16.9472 25.8772C18.694 22.7795 21.0523 20.1605 23.8268 18.145C22.616 16.468 21.2327 14.9419 19.7049 13.5891C15.9087 17.677 10.7275 20.4297 4.97067 21.1277C5.09819 21.6428 5.25251 22.1518 5.43376 22.6536C5.61746 23.162 5.35421 23.7233 4.84559 23.907C4.33673 24.0908 3.77585 23.8273 3.59215 23.3187C2.91036 21.4311 2.56463 19.4515 2.56463 17.4349C2.56463 7.8212 10.386 0 19.9997 0C29.6133 0 37.4345 7.8212 37.4345 17.4349C37.4345 19.1702 37.177 20.8862 36.669 22.5358C36.5098 23.0526 35.9616 23.3422 35.4452 23.1833C34.9283 23.0242 34.6385 22.4763 34.7976 21.9595C35.248 20.4969 35.4764 18.9746 35.4764 17.4349C35.4764 16.8391 35.4426 16.2511 35.3768 15.6726C32.2106 16.0394 29.2083 17.0826 26.5442 18.6908C27.121 19.6092 27.6477 20.5575 28.1196 21.5303C28.3556 22.0168 28.1525 22.6025 27.6661 22.8385C27.1796 23.0741 26.5938 22.8714 26.3579 22.3848C25.9207 21.4833 25.4399 20.612 24.9186 19.773C22.394 21.6199 20.2467 24.0126 18.6531 26.8389C18.473 27.1579 18.1411 27.3372 17.7993 27.3372ZM8.1504 7.48893C5.88731 10.1806 4.52275 13.6514 4.52275 17.4349C4.52275 18.0265 4.55628 18.6146 4.62298 19.1971C9.91686 18.5829 14.6868 16.0783 18.1919 12.3422C15.2429 10.0832 11.8413 8.42161 8.1504 7.48893ZM20.9672 12.1156C22.6347 13.5901 24.1413 15.2564 25.4478 17.065C28.3357 15.3054 31.5936 14.1574 35.0312 13.7417C33.8089 8.76868 30.1766 4.73252 25.4487 2.94831C24.6137 6.35616 23.0605 9.46418 20.9672 12.1156ZM9.7071 5.88609C13.2173 6.9212 16.55 8.62219 19.4586 10.8681C21.3887 8.41255 22.8162 5.53155 23.5731 2.37458C22.4259 2.1024 21.229 1.95811 19.9997 1.95811C16.0515 1.95811 12.4442 3.44383 9.7071 5.88609Z" fill="#8F5E14"/>
</svg>
