<svg width="20" height="20" viewBox="0 0 20 20" fill="none" xmlns="http://www.w3.org/2000/svg">
<g clip-path="url(#clip0)">
<path d="M19.6439 2.94814C19.1673 2.47142 18.3957 2.47138 17.9191 2.9481L6.40244 14.4648L2.08189 10.1442C1.60529 9.66748 0.833761 9.66744 0.35712 10.1442C-0.118389 10.6197 -0.118389 11.3934 0.35712 11.8689L5.5401 17.0519C6.01662 17.5284 6.78826 17.5285 7.26483 17.0519L19.6439 4.67283C20.1193 4.19732 20.1193 3.42357 19.6439 2.94814Z" fill="#C88B30"/>
<path d="M19.642 2.94814C19.1654 2.47142 18.3938 2.47138 17.9172 2.9481L9.51074 11.3546V14.804L19.642 4.67283C20.1174 4.19732 20.1174 3.42357 19.642 2.94814Z" fill="#8F5E14"/>
</g>
<defs>
<clipPath id="clip0">
<rect width="20" height="20" fill="white"/>
</clipPath>
</defs>
</svg>
