<svg width="13" height="18" viewBox="0 0 13 18" fill="none" xmlns="http://www.w3.org/2000/svg">
<path d="M6.20435 17.3876C6.28576 17.469 6.39288 17.5076 6.5 17.5076C6.60712 17.5076 6.71424 17.469 6.79565 17.3876C7.04846 17.1434 13 11.3632 13 6.5C13 2.91793 10.0864 0 6.5 0C2.91364 0 0 2.91793 0 6.5C0 11.3632 5.95154 17.1434 6.20435 17.3876ZM2.59229 6.5C2.59229 4.34477 4.34474 2.59229 6.5 2.59229C8.65526 2.59229 10.4077 4.34477 10.4077 6.5C10.4077 8.65526 8.65526 10.4077 6.5 10.4077C4.34474 10.4077 2.59229 8.65526 2.59229 6.5Z" fill="black"/>
<path fill-rule="evenodd" clip-rule="evenodd" d="M6.46786 11.8056C9.24336 11.8056 11.4933 9.55562 11.4933 6.78012C11.4933 4.00462 9.24336 1.75464 6.46786 1.75464C3.69237 1.75464 1.44238 4.00462 1.44238 6.78012C1.44238 9.55562 3.69237 11.8056 6.46786 11.8056ZM6.46743 9.2916C7.85518 9.2916 8.98017 8.16661 8.98017 6.77886C8.98017 5.39111 7.85518 4.26612 6.46743 4.26612C5.07968 4.26612 3.95469 5.39111 3.95469 6.77886C3.95469 8.16661 5.07968 9.2916 6.46743 9.2916Z" fill="black"/>
</svg>
