<svg width="16" height="16" viewBox="0 0 16 16" fill="none" xmlns="http://www.w3.org/2000/svg">
<path d="M8.00022 2.29395C4.85376 2.29395 2.29395 4.85379 2.29395 8.00025C2.29395 11.1467 4.85376 13.7065 8.00022 13.7065C11.1467 13.7065 13.7065 11.1467 13.7065 8.00025C13.7065 4.85376 11.1467 2.29395 8.00022 2.29395ZM11.0015 8.59259H8.00022C7.67308 8.59259 7.40785 8.32736 7.40785 8.00027V4.34809C7.40785 4.02095 7.67303 3.75578 8.00022 3.75578C8.32735 3.75578 8.59253 4.021 8.59253 4.34809V7.40788H11.0015C11.3287 7.40788 11.5939 7.67311 11.5939 8.00025C11.5939 8.32736 11.3287 8.59259 11.0015 8.59259Z" fill="black"/>
<path d="M8 0C3.58881 0 0 3.58881 0 8.00005C0 12.4112 3.58881 16 8 16C12.4112 16 16 12.4112 16 8.00005C16 3.58881 12.4112 0 8 0ZM8 14.7692C4.26745 14.7692 1.23077 11.7325 1.23077 8C1.23077 4.2674 4.2674 1.23069 8 1.23069C11.7325 1.23069 14.7692 4.2674 14.7692 8C14.7692 11.7325 11.7325 14.7692 8 14.7692Z" fill="black"/>
</svg>
