<svg width="190" height="222" viewBox="0 0 190 222" fill="none" xmlns="http://www.w3.org/2000/svg">
<g clip-path="url(#clip0)">
<path d="M106.542 121.71V123.717H99.2083V111.148C99.2083 109.042 99.3393 106.936 99.634 104.863L100.223 100.487H101.828C103.072 100.487 104.087 99.4669 104.087 98.1836C104.087 96.9004 103.072 95.8804 101.828 95.8804H90.761C89.5168 95.8804 88.5018 96.9004 88.5018 98.1836C88.5018 99.4669 89.5168 100.487 90.761 100.487H92.3653L92.9547 104.863C93.2166 106.936 93.3803 109.042 93.3803 111.148V123.717H86.0462V121.71H80.3164V123.717V128.06V130.067H86.0462V128.06H93.3803V135.266H86.0462V133.259H80.3164V135.266V139.609V141.616H86.0462V139.609H93.3803V144.742H89.7133V150.5H93.3803H99.2083H102.875V144.742H99.2083V139.609H106.542V141.616H112.272V139.609V135.266V133.259H106.542V135.266H99.2083V128.06H106.542V130.067H112.272V128.06V123.717V121.71H106.542Z" fill="#8F5E14"/>
<path d="M101.829 90.7474H100.225L99.6357 86.4371C99.3738 84.3971 99.2101 82.3241 99.2101 80.2512V77.3886V72.486V65.7408C99.2101 64.7866 98.6862 63.8982 97.8677 63.3717C101.698 59.9498 104.187 57.5478 104.187 54.6523C104.187 52.1845 102.288 50.2761 99.8322 50.2761C98.4898 50.2761 97.1474 50.9013 96.2633 51.9542C95.3793 50.9342 94.0369 50.2761 92.6945 50.2761C90.2389 50.2761 88.3398 52.1845 88.3398 54.6523C88.3398 57.5478 90.8282 59.9498 94.659 63.3717C93.8405 63.8653 93.3166 64.7537 93.3166 65.7408V72.486V77.8493V80.2183C93.3166 82.2912 93.1856 84.3642 92.8909 86.4042L92.3016 90.7145H90.6973C89.4531 90.7145 88.4381 91.7345 88.4381 92.9849C88.4381 94.2352 89.4531 95.2552 90.6973 95.2552H101.829C103.074 95.2552 104.089 94.2352 104.089 92.9849C104.089 91.7674 103.074 90.7474 101.829 90.7474Z" fill="#8F5E14"/>
<path d="M125.729 52.3498C125.467 44.5187 119.737 39.6161 117.379 37.609C114.367 35.0425 111.126 33.4632 108.081 32.509V28.7251H105.92V31.9167C104.512 31.5877 103.17 31.3573 101.958 31.2257C101.958 31.1928 101.958 31.1599 101.958 31.127C101.958 25.9612 99.437 21.7495 96.3265 21.7495C93.2161 21.7495 90.6949 25.9612 90.6949 31.127C90.6949 31.1599 90.6949 31.1928 90.6949 31.2257C89.4835 31.3573 88.1411 31.5548 86.7332 31.9167V28.7251H84.5722V32.509C81.5273 33.4632 78.2858 35.0425 75.2736 37.609C72.9162 39.6161 67.1537 44.5187 66.9245 52.3498C66.6625 60.2466 72.2286 65.5441 73.4401 66.7286C78.777 71.8287 84.8342 72.4538 86.6022 72.4209C87.1588 72.4209 88.403 72.3551 89.6472 71.5983C90.1056 71.3351 91.3825 70.5454 91.8082 68.966C92.1028 67.8802 92.0374 66.1363 90.9241 65.3796C90.1711 64.886 89.287 64.9847 89.0579 65.0176C88.0756 65.1492 87.4863 65.7086 86.9951 66.0705C84.8014 67.617 81.4945 66.9589 79.7592 66.268C79.3336 66.1034 78.2531 65.6099 76.9762 64.3596C74.1277 61.5957 72.2941 56.9892 72.4578 52.8104C72.687 46.493 77.5 40.5703 84.5722 37.938V40.3071H86.7332V37.4116C87.0934 37.3787 87.4535 37.3458 87.7809 37.3458C90.9896 37.4445 93.9364 38.5303 96.3265 40.34C98.7167 38.5303 101.663 37.4445 104.872 37.3458C105.2 37.3458 105.56 37.3458 105.92 37.4116V40.3071H108.081V37.938C115.153 40.5374 119.966 46.493 120.195 52.8104C120.359 56.9892 118.525 61.5957 115.677 64.3596C114.4 65.6099 113.319 66.1034 112.894 66.268C111.158 66.9918 107.852 67.617 105.658 66.0705C105.167 65.7086 104.577 65.1492 103.595 65.0176C103.333 64.9847 102.449 64.886 101.729 65.3796C100.616 66.1363 100.55 67.8802 100.845 68.966C101.271 70.5454 102.547 71.3351 103.006 71.5983C104.25 72.3551 105.494 72.4209 106.051 72.4209C107.819 72.4538 113.876 71.8287 119.213 66.7286C120.424 65.5441 125.958 60.2466 125.729 52.3498Z" fill="#8F5E14"/>
<path d="M170.977 112.169L170.879 112.136L170.06 114.341L170.158 114.373L170.977 112.169Z" fill="white"/>
<path d="M180.011 95.9148C178.963 95.9148 178.963 97.5271 180.011 97.5271C181.059 97.56 181.059 95.9148 180.011 95.9148Z" fill="#8F5E14"/>
<path d="M10.2458 102.23C9.19803 102.23 9.19803 103.843 10.2458 103.843C11.2935 103.843 11.2935 102.23 10.2458 102.23Z" fill="#8F5E14"/>
<path d="M10.2452 100.356C10.7035 100.356 10.7035 99.6321 10.2452 99.6321C9.78677 99.6321 9.78677 100.356 10.2452 100.356Z" fill="#8F5E14"/>
<path d="M178.574 106.343C177.526 106.343 177.526 107.988 178.574 107.988C179.622 107.988 179.622 106.343 178.574 106.343Z" fill="#8F5E14"/>
<path d="M179.295 101.475C178.247 101.475 178.247 103.12 179.295 103.12C180.343 103.12 180.343 101.475 179.295 101.475Z" fill="#8F5E14"/>
<path d="M34.3505 140.498C35.7257 142.143 37.0681 143.558 38.3778 144.775L46.9888 144.216L75.6051 146.026V144.051L46.9888 142.242V135.694L31.4365 136.681C32.2878 137.898 33.2701 139.182 34.3505 140.498Z" fill="white"/>
<path d="M27.3415 131.022L46.9866 128.653L75.6028 132.339V130.364L46.9866 126.679V120.098L22.8887 123.027C23.478 124.244 24.1329 125.527 24.8532 126.844C25.6717 128.324 26.4903 129.706 27.3415 131.022Z" fill="white"/>
<path d="M34.3491 140.498C35.7243 142.143 36.903 143.558 38.1799 144.809H38.3763C37.0994 143.525 35.7243 142.111 34.3491 140.498Z" fill="white"/>
<path d="M34.3453 140.499C33.2649 139.182 32.2826 137.932 31.4313 136.715H31.2349C32.0861 137.899 33.2649 139.182 34.3453 140.499Z" fill="white"/>
<path d="M20.6302 117.958L46.9873 112.595L75.6035 119.077V117.103L46.9873 110.621V104.073L17.8472 110.029C18.2401 111.279 18.633 112.595 19.0914 113.944C19.5825 115.293 20.1063 116.675 20.6302 117.958Z" fill="white"/>
<path d="M16.4416 104.535L46.9896 97.461L75.6058 104.864V102.89L46.9896 95.4868V88.939L15.0664 96.3094C15.2301 97.5926 15.3938 98.9087 15.623 100.258C15.8849 101.771 16.1469 103.186 16.4416 104.535Z" fill="white"/>
<path d="M14.6055 91.176L46.9871 81.8973L75.6033 91.176V89.2018L46.9871 79.923V73.3752L14.5728 82.654C14.5401 83.9044 14.5073 85.2205 14.5073 86.5696C14.5073 88.1489 14.5401 89.6954 14.6055 91.176Z" fill="white"/>
<path d="M57.8612 159.747L75.5745 159.714V157.74L54.4233 157.806C54.9472 158.135 55.5038 158.464 56.0604 158.793C56.6825 159.122 57.2719 159.451 57.8612 159.747Z" fill="white"/>
<path d="M158.635 128.85V121.085L117.938 125.428V135.562L158.635 131.186L160.993 131.449L162.466 129.245L158.635 128.85Z" fill="white"/>
<path d="M154.641 139.74L117.938 141.648V151.783L143.05 150.466C145.277 148.657 147.765 146.683 150.123 144.445C151.792 142.866 153.233 141.286 154.641 139.74Z" fill="white"/>
<path d="M125.206 161.029C127.433 160.042 129.594 158.923 131.525 157.903L117.97 157.87L117.938 163.925L125.206 161.029Z" fill="white"/>
<path d="M175.761 79.1977C175.793 78.737 175.761 78.3422 175.728 78.079C175.63 78.0461 175.564 78.0461 175.466 78.0132L158.67 73.4725V65.7073L117.972 76.7299V86.8642L158.67 75.8415L175.597 80.4151C175.695 80.448 175.826 80.4809 175.924 80.5138C175.793 80.0203 175.761 79.5925 175.761 79.2964C175.761 79.2635 175.761 79.2306 175.761 79.1977Z" fill="white"/>
<path d="M158.635 91.9317V84.1665L117.938 92.9517V103.086L158.635 94.3008L175.006 97.8215C175.104 97.0647 175.203 96.3079 175.334 95.5511L158.635 91.9317Z" fill="white"/>
<path d="M170.881 112.135L158.635 109.831V102.066L117.938 109.733V119.867L158.635 112.2L170.062 114.339L170.881 112.135Z" fill="white"/>
<path d="M62.1136 6.28457C71.314 2.56647 81.3002 0.427746 91.7776 0.263228C91.7121 0.230325 91.6466 0.197421 91.6139 0.131614C89.9768 0.0987106 88.3397 0.0329035 86.6699 0C76.0288 0.822588 65.8134 3.61939 56.3838 8.25878C56.5148 8.22588 56.613 8.16007 56.7439 8.12717C58.512 7.502 60.2473 6.44909 62.1136 6.28457Z" fill="#8F5E14"/>
<path d="M8.94132 83.9047C8.94132 58.3386 20.4009 35.4378 38.4416 20.0719C38.7363 19.5125 39.0637 18.986 39.4566 18.5254C37.1974 20.368 35.0365 22.3422 32.941 24.4151C17.1595 40.3075 8.4502 61.4316 8.4502 83.9047C8.4502 88.2479 8.77761 92.5254 9.39971 96.737C9.43245 95.6512 9.46519 94.5654 9.46519 93.4467C9.13777 90.3208 8.94132 87.1292 8.94132 83.9047Z" fill="#8F5E14"/>
<path d="M101.568 167.445C102.615 167.445 102.615 165.833 101.568 165.833C100.52 165.833 100.52 167.445 101.568 167.445Z" fill="#8F5E14"/>
<path d="M43.3839 15.0708C44.4317 15.0708 44.4317 13.4585 43.3839 13.4585C42.3362 13.4585 42.3362 15.0708 43.3839 15.0708Z" fill="#8F5E14"/>
<path d="M49.5407 12.5365C50.0646 12.5365 50.0646 11.7139 49.5407 11.7139C49.0496 11.7468 49.0496 12.5365 49.5407 12.5365Z" fill="#8F5E14"/>
<path d="M181.557 82.0288C181.524 81.2392 181.459 80.4166 181.393 79.6269C179.822 59.6545 171.309 41.0969 157.066 26.7838C148.946 18.6238 139.484 12.3721 129.17 8.16046C120.494 3.94881 111.13 1.25072 101.405 0.230713C101.274 0.329423 101.143 0.362327 100.947 0.362327H96.7232C105.498 0.790073 113.945 2.59977 121.803 5.59399C114.076 3.29074 105.956 2.07331 97.6727 2.07331C75.2446 2.07331 54.159 10.8585 38.2793 26.7838C23.2508 41.8866 14.607 61.7274 13.7557 82.9172C13.723 84.1018 13.6903 85.2863 13.6903 86.4708C13.6903 88.1489 13.723 89.7941 13.8212 91.4392C13.9194 93.1502 14.0832 94.8612 14.2796 96.5393C14.607 99.3032 15.0654 102.067 15.6548 104.765C16.0477 106.575 16.506 108.385 17.0299 110.194C17.8157 112.892 18.7325 115.558 19.7802 118.19C20.4678 119.868 21.1881 121.546 21.9739 123.158C23.2836 125.889 24.7569 128.587 26.3613 131.154C27.5727 133.062 28.8496 134.971 30.1921 136.78C32.2875 139.61 34.5467 142.308 37.0023 144.875C37.428 145.302 37.8209 145.73 38.2465 146.158C40.0473 147.967 41.8808 149.646 43.8126 151.258C44.8603 152.113 45.9081 152.969 46.9558 153.791C47.2177 153.989 47.5124 154.219 47.7743 154.417C47.5124 154.252 47.2177 154.055 46.9558 153.89C45.6789 153.068 44.4347 152.179 43.2232 151.291C40.5712 149.349 38.0501 147.211 35.6599 144.973C32.9751 142.473 30.4867 139.775 28.1621 136.945C26.7214 135.168 25.3463 133.358 24.0366 131.45C22.2686 128.883 20.6642 126.251 19.1909 123.487C18.3723 121.941 17.5865 120.361 16.8335 118.782C15.6548 116.216 14.607 113.583 13.6903 110.885C13.1336 109.207 12.6098 107.529 12.1514 105.785C12.1514 106.41 12.1514 107.036 12.1187 107.661C12.4461 108.779 12.8062 109.865 13.1664 110.984C14.0832 113.682 15.0981 116.314 16.2768 118.881C16.9972 120.46 17.7502 122.007 18.5688 123.553C20.0094 126.284 21.6465 128.949 23.3818 131.516C24.6587 133.391 26.0339 135.201 27.4418 136.978C29.2426 139.215 31.1743 141.354 33.237 143.427C33.7936 143.986 34.3175 144.513 34.8741 145.039C37.2315 147.277 39.6871 149.382 42.2737 151.324C43.7799 152.475 45.3187 153.561 46.9231 154.581C48.6584 155.733 50.4592 156.786 52.2927 157.806C53.013 158.2 53.7661 158.595 54.4864 158.99C54.9448 159.253 55.4032 159.55 55.8615 159.813C68.4343 167.084 82.7097 170.934 97.6072 170.934C105.072 170.934 112.406 169.947 119.413 168.072C127.5 165.9 135.227 162.511 142.332 158.003C146.065 155.634 149.601 152.969 152.973 150.007C154.349 148.79 155.691 147.54 157.001 146.224C157.524 145.697 158.081 145.138 158.605 144.578C162.207 140.762 165.448 136.649 168.231 132.305C168.689 131.582 169.148 130.825 169.606 130.101C172.356 125.494 174.681 120.658 176.515 115.656C176.547 115.558 176.613 115.426 176.646 115.327C176.58 115.393 176.547 115.492 176.482 115.558C176.449 115.59 176.449 115.623 176.416 115.656C176.253 115.854 176.023 115.952 175.827 115.952C175.598 116.314 175.369 116.643 175.139 117.005C174.943 117.367 174.779 117.729 174.648 118.124C174.583 118.354 174.419 118.519 174.223 118.618C172.586 122.566 170.621 126.383 168.427 130.002C167.969 130.759 167.511 131.483 167.052 132.207C164.531 136.056 161.715 139.709 158.605 143.098C156.313 145.598 153.89 147.935 151.304 150.139C147.898 153.068 144.231 155.7 140.368 158.036C133.459 162.215 125.896 165.439 117.907 167.446C111.424 169.092 104.614 169.98 97.6399 169.98C87.359 169.98 77.5038 168.104 68.4016 164.65C74.8517 166.591 81.5638 167.742 88.4068 168.072H88.374C88.1448 168.039 87.8829 168.039 87.6537 168.006C87.4245 167.973 87.2608 167.874 87.1298 167.742L84.3795 167.479C84.1831 167.446 84.0194 167.381 83.8884 167.249C75.9649 166.426 68.4016 164.485 61.2967 161.59C60.1834 161.063 59.103 160.471 58.0552 159.911C57.4659 159.615 56.8765 159.286 56.2872 158.924C55.7306 158.595 55.174 158.266 54.6501 157.937C51.998 156.325 49.4442 154.548 46.9885 152.64C46.4647 152.245 45.9736 151.817 45.4497 151.422C42.9613 149.415 40.6039 147.244 38.3775 144.94H38.181C36.9041 143.69 35.7254 142.275 34.3503 140.63C33.2698 139.314 32.0911 138.064 31.2398 136.846H31.4362C30.0611 135.003 28.7514 133.128 27.5072 131.154C26.6887 129.871 25.8374 128.456 25.0189 126.975C24.2986 125.659 23.6437 124.376 23.0544 123.158C22.2358 121.513 21.4828 119.802 20.7952 118.091C20.2713 116.808 19.7802 115.426 19.2891 114.011C18.8307 112.662 18.4051 111.379 18.0449 110.096C17.521 108.319 17.0626 106.509 16.637 104.666C16.3423 103.317 16.0804 101.903 15.8185 100.422C15.5893 99.04 15.3928 97.7238 15.2619 96.4735C15.0654 94.7625 14.9017 93.0515 14.8035 91.3076C14.738 89.827 14.7052 88.2805 14.7052 86.6682C14.7052 85.3192 14.738 84.036 14.7707 82.7527C16.768 38.4317 53.1767 3.06042 97.6727 3.06042C111.162 3.06042 123.931 6.31786 135.227 12.1089C157.95 25.7967 173.633 50.0466 175.565 78.0475L175.696 80.4495C175.729 81.6011 175.762 82.7527 175.762 83.9044C175.762 87.7212 175.5 91.5051 175.009 95.1902C175.009 95.1573 175.009 95.1244 175.009 95.0915C175.009 95.1244 175.009 95.1573 175.009 95.1902C175.009 95.289 174.976 95.3548 174.976 95.4535L174.648 97.7238C174.648 97.7896 174.616 97.8225 174.616 97.8883C174.616 97.9212 174.616 97.9541 174.616 97.987C174.616 97.9541 174.616 97.9212 174.616 97.8883C173.797 102.758 172.553 107.463 170.949 112.004L170.981 111.938L170.949 112.004C170.949 112.037 170.916 112.103 170.916 112.136H171.014L170.195 114.34L170.097 114.307L170.065 114.439V114.406C168.035 119.605 165.513 124.54 162.534 129.147V129.114V129.147C162.534 129.18 162.501 129.18 162.501 129.212L161.028 131.417L160.995 131.45V131.483V131.45C159.129 134.148 157.099 136.747 154.938 139.215C154.971 139.182 154.971 139.182 155.003 139.149C154.971 139.182 154.971 139.182 154.938 139.215C154.807 139.38 154.643 139.544 154.512 139.709H154.479C153.039 141.222 151.5 142.802 149.83 144.381C147.473 146.618 145.115 148.658 142.889 150.435H142.922C142.823 150.501 142.758 150.567 142.66 150.633C142.627 150.666 142.627 150.666 142.594 150.698C142.627 150.666 142.627 150.666 142.66 150.633C139.156 153.298 135.391 155.7 131.495 157.806C131.626 157.74 131.757 157.674 131.888 157.608C131.757 157.674 131.626 157.74 131.495 157.806C131.429 157.839 131.397 157.871 131.331 157.904C129.432 158.924 127.369 159.911 125.143 160.899C122.589 162.017 120.166 162.971 117.874 163.761C117.318 164.057 116.761 164.353 116.237 164.65C116.827 164.485 117.416 164.288 118.005 164.09C123.015 162.478 127.86 160.405 132.51 157.904C136.472 155.733 140.302 153.232 143.904 150.402C146.654 148.231 149.306 145.895 151.795 143.394C153.006 142.176 154.152 140.959 155.265 139.676C157.59 137.076 159.718 134.313 161.65 131.483C162.141 130.759 162.632 130.035 163.123 129.278C166.136 124.573 168.657 119.605 170.654 114.406C170.949 113.682 171.21 112.925 171.472 112.201C173.109 107.529 174.354 102.725 175.172 97.8225C175.303 97.0657 175.401 96.309 175.532 95.5522C176.056 91.7354 176.318 87.8199 176.318 83.9044C176.318 82.7856 176.285 81.6998 176.253 80.5811C176.22 79.7914 176.187 78.9688 176.122 78.1791C174.779 57.8448 166.266 38.9252 151.795 24.3819C148.782 21.3548 145.574 18.5909 142.201 16.0902C163.418 29.7123 178.119 52.7776 180.345 79.3637C180.411 80.1533 180.476 80.9759 180.509 81.7656C180.607 83.345 180.64 84.8914 180.64 86.5037C180.64 86.6682 180.64 86.8328 180.64 86.9973C180.673 86.9315 180.738 86.8986 180.804 86.8328C181.066 85.4508 181.328 84.0689 181.557 82.6869C181.557 82.4237 181.557 82.2263 181.557 82.0288Z" fill="#8F5E14"/>
<path d="M5.60027 186.036C6.2551 186.069 6.58252 186.102 7.23735 186.168C9.07089 193.801 10.9044 201.435 12.738 209.036H18.7624C16.5687 200.053 14.375 191.103 12.2141 182.12C14.3096 173.697 16.2086 166.129 18.2713 157.706C15.9139 157.311 14.7352 157.048 12.3451 156.752C10.6097 163.662 8.93992 170.341 7.23735 177.218C6.58252 177.152 6.68074 177.152 6.02591 177.086C6.02591 170.045 6.02591 163.036 6.02591 155.995C3.79947 155.831 2.26061 155.534 0.0341797 155.534C0.0341797 173.006 0.0341797 191.498 0.0341797 209.003H6.02591C5.96042 201.566 5.60027 193.439 5.60027 186.036Z" fill="white"/>
<path d="M29.142 188.832C32.3179 189.26 33.8895 189.654 37.0327 190.082C37.0327 196.4 37.0327 202.75 37.0327 209.067H41.8458C41.8458 193.109 41.8458 179.849 41.8458 163.924C40.1105 163.332 38.8335 162.739 37.0327 162.312C37.0327 169.254 37.0327 174.782 37.0327 181.725C33.8568 181.297 32.2852 180.935 29.142 180.474C29.142 173.532 29.142 167.017 29.142 160.074C27.1775 159.581 26.0643 159.12 23.9033 158.857C23.9033 175.341 23.9033 192.583 23.9033 209.067H29.142C29.142 202.388 29.142 195.413 29.142 188.832Z" fill="white"/>
<path d="M58.2522 191.531C60.0203 191.827 59.6601 191.959 61.4609 192.189C61.4609 196.203 61.4609 204.462 61.4609 209.068H66.6996C66.6996 198.21 66.6996 182.153 66.6996 171.789C62.8033 170.835 60.6424 169.979 56.5824 169.354C54.0285 168.959 52.0313 169.716 50.6234 171.591C49.2155 173.467 48.4952 176.066 48.4952 179.192C48.4952 181.627 48.9208 184.128 49.7394 185.97C50.5579 187.813 51.7366 189.162 53.2755 190.083C51.9658 193.044 49.1173 203.179 47.2183 209.068H52.6534C54.4869 203.409 56.8443 194.657 58.2522 191.531ZM54.6834 176.527C55.4692 175.606 55.7638 175.244 57.2372 175.474C59.1035 175.77 59.4964 176.099 61.4609 176.56C61.4609 180.607 61.4609 181.759 61.4609 185.806C59.5946 185.575 59.4964 185.411 57.6629 185.115C56.1895 184.884 55.4692 184.983 54.6834 183.799C53.8976 182.614 53.5047 182.318 53.5047 180.344C53.5047 178.501 53.8976 177.448 54.6834 176.527Z" fill="white"/>
<path d="M79.5296 179.818C83.9824 180.278 84.9647 180.443 89.3848 180.41C89.3848 178.6 89.3848 176.428 89.3848 174.619C84.1789 174.487 79.1039 173.73 73.8325 173.105C73.8325 183.075 73.8325 198.408 73.8325 209.036H79.5296C79.5296 199.889 79.5296 188.208 79.5296 179.818Z" fill="white"/>
<path d="M106.64 188.601C106.64 195.281 106.64 202.322 106.64 209.035H112.239C112.239 197.782 112.239 184.653 112.239 173.466C110.537 173.795 108.9 173.992 107.295 174.058C104.283 181.363 102.58 188.503 99.5355 195.774C99.5355 188.634 99.5355 181.692 99.5355 174.552C97.6365 174.65 96.2613 174.65 94.3623 174.65C94.3623 185.739 94.3623 197.88 94.3623 209.035H99.2408C102.024 202.125 103.759 195.544 106.64 188.601Z" fill="white"/>
<path d="M125.467 193.308C129.559 193.11 128.675 192.913 132.768 192.715C132.768 197.881 132.768 203.804 132.768 209.069H138.105C138.105 196.17 138.105 180.442 138.105 167.577C136.337 168.137 134.405 168.696 132.768 169.058C132.768 174.553 132.768 180.673 132.768 186.135C128.675 186.332 129.559 186.53 125.467 186.727C125.467 181.232 125.467 176.231 125.467 170.769C123.699 171.197 121.505 171.789 119.737 172.085C119.737 184.983 119.737 196.17 119.737 209.069H125.467C125.467 203.804 125.467 198.539 125.467 193.308Z" fill="white"/>
<path d="M177.005 187.976C181.098 187.746 180.639 187.417 184.699 187.187C184.699 194.195 184.699 201.96 184.699 209.035H190.036C190.036 191.694 190.036 172.907 190.036 155.566C188.399 155.566 186.336 155.895 184.699 155.994C184.699 163.332 184.699 171.031 184.699 178.369C180.606 178.599 181.065 178.928 177.005 179.158C177.005 171.821 177.005 164.253 177.005 156.915C175.204 157.146 173.502 157.574 171.668 157.771C171.668 175.012 171.668 191.76 171.668 209.035H177.005C177.005 202.026 177.005 194.985 177.005 187.976Z" fill="white"/>
<path d="M158.7 176.561V209.037H164.135V159.352L157.882 160.932L151.366 193.802V162.906L145.538 164.946V209.037H152.217L158.7 176.561Z" fill="white"/>
<path d="M51.2075 220.683C51.0111 220.683 50.8474 220.617 50.6509 220.519C50.4872 220.42 50.2908 220.223 50.0616 219.893L48.8501 218.051L51.0766 214.826H49.8651L48.1298 217.36C47.8351 217.524 47.4423 217.623 47.0166 217.623V214.793H46.0344V217.623C45.6087 217.623 45.2158 217.524 44.9211 217.36L43.2186 214.826H42.0071L44.2336 218.051L43.0221 219.893C42.8257 220.19 42.6292 220.42 42.4328 220.519C42.2691 220.617 42.0726 220.683 41.8762 220.683H41.647V221.703H41.9744C42.2036 221.703 42.4328 221.67 42.6292 221.637C42.8257 221.604 42.9894 221.506 43.1858 221.341C43.3823 221.177 43.5787 220.946 43.7752 220.617L45.0848 218.512C45.3468 218.643 45.6742 218.676 46.0016 218.676V221.67H46.9839V218.676C47.344 218.676 47.6387 218.61 47.9334 218.512L49.243 220.617C49.4395 220.946 49.6359 221.177 49.8324 221.341C50.0288 221.506 50.1925 221.604 50.389 221.637C50.5527 221.67 50.7819 221.703 51.0438 221.703H51.404V220.683H51.2075Z" fill="white"/>
<path d="M54.0902 220.125V214.828H53.1079V221.672H54.0902L58.0847 216.407V221.672H59.0669V214.828H58.0847L54.0902 220.125Z" fill="white"/>
<path d="M60.3418 215.848H62.7647V221.672H63.7469V215.848H66.1371V214.828H60.3418V215.848Z" fill="white"/>
<path d="M68.0033 215.846H68.7892C68.6909 216.702 68.5927 217.459 68.429 218.084C68.2653 218.709 68.0361 219.301 67.7087 219.828C67.4795 220.19 67.283 220.42 67.0866 220.519C66.8901 220.617 66.7264 220.683 66.4972 220.683H66.3008V221.67H66.4972C67.1521 221.67 67.6759 221.44 68.0361 221.012C68.9201 219.959 69.4767 218.215 69.7059 215.813H71.6704V221.637H72.6527V214.793H67.5122L68.0033 215.846Z" fill="white"/>
<path d="M79.7574 215.123C79.2008 214.794 78.5787 214.629 77.9239 214.629C77.2691 214.629 76.6797 214.794 76.1231 215.09C75.5665 215.386 75.1081 215.814 74.7807 216.373C74.4533 216.899 74.2896 217.492 74.2896 218.15C74.2896 218.841 74.4533 219.433 74.7807 220.025C75.1081 220.585 75.5337 221.045 76.0903 221.341C76.647 221.671 77.2691 221.835 77.9566 221.835C78.6115 221.835 79.2008 221.671 79.7902 221.374C80.3468 221.045 80.8052 220.618 81.1326 220.091C81.46 219.532 81.6237 218.94 81.6237 218.281C81.6237 217.623 81.46 216.998 81.1326 216.439C80.7397 215.879 80.314 215.452 79.7574 215.123ZM80.2158 219.532C79.9866 219.927 79.6592 220.256 79.2336 220.486C78.8079 220.716 78.3823 220.848 77.8911 220.848C77.4328 220.848 76.9744 220.749 76.5487 220.519C76.1231 220.289 75.7957 219.992 75.5665 219.598C75.3045 219.203 75.2063 218.775 75.2063 218.281C75.2063 217.788 75.3373 217.327 75.5665 216.932C75.7957 216.538 76.1231 216.209 76.5487 215.978C76.9744 215.748 77.4 215.649 77.9239 215.649C78.415 215.649 78.8407 215.748 79.2663 215.978C79.6919 216.209 80.0194 216.505 80.2486 216.9C80.4777 217.294 80.6087 217.722 80.6087 218.216C80.576 218.709 80.4777 219.137 80.2158 219.532Z" fill="white"/>
<path d="M87.9795 218.052C88.176 217.921 88.3397 217.756 88.4379 217.493C88.5361 217.263 88.6016 217 88.6016 216.703C88.6016 216.111 88.4052 215.65 88.045 215.321C87.6848 214.992 87.1937 214.828 86.6044 214.828H83.1665V221.672H86.6044C86.9973 221.672 87.3902 221.606 87.7503 221.474C88.1105 221.343 88.4052 221.145 88.6016 220.849C88.8308 220.553 88.929 220.224 88.929 219.796C88.929 219.369 88.8308 218.974 88.6671 218.678C88.4379 218.381 88.2415 218.184 87.9795 218.052ZM84.116 215.848H86.5716C87.2592 215.848 87.5866 216.144 87.5866 216.703C87.5866 217 87.4884 217.263 87.3247 217.394C87.161 217.559 86.899 217.625 86.5716 217.625H85.3929C85.131 217.625 84.9018 217.658 84.7054 217.69C84.5089 217.723 84.3125 217.789 84.116 217.921V215.848ZM87.7503 220.224C87.6194 220.389 87.4557 220.487 87.292 220.553C87.0955 220.619 86.899 220.652 86.7026 220.652H84.1488V218.941C84.4762 218.743 84.9346 218.678 85.4584 218.678H86.6371C87.03 218.678 87.3574 218.743 87.6194 218.908C87.8813 219.072 88.0123 219.303 88.0123 219.698C87.914 219.895 87.8486 220.092 87.7503 220.224Z" fill="white"/>
<path d="M91.5423 220.125V214.828H90.5273V221.672H91.5423L95.5368 216.407V221.672H96.5191V214.828H95.5368L91.5423 220.125Z" fill="white"/>
<path d="M101.562 214.333C102.152 214.333 102.577 214.202 102.839 213.938C103.101 213.675 103.265 213.346 103.298 213.017H102.25C102.25 213.215 102.185 213.379 102.086 213.511C101.988 213.642 101.792 213.708 101.53 213.708C101.268 213.708 101.071 213.642 100.973 213.511C100.875 213.379 100.809 213.215 100.809 213.017H99.7617C99.7945 213.379 99.9582 213.675 100.22 213.938C100.548 214.202 100.973 214.333 101.562 214.333Z" fill="white"/>
<path d="M99.5042 220.125V214.828H98.522V221.672H99.5042L103.531 216.407V221.672H104.514V214.828H103.531L99.5042 220.125Z" fill="white"/>
<path d="M114.958 214.828H111.455V221.672H112.437V219.04C112.764 218.842 113.223 218.776 113.746 218.776H114.958C115.547 218.776 116.038 218.612 116.399 218.25C116.759 217.888 116.955 217.394 116.955 216.802C116.955 216.21 116.791 215.716 116.431 215.387C116.071 215.058 115.547 214.828 114.958 214.828ZM114.958 217.756H113.746C113.485 217.756 113.255 217.789 113.059 217.822C112.862 217.855 112.666 217.921 112.47 218.052V215.848H114.958C115.285 215.848 115.547 215.914 115.711 216.078C115.875 216.21 115.973 216.473 115.973 216.802C115.973 217.427 115.613 217.756 114.958 217.756Z" fill="white"/>
<path d="M119.902 214.727L120.262 215.583L117.315 221.703H118.395L118.559 221.374C118.625 221.275 118.723 221.176 118.887 221.078C119.05 220.979 119.279 220.88 119.574 220.814C119.869 220.749 120.196 220.716 120.589 220.716H122.652L123.11 221.703H124.223L120.949 214.727H119.902ZM120.982 219.663C120.556 219.663 120.163 219.696 119.902 219.762C119.607 219.827 119.41 219.926 119.247 220.058L120.753 216.8L122.226 219.696H120.982V219.663Z" fill="white"/>
<path d="M126.517 220.125V214.828H125.535V221.672H126.517L130.544 216.407V221.672H131.526V214.828H130.544L126.517 220.125Z" fill="white"/>
<path d="M128.575 214.333C129.165 214.333 129.59 214.202 129.852 213.938C130.114 213.675 130.278 213.346 130.311 213.017H129.263C129.263 213.215 129.197 213.379 129.099 213.511C129.001 213.642 128.804 213.708 128.542 213.708C128.281 213.708 128.084 213.642 127.986 213.511C127.888 213.379 127.822 213.215 127.822 213.017H126.774C126.807 213.379 126.971 213.675 127.233 213.938C127.56 214.202 127.986 214.333 128.575 214.333Z" fill="white"/>
<path d="M138.559 215.123C138.002 214.794 137.38 214.629 136.725 214.629C136.07 214.629 135.481 214.794 134.924 215.09C134.368 215.386 133.909 215.814 133.582 216.373C133.255 216.899 133.091 217.492 133.091 218.15C133.091 218.841 133.255 219.433 133.582 220.025C133.909 220.585 134.335 221.045 134.892 221.341C135.448 221.671 136.07 221.835 136.758 221.835C137.413 221.835 138.002 221.671 138.591 221.374C139.148 221.045 139.606 220.618 139.934 220.091C140.261 219.532 140.425 218.94 140.425 218.281C140.425 217.623 140.261 216.998 139.934 216.439C139.574 215.879 139.115 215.452 138.559 215.123ZM139.05 219.532C138.821 219.927 138.493 220.256 138.068 220.486C137.642 220.716 137.216 220.848 136.725 220.848C136.267 220.848 135.808 220.749 135.383 220.519C134.957 220.289 134.63 219.992 134.4 219.598C134.139 219.203 134.04 218.775 134.04 218.281C134.04 217.788 134.171 217.327 134.4 216.932C134.63 216.538 134.957 216.209 135.383 215.978C135.808 215.748 136.234 215.649 136.758 215.649C137.249 215.649 137.675 215.748 138.1 215.978C138.526 216.209 138.853 216.505 139.083 216.9C139.312 217.294 139.443 217.722 139.443 218.216C139.41 218.709 139.279 219.137 139.05 219.532Z" fill="white"/>
<path d="M146.945 214.828V217.493C146.683 217.625 146.388 217.658 146.028 217.658C145.799 217.658 145.373 217.625 144.686 217.526C144.26 217.46 143.966 217.427 143.802 217.427C143.474 217.427 143.18 217.493 142.951 217.625V214.828H141.968V221.672H142.951V218.645C143.18 218.513 143.474 218.447 143.802 218.447C143.966 218.447 144.26 218.48 144.686 218.546C145.373 218.612 145.799 218.678 146.028 218.678C146.388 218.678 146.683 218.612 146.945 218.513V221.705H147.927V214.861H146.945V214.828Z" fill="white"/>
</g>
<defs>
<clipPath id="clip0">
<rect width="190" height="222" fill="white"/>
</clipPath>
</defs>
</svg>
