<svg width="13" height="18" viewBox="0 0 13 18" fill="none" xmlns="http://www.w3.org/2000/svg">
<path d="M6.20435 17.3876C6.28576 17.469 6.39288 17.5076 6.5 17.5076C6.60712 17.5076 6.71424 17.469 6.79565 17.3876C7.04846 17.1434 13 11.3632 13 6.5C13 2.91793 10.0864 0 6.5 0C2.91364 0 0 2.91793 0 6.5C0 11.3632 5.95154 17.1434 6.20435 17.3876ZM2.59229 6.5C2.59229 4.34477 4.34474 2.59229 6.5 2.59229C8.65526 2.59229 10.4077 4.34477 10.4077 6.5C10.4077 8.65526 8.65526 10.4077 6.5 10.4077C4.34474 10.4077 2.59229 8.65526 2.59229 6.5Z" fill="white"/>
<path fill-rule="evenodd" clip-rule="evenodd" d="M6.46689 11.8063C9.24239 11.8063 11.4924 9.55635 11.4924 6.78085C11.4924 4.00536 9.24239 1.75537 6.46689 1.75537C3.69139 1.75537 1.44141 4.00536 1.44141 6.78085C1.44141 9.55635 3.69139 11.8063 6.46689 11.8063ZM6.4662 9.29269C7.85395 9.29269 8.97894 8.1677 8.97894 6.77995C8.97894 5.3922 7.85395 4.26721 6.4662 4.26721C5.07845 4.26721 3.95346 5.3922 3.95346 6.77995C3.95346 8.1677 5.07845 9.29269 6.4662 9.29269Z" fill="white"/>
</svg>
