<svg width="40" height="40" viewBox="0 0 40 40" fill="none" xmlns="http://www.w3.org/2000/svg">
<path d="M36.4844 18.5938H30.625V4.29688C30.625 1.92758 28.6974 0 26.3281 0H13.6719C11.3026 0 9.375 1.92758 9.375 4.29688V18.5938H3.51562C1.57711 18.5938 0 20.1709 0 22.1094V38.8281C0 39.4753 0.524687 40 1.17188 40H38.8281C39.4753 40 40 39.4753 40 38.8281V22.1094C40 20.1709 38.4229 18.5938 36.4844 18.5938ZM18.0469 33.0469C18.0469 32.8315 18.2221 32.6562 18.4375 32.6562H21.5625C21.7779 32.6562 21.9531 32.8315 21.9531 33.0469V37.6562H18.0469V33.0469ZM21.5625 30.3125H18.4375C16.9298 30.3125 15.7031 31.5391 15.7031 33.0469V37.6562H11.7188V4.29688C11.7188 3.21992 12.5949 2.34375 13.6719 2.34375H26.3281C27.4051 2.34375 28.2812 3.21992 28.2812 4.29688V37.6562H24.2969V33.0469C24.2969 31.5391 23.0702 30.3125 21.5625 30.3125ZM2.34375 22.1094C2.34375 21.4632 2.86945 20.9375 3.51562 20.9375H9.375V37.6562H2.34375V22.1094ZM30.625 20.9375H36.4844C37.1305 20.9375 37.6562 21.4632 37.6562 22.1094V37.6562H30.625V20.9375Z" fill="#8F5E14"/>
<path d="M16.4844 5.85938C16.4844 5.21219 15.9597 4.6875 15.3125 4.6875C14.6653 4.6875 14.1406 5.21219 14.1406 5.85938V24.7656C14.1406 25.4128 14.6653 25.9375 15.3125 25.9375C15.9597 25.9375 16.4844 25.4128 16.4844 24.7656V5.85938Z" fill="#8F5E14"/>
<path d="M21.1719 5.85938C21.1719 5.21219 20.6472 4.6875 20 4.6875C19.3528 4.6875 18.8281 5.21219 18.8281 5.85938V24.7656C18.8281 25.4128 19.3528 25.9375 20 25.9375C20.6472 25.9375 21.1719 25.4128 21.1719 24.7656V5.85938Z" fill="#8F5E14"/>
<path d="M25.8594 24.7656V5.85938C25.8594 5.21219 25.3347 4.6875 24.6875 4.6875C24.0403 4.6875 23.5156 5.21219 23.5156 5.85938V24.7656C23.5156 25.4128 24.0403 25.9375 24.6875 25.9375C25.3347 25.9375 25.8594 25.4128 25.8594 24.7656Z" fill="#8F5E14"/>
<path d="M5.85938 23.2031C5.21219 23.2031 4.6875 23.7278 4.6875 24.375V29.5312C4.6875 30.1784 5.21219 30.7031 5.85938 30.7031C6.50656 30.7031 7.03125 30.1784 7.03125 29.5312V24.375C7.03125 23.7278 6.50656 23.2031 5.85938 23.2031Z" fill="#8F5E14"/>
<path d="M34.1406 23.2031C33.4934 23.2031 32.9688 23.7278 32.9688 24.375V29.5312C32.9688 30.1784 33.4934 30.7031 34.1406 30.7031C34.7878 30.7031 35.3125 30.1784 35.3125 29.5312V24.375C35.3125 23.7278 34.7878 23.2031 34.1406 23.2031Z" fill="#8F5E14"/>
</svg>
