<svg width="40" height="40" viewBox="0 0 40 40" fill="none" xmlns="http://www.w3.org/2000/svg">
<g clip-path="url(#clip0)">
<path d="M1.17249 22.1207C1.40533 22.1207 1.6507 22.1216 1.90674 22.1228C2.18201 22.124 2.47253 22.1255 2.77618 22.1255C4.4397 22.1255 6.49078 22.085 8.46985 21.7715C11.3837 21.3095 13.5159 20.3726 14.9887 18.9066C16.4551 17.4469 17.1988 15.5035 17.1988 13.1302C17.1988 10.863 17.9898 9.00513 19.6173 7.45117C21.0303 6.10199 23.0746 5.00336 25.6931 4.1861C30.1532 2.79388 35.2972 2.50153 38.8275 2.50153C39.4751 2.50153 40 1.97662 40 1.32874C40 0.681152 39.4751 0.15625 38.8275 0.15625C35.1343 0.15625 29.7363 0.466919 24.9942 1.94733C22.0282 2.87323 19.6741 4.15436 17.9977 5.755C15.9113 7.74719 14.8535 10.2289 14.8535 13.1302C14.8535 14.881 14.3564 16.2268 13.334 17.2446C10.7483 19.8184 5.21973 19.7931 1.91772 19.7775C1.65771 19.7763 1.40869 19.7754 1.17249 19.7754C0.524902 19.7754 0 20.3003 0 20.9479C0 21.5955 0.524902 22.1207 1.17249 22.1207Z" fill="#8F5E14"/>
<path d="M38.8275 4.61304C36.0468 4.61304 32.0309 4.92432 28.6902 6.40839C24.7522 8.15765 22.6709 11.17 22.6709 15.1202C22.6709 15.2615 22.6752 15.4095 22.6822 15.564C20.6641 15.9949 19.1452 17.7908 19.1452 19.9356C19.1452 20.5215 19.2572 21.091 19.4736 21.6211C18.5251 22.6062 17.9803 23.9288 17.9803 25.3223C17.9803 27.1683 18.9236 28.8522 20.4443 29.8212C20.4446 30.274 20.5121 30.8023 20.6848 31.344C17.2894 34.4623 10.7327 36.0428 1.17249 36.0428C0.524902 36.0428 0 36.5677 0 37.2153C0 37.8629 0.524902 38.3881 1.17249 38.3881C11.1935 38.3881 18.0139 36.7401 21.9498 33.3585C23.1128 34.4507 24.7134 34.8486 26.1334 34.9533V38.6911C26.1334 39.339 26.6583 39.8639 27.3059 39.8639C27.9538 39.8639 28.4787 39.339 28.4787 38.6911V34.892C31.1789 34.5419 32.5745 33.2553 33.2846 32.149C33.7686 31.3953 34.0298 30.5603 34.1013 29.863C35.6607 28.9011 36.6315 27.1954 36.6315 25.3223C36.6315 23.9288 36.087 22.6062 35.1385 21.6211C35.3549 21.0907 35.4669 20.5215 35.4669 19.9356C35.4669 17.7051 33.8248 15.8505 31.6858 15.5179C31.2021 13.5721 29.44 12.1259 27.3468 12.1259C26.6711 12.1259 26.0306 12.2772 25.4559 12.5467C26.1093 10.8237 27.4948 9.50531 29.642 8.55164C31.2787 7.82471 34.2007 6.95801 38.8272 6.95801C39.4748 6.95801 40 6.43311 40 5.78552C40 5.13794 39.4751 4.61304 38.8275 4.61304ZM27.3468 14.4711C28.5159 14.4711 29.4678 15.4205 29.4724 16.5887L29.4708 16.6342C29.4644 16.9705 29.603 17.2937 29.8511 17.5211C30.0992 17.7484 30.4333 17.8583 30.7675 17.8226C30.8447 17.8143 30.9216 17.8104 30.9961 17.8104C32.168 17.8104 33.1216 18.7637 33.1216 19.9356C33.1216 20.3925 32.9788 20.8279 32.7084 21.1948C32.5198 21.4502 32.4432 21.7715 32.4957 22.0847C32.5485 22.3978 32.7258 22.6764 32.9874 22.8564C33.8007 23.4161 34.2862 24.3381 34.2862 25.3226C34.2862 26.5283 33.5684 27.6105 32.4576 28.0795C32.1655 28.2031 31.9357 28.4393 31.821 28.7347C31.731 28.9658 31.7172 29.2175 31.7786 29.454C31.7828 29.6994 31.6702 30.5518 30.997 31.2906C30.1822 32.1857 28.8342 32.6395 26.9913 32.6395C25.2438 32.6395 23.9777 32.2125 23.3295 31.4047C22.7472 30.679 22.7661 29.7775 22.8064 29.5428C22.8967 29.2813 22.8922 28.9948 22.7911 28.7347C22.6761 28.4393 22.4463 28.2031 22.1542 28.0795C21.0434 27.6105 20.3256 26.528 20.3256 25.3223C20.3256 24.3378 20.8112 23.4158 21.6245 22.8564C21.8863 22.6761 22.0636 22.3978 22.1164 22.0844C22.1689 21.7712 22.092 21.4502 21.9037 21.1945C21.6333 20.8276 21.4905 20.3925 21.4905 19.9356C21.4905 18.7637 22.4438 17.8101 23.616 17.8101C23.7067 17.8101 23.7985 17.8165 23.8971 17.8296C24.2355 17.8738 24.5773 17.7689 24.8322 17.5412C25.087 17.3132 25.2295 16.9858 25.2228 16.644L25.2213 16.5912C25.2243 15.4218 26.1768 14.4711 27.3468 14.4711Z" fill="#8F5E14"/>
<path d="M3.81104 15.0847H9.08783C11.1893 15.0847 12.8989 13.3748 12.8989 11.2734C12.8989 9.21771 11.2628 7.5368 9.22424 7.46478C8.53699 6.38354 7.33734 5.70361 6.00983 5.70361C4.62463 5.70361 3.36731 6.45404 2.69867 7.62744C1.1203 8.10596 0 9.56805 0 11.2734C0 13.3748 1.70959 15.0847 3.81104 15.0847ZM3.64594 9.81738C4.09576 9.76733 4.47662 9.46307 4.62463 9.03522C4.8288 8.44531 5.38544 8.04889 6.00983 8.04889C6.64642 8.04889 7.20673 8.45538 7.40356 9.06024C7.59033 9.63397 8.18237 9.97211 8.77075 9.84271C8.87573 9.81952 8.98254 9.80762 9.08813 9.80762C9.89624 9.80762 10.5539 10.4653 10.5539 11.2734C10.5539 12.0818 9.89624 12.7394 9.08813 12.7394H3.81104C3.00293 12.7394 2.34528 12.0818 2.34528 11.2734C2.34528 10.5257 2.90436 9.89978 3.64594 9.81738Z" fill="#8F5E14"/>
</g>
<defs>
<clipPath id="clip0">
<rect width="40" height="40" fill="white"/>
</clipPath>
</defs>
</svg>
