<svg width="40" height="40" viewBox="0 0 40 40" fill="none" xmlns="http://www.w3.org/2000/svg">
<path d="M15.3125 21.25C14.6653 21.25 14.1406 21.7747 14.1406 22.4219V24.7656C14.1406 25.4128 14.6653 25.9375 15.3125 25.9375C15.9597 25.9375 16.4844 25.4128 16.4844 24.7656V22.4219C16.4844 21.7747 15.9597 21.25 15.3125 21.25Z" fill="#8F5E14"/>
<path d="M20 21.25C19.3528 21.25 18.8281 21.7747 18.8281 22.4219V24.7656C18.8281 25.4128 19.3528 25.9375 20 25.9375C20.6472 25.9375 21.1719 25.4128 21.1719 24.7656V22.4219C21.1719 21.7747 20.6472 21.25 20 21.25Z" fill="#8F5E14"/>
<path d="M23.5156 24.7656C23.5156 25.4128 24.0403 25.9375 24.6875 25.9375C25.3347 25.9375 25.8594 25.4128 25.8594 24.7656V22.4219C25.8594 21.7747 25.3347 21.25 24.6875 21.25C24.0403 21.25 23.5156 21.7747 23.5156 22.4219V24.7656Z" fill="#8F5E14"/>
<path d="M38.75 14.2188H29.7656L21.1719 7.77344V7.0168C24.2212 6.81492 26.6406 4.27141 26.6406 1.17188C26.6406 0.524687 26.1159 0 25.4688 0H20C19.3528 0 18.8281 0.524687 18.8281 1.17188V5.85938V7.77344L10.2344 14.2188H1.25C0.602812 14.2188 0.078125 14.7434 0.078125 15.3906V38.8281C0.078125 39.4753 0.602812 40 1.25 40H38.75C39.3972 40 39.9219 39.4753 39.9219 38.8281V15.3906C39.9219 14.7434 39.3972 14.2188 38.75 14.2188ZM21.1719 2.34375H24.0961C23.6541 3.59 22.5281 4.51531 21.1719 4.66594V2.34375ZM4.76562 37.6562H2.42188V29.0625H4.76562V37.6562ZM9.45312 37.6562H7.10938V29.0625H9.45312V37.6562ZM9.45312 26.7188H2.42188V21.25H9.45312V26.7188ZM9.45312 18.9062H2.42188V16.5625H9.45312V18.9062ZM18.8281 37.6562H16.4844V34.1406C16.4844 32.6129 17.4641 31.3103 18.8281 30.8266V37.6562ZM23.5156 37.6562H21.1719V30.8266C22.5359 31.3103 23.5156 32.6129 23.5156 34.1406V37.6562ZM28.2031 37.6562H25.8594V34.1406C25.8594 30.9098 23.2309 28.2812 20 28.2812C16.7691 28.2812 14.1406 30.9098 14.1406 34.1406V37.6562H11.7969V15.9766L20 9.82422L28.2031 15.9766V37.6562ZM32.8906 37.6562H30.5469V29.0625H32.8906V37.6562ZM37.5781 37.6562H35.2344V29.0625H37.5781V37.6562ZM37.5781 26.7188H30.5469V21.25H37.5781V26.7188ZM37.5781 18.9062H30.5469V16.5625H37.5781V18.9062Z" fill="#8F5E14"/>
<path d="M16.4844 16.1719C16.4844 18.1104 18.0615 19.6875 20 19.6875C21.9385 19.6875 23.5156 18.1104 23.5156 16.1719C23.5156 14.2334 21.9385 12.6562 20 12.6562C18.0615 12.6562 16.4844 14.2334 16.4844 16.1719ZM21.1719 16.1719C21.1719 16.818 20.6462 17.3438 20 17.3438C19.3538 17.3438 18.8281 16.818 18.8281 16.1719C18.8281 15.5257 19.3538 15 20 15C20.6462 15 21.1719 15.5257 21.1719 16.1719Z" fill="#8F5E14"/>
</svg>
