<svg width="40" height="40" viewBox="0 0 40 40" fill="none" xmlns="http://www.w3.org/2000/svg">
<g clip-path="url(#clip0)">
<path d="M38.8281 35.9369H35.7028V29.9997H36.8747C37.522 29.9997 38.0466 29.4748 38.0466 28.8278V13.125C38.0466 12.6077 37.7075 12.1518 37.2122 12.0028L35.9372 11.6192V2.96872C35.9372 2.59397 35.7578 2.24149 35.4547 2.02115C35.1514 1.80051 34.761 1.73856 34.4043 1.85392L19.5123 6.67631L3.46283 1.84659C3.10791 1.73978 2.72339 1.80723 2.42615 2.02817C2.1286 2.24942 1.95343 2.59824 1.95343 2.96872V28.8278C1.95343 29.4748 2.47803 29.9997 3.12531 29.9997H4.29718V35.9369H1.17188C0.524597 35.9369 0 36.4618 0 37.1087C0 37.756 0.524597 38.2806 1.17188 38.2806H38.8281C39.4754 38.2806 40 37.756 40 37.1087C40 36.4618 39.4754 35.9369 38.8281 35.9369ZM33.3591 35.9369H31.0153V29.9997H33.3591V35.9369ZM26.5622 29.9997H28.6716V35.9369H26.5622V29.9997ZM33.5934 4.58005V10.9137L23.4555 7.86313L33.5934 4.58005ZM4.29718 25.3122H9.76562C10.4129 25.3122 10.9375 24.7876 10.9375 24.1403C10.9375 23.493 10.4129 22.9684 9.76562 22.9684H4.29718V20.6247H9.76562C10.4129 20.6247 10.9375 20.1001 10.9375 19.4528C10.9375 18.8058 10.4129 18.2809 9.76562 18.2809H4.29718V15.9372H9.76562C10.4129 15.9372 10.9375 15.4126 10.9375 14.7656C10.9375 14.1183 10.4129 13.5937 9.76562 13.5937H4.29718V11.246C4.32312 11.2478 4.34875 11.25 4.37531 11.25H9.76257C10.4095 11.25 10.9341 10.7251 10.9341 10.0781C10.9341 9.43082 10.4095 8.90623 9.76257 8.90623H4.37531C4.34875 8.90623 4.32312 8.90836 4.29718 8.91019V4.54526L35.7028 13.9959V18.2812H30.2341C29.5871 18.2812 29.0625 18.8058 29.0625 19.4531C29.0625 20.1001 29.5871 20.625 30.2341 20.625H35.7028V22.9684H30.2341C29.5871 22.9684 29.0625 23.4933 29.0625 24.1403C29.0625 24.7876 29.5871 25.3122 30.2341 25.3122H35.7028V27.6559H26.5622V19.4531C26.5622 18.8058 26.0376 18.2812 25.3903 18.2812H14.8438C14.1965 18.2812 13.6719 18.8058 13.6719 19.4531V27.6559H4.29718V25.3122ZM13.6719 29.9997V35.9369H11.3281V29.9997H13.6719ZM6.64093 29.9997H8.98468V35.9369H6.64093V29.9997ZM21.2891 35.9369V31.0153C21.2891 30.368 20.7642 29.8434 20.1172 29.8434C19.4699 29.8434 18.9453 30.368 18.9453 31.0153V35.9369H16.0156V20.6247H24.2188V35.9369H21.2891Z" fill="#8F5E14"/>
</g>
<defs>
<clipPath id="clip0">
<rect width="40" height="40" fill="white"/>
</clipPath>
</defs>
</svg>
