<svg width="53" height="62" viewBox="0 0 53 62" fill="none" xmlns="http://www.w3.org/2000/svg">
<g clip-path="url(#clip0)">
<path d="M29.719 33.9912V34.5517H27.6732V31.0414C27.6732 30.4533 27.7097 29.8652 27.7919 29.2863L27.9563 28.0641H28.4038C28.7509 28.0641 29.034 27.7792 29.034 27.4208C29.034 27.0625 28.7509 26.7776 28.4038 26.7776H25.3168C24.9698 26.7776 24.6866 27.0625 24.6866 27.4208C24.6866 27.7792 24.9698 28.0641 25.3168 28.0641H25.7643L25.9287 29.2863C26.0018 29.8652 26.0475 30.4533 26.0475 31.0414V34.5517H24.0016V33.9912H22.4033V34.5517V35.7647V36.3252H24.0016V35.7647H26.0475V37.7771H24.0016V37.2166H22.4033V37.7771V38.9901V39.5507H24.0016V38.9901H26.0475V40.4237H25.0245V42.0318H26.0475H27.6732H28.6961V40.4237H27.6732V38.9901H29.719V39.5507H31.3173V38.9901V37.7771V37.2166H29.719V37.7771H27.6732V35.7647H29.719V36.3252H31.3173V35.7647V34.5517V33.9912H29.719Z" fill="#8F5E14"/>
<path d="M28.404 25.3441H27.9565L27.7921 24.1403C27.719 23.5705 27.6733 22.9916 27.6733 22.4127V21.6132V20.244V18.3602C27.6733 18.0937 27.5272 17.8456 27.2989 17.6986C28.3675 16.7429 29.0616 16.0721 29.0616 15.2634C29.0616 14.5742 28.5319 14.0413 27.8469 14.0413C27.4724 14.0413 27.0979 14.2159 26.8514 14.5099C26.6048 14.225 26.2303 14.0413 25.8558 14.0413C25.1708 14.0413 24.6411 14.5742 24.6411 15.2634C24.6411 16.0721 25.3352 16.7429 26.4038 17.6986C26.1755 17.8364 26.0294 18.0845 26.0294 18.3602V20.244V21.7419V22.4035C26.0294 22.9824 25.9928 23.5613 25.9106 24.1311L25.7462 25.3349H25.2987C24.9516 25.3349 24.6685 25.6197 24.6685 25.9689C24.6685 26.3181 24.9516 26.603 25.2987 26.603H28.404C28.7511 26.603 29.0342 26.3181 29.0342 25.9689C29.0342 25.6289 28.7511 25.3441 28.404 25.3441Z" fill="#8F5E14"/>
<path d="M35.0713 14.6202C34.9982 12.4332 33.3999 11.064 32.7423 10.5034C31.902 9.78668 30.9979 9.3456 30.1485 9.07911V8.02234H29.5457V8.9137C29.1529 8.82181 28.7785 8.75749 28.4406 8.72073C28.4406 8.71154 28.4406 8.70235 28.4406 8.69316C28.4406 7.25045 27.7373 6.07422 26.8696 6.07422C26.002 6.07422 25.2987 7.25045 25.2987 8.69316C25.2987 8.70235 25.2987 8.71154 25.2987 8.72073C24.9608 8.75749 24.5863 8.81262 24.1936 8.9137V8.02234H23.5908V9.07911C22.7414 9.3456 21.8372 9.78668 20.997 10.5034C20.3394 11.064 18.732 12.4332 18.668 14.6202C18.595 16.8257 20.1476 18.3051 20.4855 18.636C21.9742 20.0603 23.6639 20.2349 24.1571 20.2257C24.3123 20.2257 24.6594 20.2073 25.0065 19.996C25.1343 19.9224 25.4905 19.7019 25.6093 19.2608C25.6915 18.9576 25.6732 18.4705 25.3627 18.2592C25.1526 18.1214 24.906 18.1489 24.8421 18.1581C24.5681 18.1949 24.4037 18.3511 24.2667 18.4522C23.6548 18.8841 22.7323 18.7003 22.2482 18.5073C22.1295 18.4614 21.8281 18.3235 21.4719 17.9743C20.6773 17.2024 20.1659 15.9159 20.2115 14.7489C20.2755 12.9845 21.618 11.3305 23.5908 10.5953V11.257H24.1936V10.4483C24.2941 10.4391 24.3945 10.4299 24.4859 10.4299C25.3809 10.4575 26.2029 10.7607 26.8696 11.2662C27.5364 10.7607 28.3584 10.4575 29.2534 10.4299C29.3447 10.4299 29.4452 10.4299 29.5457 10.4483V11.257H30.1485V10.5953C32.1212 11.3213 33.4638 12.9845 33.5278 14.7489C33.5734 15.9159 33.062 17.2024 32.2674 17.9743C31.9112 18.3235 31.6098 18.4614 31.491 18.5073C31.007 18.7095 30.0845 18.8841 29.4726 18.4522C29.3356 18.3511 29.1712 18.1949 28.8972 18.1581C28.8241 18.1489 28.5776 18.1214 28.3766 18.2592C28.0661 18.4705 28.0478 18.9576 28.13 19.2608C28.2488 19.7019 28.605 19.9224 28.7328 19.996C29.0799 20.2073 29.4269 20.2257 29.5822 20.2257C30.0754 20.2349 31.765 20.0603 33.2538 18.636C33.5917 18.3051 35.1352 16.8257 35.0713 14.6202Z" fill="#8F5E14"/>
<path d="M47.6942 31.3263L47.6668 31.3171L47.4385 31.9328L47.4659 31.942L47.6942 31.3263Z" fill="#2D4E9D"/>
<path d="M50.2138 26.7866C49.9216 26.7866 49.9216 27.2369 50.2138 27.2369C50.5061 27.2461 50.5061 26.7866 50.2138 26.7866Z" fill="#8F5E14"/>
<path d="M2.85836 28.551C2.56609 28.551 2.56609 29.0013 2.85836 29.0013C3.15062 29.0013 3.15062 28.551 2.85836 28.551Z" fill="#8F5E14"/>
<path d="M2.85859 28.0274C2.98646 28.0274 2.98646 27.8252 2.85859 27.8252C2.73073 27.8252 2.73073 28.0274 2.85859 28.0274Z" fill="#8F5E14"/>
<path d="M49.812 29.6997C49.5197 29.6997 49.5197 30.1592 49.812 30.1592C50.1042 30.1592 50.1042 29.6997 49.812 29.6997Z" fill="#8F5E14"/>
<path d="M50.0131 28.3396C49.7209 28.3396 49.7209 28.7991 50.0131 28.7991C50.3054 28.7991 50.3054 28.3396 50.0131 28.3396Z" fill="#8F5E14"/>
<path d="M9.58092 39.2381C9.96452 39.6976 10.339 40.0927 10.7043 40.4327L13.1063 40.2765L21.0888 40.7819V40.2306L13.1063 39.7251V37.8965L8.76807 38.1722C9.00553 38.5122 9.27953 38.8705 9.58092 39.2381Z" fill="#3E4752"/>
<path d="M7.62639 36.5916L13.1063 35.93L21.0887 36.9592V36.4078L13.1063 35.3786V33.5408L6.38428 34.3586C6.54868 34.6986 6.73134 35.057 6.93227 35.4246C7.1606 35.8381 7.38893 36.224 7.62639 36.5916Z" fill="#3E4752"/>
<path d="M9.58057 39.2383C9.96416 39.6977 10.293 40.0929 10.6492 40.4421H10.704C10.3478 40.0837 9.96416 39.6885 9.58057 39.2383Z" fill="#2D4E9D"/>
<path d="M9.58055 39.2382C9.27915 38.8706 9.00515 38.5214 8.76769 38.1814H8.71289C8.95035 38.5122 9.27915 38.8706 9.58055 39.2382Z" fill="#2D4E9D"/>
<path d="M5.75435 32.9435L13.1066 31.4457L21.089 33.256V32.7046L13.1066 30.8943V29.0657L4.97803 30.7289C5.08763 31.0781 5.19722 31.4457 5.32509 31.8224C5.46209 32.1992 5.60822 32.5852 5.75435 32.9435Z" fill="#3E4752"/>
<path d="M4.58525 29.1943L13.1065 27.2186L21.089 29.2862V28.7349L13.1065 26.6673V24.8386L4.20166 26.897C4.24733 27.2554 4.29299 27.623 4.35692 27.9997C4.42999 28.4224 4.50306 28.8176 4.58525 29.1943Z" fill="#3E4752"/>
<path d="M4.07379 25.4636L13.1065 22.8722L21.089 25.4636V24.9122L13.1065 22.3209V20.4922L4.06465 23.0836C4.05552 23.4328 4.04639 23.8003 4.04639 24.1771C4.04639 24.6182 4.05552 25.0501 4.07379 25.4636Z" fill="#3E4752"/>
<path d="M16.1392 44.614L21.0802 44.6048V44.0535L15.1802 44.0718C15.3263 44.1637 15.4816 44.2556 15.6368 44.3475C15.8104 44.4394 15.9748 44.5313 16.1392 44.614Z" fill="#3E4752"/>
<path d="M44.2505 35.9851V33.8164L32.8979 35.0294V37.8597L44.2505 36.6375L44.9081 36.711L45.3191 36.0953L44.2505 35.9851Z" fill="#3E4752"/>
<path d="M43.1363 39.0269L32.8979 39.5598V42.3901L39.9031 42.0225C40.5242 41.5171 41.2183 40.9658 41.8759 40.3409C42.3417 39.8998 42.7435 39.4588 43.1363 39.0269Z" fill="#3E4752"/>
<path d="M34.9255 44.9723C35.5466 44.6966 36.1494 44.3841 36.6882 44.0993L32.9071 44.0901L32.8979 45.7809L34.9255 44.9723Z" fill="#3E4752"/>
<path d="M49.0273 22.1187C49.0365 21.99 49.0273 21.8798 49.0182 21.8062C48.9908 21.797 48.9725 21.797 48.9451 21.7879L44.2598 20.5197V18.3511L32.9072 21.4295V24.2598L44.2598 21.1814L48.9817 22.4587C49.0091 22.4679 49.0456 22.4771 49.073 22.4862C49.0365 22.3484 49.0273 22.2289 49.0273 22.1462C49.0273 22.1371 49.0273 22.1279 49.0273 22.1187Z" fill="#3E4752"/>
<path d="M44.2505 25.6748V23.5061L32.8979 25.9596V28.7899L44.2505 26.3364L48.8171 27.3196C48.8445 27.1083 48.8719 26.8969 48.9085 26.6856L44.2505 25.6748Z" fill="#3E4752"/>
<path d="M47.6663 31.317L44.2505 30.6738V28.5051L32.8979 30.6462V33.4765L44.2505 31.3354L47.438 31.9327L47.6663 31.317Z" fill="#3E4752"/>
<path d="M17.3254 1.75515C19.8918 0.716763 22.6774 0.119461 25.6 0.0735142C25.5818 0.0643249 25.5635 0.0551356 25.5544 0.0367571C25.0977 0.0275678 24.6411 0.00918927 24.1753 0C21.207 0.229732 18.3574 1.01082 15.7271 2.30651C15.7636 2.29732 15.791 2.27894 15.8275 2.26975C16.3207 2.09515 16.8048 1.8011 17.3254 1.75515Z" fill="#8F5E14"/>
<path d="M2.49344 23.4327C2.49344 16.2926 5.69007 9.89687 10.7225 5.60548C10.8047 5.44926 10.896 5.30223 11.0056 5.17358C10.3754 5.68818 9.77261 6.23954 9.18809 6.81846C4.78588 11.2569 2.35645 17.1564 2.35645 23.4327C2.35645 24.6456 2.44778 25.8402 2.62131 27.0165C2.63044 26.7132 2.63957 26.41 2.63957 26.0975C2.54824 25.2246 2.49344 24.3332 2.49344 23.4327Z" fill="#8F5E14"/>
<path d="M28.331 46.7642C28.6233 46.7642 28.6233 46.314 28.331 46.314C28.0388 46.314 28.0388 46.7642 28.331 46.7642Z" fill="#8F5E14"/>
<path d="M12.1015 4.20882C12.3938 4.20882 12.3938 3.75854 12.1015 3.75854C11.8093 3.75854 11.8093 4.20882 12.1015 4.20882Z" fill="#8F5E14"/>
<path d="M13.8186 3.50122C13.9647 3.50122 13.9647 3.27148 13.8186 3.27148C13.6816 3.28067 13.6816 3.50122 13.8186 3.50122Z" fill="#8F5E14"/>
<path d="M50.6437 22.9087C50.6346 22.6882 50.6163 22.4585 50.5981 22.2379C50.1597 16.66 47.785 11.4773 43.8121 7.47995C41.5471 5.20101 38.9076 3.45505 36.0306 2.27882C33.6103 1.1026 30.9982 0.349076 28.2856 0.064209C28.2491 0.0917768 28.2126 0.100966 28.1578 0.100966H26.9796C29.4273 0.220427 31.7837 0.725836 33.9756 1.56206C31.8202 0.918811 29.5552 0.578808 27.2445 0.578808C20.9882 0.578808 15.1064 3.03234 10.6768 7.47995C6.48468 11.6978 4.07352 17.239 3.83605 23.1568C3.82692 23.4877 3.81779 23.8185 3.81779 24.1493C3.81779 24.6179 3.82692 25.0774 3.85432 25.5369C3.88172 26.0147 3.92739 26.4925 3.98219 26.9612C4.07352 27.7331 4.20138 28.505 4.36578 29.2585C4.47538 29.7639 4.60324 30.2693 4.74938 30.7747C4.96857 31.5283 5.2243 32.2726 5.51656 33.0077C5.70836 33.4764 5.90929 33.945 6.12849 34.3953C6.49382 35.158 6.90481 35.9115 7.35234 36.6283C7.69027 37.1613 8.04646 37.6943 8.42092 38.1997C9.00545 38.99 9.63564 39.7435 10.3206 40.4602C10.4394 40.5797 10.549 40.6992 10.6677 40.8186C11.17 41.324 11.6815 41.7927 12.2203 42.243C12.5126 42.4819 12.8049 42.7208 13.0971 42.9505C13.1702 43.0057 13.2524 43.07 13.3255 43.1251C13.2524 43.0792 13.1702 43.024 13.0971 42.9781C12.7409 42.7484 12.3939 42.5003 12.0559 42.2521C11.3162 41.71 10.6129 41.1127 9.94617 40.4878C9.19725 39.7894 8.50312 39.0359 7.85467 38.2456C7.4528 37.7494 7.06921 37.244 6.70388 36.711C6.21069 35.9943 5.76316 35.2591 5.35217 34.4872C5.12384 34.0553 4.90464 33.6142 4.69458 33.1731C4.36578 32.4564 4.07352 31.7212 3.81779 30.9677C3.66252 30.4991 3.51639 30.0304 3.38853 29.5434C3.38853 29.718 3.38853 29.8926 3.37939 30.0672C3.47073 30.3796 3.57119 30.6829 3.67166 30.9953C3.92739 31.7488 4.21052 32.4839 4.53931 33.2007C4.74024 33.6418 4.95031 34.0737 5.17864 34.5056C5.5805 35.2683 6.03716 36.0126 6.52122 36.7294C6.87741 37.2532 7.26101 37.7586 7.65374 38.2548C8.15606 38.8797 8.69492 39.477 9.27031 40.0559C9.42558 40.2121 9.57171 40.3591 9.72697 40.5062C10.3846 41.1311 11.0696 41.7192 11.7911 42.2613C12.2112 42.583 12.6405 42.8862 13.088 43.1711C13.5721 43.4927 14.0744 43.7868 14.5858 44.0716C14.7868 44.1819 14.9968 44.2922 15.1978 44.4024C15.3256 44.4759 15.4535 44.5587 15.5814 44.6322C19.0885 46.663 23.0706 47.7381 27.2262 47.7381C29.3086 47.7381 31.3544 47.4625 33.3089 46.9387C35.5648 46.3322 37.7203 45.3857 39.7022 44.1268C40.7433 43.4651 41.7297 42.7208 42.6704 41.8938C43.054 41.5538 43.4285 41.2046 43.7938 40.837C43.94 40.69 44.0952 40.5337 44.2414 40.3775C45.246 39.3116 46.1502 38.1629 46.9265 36.9499C47.0544 36.7478 47.1823 36.5364 47.3101 36.3343C48.0773 35.0478 48.7258 33.6969 49.2372 32.3002C49.2464 32.2726 49.2646 32.2358 49.2738 32.2083C49.2555 32.2267 49.2464 32.2542 49.2281 32.2726C49.219 32.2818 49.219 32.291 49.2098 32.3002C49.1642 32.3553 49.1002 32.3829 49.0454 32.3829C48.9815 32.4839 48.9176 32.5758 48.8536 32.6769C48.7988 32.778 48.7532 32.8791 48.7166 32.9894C48.6984 33.0537 48.6527 33.0996 48.5979 33.1272C48.1412 34.2299 47.5933 35.2959 46.9813 36.3067C46.8535 36.518 46.7256 36.7202 46.5977 36.9224C45.8945 37.9975 45.109 39.0175 44.2414 39.964C43.602 40.6624 42.9262 41.3148 42.2047 41.9305C41.2548 42.7484 40.2319 43.4835 39.1542 44.1359C37.2271 45.303 35.1173 46.2035 32.8888 46.7641C31.0804 47.2235 29.1807 47.4716 27.2353 47.4716C24.3675 47.4716 21.6184 46.9479 19.0794 45.983C20.8786 46.5252 22.7509 46.8468 24.6598 46.9387H24.6506C24.5867 46.9295 24.5136 46.9295 24.4497 46.9203C24.3858 46.9111 24.3401 46.8835 24.3036 46.8468L23.5364 46.7733C23.4816 46.7641 23.4359 46.7457 23.3994 46.7089C21.1891 46.4792 19.0794 45.937 17.0975 45.1284C16.7869 44.9814 16.4855 44.8159 16.1933 44.6597C16.0289 44.577 15.8645 44.4851 15.7001 44.3841C15.5448 44.2922 15.3896 44.2003 15.2434 44.1084C14.5036 43.6581 13.7912 43.1619 13.1063 42.6289C12.9601 42.5186 12.8231 42.3992 12.677 42.2889C11.9829 41.7284 11.3253 41.1219 10.7042 40.4786H10.6494C10.2932 40.1294 9.96444 39.7343 9.58084 39.2748C9.27945 38.9072 8.95065 38.5581 8.71319 38.2181H8.76799C8.38439 37.7035 8.01906 37.1797 7.672 36.6283C7.44367 36.2699 7.20621 35.8748 6.97788 35.4613C6.77695 35.0937 6.59428 34.7353 6.42989 34.3953C6.20156 33.9359 5.99149 33.458 5.79969 32.9802C5.65356 32.6218 5.51656 32.2358 5.37957 31.8407C5.2517 31.4639 5.13297 31.1056 5.0325 30.7472C4.88637 30.251 4.75851 29.7455 4.63978 29.2309C4.55758 28.8542 4.48451 28.459 4.41145 28.0455C4.34751 27.6596 4.29272 27.292 4.25618 26.9428C4.20138 26.465 4.15572 25.9871 4.12832 25.5001C4.11005 25.0866 4.10092 24.6547 4.10092 24.2044C4.10092 23.8277 4.11005 23.4693 4.11918 23.1109C4.67631 10.733 14.8324 0.854486 27.2445 0.854486C31.0073 0.854486 34.5693 1.76422 37.7202 3.38153C44.0587 7.20427 48.4335 13.9768 48.9724 21.7968L49.0089 22.4676C49.018 22.7893 49.0272 23.1109 49.0272 23.4325C49.0272 24.4985 48.9541 25.5552 48.8171 26.5844C48.8171 26.5752 48.8171 26.5661 48.8171 26.5569C48.8171 26.5661 48.8171 26.5752 48.8171 26.5844C48.8171 26.612 48.808 26.6304 48.808 26.658L48.7166 27.292C48.7166 27.3104 48.7075 27.3196 48.7075 27.338C48.7075 27.3471 48.7075 27.3563 48.7075 27.3655C48.7075 27.3563 48.7075 27.3471 48.7075 27.338C48.4792 28.698 48.1321 30.012 47.6846 31.2802L47.6937 31.2618L47.6846 31.2802C47.6846 31.2893 47.6754 31.3077 47.6754 31.3169H47.7028L47.4745 31.9326L47.4471 31.9234L47.438 31.9602V31.951C46.8717 33.4029 46.1685 34.7813 45.3373 36.0678V36.0586V36.0678C45.3373 36.077 45.3282 36.077 45.3282 36.0861L44.9172 36.7018L44.9081 36.711V36.7202V36.711C44.3875 37.4645 43.8212 38.1905 43.2184 38.8797C43.2276 38.8705 43.2276 38.8705 43.2367 38.8613C43.2276 38.8705 43.2276 38.8705 43.2184 38.8797C43.1819 38.9256 43.1362 38.9716 43.0997 39.0175H43.0906C42.6887 39.4402 42.2595 39.8813 41.7937 40.3224C41.1361 40.9473 40.4785 41.517 39.8574 42.0132H39.8666C39.8392 42.0316 39.8209 42.05 39.7935 42.0684C39.7844 42.0775 39.7844 42.0775 39.7752 42.0867C39.7844 42.0775 39.7844 42.0775 39.7935 42.0684C38.8162 42.8127 37.7659 43.4835 36.6791 44.0716C36.7156 44.0532 36.7521 44.0349 36.7887 44.0165C36.7521 44.0349 36.7156 44.0532 36.6791 44.0716C36.6608 44.0808 36.6517 44.09 36.6334 44.0992C36.1037 44.3841 35.5283 44.6597 34.9072 44.9354C34.1948 45.2478 33.519 45.5143 32.8797 45.7349C32.7244 45.8176 32.5691 45.9003 32.423 45.983C32.5874 45.937 32.7518 45.8819 32.9162 45.8268C34.3136 45.3765 35.6653 44.7976 36.9622 44.0992C38.0673 43.4927 39.1359 42.7943 40.1405 42.004C40.9077 41.3975 41.6475 40.7451 42.3417 40.0467C42.6796 39.7067 42.9992 39.3667 43.3098 39.0083C43.9582 38.2824 44.5519 37.5105 45.0907 36.7202C45.2277 36.518 45.3647 36.3159 45.5017 36.1045C46.342 34.7905 47.0453 33.4029 47.6024 31.951C47.6846 31.7488 47.7576 31.5375 47.8307 31.3353C48.2874 30.0304 48.6344 28.6888 48.8628 27.3196C48.8993 27.1082 48.9267 26.8969 48.9632 26.6855C49.1094 25.6196 49.1824 24.526 49.1824 23.4325C49.1824 23.1201 49.1733 22.8168 49.1642 22.5044C49.155 22.2839 49.1459 22.0541 49.1276 21.8336C48.7532 16.1546 46.3785 10.8708 42.3417 6.80913C41.5014 5.96372 40.6063 5.19182 39.6656 4.49344C45.5839 8.29779 49.6847 14.7395 50.3058 22.1644C50.3241 22.3849 50.3423 22.6147 50.3515 22.8352C50.3789 23.2763 50.388 23.7082 50.388 24.1585C50.388 24.2044 50.388 24.2504 50.388 24.2963C50.3971 24.2779 50.4154 24.2687 50.4337 24.2504C50.5067 23.8644 50.5798 23.4785 50.6437 23.0925C50.6437 23.019 50.6437 22.9639 50.6437 22.9087Z" fill="#8F5E14"/>
<path d="M1.56143 51.9562C1.7441 51.9654 1.83543 51.9746 2.01809 51.9929C2.52955 54.1249 3.04101 56.2568 3.55247 58.3795H5.23298C4.62106 55.8708 4.00913 53.3713 3.40634 50.8627C3.99087 48.5102 4.52059 46.3967 5.09599 44.0442C4.43839 43.934 4.1096 43.8604 3.44288 43.7777C2.95882 45.7075 2.49302 47.5729 2.01809 49.4935C1.83543 49.4751 1.86283 49.4751 1.68017 49.4567C1.68017 47.4902 1.68017 45.5329 1.68017 43.5664C1.05911 43.5204 0.629847 43.4377 0.00878906 43.4377C0.00878906 48.3172 0.00878906 53.4816 0.00878906 58.3703H1.68017C1.6619 56.2935 1.56143 54.0238 1.56143 51.9562Z" fill="#3E4752"/>
<path d="M8.12831 52.7374C9.01423 52.8569 9.45262 52.9671 10.3294 53.0866C10.3294 54.8509 10.3294 56.6245 10.3294 58.3888H11.672C11.672 53.932 11.672 50.2287 11.672 45.7811C11.1879 45.6157 10.8317 45.4503 10.3294 45.3308C10.3294 47.2698 10.3294 48.8136 10.3294 50.7525C9.44349 50.633 9.00509 50.532 8.12831 50.4033C8.12831 48.4644 8.12831 46.6449 8.12831 44.706C7.58031 44.5681 7.26978 44.4395 6.66699 44.366C6.66699 48.9698 6.66699 53.785 6.66699 58.3888H8.12831C8.12831 56.5234 8.12831 54.5752 8.12831 52.7374Z" fill="#3E4752"/>
<path d="M16.2478 53.4908C16.741 53.5735 16.6405 53.6102 17.1429 53.6745C17.1429 54.7956 17.1429 57.1022 17.1429 58.3886H18.6042C18.6042 55.3562 18.6042 50.8718 18.6042 47.9772C17.5173 47.7107 16.9145 47.4718 15.782 47.2972C15.0696 47.1869 14.5125 47.3983 14.1198 47.9221C13.727 48.4459 13.5261 49.1718 13.5261 50.0448C13.5261 50.7248 13.6448 51.4232 13.8732 51.9378C14.1015 52.4524 14.4303 52.8291 14.8596 53.0864C14.4942 53.9135 13.6996 56.7438 13.1699 58.3886H14.686C15.1975 56.8081 15.8551 54.3637 16.2478 53.4908ZM15.2523 49.3005C15.4715 49.0432 15.5537 48.9421 15.9647 49.0064C16.4853 49.0891 16.5949 49.181 17.1429 49.3096C17.1429 50.4399 17.1429 50.7616 17.1429 51.8918C16.6223 51.8275 16.5949 51.7816 16.0834 51.6989C15.6724 51.6345 15.4715 51.6621 15.2523 51.3313C15.0331 51.0005 14.9235 50.9178 14.9235 50.3664C14.9235 49.8518 15.0331 49.5578 15.2523 49.3005Z" fill="#3E4752"/>
<path d="M22.1834 50.2193C23.4255 50.348 23.6995 50.3939 24.9325 50.3847C24.9325 49.8793 24.9325 49.2728 24.9325 48.7674C23.4803 48.7307 22.0647 48.5193 20.5942 48.3447C20.5942 51.1291 20.5942 55.4113 20.5942 58.3794H22.1834C22.1834 55.8248 22.1834 52.5626 22.1834 50.2193Z" fill="#3E4752"/>
<path d="M29.7467 52.6729C29.7467 54.5383 29.7467 56.5048 29.7467 58.3794H31.3085C31.3085 55.2367 31.3085 51.5702 31.3085 48.4458C30.8336 48.5377 30.3769 48.5928 29.9294 48.6112C29.0891 50.6512 28.6142 52.6453 27.7648 54.6761C27.7648 52.6821 27.7648 50.7431 27.7648 48.749C27.2351 48.7766 26.8515 48.7766 26.3218 48.7766C26.3218 51.8734 26.3218 55.2642 26.3218 58.3794H27.6826C28.4589 56.4496 28.943 54.6118 29.7467 52.6729Z" fill="#3E4752"/>
<path d="M34.9982 53.987C36.1399 53.9319 35.8933 53.8768 37.0349 53.8216C37.0349 55.2643 37.0349 56.9184 37.0349 58.3887H38.5236C38.5236 54.7865 38.5236 50.394 38.5236 46.801C38.0304 46.9572 37.4916 47.1135 37.0349 47.2145C37.0349 48.7492 37.0349 50.4584 37.0349 51.9838C35.8933 52.0389 36.1399 52.094 34.9982 52.1492C34.9982 50.6146 34.9982 49.2178 34.9982 47.6924C34.505 47.8118 33.8931 47.9773 33.3999 48.06C33.3999 51.6622 33.3999 54.7865 33.3999 58.3887H34.9982C34.9982 56.9184 34.9982 55.4481 34.9982 53.987Z" fill="#3E4752"/>
<path d="M49.3735 52.4984C50.5151 52.4341 50.3873 52.3422 51.5198 52.2779C51.5198 54.2352 51.5198 56.4039 51.5198 58.3796H53.0085C53.0085 53.5368 53.0085 48.2898 53.0085 43.447C52.5518 43.447 51.9764 43.5389 51.5198 43.5665C51.5198 45.6157 51.5198 47.766 51.5198 49.8152C50.3781 49.8795 50.506 49.9714 49.3735 50.0357C49.3735 47.9865 49.3735 45.873 49.3735 43.8238C48.8712 43.8881 48.3962 44.0076 47.8848 44.0627C47.8848 48.8779 47.8848 53.5552 47.8848 58.3796H49.3735C49.3735 56.4223 49.3735 54.4558 49.3735 52.4984Z" fill="#3E4752"/>
<path d="M44.2687 49.3097V58.3795H45.7848V44.5037L44.0404 44.9447L42.2229 54.1248V45.4961L40.5972 46.0658V58.3795H42.4603L44.2687 49.3097Z" fill="#3E4752"/>
<path d="M14.2846 61.6322C14.2298 61.6322 14.1841 61.6138 14.1293 61.5862C14.0836 61.5587 14.0288 61.5035 13.9649 61.4116L13.627 60.897L14.248 59.9965H13.9101L13.426 60.7041C13.3439 60.75 13.2343 60.7776 13.1155 60.7776V59.9873H12.8415V60.7776C12.7228 60.7776 12.6132 60.75 12.531 60.7041L12.0561 59.9965H11.7181L12.3392 60.897L12.0013 61.4116C11.9465 61.4943 11.8917 61.5587 11.8369 61.5862C11.7912 61.6138 11.7364 61.6322 11.6816 61.6322H11.6177V61.917H11.709C11.7729 61.917 11.8369 61.9079 11.8917 61.8987C11.9465 61.8895 11.9921 61.8619 12.0469 61.816C12.1017 61.77 12.1565 61.7057 12.2113 61.6138L12.5767 61.0257C12.6497 61.0624 12.7411 61.0716 12.8324 61.0716V61.9079H13.1064V61.0716C13.2069 61.0716 13.2891 61.0533 13.3712 61.0257L13.7366 61.6138C13.7914 61.7057 13.8462 61.77 13.901 61.816C13.9558 61.8619 14.0014 61.8895 14.0562 61.8987C14.1019 61.9079 14.1658 61.917 14.2389 61.917H14.3394V61.6322H14.2846Z" fill="#3E4752"/>
<path d="M15.088 61.4761V59.9966H14.814V61.908H15.088L16.2022 60.4377V61.908H16.4762V59.9966H16.2022L15.088 61.4761Z" fill="#3E4752"/>
<path d="M16.8325 60.2814H17.5084V61.908H17.7824V60.2814H18.4491V59.9966H16.8325V60.2814Z" fill="#3E4752"/>
<path d="M18.97 60.2814H19.1892C19.1618 60.5203 19.1344 60.7316 19.0888 60.9062C19.0431 61.0808 18.9792 61.2462 18.8878 61.3933C18.8239 61.4943 18.7691 61.5587 18.7143 61.5862C18.6595 61.6138 18.6138 61.6322 18.5499 61.6322H18.4951V61.9079H18.5499C18.7326 61.9079 18.8787 61.8435 18.9792 61.7241C19.2258 61.43 19.381 60.943 19.445 60.2722H19.993V61.8987H20.267V59.9873H18.833L18.97 60.2814Z" fill="#3E4752"/>
<path d="M22.2484 60.0792C22.0931 59.9874 21.9196 59.9414 21.7369 59.9414C21.5543 59.9414 21.3899 59.9874 21.2346 60.0701C21.0793 60.1528 20.9515 60.2722 20.8601 60.4284C20.7688 60.5755 20.7231 60.7409 20.7231 60.9247C20.7231 61.1176 20.7688 61.283 20.8601 61.4485C20.9515 61.6047 21.0702 61.7333 21.2255 61.816C21.3807 61.9079 21.5543 61.9539 21.7461 61.9539C21.9287 61.9539 22.0931 61.9079 22.2575 61.8252C22.4128 61.7333 22.5407 61.6139 22.632 61.4668C22.7233 61.3106 22.769 61.1452 22.769 60.9614C22.769 60.7776 22.7233 60.603 22.632 60.4468C22.5224 60.2906 22.4037 60.1711 22.2484 60.0792ZM22.3763 61.3106C22.3123 61.4209 22.221 61.5128 22.1023 61.5771C21.9835 61.6414 21.8648 61.6782 21.7278 61.6782C21.5999 61.6782 21.4721 61.6506 21.3533 61.5863C21.2346 61.522 21.1433 61.4393 21.0793 61.329C21.0063 61.2187 20.9789 61.0993 20.9789 60.9614C20.9789 60.8236 21.0154 60.6949 21.0793 60.5847C21.1433 60.4744 21.2346 60.3825 21.3533 60.3182C21.4721 60.2538 21.5908 60.2263 21.7369 60.2263C21.8739 60.2263 21.9927 60.2538 22.1114 60.3182C22.2301 60.3825 22.3215 60.4652 22.3854 60.5755C22.4493 60.6857 22.4859 60.8052 22.4859 60.943C22.4767 61.0809 22.4493 61.2003 22.3763 61.3106Z" fill="#3E4752"/>
<path d="M24.5413 60.8971C24.5961 60.8604 24.6418 60.8144 24.6692 60.7409C24.6966 60.6766 24.7148 60.6031 24.7148 60.5204C24.7148 60.355 24.66 60.2263 24.5596 60.1344C24.4591 60.0425 24.3221 59.9966 24.1577 59.9966H23.1987V61.908H24.1577C24.2673 61.908 24.3769 61.8896 24.4774 61.8528C24.5778 61.8161 24.66 61.7609 24.7148 61.6782C24.7788 61.5955 24.8062 61.5036 24.8062 61.3842C24.8062 61.2647 24.7788 61.1544 24.7331 61.0717C24.6692 60.989 24.6144 60.9339 24.5413 60.8971ZM23.4636 60.2814H24.1486C24.3404 60.2814 24.4317 60.3642 24.4317 60.5204C24.4317 60.6031 24.4043 60.6766 24.3586 60.7133C24.313 60.7593 24.2399 60.7777 24.1486 60.7777H23.8198C23.7467 60.7777 23.6828 60.7869 23.628 60.796C23.5732 60.8052 23.5184 60.8236 23.4636 60.8604V60.2814ZM24.4774 61.5036C24.4408 61.5496 24.3952 61.5771 24.3495 61.5955C24.2947 61.6139 24.2399 61.6231 24.1851 61.6231H23.4727V61.1452C23.5641 61.0901 23.6919 61.0717 23.8381 61.0717H24.1669C24.2764 61.0717 24.3678 61.0901 24.4408 61.1361C24.5139 61.182 24.5504 61.2463 24.5504 61.3566C24.523 61.4117 24.5048 61.4669 24.4774 61.5036Z" fill="#3E4752"/>
<path d="M25.5365 61.4761V59.9966H25.2534V61.908H25.5365L26.6508 60.4377V61.908H26.9248V59.9966H26.6508L25.5365 61.4761Z" fill="#3E4752"/>
<path d="M28.3309 59.8588C28.4953 59.8588 28.6141 59.822 28.6871 59.7485C28.7602 59.675 28.8059 59.5831 28.815 59.4912H28.5227C28.5227 59.5463 28.5045 59.5923 28.4771 59.6291C28.4497 59.6658 28.3949 59.6842 28.3218 59.6842C28.2487 59.6842 28.1939 59.6658 28.1665 59.6291C28.1391 59.5923 28.1209 59.5463 28.1209 59.4912H27.8286C27.8377 59.5923 27.8834 59.675 27.9565 59.7485C28.0478 59.822 28.1665 59.8588 28.3309 59.8588Z" fill="#3E4752"/>
<path d="M27.7564 61.4761V59.9966H27.4824V61.908H27.7564L28.8798 60.4377V61.908H29.1538V59.9966H28.8798L27.7564 61.4761Z" fill="#3E4752"/>
<path d="M32.0671 59.9966H31.0898V61.908H31.3638V61.1728C31.4552 61.1177 31.583 61.0993 31.7292 61.0993H32.0671C32.2315 61.0993 32.3685 61.0534 32.469 60.9523C32.5694 60.8512 32.6242 60.7133 32.6242 60.5479C32.6242 60.3825 32.5786 60.2447 32.4781 60.1528C32.3776 60.0609 32.2315 59.9966 32.0671 59.9966ZM32.0671 60.8144H31.7292C31.6561 60.8144 31.5922 60.8236 31.5374 60.8328C31.4826 60.842 31.4278 60.8604 31.373 60.8971V60.2814H32.0671C32.1584 60.2814 32.2315 60.2998 32.2772 60.3458C32.3228 60.3825 32.3502 60.456 32.3502 60.5479C32.3502 60.7225 32.2498 60.8144 32.0671 60.8144Z" fill="#3E4752"/>
<path d="M33.4466 59.969L33.5471 60.2079L32.7251 61.9171H33.0265L33.0722 61.8252C33.0904 61.7977 33.1178 61.7701 33.1635 61.7425C33.2092 61.715 33.2731 61.6874 33.3553 61.669C33.4375 61.6506 33.5288 61.6414 33.6384 61.6414H34.2138L34.3417 61.9171H34.6522L33.7389 59.969H33.4466ZM33.748 61.3474C33.6293 61.3474 33.5197 61.3566 33.4466 61.375C33.3644 61.3933 33.3096 61.4209 33.264 61.4577L33.6841 60.5479L34.0951 61.3566H33.748V61.3474Z" fill="#3E4752"/>
<path d="M35.2916 61.4761V59.9966H35.0176V61.908H35.2916L36.415 60.4377V61.908H36.6889V59.9966H36.415L35.2916 61.4761Z" fill="#3E4752"/>
<path d="M35.8661 59.8588C36.0305 59.8588 36.1492 59.822 36.2223 59.7485C36.2954 59.675 36.341 59.5831 36.3502 59.4912H36.0579C36.0579 59.5463 36.0396 59.5923 36.0122 59.6291C35.9848 59.6658 35.93 59.6842 35.857 59.6842C35.7839 59.6842 35.7291 59.6658 35.7017 59.6291C35.6743 59.5923 35.656 59.5463 35.656 59.4912H35.3638C35.3729 59.5923 35.4186 59.675 35.4916 59.7485C35.583 59.822 35.7017 59.8588 35.8661 59.8588Z" fill="#3E4752"/>
<path d="M38.6512 60.0792C38.496 59.9874 38.3224 59.9414 38.1398 59.9414C37.9571 59.9414 37.7927 59.9874 37.6374 60.0701C37.4822 60.1528 37.3543 60.2722 37.263 60.4284C37.1716 60.5755 37.126 60.7409 37.126 60.9247C37.126 61.1176 37.1716 61.283 37.263 61.4485C37.3543 61.6047 37.473 61.7333 37.6283 61.816C37.7836 61.9079 37.9571 61.9539 38.1489 61.9539C38.3316 61.9539 38.496 61.9079 38.6603 61.8252C38.8156 61.7333 38.9435 61.6139 39.0348 61.4668C39.1261 61.3106 39.1718 61.1452 39.1718 60.9614C39.1718 60.7776 39.1261 60.603 39.0348 60.4468C38.9343 60.2906 38.8065 60.1711 38.6512 60.0792ZM38.7882 61.3106C38.7243 61.4209 38.633 61.5128 38.5142 61.5771C38.3955 61.6414 38.2768 61.6782 38.1398 61.6782C38.0119 61.6782 37.884 61.6506 37.7653 61.5863C37.6466 61.522 37.5552 61.4393 37.4913 61.329C37.4182 61.2187 37.3908 61.0993 37.3908 60.9614C37.3908 60.8236 37.4274 60.6949 37.4913 60.5847C37.5552 60.4744 37.6466 60.3825 37.7653 60.3182C37.884 60.2538 38.0028 60.2263 38.1489 60.2263C38.2859 60.2263 38.4046 60.2538 38.5234 60.3182C38.6421 60.3825 38.7334 60.4652 38.7973 60.5755C38.8613 60.6857 38.8978 60.8052 38.8978 60.943C38.8887 61.0809 38.8521 61.2003 38.7882 61.3106Z" fill="#3E4752"/>
<path d="M40.9903 59.9966V60.7409C40.9172 60.7777 40.835 60.7869 40.7346 60.7869C40.6706 60.7869 40.5519 60.7777 40.3601 60.7501C40.2414 60.7317 40.1592 60.7225 40.1135 60.7225C40.0222 60.7225 39.94 60.7409 39.876 60.7777V59.9966H39.6021V61.908H39.876V61.0625C39.94 61.0258 40.0222 61.0074 40.1135 61.0074C40.1592 61.0074 40.2414 61.0166 40.3601 61.035C40.5519 61.0534 40.6706 61.0717 40.7346 61.0717C40.835 61.0717 40.9172 61.0533 40.9903 61.0258V61.9171H41.2643V60.0058H40.9903V59.9966Z" fill="#3E4752"/>
</g>
<defs>
<clipPath id="clip0">
<rect width="53" height="62" fill="white"/>
</clipPath>
</defs>
</svg>
