<svg width="198" height="60" viewBox="0 0 198 60" fill="none" xmlns="http://www.w3.org/2000/svg">
<path d="M4.68 3.59976C5.424 3.59976 6.068 3.72376 6.612 3.97176C7.164 4.21976 7.588 4.57176 7.884 5.02776C8.18 5.48376 8.328 6.02376 8.328 6.64776C8.328 7.26376 8.18 7.80376 7.884 8.26776C7.588 8.72376 7.164 9.07576 6.612 9.32376C6.068 9.56376 5.424 9.68376 4.68 9.68376H2.988V11.9998H1.044V3.59976H4.68ZM4.572 8.09976C5.156 8.09976 5.6 7.97576 5.904 7.72776C6.208 7.47176 6.36 7.11176 6.36 6.64776C6.36 6.17576 6.208 5.81576 5.904 5.56776C5.6 5.31176 5.156 5.18376 4.572 5.18376H2.988V8.09976H4.572ZM9.45441 5.54376H11.3264V11.9998H9.45441V5.54376ZM10.3904 4.64376C10.0464 4.64376 9.76641 4.54376 9.55041 4.34376C9.33441 4.14376 9.22641 3.89576 9.22641 3.59976C9.22641 3.30376 9.33441 3.05576 9.55041 2.85576C9.76641 2.65576 10.0464 2.55576 10.3904 2.55576C10.7344 2.55576 11.0144 2.65176 11.2304 2.84376C11.4464 3.03576 11.5544 3.27576 11.5544 3.56376C11.5544 3.87576 11.4464 4.13576 11.2304 4.34376C11.0144 4.54376 10.7344 4.64376 10.3904 4.64376ZM18.9307 5.54376V11.9998H17.0587V9.59976C16.5147 9.87176 15.9147 10.0078 15.2587 10.0078C14.3867 10.0078 13.7267 9.81176 13.2787 9.41976C12.8387 9.01976 12.6187 8.40376 12.6187 7.57176V5.54376H14.4907V7.45176C14.4907 7.84376 14.5907 8.12776 14.7907 8.30376C14.9987 8.47976 15.2947 8.56776 15.6787 8.56776C16.1667 8.56776 16.6267 8.46376 17.0587 8.25576V5.54376H18.9307ZM23.5721 9.55176H22.6001V11.9998H20.7281V5.54376H22.6001V8.05176H23.6081L25.3601 5.54376H27.3521L25.0961 8.63976L27.5081 11.9998H25.3001L23.5721 9.55176ZM30.8182 5.44776C31.8182 5.44776 32.5862 5.68776 33.1222 6.16776C33.6582 6.63976 33.9262 7.35576 33.9262 8.31576V11.9998H32.1742V11.1958C31.8222 11.7958 31.1662 12.0958 30.2062 12.0958C29.7102 12.0958 29.2782 12.0118 28.9102 11.8438C28.5502 11.6758 28.2742 11.4438 28.0822 11.1478C27.8902 10.8518 27.7942 10.5158 27.7942 10.1398C27.7942 9.53976 28.0182 9.06776 28.4662 8.72376C28.9222 8.37976 29.6222 8.20776 30.5662 8.20776H32.0542C32.0542 7.79976 31.9302 7.48776 31.6822 7.27176C31.4342 7.04776 31.0622 6.93576 30.5662 6.93576C30.2222 6.93576 29.8822 6.99176 29.5462 7.10376C29.2182 7.20776 28.9382 7.35176 28.7062 7.53576L28.0342 6.22776C28.3862 5.97976 28.8062 5.78776 29.2942 5.65176C29.7902 5.51576 30.2982 5.44776 30.8182 5.44776ZM30.6742 10.8358C30.9942 10.8358 31.2782 10.7638 31.5262 10.6198C31.7742 10.4678 31.9502 10.2478 32.0542 9.95976V9.29976H30.7702C30.0022 9.29976 29.6182 9.55176 29.6182 10.0558C29.6182 10.2958 29.7102 10.4878 29.8942 10.6318C30.0862 10.7678 30.3462 10.8358 30.6742 10.8358ZM39.0948 3.59976H45.8748V5.14776H41.0268V6.87576H43.3548C44.3708 6.87576 45.1428 7.08776 45.6708 7.51176C46.2068 7.93576 46.4748 8.54776 46.4748 9.34776C46.4748 10.1878 46.1788 10.8398 45.5868 11.3038C44.9948 11.7678 44.1588 11.9998 43.0788 11.9998H39.0948V3.59976ZM42.9708 10.5598C43.4668 10.5598 43.8468 10.4638 44.1108 10.2718C44.3748 10.0718 44.5068 9.78376 44.5068 9.40776C44.5068 8.67176 43.9948 8.30376 42.9708 8.30376H41.0268V10.5598H42.9708ZM47.8102 5.54376H49.6702V9.38376L52.8142 5.54376H54.5302V11.9998H52.6702V8.15976L49.5382 11.9998H47.8102V5.54376ZM59.4017 12.0958C58.7137 12.0958 58.0937 11.9558 57.5417 11.6758C56.9977 11.3878 56.5697 10.9918 56.2577 10.4878C55.9537 9.98376 55.8017 9.41176 55.8017 8.77176C55.8017 8.13176 55.9537 7.55976 56.2577 7.05576C56.5697 6.55176 56.9977 6.15976 57.5417 5.87976C58.0937 5.59176 58.7137 5.44776 59.4017 5.44776C60.0817 5.44776 60.6737 5.59176 61.1777 5.87976C61.6897 6.15976 62.0617 6.56376 62.2937 7.09176L60.8417 7.87176C60.5057 7.27976 60.0217 6.98376 59.3897 6.98376C58.9017 6.98376 58.4977 7.14376 58.1777 7.46376C57.8577 7.78376 57.6977 8.21976 57.6977 8.77176C57.6977 9.32376 57.8577 9.75976 58.1777 10.0798C58.4977 10.3998 58.9017 10.5598 59.3897 10.5598C60.0297 10.5598 60.5137 10.2638 60.8417 9.67176L62.2937 10.4638C62.0617 10.9758 61.6897 11.3758 61.1777 11.6638C60.6737 11.9518 60.0817 12.0958 59.4017 12.0958ZM68.8318 7.07976H66.6478V11.9998H64.7878V7.07976H62.6038V5.54376H68.8318V7.07976ZM73.6337 5.44776C74.2337 5.44776 74.7777 5.58776 75.2657 5.86776C75.7617 6.13976 76.1497 6.52776 76.4297 7.03176C76.7097 7.52776 76.8497 8.10776 76.8497 8.77176C76.8497 9.43576 76.7097 10.0198 76.4297 10.5238C76.1497 11.0198 75.7617 11.4078 75.2657 11.6878C74.7777 11.9598 74.2337 12.0958 73.6337 12.0958C72.8097 12.0958 72.1617 11.8358 71.6897 11.3158V14.3278H69.8177V5.54376H71.6057V6.28776C72.0697 5.72776 72.7457 5.44776 73.6337 5.44776ZM73.3097 10.5598C73.7897 10.5598 74.1817 10.3998 74.4857 10.0798C74.7977 9.75176 74.9537 9.31576 74.9537 8.77176C74.9537 8.22776 74.7977 7.79576 74.4857 7.47576C74.1817 7.14776 73.7897 6.98376 73.3097 6.98376C72.8297 6.98376 72.4337 7.14776 72.1217 7.47576C71.8177 7.79576 71.6657 8.22776 71.6657 8.77176C71.6657 9.31576 71.8177 9.75176 72.1217 10.0798C72.4337 10.3998 72.8297 10.5598 73.3097 10.5598ZM78.1617 5.54376H80.0217V9.38376L83.1657 5.54376H84.8817V11.9998H83.0217V8.15976L79.8897 11.9998H78.1617V5.54376ZM93.9533 10.4638V13.4158H92.2133V11.9998H86.6813V5.54376H88.5413V10.4638H91.1453V5.54376H93.0173V10.4638H93.9533ZM100.866 5.54376V11.9998H99.1985V10.1518H97.8185L96.5945 11.9998H94.6025L96.0785 9.88776C95.6305 9.71176 95.2865 9.45976 95.0465 9.13176C94.8145 8.79576 94.6985 8.39176 94.6985 7.91976C94.6985 7.15976 94.9705 6.57576 95.5145 6.16776C96.0665 5.75176 96.8225 5.54376 97.7825 5.54376H100.866ZM97.8185 7.06776C97.4185 7.06776 97.1145 7.13976 96.9065 7.28376C96.7065 7.42776 96.6065 7.65976 96.6065 7.97976C96.6065 8.29976 96.7025 8.53576 96.8945 8.68776C97.0945 8.83176 97.3945 8.90376 97.7945 8.90376H99.1985V7.06776H97.8185ZM110.18 12.1438C109.324 12.1438 108.548 11.9598 107.852 11.5918C107.164 11.2158 106.62 10.6998 106.22 10.0438C105.828 9.37976 105.632 8.63176 105.632 7.79976C105.632 6.96776 105.828 6.22376 106.22 5.56776C106.62 4.90376 107.164 4.38776 107.852 4.01976C108.548 3.64376 109.328 3.45576 110.192 3.45576C110.92 3.45576 111.576 3.58376 112.16 3.83976C112.752 4.09576 113.248 4.46376 113.648 4.94376L112.4 6.09576C111.832 5.43976 111.128 5.11176 110.288 5.11176C109.768 5.11176 109.304 5.22776 108.896 5.45976C108.488 5.68376 108.168 5.99976 107.936 6.40776C107.712 6.81576 107.6 7.27976 107.6 7.79976C107.6 8.31976 107.712 8.78376 107.936 9.19176C108.168 9.59976 108.488 9.91976 108.896 10.1518C109.304 10.3758 109.768 10.4878 110.288 10.4878C111.128 10.4878 111.832 10.1558 112.4 9.49176L113.648 10.6438C113.248 11.1318 112.752 11.5038 112.16 11.7598C111.568 12.0158 110.908 12.1438 110.18 12.1438ZM117.572 12.0958C116.892 12.0958 116.28 11.9558 115.736 11.6758C115.2 11.3878 114.78 10.9918 114.476 10.4878C114.172 9.98376 114.02 9.41176 114.02 8.77176C114.02 8.13176 114.172 7.55976 114.476 7.05576C114.78 6.55176 115.2 6.15976 115.736 5.87976C116.28 5.59176 116.892 5.44776 117.572 5.44776C118.252 5.44776 118.86 5.59176 119.396 5.87976C119.932 6.15976 120.352 6.55176 120.656 7.05576C120.96 7.55976 121.112 8.13176 121.112 8.77176C121.112 9.41176 120.96 9.98376 120.656 10.4878C120.352 10.9918 119.932 11.3878 119.396 11.6758C118.86 11.9558 118.252 12.0958 117.572 12.0958ZM117.572 10.5598C118.052 10.5598 118.444 10.3998 118.748 10.0798C119.06 9.75176 119.216 9.31576 119.216 8.77176C119.216 8.22776 119.06 7.79576 118.748 7.47576C118.444 7.14776 118.052 6.98376 117.572 6.98376C117.092 6.98376 116.696 7.14776 116.384 7.47576C116.072 7.79576 115.916 8.22776 115.916 8.77176C115.916 9.31576 116.072 9.75176 116.384 10.0798C116.696 10.3998 117.092 10.5598 117.572 10.5598ZM128.498 5.54376V11.9998H126.626V7.07976H124.586L124.526 8.21976C124.494 9.06776 124.414 9.77176 124.286 10.3318C124.158 10.8918 123.95 11.3318 123.662 11.6518C123.374 11.9718 122.974 12.1318 122.462 12.1318C122.19 12.1318 121.866 12.0838 121.49 11.9878L121.586 10.4518C121.714 10.4678 121.806 10.4758 121.862 10.4758C122.142 10.4758 122.35 10.3758 122.486 10.1758C122.63 9.96776 122.726 9.70776 122.774 9.39576C122.822 9.07576 122.858 8.65576 122.882 8.13576L122.978 5.54376H128.498ZM133.322 12.0958C132.642 12.0958 132.03 11.9558 131.486 11.6758C130.95 11.3878 130.53 10.9918 130.226 10.4878C129.922 9.98376 129.77 9.41176 129.77 8.77176C129.77 8.13176 129.922 7.55976 130.226 7.05576C130.53 6.55176 130.95 6.15976 131.486 5.87976C132.03 5.59176 132.642 5.44776 133.322 5.44776C134.002 5.44776 134.61 5.59176 135.146 5.87976C135.682 6.15976 136.102 6.55176 136.406 7.05576C136.71 7.55976 136.862 8.13176 136.862 8.77176C136.862 9.41176 136.71 9.98376 136.406 10.4878C136.102 10.9918 135.682 11.3878 135.146 11.6758C134.61 11.9558 134.002 12.0958 133.322 12.0958ZM133.322 10.5598C133.802 10.5598 134.194 10.3998 134.498 10.0798C134.81 9.75176 134.966 9.31576 134.966 8.77176C134.966 8.22776 134.81 7.79576 134.498 7.47576C134.194 7.14776 133.802 6.98376 133.322 6.98376C132.842 6.98376 132.446 7.14776 132.134 7.47576C131.822 7.79576 131.666 8.22776 131.666 8.77176C131.666 9.31576 131.822 9.75176 132.134 10.0798C132.446 10.3998 132.842 10.5598 133.322 10.5598ZM143.34 7.07976H141.156V11.9998H139.296V7.07976H137.112V5.54376H143.34V7.07976ZM149.27 8.62776C150.03 8.88376 150.41 9.39576 150.41 10.1638C150.41 10.7478 150.19 11.1998 149.75 11.5198C149.31 11.8398 148.654 11.9998 147.782 11.9998H144.338V5.54376H147.638C148.446 5.54376 149.078 5.69176 149.534 5.98776C149.99 6.27576 150.217 6.68376 150.217 7.21176C150.217 7.53176 150.134 7.81576 149.966 8.06376C149.806 8.30376 149.574 8.49176 149.27 8.62776ZM146.054 8.19576H147.47C148.126 8.19576 148.454 7.96376 148.454 7.49976C148.454 7.04376 148.126 6.81576 147.47 6.81576H146.054V8.19576ZM147.626 10.7278C148.314 10.7278 148.658 10.4918 148.658 10.0198C148.658 9.77176 148.578 9.59176 148.418 9.47976C148.258 9.35976 148.006 9.29976 147.662 9.29976H146.054V10.7278H147.626ZM151.802 5.54376H153.662V9.38376L156.806 5.54376H158.522V11.9998H156.662V8.15976L153.53 11.9998H151.802V5.54376ZM160.322 5.54376H162.182V8.06376H164.99V5.54376H166.862V11.9998H164.99V9.58776H162.182V11.9998H160.322V5.54376ZM171.726 12.0958C171.038 12.0958 170.418 11.9558 169.866 11.6758C169.322 11.3878 168.894 10.9918 168.582 10.4878C168.278 9.98376 168.126 9.41176 168.126 8.77176C168.126 8.13176 168.278 7.55976 168.582 7.05576C168.894 6.55176 169.322 6.15976 169.866 5.87976C170.418 5.59176 171.038 5.44776 171.726 5.44776C172.406 5.44776 172.998 5.59176 173.502 5.87976C174.014 6.15976 174.386 6.56376 174.618 7.09176L173.166 7.87176C172.83 7.27976 172.346 6.98376 171.714 6.98376C171.226 6.98376 170.822 7.14376 170.502 7.46376C170.182 7.78376 170.022 8.21976 170.022 8.77176C170.022 9.32376 170.182 9.75976 170.502 10.0798C170.822 10.3998 171.226 10.5598 171.714 10.5598C172.354 10.5598 172.838 10.2638 173.166 9.67176L174.618 10.4638C174.386 10.9758 174.014 11.3758 173.502 11.6638C172.998 11.9518 172.406 12.0958 171.726 12.0958ZM179.247 7.60776C180.087 7.61576 180.731 7.80776 181.179 8.18376C181.627 8.55176 181.851 9.07576 181.851 9.75576C181.851 10.4678 181.599 11.0238 181.095 11.4238C180.599 11.8158 179.899 12.0118 178.995 12.0118L175.755 11.9998V5.54376H177.615V7.60776H179.247ZM178.827 10.6798C179.187 10.6878 179.463 10.6118 179.655 10.4518C179.847 10.2918 179.943 10.0518 179.943 9.73176C179.943 9.41976 179.847 9.19176 179.655 9.04776C179.471 8.90376 179.195 8.82776 178.827 8.81976L177.615 8.80776V10.6798H178.827ZM185.865 9.55176H184.893V11.9998H183.021V5.54376H184.893V8.05176H185.901L187.653 5.54376H189.645L187.389 8.63976L189.801 11.9998H187.593L185.865 9.55176ZM193.111 5.44776C194.111 5.44776 194.879 5.68776 195.415 6.16776C195.951 6.63976 196.219 7.35576 196.219 8.31576V11.9998H194.467V11.1958C194.115 11.7958 193.459 12.0958 192.499 12.0958C192.003 12.0958 191.571 12.0118 191.203 11.8438C190.843 11.6758 190.567 11.4438 190.375 11.1478C190.183 10.8518 190.087 10.5158 190.087 10.1398C190.087 9.53976 190.311 9.06776 190.759 8.72376C191.215 8.37976 191.915 8.20776 192.859 8.20776H194.347C194.347 7.79976 194.223 7.48776 193.975 7.27176C193.727 7.04776 193.355 6.93576 192.859 6.93576C192.515 6.93576 192.175 6.99176 191.839 7.10376C191.511 7.20776 191.231 7.35176 190.999 7.53576L190.327 6.22776C190.679 5.97976 191.099 5.78776 191.587 5.65176C192.083 5.51576 192.591 5.44776 193.111 5.44776ZM192.967 10.8358C193.287 10.8358 193.571 10.7638 193.819 10.6198C194.067 10.4678 194.243 10.2478 194.347 9.95976V9.29976H193.063C192.295 9.29976 191.911 9.55176 191.911 10.0558C191.911 10.2958 192.003 10.4878 192.187 10.6318C192.379 10.7678 192.639 10.8358 192.967 10.8358Z" fill="#8F5E14"/>
<path d="M97.8521 59.7051C98.0463 59.905 98.3017 59.9998 98.5571 59.9998C98.8126 59.9998 99.068 59.905 99.2621 59.7051C99.865 59.1053 114.057 44.9087 114.057 32.9643C114.057 24.1664 107.109 16.9998 98.5571 16.9998C90.005 16.9998 83.0571 24.1664 83.0571 32.9643C83.0571 44.9087 97.2493 59.1053 97.8521 59.7051Z" fill="#8F5E14"/>
<g clip-path="url(#clip0)">
<path d="M90.5554 36.401C90.6544 36.401 90.7587 36.4014 90.8675 36.4019C90.9845 36.4025 91.108 36.4031 91.237 36.4031C91.944 36.4031 92.8157 36.3859 93.6568 36.2527C94.8952 36.0563 95.8014 35.6581 96.4273 35.035C97.0505 34.4147 97.3666 33.5888 97.3666 32.5801C97.3666 31.6165 97.7028 30.8269 98.3945 30.1665C98.995 29.5931 99.8639 29.1262 100.977 28.7788C102.872 28.1872 105.058 28.0629 106.559 28.0629C106.834 28.0629 107.057 27.8398 107.057 27.5645C107.057 27.2892 106.834 27.0662 106.559 27.0662C104.989 27.0662 102.695 27.1982 100.68 27.8274C99.4191 28.2209 98.4186 28.7654 97.7062 29.4456C96.8194 30.2923 96.3699 31.347 96.3699 32.5801C96.3699 33.3242 96.1586 33.8961 95.7241 34.3287C94.6252 35.4226 92.2755 35.4118 90.8722 35.4052C90.7617 35.4047 90.6558 35.4043 90.5554 35.4043C90.2802 35.4043 90.0571 35.6274 90.0571 35.9026C90.0571 36.1778 90.2802 36.401 90.5554 36.401Z" fill="#E9DFD0"/>
<path d="M106.559 28.9602C105.377 28.9602 103.67 29.0925 102.25 29.7232C100.577 30.4667 99.6923 31.7469 99.6923 33.4258C99.6923 33.4858 99.6941 33.5487 99.6971 33.6143C98.8394 33.7975 98.1938 34.5608 98.1938 35.4723C98.1938 35.7213 98.2414 35.9633 98.3334 36.1886C97.9303 36.6073 97.6988 37.1694 97.6988 37.7616C97.6988 38.5462 98.0997 39.2619 98.746 39.6737C98.7461 39.8661 98.7748 40.0906 98.8482 40.3209C97.4051 41.6461 94.6185 42.3178 90.5554 42.3178C90.2802 42.3178 90.0571 42.5409 90.0571 42.8162C90.0571 43.0914 90.2802 43.3146 90.5554 43.3146C94.8144 43.3146 97.713 42.6142 99.3858 41.177C99.8801 41.6412 100.56 41.8103 101.164 41.8548V43.4434C101.164 43.7187 101.387 43.9418 101.662 43.9418C101.937 43.9418 102.161 43.7187 102.161 43.4434V41.8288C103.308 41.68 103.901 41.1332 104.203 40.663C104.409 40.3427 104.52 39.9878 104.55 39.6914C105.213 39.2826 105.626 38.5577 105.626 37.7616C105.626 37.1694 105.394 36.6073 104.991 36.1886C105.083 35.9632 105.131 35.7213 105.131 35.4723C105.131 34.5243 104.433 33.7361 103.524 33.5948C103.318 32.7678 102.569 32.1532 101.68 32.1532C101.392 32.1532 101.12 32.2175 100.876 32.332C101.154 31.5997 101.742 31.0394 102.655 30.6341C103.351 30.3252 104.592 29.9568 106.559 29.9568C106.834 29.9568 107.057 29.7337 107.057 29.4585C107.057 29.1833 106.834 28.9602 106.559 28.9602ZM101.68 33.1499C102.176 33.1499 102.581 33.5534 102.583 34.0499L102.582 34.0692C102.58 34.2121 102.638 34.3495 102.744 34.4461C102.849 34.5427 102.991 34.5894 103.133 34.5743C103.166 34.5708 103.199 34.5691 103.23 34.5691C103.729 34.5691 104.134 34.9743 104.134 35.4723C104.134 35.6665 104.073 35.8515 103.958 36.0074C103.878 36.116 103.846 36.2526 103.868 36.3856C103.89 36.5187 103.966 36.6371 104.077 36.7137C104.422 36.9515 104.629 37.3433 104.629 37.7618C104.629 38.2742 104.324 38.7341 103.852 38.9335C103.727 38.986 103.63 39.0864 103.581 39.2119C103.543 39.3101 103.537 39.4171 103.563 39.5176C103.565 39.6219 103.517 39.9842 103.231 40.2982C102.885 40.6786 102.312 40.8714 101.528 40.8714C100.786 40.8714 100.248 40.69 99.9722 40.3467C99.7247 40.0382 99.7327 39.6551 99.7498 39.5554C99.7882 39.4442 99.7863 39.3224 99.7434 39.2119C99.6945 39.0864 99.5968 38.986 99.4727 38.9335C99.0006 38.7341 98.6955 38.2741 98.6955 37.7616C98.6955 37.3432 98.9019 36.9514 99.2475 36.7137C99.3588 36.637 99.4342 36.5187 99.4566 36.3855C99.4789 36.2524 99.4462 36.116 99.3662 36.0073C99.2513 35.8514 99.1906 35.6665 99.1906 35.4723C99.1906 34.9743 99.5958 34.5689 100.094 34.5689C100.132 34.5689 100.172 34.5717 100.213 34.5772C100.357 34.596 100.502 34.5514 100.611 34.4547C100.719 34.3578 100.78 34.2186 100.777 34.0734L100.776 34.0509C100.777 33.5539 101.182 33.1499 101.68 33.1499Z" fill="#E9DFD0"/>
<path d="M91.6768 33.4106H93.9195C94.8126 33.4106 95.5391 32.6838 95.5391 31.7907C95.5391 30.9171 94.8438 30.2027 93.9774 30.1721C93.6853 29.7126 93.1755 29.4236 92.6113 29.4236C92.0226 29.4236 91.4882 29.7425 91.2041 30.2412C90.5333 30.4446 90.0571 31.066 90.0571 31.7907C90.0571 32.6838 90.7837 33.4106 91.6768 33.4106ZM91.6067 31.1719C91.7978 31.1507 91.9597 31.0214 92.0226 30.8395C92.1094 30.5888 92.3459 30.4203 92.6113 30.4203C92.8819 30.4203 93.12 30.5931 93.2036 30.8502C93.283 31.094 93.5346 31.2377 93.7847 31.1827C93.8293 31.1728 93.8747 31.1678 93.9196 31.1678C94.263 31.1678 94.5425 31.4473 94.5425 31.7907C94.5425 32.1343 94.263 32.4138 93.9196 32.4138H91.6768C91.3334 32.4138 91.0539 32.1343 91.0539 31.7907C91.0539 31.473 91.2915 31.207 91.6067 31.1719Z" fill="#E9DFD0"/>
</g>
<defs>
<clipPath id="clip0">
<rect width="17" height="17" fill="white" transform="translate(90.0571 26.9998)"/>
</clipPath>
</defs>
</svg>
