<svg width="320" height="77" viewBox="0 0 320 77" fill="none" xmlns="http://www.w3.org/2000/svg">
<rect width="320" height="76.8" rx="2" fill="white"/>
<path fill-rule="evenodd" clip-rule="evenodd" d="M29.4862 31.1486C29.4862 31.1486 30.6324 33.4408 32.0077 34.5869C33.383 35.733 32.9246 37.3376 31.7785 38.2545C29.7155 40.0883 29.257 43.5266 29.257 43.5266L29.0278 44.2144C29.0278 44.2144 28.3401 39.8591 26.2771 38.2545C25.131 37.3376 24.6725 35.5038 26.0479 34.5869C28.3401 32.9824 29.257 30.2317 29.257 30.2317L29.4862 31.1486Z" fill="#E3E254"/>
<path fill-rule="evenodd" clip-rule="evenodd" d="M29.4859 39.8574C29.4859 39.8574 31.3197 38.9405 30.632 38.7113C29.9443 38.2529 29.2567 39.6282 29.4859 39.8574Z" fill="white"/>
<path fill-rule="evenodd" clip-rule="evenodd" d="M29.7148 38.4837C29.7148 38.4837 31.5486 38.0252 31.0902 37.5667C30.6318 36.8791 29.7148 38.0252 29.7148 38.4837Z" fill="white"/>
<path fill-rule="evenodd" clip-rule="evenodd" d="M29.9483 37.3369C29.9483 37.3369 32.2405 36.8785 31.5528 36.1908C30.8651 35.7324 29.719 37.1077 29.9483 37.3369Z" fill="white"/>
<path fill-rule="evenodd" clip-rule="evenodd" d="M29.9434 36.1894C29.9434 36.1894 31.5479 35.7308 31.0895 35.2724C30.631 34.814 29.9434 35.7309 29.9434 36.1894Z" fill="white"/>
<path fill-rule="evenodd" clip-rule="evenodd" d="M29.9435 35.2745C29.9435 35.2745 31.3188 34.5868 30.8604 34.3576C30.4019 33.8992 29.7143 34.816 29.9435 35.2745Z" fill="white"/>
<path fill-rule="evenodd" clip-rule="evenodd" d="M29.9419 34.3569C29.9419 34.3569 31.088 33.44 30.6296 33.44C29.9419 32.9815 29.7127 34.1276 29.9419 34.3569Z" fill="white"/>
<path fill-rule="evenodd" clip-rule="evenodd" d="M29.0289 39.8574C29.0289 39.8574 27.1951 38.9405 27.8828 38.7113C28.5705 38.2529 29.2582 39.6282 29.0289 39.8574Z" fill="white"/>
<path fill-rule="evenodd" clip-rule="evenodd" d="M29.0269 40.7745C29.0269 40.7745 27.8808 40.316 28.3392 39.8575C28.7976 39.6283 29.2561 40.5453 29.0269 40.7745Z" fill="white"/>
<path fill-rule="evenodd" clip-rule="evenodd" d="M28.8059 38.4837C28.8059 38.4837 26.9721 38.0252 27.4305 37.5667C28.1182 36.8791 29.0351 38.0252 28.8059 38.4837Z" fill="white"/>
<path fill-rule="evenodd" clip-rule="evenodd" d="M28.8016 37.3369C28.8016 37.3369 26.5094 36.8785 27.1971 36.1908C27.8847 35.7324 28.8016 37.1077 28.8016 37.3369Z" fill="white"/>
<path fill-rule="evenodd" clip-rule="evenodd" d="M28.5727 36.1894C28.5727 36.1894 26.9682 35.7308 27.4266 35.2724C27.8851 34.814 28.802 35.7309 28.5727 36.1894Z" fill="white"/>
<path fill-rule="evenodd" clip-rule="evenodd" d="M28.57 35.2745C28.57 35.2745 27.1947 34.5868 27.6531 34.3576C28.3408 33.8992 28.7992 34.816 28.57 35.2745Z" fill="white"/>
<path fill-rule="evenodd" clip-rule="evenodd" d="M28.5698 34.3569C28.5698 34.3569 27.4237 33.44 27.8822 33.44C28.5698 32.9815 28.799 34.1276 28.5698 34.3569Z" fill="white"/>
<path fill-rule="evenodd" clip-rule="evenodd" d="M29.0302 33.4404C29.0302 33.4404 28.1133 32.7528 28.5717 32.5235C29.0302 32.2943 29.2594 33.2112 29.0302 33.4404Z" fill="white"/>
<path fill-rule="evenodd" clip-rule="evenodd" d="M29.4858 40.7745C29.4858 40.7745 30.6319 40.316 30.1735 39.8575C29.715 39.6283 29.2565 40.5453 29.4858 40.7745Z" fill="white"/>
<path fill-rule="evenodd" clip-rule="evenodd" d="M29.4888 33.4404C29.4888 33.4404 30.4058 32.7528 29.9473 32.5235C29.4889 32.2943 29.2596 33.2112 29.4888 33.4404Z" fill="white"/>
<path fill-rule="evenodd" clip-rule="evenodd" d="M18.4885 52.6942C18.4885 52.6942 18.2593 50.1728 20.3223 49.4851C22.3853 48.5682 26.0529 48.7974 26.5114 47.1929C27.4283 48.5682 27.4283 51.3189 25.3653 52.0066C23.5315 52.465 19.8639 51.0897 18.4885 52.6942Z" fill="#143F1F"/>
<path fill-rule="evenodd" clip-rule="evenodd" d="M19.3989 51.3195C19.3989 51.3195 20.5451 49.9442 23.0665 49.715C25.588 49.4857 26.2757 49.0273 26.5049 48.5688C26.5049 49.0273 25.3588 49.715 23.2958 49.9442C22.1496 50.1734 21.0035 50.1734 19.3989 51.3195Z" fill="white"/>
<path fill-rule="evenodd" clip-rule="evenodd" d="M26.2821 49.4858C26.2821 49.4858 26.5113 51.0904 25.8236 50.8612C25.136 50.632 25.8237 49.4858 26.2821 49.4858Z" fill="white"/>
<path fill-rule="evenodd" clip-rule="evenodd" d="M25.8198 48.7982C25.8198 48.7982 24.4445 49.0274 24.6737 48.569C24.9029 48.1105 25.8198 48.569 25.8198 48.7982Z" fill="white"/>
<path fill-rule="evenodd" clip-rule="evenodd" d="M24.6684 49.2572C24.6684 49.2572 23.5223 49.4864 23.7515 49.0279C23.7515 48.5695 24.6684 49.028 24.6684 49.2572Z" fill="white"/>
<path fill-rule="evenodd" clip-rule="evenodd" d="M23.5302 49.2573C23.5302 49.2573 22.6133 49.4865 22.6133 49.0281C22.6133 48.7988 23.3009 49.0281 23.5302 49.2573Z" fill="white"/>
<path fill-rule="evenodd" clip-rule="evenodd" d="M22.3783 49.4846C22.3783 49.4846 21.4614 49.7138 21.4614 49.2553C21.4614 49.0261 22.3783 49.2554 22.3783 49.4846Z" fill="white"/>
<path fill-rule="evenodd" clip-rule="evenodd" d="M21.4657 49.7151C21.4657 49.7151 20.5488 49.9443 20.5488 49.7151C20.5488 49.2567 21.2365 49.4859 21.4657 49.7151Z" fill="white"/>
<path fill-rule="evenodd" clip-rule="evenodd" d="M20.5487 50.173C20.5487 50.173 19.6318 50.6315 19.6318 50.4023C19.6318 49.9438 20.3195 49.9438 20.5487 50.173Z" fill="white"/>
<path fill-rule="evenodd" clip-rule="evenodd" d="M25.1278 49.9429C25.1278 49.9429 25.357 51.5474 24.6693 51.3182C23.9817 51.0889 24.6694 49.9429 25.1278 49.9429Z" fill="white"/>
<path fill-rule="evenodd" clip-rule="evenodd" d="M23.9921 50.1733C23.9921 50.1733 24.2213 51.5487 23.5336 51.3195C22.8459 51.3195 23.5336 50.1733 23.9921 50.1733Z" fill="white"/>
<path fill-rule="evenodd" clip-rule="evenodd" d="M22.8353 50.4028C22.8353 50.4028 22.606 51.5489 22.3768 51.3197C21.6891 51.0905 22.6061 50.4028 22.8353 50.4028Z" fill="white"/>
<path fill-rule="evenodd" clip-rule="evenodd" d="M21.6884 50.6313C21.6884 50.6313 21.4591 51.5482 21.2299 51.319C20.7714 51.0898 21.4591 50.6313 21.6884 50.6313Z" fill="white"/>
<path fill-rule="evenodd" clip-rule="evenodd" d="M20.7749 50.8621C20.7749 50.8621 20.5456 51.7789 20.0871 51.5497C19.8579 51.3205 20.5456 50.8621 20.7749 50.8621Z" fill="white"/>
<path fill-rule="evenodd" clip-rule="evenodd" d="M39.5774 52.6942C39.5774 52.6942 39.8067 50.1728 37.7437 49.4851C35.6806 48.5682 32.013 48.7974 31.5546 47.1929C30.6377 48.5682 30.6377 51.3189 32.7007 52.0066C34.7637 52.2358 38.4313 50.8604 39.5774 52.6942Z" fill="#143F1F"/>
<path fill-rule="evenodd" clip-rule="evenodd" d="M38.6621 51.3195C38.6621 51.3195 37.516 49.9442 34.9945 49.715C32.473 49.4857 31.7854 49.0273 31.5562 48.5688C31.5562 49.0273 32.7023 49.715 34.7653 49.9442C35.9115 49.9442 37.2868 50.1734 38.6621 51.3195Z" fill="white"/>
<path fill-rule="evenodd" clip-rule="evenodd" d="M32.0098 49.4858C32.0098 49.4858 31.7806 51.0904 32.4683 50.8612C33.156 50.632 32.239 49.4858 32.0098 49.4858Z" fill="white"/>
<path fill-rule="evenodd" clip-rule="evenodd" d="M32.2363 48.7982C32.2363 48.7982 33.6117 49.0274 33.3824 48.569C33.3824 48.1105 32.2363 48.569 32.2363 48.7982Z" fill="white"/>
<path fill-rule="evenodd" clip-rule="evenodd" d="M33.6089 49.0277C33.6089 49.0277 34.755 49.257 34.5258 48.7986C34.5258 48.5693 33.6089 48.7985 33.6089 49.0277Z" fill="white"/>
<path fill-rule="evenodd" clip-rule="evenodd" d="M34.7559 49.2573C34.7559 49.2573 35.6727 49.4865 35.6727 49.0281C35.6727 48.7988 34.7559 49.0281 34.7559 49.2573Z" fill="white"/>
<path fill-rule="evenodd" clip-rule="evenodd" d="M35.9014 49.4846C35.9014 49.4846 36.8182 49.7138 36.8182 49.2553C36.589 49.0261 35.9014 49.2554 35.9014 49.4846Z" fill="white"/>
<path fill-rule="evenodd" clip-rule="evenodd" d="M36.8203 49.7151C36.8203 49.7151 37.7372 49.9443 37.7372 49.7151C37.7372 49.2567 36.8203 49.4859 36.8203 49.7151Z" fill="white"/>
<path fill-rule="evenodd" clip-rule="evenodd" d="M37.7339 50.173C37.7339 50.173 38.6508 50.6315 38.6508 50.4023C38.6508 49.9438 37.7339 49.9438 37.7339 50.173Z" fill="white"/>
<path fill-rule="evenodd" clip-rule="evenodd" d="M33.1578 49.9429C33.1578 49.9429 32.9286 51.5474 33.6162 51.3182C34.3039 51.0889 33.387 49.9429 33.1578 49.9429Z" fill="white"/>
<path fill-rule="evenodd" clip-rule="evenodd" d="M34.3033 50.1733C34.3033 50.1733 34.0741 51.5487 34.7617 51.3195C35.2202 51.0902 34.7617 50.1733 34.3033 50.1733Z" fill="white"/>
<path fill-rule="evenodd" clip-rule="evenodd" d="M35.4434 50.4028C35.4434 50.4028 35.6726 51.5489 35.9018 51.3197C36.3603 51.0905 35.6726 50.4028 35.4434 50.4028Z" fill="white"/>
<path fill-rule="evenodd" clip-rule="evenodd" d="M36.5928 50.6313C36.5928 50.6313 36.822 51.5482 37.0512 51.319C37.5097 51.0898 36.822 50.6313 36.5928 50.6313Z" fill="white"/>
<path fill-rule="evenodd" clip-rule="evenodd" d="M37.5078 50.8621C37.5078 50.8621 37.7371 51.7789 38.1955 51.5497C38.4247 51.0913 37.737 50.8621 37.5078 50.8621Z" fill="white"/>
<path fill-rule="evenodd" clip-rule="evenodd" d="M24.4474 27.9395C24.4474 27.9395 26.9688 26.5641 26.9688 24.2719C26.9688 21.7504 25.5935 21.0627 26.5104 18.5413C27.4273 16.0198 27.4273 14.8737 26.7396 13.9568C26.7396 14.8737 26.5104 16.0198 25.3643 16.9367C24.2182 17.8536 21.9259 19.4581 22.1552 21.5211C22.3844 23.3549 25.3643 24.7303 24.4474 27.9395Z" fill="#00964A"/>
<path fill-rule="evenodd" clip-rule="evenodd" d="M25.8156 25.1882C25.8156 25.1882 27.191 24.2713 26.7325 24.0421C25.8156 23.5837 25.5864 24.959 25.8156 25.1882Z" fill="white"/>
<path fill-rule="evenodd" clip-rule="evenodd" d="M24.6735 24.7296C24.6735 24.7296 23.2982 23.8127 23.7566 23.5835C24.6735 23.1251 25.132 24.2712 24.6735 24.7296Z" fill="white"/>
<path fill-rule="evenodd" clip-rule="evenodd" d="M24.4461 23.1242C24.4461 23.1242 23.0707 22.6658 23.5291 22.2073C24.2168 21.7489 24.6753 22.895 24.4461 23.1242Z" fill="white"/>
<path fill-rule="evenodd" clip-rule="evenodd" d="M24.2182 21.9778C24.2182 21.9778 23.0721 21.5194 23.3013 21.2902C23.989 20.8317 24.4474 21.7486 24.2182 21.9778Z" fill="white"/>
<path fill-rule="evenodd" clip-rule="evenodd" d="M23.9857 21.0625C23.9857 21.0625 23.0688 20.604 23.298 20.3747C23.7565 20.1455 24.2149 20.8332 23.9857 21.0625Z" fill="white"/>
<path fill-rule="evenodd" clip-rule="evenodd" d="M23.9852 20.1459C23.9852 20.1459 23.2975 19.9167 23.5268 19.6875C23.756 19.4582 23.9852 19.9167 23.9852 20.1459Z" fill="white"/>
<path fill-rule="evenodd" clip-rule="evenodd" d="M23.985 19.4566C23.985 19.4566 23.2973 18.9982 23.7557 18.9982C23.985 18.769 24.2142 19.4566 23.985 19.4566Z" fill="white"/>
<path fill-rule="evenodd" clip-rule="evenodd" d="M25.5894 24.0418C25.5894 24.0418 26.9647 23.1249 26.277 22.8956C25.5894 22.4372 25.3602 23.8125 25.5894 24.0418Z" fill="white"/>
<path fill-rule="evenodd" clip-rule="evenodd" d="M25.3609 22.8957C25.3609 22.8957 26.507 22.208 26.0485 21.9788C25.3608 21.5203 25.1316 22.6664 25.3609 22.8957Z" fill="white"/>
<path fill-rule="evenodd" clip-rule="evenodd" d="M25.1304 21.7499C25.1304 21.7499 26.2765 21.0623 25.818 20.833C25.1304 20.6038 24.9012 21.7499 25.1304 21.7499Z" fill="white"/>
<path fill-rule="evenodd" clip-rule="evenodd" d="M24.9053 20.8325C24.9053 20.8325 26.0514 20.1449 25.593 19.9156C24.9053 19.6864 24.6761 20.6033 24.9053 20.8325Z" fill="white"/>
<path fill-rule="evenodd" clip-rule="evenodd" d="M24.9053 19.6874C24.9053 19.6874 25.8222 19.229 25.593 18.9997C24.9053 18.7705 24.6761 19.4582 24.9053 19.6874Z" fill="white"/>
<path fill-rule="evenodd" clip-rule="evenodd" d="M25.1294 18.7697C25.1294 18.7697 25.817 18.5405 25.817 18.3112C25.5878 18.082 25.1294 18.5405 25.1294 18.7697Z" fill="white"/>
<path fill-rule="evenodd" clip-rule="evenodd" d="M25.3549 25.6472C25.3549 25.6472 25.5842 24.9595 25.3549 23.5842C25.1257 22.4381 23.9796 19.2289 25.3549 18.0828C24.6673 18.5412 24.2088 19.4581 24.438 20.6042C24.438 21.7504 25.3549 24.9595 25.3549 25.6472Z" fill="white"/>
<path fill-rule="evenodd" clip-rule="evenodd" d="M33.842 27.9395C33.842 27.9395 31.3206 26.5641 31.3206 24.2719C31.3206 21.7504 32.6959 21.0627 31.779 18.5413C30.8621 16.0198 30.8621 14.8737 31.5497 13.9568C31.5497 14.8737 31.779 16.0198 32.9251 16.9367C34.0712 17.8536 36.3634 19.4581 36.1342 21.5211C35.905 23.3549 32.9251 24.7303 33.842 27.9395Z" fill="#00964A"/>
<path fill-rule="evenodd" clip-rule="evenodd" d="M32.4666 25.1882C32.4666 25.1882 31.0912 24.2713 31.5496 24.0421C32.4665 23.5837 32.6958 24.959 32.4666 25.1882Z" fill="white"/>
<path fill-rule="evenodd" clip-rule="evenodd" d="M33.611 24.7296C33.611 24.7296 34.9863 23.8127 34.5279 23.5835C33.611 23.1251 33.1526 24.2712 33.611 24.7296Z" fill="white"/>
<path fill-rule="evenodd" clip-rule="evenodd" d="M33.8414 23.1242C33.8414 23.1242 35.2168 22.6658 34.7583 22.2073C34.0706 21.7489 33.6121 22.895 33.8414 23.1242Z" fill="white"/>
<path fill-rule="evenodd" clip-rule="evenodd" d="M34.0665 21.9778C34.0665 21.9778 35.2126 21.5194 34.9833 21.2902C34.2957 20.8317 33.8372 21.7486 34.0665 21.9778Z" fill="white"/>
<path fill-rule="evenodd" clip-rule="evenodd" d="M34.2983 21.0625C34.2983 21.0625 35.2151 20.604 34.9859 20.3747C34.5275 20.1455 34.0691 20.8332 34.2983 21.0625Z" fill="white"/>
<path fill-rule="evenodd" clip-rule="evenodd" d="M34.3042 20.1459C34.3042 20.1459 34.9919 19.9167 34.7627 19.6875C34.5335 19.4582 34.3042 19.9167 34.3042 20.1459Z" fill="white"/>
<path fill-rule="evenodd" clip-rule="evenodd" d="M34.299 19.4566C34.299 19.4566 34.9867 18.9982 34.5283 18.9982C34.2991 18.769 34.0698 19.4566 34.299 19.4566Z" fill="white"/>
<path fill-rule="evenodd" clip-rule="evenodd" d="M32.6907 24.0418C32.6907 24.0418 31.3154 23.1249 32.0031 22.8956C32.6908 22.4372 32.92 23.8125 32.6907 24.0418Z" fill="white"/>
<path fill-rule="evenodd" clip-rule="evenodd" d="M32.9214 22.8957C32.9214 22.8957 31.7753 22.208 32.2337 21.9788C32.9214 21.5203 33.1506 22.6664 32.9214 22.8957Z" fill="white"/>
<path fill-rule="evenodd" clip-rule="evenodd" d="M33.1562 21.7499C33.1562 21.7499 32.0102 21.0623 32.4686 20.833C33.1563 20.6038 33.3855 21.7499 33.1562 21.7499Z" fill="white"/>
<path fill-rule="evenodd" clip-rule="evenodd" d="M33.3814 20.8325C33.3814 20.8325 32.2352 20.1449 32.6937 19.9156C33.3814 19.6864 33.6106 20.6033 33.3814 20.8325Z" fill="white"/>
<path fill-rule="evenodd" clip-rule="evenodd" d="M33.3798 19.6874C33.3798 19.6874 32.4628 19.229 32.6921 18.9997C33.3797 18.7705 33.609 19.4582 33.3798 19.6874Z" fill="white"/>
<path fill-rule="evenodd" clip-rule="evenodd" d="M33.15 18.7697C33.15 18.7697 32.4624 18.5405 32.4624 18.3112C32.6916 18.082 33.15 18.5405 33.15 18.7697Z" fill="white"/>
<path fill-rule="evenodd" clip-rule="evenodd" d="M32.9222 25.6472C32.9222 25.6472 32.693 24.9595 32.9222 23.5842C33.1514 22.4381 34.2975 19.2289 32.9222 18.0828C33.6099 18.5412 34.0683 19.4581 33.8391 20.6042C33.8391 21.7504 32.9222 24.9595 32.9222 25.6472Z" fill="white"/>
<path fill-rule="evenodd" clip-rule="evenodd" d="M38.4279 39.8584C38.4279 39.8584 36.5942 41.0046 36.5942 42.6092C35.2188 41.0046 33.1558 37.7955 37.2818 33.8987C36.8234 35.9617 36.5941 38.0247 38.4279 39.8584Z" fill="#6CB865"/>
<path fill-rule="evenodd" clip-rule="evenodd" d="M37.0567 40.7747C37.0567 40.7747 35.6813 41.0039 35.9105 40.5455C35.9105 39.8578 37.0567 40.3163 37.0567 40.7747Z" fill="white"/>
<path fill-rule="evenodd" clip-rule="evenodd" d="M37.0567 40.7747C37.0567 40.7747 35.6813 41.0039 35.9105 40.5455C35.9105 39.8578 37.0567 40.3163 37.0567 40.7747Z" fill="white"/>
<path fill-rule="evenodd" clip-rule="evenodd" d="M37.2813 40.3156C37.2813 40.3156 37.7397 39.3987 37.2813 39.3987C36.8228 39.3987 37.0521 40.0863 37.2813 40.3156Z" fill="white"/>
<path fill-rule="evenodd" clip-rule="evenodd" d="M36.8254 39.3982C36.8254 39.3982 37.5131 38.4813 37.0546 38.4813C36.5962 38.2521 36.5961 39.169 36.8254 39.3982Z" fill="white"/>
<path fill-rule="evenodd" clip-rule="evenodd" d="M36.5905 38.4835C36.5905 38.4835 37.2782 37.5665 36.8198 37.5665C36.1321 37.3373 36.3613 38.2542 36.5905 38.4835Z" fill="white"/>
<path fill-rule="evenodd" clip-rule="evenodd" d="M36.1369 37.5664C36.1369 37.5664 36.8246 36.6495 36.3661 36.6495C35.9077 36.4203 35.9077 37.3372 36.1369 37.5664Z" fill="white"/>
<path fill-rule="evenodd" clip-rule="evenodd" d="M36.3654 39.8589C36.3654 39.8589 35.2192 39.859 35.2192 39.6297C35.4485 38.9421 36.3654 39.4005 36.3654 39.8589Z" fill="white"/>
<path fill-rule="evenodd" clip-rule="evenodd" d="M36.3654 39.8589C36.3654 39.8589 35.2192 39.859 35.2192 39.6297C35.4485 38.9421 36.3654 39.4005 36.3654 39.8589Z" fill="white"/>
<path fill-rule="evenodd" clip-rule="evenodd" d="M36.1337 38.9412C36.1337 38.9412 34.9876 38.7121 35.2168 38.4828C35.6753 38.0244 36.1337 38.712 36.1337 38.9412Z" fill="white"/>
<path fill-rule="evenodd" clip-rule="evenodd" d="M35.91 38.0241C35.91 38.0241 34.9931 37.7949 35.2223 37.5656C35.6808 37.3364 35.91 37.7949 35.91 38.0241Z" fill="white"/>
<path fill-rule="evenodd" clip-rule="evenodd" d="M19.8569 39.8584C19.8569 39.8584 21.6907 41.0046 21.6907 42.6092C23.066 41.0046 25.1291 37.7955 21.0031 33.8987C21.4615 35.9617 21.6907 38.0247 19.8569 39.8584Z" fill="#6CB865"/>
<path fill-rule="evenodd" clip-rule="evenodd" d="M21.2363 40.7747C21.2363 40.7747 22.6117 41.0039 22.3824 40.5455C22.3824 39.8578 21.2363 40.3163 21.2363 40.7747Z" fill="white"/>
<path fill-rule="evenodd" clip-rule="evenodd" d="M21.2363 40.7747C21.2363 40.7747 22.6117 41.0039 22.3824 40.5455C22.3824 39.8578 21.2363 40.3163 21.2363 40.7747Z" fill="white"/>
<path fill-rule="evenodd" clip-rule="evenodd" d="M21.006 40.3156C21.006 40.3156 20.5476 39.3987 21.006 39.3987C21.4644 39.3987 21.2352 40.0863 21.006 40.3156Z" fill="white"/>
<path fill-rule="evenodd" clip-rule="evenodd" d="M21.4625 39.3982C21.4625 39.3982 20.7748 38.4813 21.2333 38.4813C21.6917 38.2521 21.6917 39.169 21.4625 39.3982Z" fill="white"/>
<path fill-rule="evenodd" clip-rule="evenodd" d="M21.693 38.4835C21.693 38.4835 21.0053 37.5665 21.4637 37.5665C22.1514 37.3373 21.9222 38.2542 21.693 38.4835Z" fill="white"/>
<path fill-rule="evenodd" clip-rule="evenodd" d="M22.1534 37.5664C22.1534 37.5664 21.4657 36.6495 21.9242 36.6495C22.3826 36.4203 22.3827 37.3372 22.1534 37.5664Z" fill="white"/>
<path fill-rule="evenodd" clip-rule="evenodd" d="M21.9214 39.8589C21.9214 39.8589 23.0675 39.859 23.0675 39.6297C22.8383 38.9421 21.9214 39.4005 21.9214 39.8589Z" fill="white"/>
<path fill-rule="evenodd" clip-rule="evenodd" d="M21.9214 39.8589C21.9214 39.8589 23.0675 39.859 23.0675 39.6297C22.8383 38.9421 21.9214 39.4005 21.9214 39.8589Z" fill="white"/>
<path fill-rule="evenodd" clip-rule="evenodd" d="M22.1514 38.9412C22.1514 38.9412 23.2975 38.7121 23.0682 38.4828C22.6098 38.0244 22.1514 38.712 22.1514 38.9412Z" fill="white"/>
<path fill-rule="evenodd" clip-rule="evenodd" d="M22.3809 38.0241C22.3809 38.0241 23.2978 37.7949 23.0686 37.5656C22.6101 37.3364 22.3809 37.7949 22.3809 38.0241Z" fill="white"/>
<path fill-rule="evenodd" clip-rule="evenodd" d="M31.3221 20.1449C31.3221 23.5832 29.259 24.7293 29.259 24.7293C29.259 24.7293 27.196 23.1247 26.9668 20.374C26.9668 17.6234 28.3422 15.3311 29.0299 12.8097C29.0299 12.5805 31.3221 16.7065 31.3221 20.1449Z" fill="#2CA437"/>
<path fill-rule="evenodd" clip-rule="evenodd" d="M38.4282 32.7536C38.4282 32.7536 37.7406 29.7737 34.7607 28.6276C33.8438 26.1061 34.7606 24.96 35.6775 23.8139C36.8237 22.6677 36.8236 21.2924 36.5944 19.9171C36.5944 19.2294 37.2821 18.3125 37.2821 18.3125C37.0528 19.2294 37.2821 20.1463 38.6574 21.2925C40.0328 22.2093 43.0127 24.5016 42.7835 27.9399C43.0127 31.3783 39.8035 32.066 38.4282 32.7536Z" fill="#007D36"/>
<path fill-rule="evenodd" clip-rule="evenodd" d="M37.511 29.3135C37.511 29.3135 35.6772 27.7089 36.5941 27.2504C37.7403 27.0212 37.9695 29.0843 37.511 29.3135Z" fill="white"/>
<path fill-rule="evenodd" clip-rule="evenodd" d="M37.7339 30.0018C37.7339 30.0018 40.943 31.1479 40.943 30.0018C40.7138 28.6265 37.9631 29.3141 37.7339 30.0018Z" fill="white"/>
<path fill-rule="evenodd" clip-rule="evenodd" d="M38.8862 28.8555C38.8862 28.8555 41.6369 29.3139 41.4077 28.397C40.9493 27.2509 38.8862 28.1678 38.8862 28.8555Z" fill="white"/>
<path fill-rule="evenodd" clip-rule="evenodd" d="M39.5773 27.7097C39.5773 27.7097 42.328 27.2513 41.8696 26.5636C40.9527 25.6467 39.3481 27.2513 39.5773 27.7097Z" fill="white"/>
<path fill-rule="evenodd" clip-rule="evenodd" d="M39.5757 26.5635C39.5757 26.5635 41.8679 25.6466 41.1803 25.1882C40.2634 24.5005 39.3464 26.1051 39.5757 26.5635Z" fill="white"/>
<path fill-rule="evenodd" clip-rule="evenodd" d="M39.3405 25.6462C39.3405 25.6462 40.9451 24.5001 40.2574 24.0416C39.3405 23.8124 38.8821 25.417 39.3405 25.6462Z" fill="white"/>
<path fill-rule="evenodd" clip-rule="evenodd" d="M38.8858 24.5007C38.8858 24.5007 40.0319 23.5838 39.5734 23.3546C38.8857 22.8962 38.6565 24.2715 38.8858 24.5007Z" fill="white"/>
<path fill-rule="evenodd" clip-rule="evenodd" d="M38.653 23.5835C38.653 23.5835 39.5699 22.4374 38.8822 22.4374C38.4238 22.2081 38.4238 23.3543 38.653 23.5835Z" fill="white"/>
<path fill-rule="evenodd" clip-rule="evenodd" d="M38.1913 27.9381C38.1913 27.9381 36.3574 26.5627 37.2743 26.3335C38.4204 25.875 38.6497 27.4796 38.1913 27.9381Z" fill="white"/>
<path fill-rule="evenodd" clip-rule="evenodd" d="M38.428 26.3342C38.428 26.3342 36.8235 25.1881 37.5112 24.9589C38.1988 24.5004 38.6573 26.105 38.428 26.3342Z" fill="white"/>
<path fill-rule="evenodd" clip-rule="evenodd" d="M37.9711 24.729C37.9711 24.729 36.5957 23.8121 37.2834 23.5829C37.971 23.3537 38.2003 24.4998 37.9711 24.729Z" fill="white"/>
<path fill-rule="evenodd" clip-rule="evenodd" d="M37.7382 23.583C37.7382 23.583 36.8213 22.8953 37.2797 22.8953C37.7382 22.666 37.9674 23.3537 37.7382 23.583Z" fill="white"/>
<path fill-rule="evenodd" clip-rule="evenodd" d="M37.7339 29.5426C37.7339 29.5426 39.5677 27.9381 39.1092 26.1043C38.6508 24.2705 38.1924 23.1244 38.1924 21.9783C37.9631 23.1244 38.1923 23.5829 38.4215 24.729C38.6508 25.8751 39.7969 27.4796 37.7339 29.5426Z" fill="white"/>
<path fill-rule="evenodd" clip-rule="evenodd" d="M19.1685 32.7536C19.1685 32.7536 19.8562 29.7737 22.8361 28.6276C23.753 26.1061 22.8361 24.96 21.9192 23.8139C20.7731 22.6677 20.7731 21.2924 21.0024 19.9171C21.0024 19.2294 20.3146 18.3125 20.3146 18.3125C20.5439 19.2294 20.3146 20.1463 18.9393 21.2925C17.5639 22.2093 14.5841 24.5016 14.8133 27.9399C14.8133 31.3783 18.0224 32.066 19.1685 32.7536Z" fill="#007D36"/>
<path fill-rule="evenodd" clip-rule="evenodd" d="M20.3141 29.3135C20.3141 29.3135 22.1479 27.7089 21.231 27.2504C20.0849 27.0212 19.8557 29.0843 20.3141 29.3135Z" fill="white"/>
<path fill-rule="evenodd" clip-rule="evenodd" d="M20.0875 30.0018C20.0875 30.0018 16.8784 31.1479 16.8784 30.0018C17.1076 28.6265 19.8583 29.3141 20.0875 30.0018Z" fill="white"/>
<path fill-rule="evenodd" clip-rule="evenodd" d="M18.9373 28.8555C18.9373 28.8555 16.1867 29.3139 16.4159 28.397C16.8744 27.2509 18.9373 28.1678 18.9373 28.8555Z" fill="white"/>
<path fill-rule="evenodd" clip-rule="evenodd" d="M18.2491 27.7097C18.2491 27.7097 15.4984 27.2513 15.9568 26.5636C16.8737 25.6467 18.4783 27.2513 18.2491 27.7097Z" fill="white"/>
<path fill-rule="evenodd" clip-rule="evenodd" d="M18.2528 26.5635C18.2528 26.5635 15.9606 25.6466 16.6482 25.1882C17.5651 24.5005 18.482 26.1051 18.2528 26.5635Z" fill="white"/>
<path fill-rule="evenodd" clip-rule="evenodd" d="M18.4808 25.6462C18.4808 25.6462 16.8762 24.5001 17.5639 24.0416C18.4808 23.8124 18.9392 25.417 18.4808 25.6462Z" fill="white"/>
<path fill-rule="evenodd" clip-rule="evenodd" d="M18.9458 24.5007C18.9458 24.5007 17.7997 23.5838 18.2581 23.3546C18.9458 22.8962 19.175 24.2715 18.9458 24.5007Z" fill="white"/>
<path fill-rule="evenodd" clip-rule="evenodd" d="M19.1686 23.5835C19.1686 23.5835 18.2517 22.4374 18.9393 22.4374C19.3978 22.2081 19.3978 23.3543 19.1686 23.5835Z" fill="white"/>
<path fill-rule="evenodd" clip-rule="evenodd" d="M19.6281 27.9381C19.6281 27.9381 21.4619 26.5627 20.545 26.3335C19.3989 25.875 19.1697 27.4796 19.6281 27.9381Z" fill="white"/>
<path fill-rule="evenodd" clip-rule="evenodd" d="M19.3995 26.3342C19.3995 26.3342 21.004 25.1881 20.3164 24.9589C19.6287 24.5004 19.1702 26.105 19.3995 26.3342Z" fill="white"/>
<path fill-rule="evenodd" clip-rule="evenodd" d="M19.8579 24.729C19.8579 24.729 21.2333 23.8121 20.5456 23.5829C19.8579 23.3537 19.6287 24.4998 19.8579 24.729Z" fill="white"/>
<path fill-rule="evenodd" clip-rule="evenodd" d="M19.8569 23.583C19.8569 23.583 20.7738 22.8953 20.3153 22.8953C20.0861 22.666 19.8569 23.3537 19.8569 23.583Z" fill="white"/>
<path fill-rule="evenodd" clip-rule="evenodd" d="M20.0871 29.5426C20.0871 29.5426 18.2533 27.9381 18.7118 26.1043C19.1702 24.2705 19.6286 23.1244 19.6286 21.9783C19.8579 23.1244 19.6286 23.5829 19.3994 24.729C19.1702 25.8751 18.024 27.4796 20.0871 29.5426Z" fill="white"/>
<path fill-rule="evenodd" clip-rule="evenodd" d="M34.9854 35.7331C34.9854 35.7331 35.6731 33.6701 37.7361 32.524C37.9653 30.2318 34.7562 29.0856 33.6101 28.398C32.4639 27.7103 29.9424 25.6473 30.6301 23.8135C29.484 25.6473 29.0256 29.7733 30.1717 31.3779C31.3178 32.7532 34.0685 35.0455 34.9854 35.7331Z" fill="#D2DB50"/>
<path fill-rule="evenodd" clip-rule="evenodd" d="M35.4465 33.4393C35.4465 33.4393 33.1543 34.3562 33.1543 33.4393C33.1543 32.2932 35.2173 32.7516 35.4465 33.4393Z" fill="white"/>
<path fill-rule="evenodd" clip-rule="evenodd" d="M35.9051 32.523C35.9051 32.523 37.0511 30.46 36.1342 30.46C34.7589 30.46 35.2174 32.523 35.9051 32.523Z" fill="white"/>
<path fill-rule="evenodd" clip-rule="evenodd" d="M34.7603 31.3768C34.7603 31.3768 35.4479 29.543 34.531 29.543C33.6142 29.7722 34.3018 31.3768 34.7603 31.3768Z" fill="white"/>
<path fill-rule="evenodd" clip-rule="evenodd" d="M33.8444 30.4612C33.8444 30.4612 34.0737 28.8567 33.386 29.0859C32.4691 29.3151 33.3859 30.4612 33.8444 30.4612Z" fill="white"/>
<path fill-rule="evenodd" clip-rule="evenodd" d="M32.6943 29.7728C32.6943 29.7728 32.9236 28.3975 32.4651 28.3975C31.5483 28.6267 32.2359 29.7728 32.6943 29.7728Z" fill="white"/>
<path fill-rule="evenodd" clip-rule="evenodd" d="M31.7784 29.0843C31.7784 29.0843 32.0076 27.709 31.5491 27.709C30.6322 27.9382 31.3199 28.8551 31.7784 29.0843Z" fill="white"/>
<path fill-rule="evenodd" clip-rule="evenodd" d="M34.2993 32.2943C34.2993 32.2943 32.2363 33.2112 32.2363 32.2943C32.2363 31.3774 34.0701 31.8358 34.2993 32.2943Z" fill="white"/>
<path fill-rule="evenodd" clip-rule="evenodd" d="M33.1453 31.1476C33.1453 31.1476 31.3115 31.8353 31.3115 31.1476C31.3115 30.4599 32.9161 30.9184 33.1453 31.1476Z" fill="white"/>
<path fill-rule="evenodd" clip-rule="evenodd" d="M32.0099 30.4587C32.0099 30.4587 30.4053 31.1463 30.4053 30.4587C30.4053 29.771 31.7806 30.0002 32.0099 30.4587Z" fill="white"/>
<path fill-rule="evenodd" clip-rule="evenodd" d="M35.6742 33.211C35.6742 33.211 34.9865 31.8357 32.9235 30.4603C31.0897 29.3142 30.1728 28.168 30.1728 26.5635C29.7144 27.7096 30.8605 29.3142 32.0066 30.0018C33.1527 30.9187 34.2989 31.6064 35.6742 33.211Z" fill="white"/>
<path fill-rule="evenodd" clip-rule="evenodd" d="M23.2951 35.7331C23.2951 35.7331 22.6074 33.6701 20.5444 32.524C20.3152 30.2318 23.5243 29.0856 24.6704 28.398C25.8165 27.7103 28.338 25.6473 27.6503 23.8135C28.7965 25.6473 29.2549 29.7733 28.1087 31.3779C26.9626 32.7532 24.4412 35.0455 23.2951 35.7331Z" fill="#D2DB50"/>
<path fill-rule="evenodd" clip-rule="evenodd" d="M22.8364 33.4393C22.8364 33.4393 25.1287 34.3562 25.1287 33.4393C25.1287 32.2932 23.0656 32.7516 22.8364 33.4393Z" fill="white"/>
<path fill-rule="evenodd" clip-rule="evenodd" d="M22.3747 32.523C22.3747 32.523 21.2287 30.46 22.1456 30.46C23.5209 30.46 23.0624 32.523 22.3747 32.523Z" fill="white"/>
<path fill-rule="evenodd" clip-rule="evenodd" d="M23.5278 31.3768C23.5278 31.3768 22.8402 29.543 23.7571 29.543C24.674 29.7722 23.9863 31.3768 23.5278 31.3768Z" fill="white"/>
<path fill-rule="evenodd" clip-rule="evenodd" d="M24.4434 30.4612C24.4434 30.4612 24.2142 28.8567 24.9018 29.0859C25.8187 29.3151 24.9019 30.4612 24.4434 30.4612Z" fill="white"/>
<path fill-rule="evenodd" clip-rule="evenodd" d="M25.59 29.7728C25.59 29.7728 25.3608 28.3975 25.8192 28.3975C26.7361 28.6267 26.0485 29.7728 25.59 29.7728Z" fill="white"/>
<path fill-rule="evenodd" clip-rule="evenodd" d="M26.5007 29.0843C26.5007 29.0843 26.2714 27.709 26.7299 27.709C27.6468 27.9382 26.9591 28.8551 26.5007 29.0843Z" fill="white"/>
<path fill-rule="evenodd" clip-rule="evenodd" d="M23.9839 32.2943C23.9839 32.2943 26.0469 33.2112 26.0469 32.2943C26.0469 31.3774 24.2131 31.8358 23.9839 32.2943Z" fill="white"/>
<path fill-rule="evenodd" clip-rule="evenodd" d="M25.1294 31.1476C25.1294 31.1476 26.9632 31.8353 26.9632 31.1476C26.9632 30.4599 25.3586 30.9184 25.1294 31.1476Z" fill="white"/>
<path fill-rule="evenodd" clip-rule="evenodd" d="M26.2817 30.4587C26.2817 30.4587 27.8863 31.1463 27.8863 30.4587C27.8863 29.771 26.511 30.0002 26.2817 30.4587Z" fill="white"/>
<path fill-rule="evenodd" clip-rule="evenodd" d="M22.6133 33.211C22.6133 33.211 23.301 31.8357 25.364 30.4603C27.1978 29.3142 28.1146 28.168 28.1146 26.5635C28.5731 27.7096 27.427 29.3142 26.2809 30.0018C25.1348 30.9187 23.9886 31.6064 22.6133 33.211Z" fill="white"/>
<path fill-rule="evenodd" clip-rule="evenodd" d="M34.2994 48.1109C34.5287 48.1109 36.8209 47.6524 36.5917 45.5894C36.3624 43.5264 35.2163 42.3803 34.5287 41.6926C33.841 40.7757 33.841 37.5666 34.5287 36.6497C33.1533 37.3373 30.8611 39.8588 30.6318 41.6926C30.8611 43.2972 31.3195 48.1109 34.2994 48.1109Z" fill="#3CA835"/>
<path fill-rule="evenodd" clip-rule="evenodd" d="M34.0736 46.5066C34.0736 46.5066 31.7814 46.0481 32.2398 45.5897C32.9275 44.6728 34.3028 46.0482 34.0736 46.5066Z" fill="white"/>
<path fill-rule="evenodd" clip-rule="evenodd" d="M35.2219 46.5077C35.2219 46.5077 36.8265 44.9031 35.9096 44.6738C34.9927 44.4446 34.7634 46.2784 35.2219 46.5077Z" fill="white"/>
<path fill-rule="evenodd" clip-rule="evenodd" d="M34.9867 45.1301C34.9867 45.1301 36.362 43.7547 35.4451 43.5255C34.5283 43.2963 34.5282 44.9009 34.9867 45.1301Z" fill="white"/>
<path fill-rule="evenodd" clip-rule="evenodd" d="M34.2995 43.9828C34.2995 43.9828 35.2164 42.6075 34.5288 42.6075C33.8411 42.3782 34.0703 43.7536 34.2995 43.9828Z" fill="white"/>
<path fill-rule="evenodd" clip-rule="evenodd" d="M33.6165 42.8379C33.6165 42.8379 34.3041 41.6918 33.8456 41.6918C33.158 41.4625 33.3872 42.6087 33.6165 42.8379Z" fill="white" stroke="#FAECBD" stroke-width="0.216" stroke-miterlimit="22.9256"/>
<path fill-rule="evenodd" clip-rule="evenodd" d="M33.3835 41.463C33.3835 41.463 34.0712 40.5461 33.6127 40.5461C32.925 40.5461 32.925 41.463 33.3835 41.463Z" fill="white"/>
<path fill-rule="evenodd" clip-rule="evenodd" d="M32.9176 40.5448C32.9176 40.5448 33.6053 39.3987 33.1469 39.3987C32.4592 39.3987 32.4592 40.3156 32.9176 40.5448Z" fill="white"/>
<path fill-rule="evenodd" clip-rule="evenodd" d="M33.3788 44.9016C33.3788 44.9016 31.545 44.6724 31.7742 43.9847C32.4619 43.297 33.608 44.4431 33.3788 44.9016Z" fill="white"/>
<path fill-rule="evenodd" clip-rule="evenodd" d="M32.6963 43.2969C32.6963 43.2969 31.0917 43.0677 31.5502 42.6093C32.0086 42.1508 32.9255 43.0677 32.6963 43.2969Z" fill="white"/>
<path fill-rule="evenodd" clip-rule="evenodd" d="M32.4673 42.1496C32.4673 42.1496 31.3212 41.6911 31.7796 41.4619C32.2381 41.2327 32.6966 41.9203 32.4673 42.1496Z" fill="white"/>
<path fill-rule="evenodd" clip-rule="evenodd" d="M32.2358 41.004C32.2358 41.004 31.3188 40.5456 31.7773 40.3164C32.2357 40.0872 32.465 40.7748 32.2358 41.004Z" fill="white"/>
<path fill-rule="evenodd" clip-rule="evenodd" d="M34.5288 47.1932C34.5288 47.1932 34.5288 46.0471 34.0704 44.901C33.6119 43.7549 32.4658 42.6087 32.695 41.0042C32.695 41.6918 32.9243 42.6087 33.3827 43.2964C33.8412 43.5256 34.7581 45.1302 34.5288 47.1932Z" fill="white"/>
<path fill-rule="evenodd" clip-rule="evenodd" d="M35.4434 48.1094C35.4434 48.1094 40.9447 49.9432 43.237 46.2756C45.5292 42.608 43.237 42.1496 46.9046 40.545C45.0708 39.8574 40.9447 39.3989 38.8817 40.545C36.8187 41.6911 37.2771 44.9003 37.5064 45.8171C37.5064 46.734 36.5895 47.8802 35.4434 48.1094Z" fill="#143F1F"/>
<path fill-rule="evenodd" clip-rule="evenodd" d="M38.1974 46.9648C38.1974 46.9648 37.2805 46.0479 37.9681 45.8187C38.4266 45.5895 38.4266 46.7356 38.1974 46.9648Z" fill="white"/>
<path fill-rule="evenodd" clip-rule="evenodd" d="M38.1909 47.8803C38.1909 47.8803 39.5662 48.3387 39.5662 47.8803C39.337 47.1926 38.1909 47.6511 38.1909 47.8803Z" fill="white"/>
<path fill-rule="evenodd" clip-rule="evenodd" d="M39.1167 47.1928C39.1167 47.1928 40.7213 47.6512 40.4921 47.1928C40.4921 46.5051 39.3459 46.9636 39.1167 47.1928Z" fill="white"/>
<path fill-rule="evenodd" clip-rule="evenodd" d="M39.8022 46.5057C39.8022 46.5057 41.6361 46.7349 41.4068 46.0473C41.1776 45.3596 39.8022 46.0473 39.8022 46.5057Z" fill="white"/>
<path fill-rule="evenodd" clip-rule="evenodd" d="M40.0273 45.3602C40.0273 45.3602 42.0903 45.5894 41.8611 44.9018C41.6319 44.2141 40.0273 44.9018 40.0273 45.3602Z" fill="white"/>
<path fill-rule="evenodd" clip-rule="evenodd" d="M40.4839 44.2131C40.4839 44.2131 43.0053 44.4423 42.7761 43.7546C42.3177 42.6085 40.4839 43.7546 40.4839 44.2131Z" fill="white"/>
<path fill-rule="evenodd" clip-rule="evenodd" d="M41.1792 42.8372C41.1792 42.8372 43.7007 43.0663 43.4714 42.3787C43.013 41.2326 41.1792 42.1495 41.1792 42.8372Z" fill="white"/>
<path fill-rule="evenodd" clip-rule="evenodd" d="M38.8887 46.0477C38.8887 46.0477 37.7425 44.9016 38.4302 44.6724C39.1178 44.6724 39.1179 46.0477 38.8887 46.0477Z" fill="white"/>
<path fill-rule="evenodd" clip-rule="evenodd" d="M39.1137 44.672C39.1137 44.672 37.9676 43.0675 38.6553 43.0675C39.5722 42.8383 39.5722 44.4428 39.1137 44.672Z" fill="white"/>
<path fill-rule="evenodd" clip-rule="evenodd" d="M39.5688 43.2967C39.5688 43.2967 38.8811 41.463 39.5688 41.6922C40.7149 41.6922 40.0273 43.2967 39.5688 43.2967Z" fill="white"/>
<path fill-rule="evenodd" clip-rule="evenodd" d="M40.4903 42.6089C40.4903 42.6089 39.8025 40.5459 40.7194 40.7751C41.8656 41.0043 41.1779 42.6089 40.4903 42.6089Z" fill="white"/>
<path fill-rule="evenodd" clip-rule="evenodd" d="M40.9462 42.8381C40.9462 42.8381 39.5708 43.5258 39.5708 44.6719C39.5708 46.0472 38.6539 47.4226 37.5078 47.6518C39.1124 47.1934 39.3416 46.0473 39.5708 45.1304C39.8 44.2135 40.0293 43.5258 40.9462 42.8381Z" fill="white"/>
<path fill-rule="evenodd" clip-rule="evenodd" d="M22.8386 48.1094C22.8386 48.1094 17.3373 49.9432 15.045 46.2756C12.7528 42.608 15.045 42.1496 11.3774 40.545C13.2112 39.8574 17.3373 39.3989 19.4003 40.545C21.4633 41.6911 21.0049 44.9003 20.7756 45.8171C20.7756 46.734 21.6925 47.8802 22.8386 48.1094Z" fill="#143F1F"/>
<path fill-rule="evenodd" clip-rule="evenodd" d="M20.0905 46.9648C20.0905 46.9648 21.0074 46.0479 20.3197 45.8187C19.8613 45.5895 19.8613 46.7356 20.0905 46.9648Z" fill="white"/>
<path fill-rule="evenodd" clip-rule="evenodd" d="M20.0813 47.8803C20.0813 47.8803 18.7061 48.3387 18.7061 47.8803C18.9353 47.1926 20.0813 47.6511 20.0813 47.8803Z" fill="white"/>
<path fill-rule="evenodd" clip-rule="evenodd" d="M19.1771 47.1928C19.1771 47.1928 17.5725 47.6512 17.8017 47.1928C17.8017 46.5051 18.9478 46.9636 19.1771 47.1928Z" fill="white"/>
<path fill-rule="evenodd" clip-rule="evenodd" d="M18.4814 46.5057C18.4814 46.5057 16.6475 46.7349 16.8768 46.0473C17.106 45.3596 18.4814 46.0473 18.4814 46.5057Z" fill="white"/>
<path fill-rule="evenodd" clip-rule="evenodd" d="M18.2505 45.3602C18.2505 45.3602 16.1875 45.5894 16.4167 44.9018C16.6459 44.2141 18.2505 44.9018 18.2505 45.3602Z" fill="white"/>
<path fill-rule="evenodd" clip-rule="evenodd" d="M17.7953 44.2131C17.7953 44.2131 15.2738 44.4423 15.503 43.7546C15.9615 42.6085 17.7953 43.7546 17.7953 44.2131Z" fill="white"/>
<path fill-rule="evenodd" clip-rule="evenodd" d="M17.1078 42.8372C17.1078 42.8372 14.5863 43.0663 14.8155 42.3787C15.274 41.2326 17.1078 42.1495 17.1078 42.8372Z" fill="white"/>
<path fill-rule="evenodd" clip-rule="evenodd" d="M19.3983 46.0477C19.3983 46.0477 20.5445 44.9016 19.8568 44.6724C19.1691 44.6724 19.1691 46.0477 19.3983 46.0477Z" fill="white"/>
<path fill-rule="evenodd" clip-rule="evenodd" d="M19.1742 44.672C19.1742 44.672 20.3203 43.0675 19.6326 43.0675C18.7158 42.8383 18.7157 44.4428 19.1742 44.672Z" fill="white"/>
<path fill-rule="evenodd" clip-rule="evenodd" d="M18.7117 43.2967C18.7117 43.2967 19.3994 41.463 18.7117 41.6922C17.5656 41.6922 18.2532 43.2967 18.7117 43.2967Z" fill="white"/>
<path fill-rule="evenodd" clip-rule="evenodd" d="M17.7909 42.6089C17.7909 42.6089 18.4786 40.5459 17.5617 40.7751C16.4156 41.0043 17.1032 42.6089 17.7909 42.6089Z" fill="white"/>
<path fill-rule="evenodd" clip-rule="evenodd" d="M17.3389 42.8381C17.3389 42.8381 18.7142 43.5258 18.7142 44.6719C18.7142 46.0472 19.6311 47.4226 20.7772 47.6518C19.1727 47.1934 18.9434 46.0473 18.7142 45.1304C18.485 44.2135 18.2558 43.5258 17.3389 42.8381Z" fill="white"/>
<path fill-rule="evenodd" clip-rule="evenodd" d="M41.6339 39.3999C41.6339 39.3999 43.9262 38.9414 44.8431 37.1077C45.5307 35.2739 43.4677 31.377 43.9262 29.7725C43.4677 30.6894 42.5508 31.6063 41.8631 32.0647C41.1754 32.5231 38.4248 32.7524 37.9663 34.8154C37.5079 36.6492 37.9664 38.483 39.3417 39.1707C40.2586 39.1707 41.6339 39.3999 41.6339 39.3999Z" fill="#007D36"/>
<path fill-rule="evenodd" clip-rule="evenodd" d="M40.4924 38.2539C40.4924 38.2539 38.4293 37.5662 38.8878 37.1078C39.8047 36.1909 40.7216 37.7954 40.4924 38.2539Z" fill="white"/>
<path fill-rule="evenodd" clip-rule="evenodd" d="M40.946 37.3373C40.946 37.3373 38.883 36.1911 39.7998 35.7327C40.7167 35.2742 41.4044 37.1081 40.946 37.3373Z" fill="white"/>
<path fill-rule="evenodd" clip-rule="evenodd" d="M41.4051 38.4837C41.4051 38.4837 43.6973 38.2544 43.2389 37.5667C42.7804 36.8791 41.1759 38.0252 41.4051 38.4837Z" fill="white"/>
<path fill-rule="evenodd" clip-rule="evenodd" d="M42.3247 37.1083C42.3247 37.1083 44.1585 37.1083 43.7001 36.4206C43.4708 35.7329 42.3247 36.6499 42.3247 37.1083Z" fill="white"/>
<path fill-rule="evenodd" clip-rule="evenodd" d="M42.5498 35.9604C42.5498 35.9604 44.3836 35.5019 43.9252 35.0435C43.2375 34.585 42.5498 35.7311 42.5498 35.9604Z" fill="white"/>
<path fill-rule="evenodd" clip-rule="evenodd" d="M42.7828 34.8149C42.7828 34.8149 44.1582 34.1272 43.6997 33.898C43.2413 33.4395 42.5536 34.5856 42.7828 34.8149Z" fill="white"/>
<path fill-rule="evenodd" clip-rule="evenodd" d="M43.0136 33.6691C43.0136 33.6691 43.9305 33.2107 43.7013 32.9814C43.2429 32.7522 42.7844 33.4399 43.0136 33.6691Z" fill="white"/>
<path fill-rule="evenodd" clip-rule="evenodd" d="M42.7817 32.9813C42.7817 32.9813 43.4694 32.2937 43.2401 32.0645C42.7817 32.0645 42.7817 32.9813 42.7817 32.9813Z" fill="white"/>
<path fill-rule="evenodd" clip-rule="evenodd" d="M41.4095 36.1894C41.4095 36.1894 39.8049 34.8141 40.4926 34.5848C41.4095 34.3556 41.8679 35.9602 41.4095 36.1894Z" fill="white"/>
<path fill-rule="evenodd" clip-rule="evenodd" d="M41.6387 34.8162C41.6387 34.8162 40.4926 33.8993 40.951 33.67C41.8679 33.4408 42.0972 34.5869 41.6387 34.8162Z" fill="white"/>
<path fill-rule="evenodd" clip-rule="evenodd" d="M42.0936 33.8973C42.0936 33.8973 41.1768 33.2096 41.6352 32.9803C42.0937 32.7511 42.3228 33.6681 42.0936 33.8973Z" fill="white"/>
<path fill-rule="evenodd" clip-rule="evenodd" d="M40.7168 38.4822C40.7168 38.4822 42.0922 37.1068 42.0922 36.1899C42.0922 35.273 42.0922 34.1269 42.5506 33.21C42.0922 33.6684 42.0922 34.8145 42.0922 35.273C42.0922 35.9606 41.8629 37.336 40.7168 38.4822Z" fill="white"/>
<path fill-rule="evenodd" clip-rule="evenodd" d="M16.6506 39.3999C16.6506 39.3999 14.3584 38.9414 13.4415 37.1077C12.7538 35.2739 14.8168 31.377 14.3584 29.7725C14.8168 30.6894 15.7338 31.6063 16.4215 32.0647C17.1091 32.5231 19.8598 32.7524 20.3182 34.8154C20.7767 36.6492 20.3182 38.483 18.9429 39.1707C18.2552 39.1707 16.6506 39.3999 16.6506 39.3999Z" fill="#007D36"/>
<path fill-rule="evenodd" clip-rule="evenodd" d="M17.791 38.2539C17.791 38.2539 19.8541 37.5662 19.3956 37.1078C18.708 36.1909 17.5618 37.7954 17.791 38.2539Z" fill="white"/>
<path fill-rule="evenodd" clip-rule="evenodd" d="M17.3333 37.3373C17.3333 37.3373 19.3963 36.1911 18.4794 35.7327C17.5625 35.2742 17.1041 37.1081 17.3333 37.3373Z" fill="white"/>
<path fill-rule="evenodd" clip-rule="evenodd" d="M17.1068 38.4837C17.1068 38.4837 14.8146 38.2544 15.273 37.5667C15.7315 36.8791 17.1068 38.0252 17.1068 38.4837Z" fill="white"/>
<path fill-rule="evenodd" clip-rule="evenodd" d="M15.9567 37.1083C15.9567 37.1083 14.1229 37.1083 14.5814 36.4206C15.0398 35.7329 16.186 36.6499 15.9567 37.1083Z" fill="white"/>
<path fill-rule="evenodd" clip-rule="evenodd" d="M15.7316 35.9604C15.7316 35.9604 13.8978 35.5019 14.3563 35.0435C15.044 34.585 15.9609 35.7311 15.7316 35.9604Z" fill="white"/>
<path fill-rule="evenodd" clip-rule="evenodd" d="M15.5031 34.8149C15.5031 34.8149 14.1278 34.1272 14.5862 33.898C15.2739 33.4395 15.7323 34.5856 15.5031 34.8149Z" fill="white"/>
<path fill-rule="evenodd" clip-rule="evenodd" d="M15.5037 33.6691C15.5037 33.6691 14.5869 33.2107 14.8161 32.9814C15.2745 32.7522 15.5037 33.4399 15.5037 33.6691Z" fill="white"/>
<path fill-rule="evenodd" clip-rule="evenodd" d="M15.5042 32.9813C15.5042 32.9813 14.8166 32.2937 15.0458 32.0645C15.5043 32.0645 15.7334 32.9813 15.5042 32.9813Z" fill="white"/>
<path fill-rule="evenodd" clip-rule="evenodd" d="M16.8815 36.1894C16.8815 36.1894 18.4861 34.8141 17.7984 34.5848C16.8815 34.3556 16.6523 35.9602 16.8815 36.1894Z" fill="white"/>
<path fill-rule="evenodd" clip-rule="evenodd" d="M16.6475 34.8162C16.6475 34.8162 17.7936 33.8993 17.3352 33.67C16.6475 33.4408 16.4183 34.5869 16.6475 34.8162Z" fill="white"/>
<path fill-rule="evenodd" clip-rule="evenodd" d="M16.4218 33.8973C16.4218 33.8973 17.3386 33.2096 16.8802 32.9803C16.1925 32.7511 16.1926 33.6681 16.4218 33.8973Z" fill="white"/>
<path fill-rule="evenodd" clip-rule="evenodd" d="M17.5614 38.4822C17.5614 38.4822 16.186 37.1068 16.186 36.1899C16.186 35.273 16.186 34.1269 15.7275 33.21C16.186 33.6684 16.186 34.8145 16.186 35.273C16.186 35.9606 16.6445 37.336 17.5614 38.4822Z" fill="white"/>
<path fill-rule="evenodd" clip-rule="evenodd" d="M29.258 33.668C29.258 33.668 28.7995 35.731 29.258 39.6278C29.4872 38.0232 29.7164 35.9602 29.258 33.668Z" fill="white"/>
<path fill-rule="evenodd" clip-rule="evenodd" d="M29.4844 22.6655C29.4844 22.6655 30.8598 21.9779 30.4013 21.5194C29.7136 21.061 29.2552 22.4363 29.4844 22.6655Z" fill="white"/>
<path fill-rule="evenodd" clip-rule="evenodd" d="M29.4907 21.2896C29.4907 21.2896 30.8661 20.8311 30.6368 20.3726C30.1784 19.685 29.4907 21.0604 29.4907 21.2896Z" fill="white"/>
<path fill-rule="evenodd" clip-rule="evenodd" d="M29.7198 20.3728C29.7198 20.3728 31.3243 19.9143 30.8659 19.2266C30.4075 18.539 29.4906 19.9143 29.7198 20.3728Z" fill="white"/>
<path fill-rule="evenodd" clip-rule="evenodd" d="M29.7148 18.9986C29.7148 18.9986 30.8609 18.5401 30.6317 18.0816C30.1733 17.8524 29.7148 18.7694 29.7148 18.9986Z" fill="white"/>
<path fill-rule="evenodd" clip-rule="evenodd" d="M29.7148 18.0815C29.7148 18.0815 30.6317 17.3939 30.4025 17.1647C29.944 16.9354 29.7148 17.8523 29.7148 18.0815Z" fill="white"/>
<path fill-rule="evenodd" clip-rule="evenodd" d="M29.7183 17.1647C29.7183 17.1647 30.6353 16.4771 30.1768 16.2478C29.7184 16.0186 29.4891 17.1647 29.7183 17.1647Z" fill="white"/>
<path fill-rule="evenodd" clip-rule="evenodd" d="M29.0281 22.6655C29.0281 22.6655 27.6527 21.9779 28.1111 21.5194C28.7988 21.061 29.2573 22.4363 29.0281 22.6655Z" fill="white"/>
<path fill-rule="evenodd" clip-rule="evenodd" d="M29.0297 23.5836C29.0297 23.5836 28.1127 23.1251 28.342 22.8959C28.8004 22.4374 29.2589 23.3544 29.0297 23.5836Z" fill="white"/>
<path fill-rule="evenodd" clip-rule="evenodd" d="M28.7993 21.2896C28.7993 21.2896 27.424 20.8311 27.6532 20.3726C28.3409 19.685 29.0286 21.0604 28.7993 21.2896Z" fill="white"/>
<path fill-rule="evenodd" clip-rule="evenodd" d="M28.7998 20.3728C28.7998 20.3728 27.1952 19.9143 27.6537 19.2266C28.1121 18.539 29.029 19.9143 28.7998 20.3728Z" fill="white"/>
<path fill-rule="evenodd" clip-rule="evenodd" d="M28.8031 18.9986C28.8031 18.9986 27.657 18.5401 27.8863 18.0816C28.1155 17.8524 28.8031 18.7694 28.8031 18.9986Z" fill="white"/>
<path fill-rule="evenodd" clip-rule="evenodd" d="M28.7982 18.0815C28.7982 18.0815 27.8813 17.3939 28.1105 17.1647C28.569 16.9354 28.7982 17.8523 28.7982 18.0815Z" fill="white"/>
<path fill-rule="evenodd" clip-rule="evenodd" d="M28.8007 17.1647C28.8007 17.1647 27.8838 16.4771 28.3422 16.2478C28.8007 16.0186 28.8007 17.1647 28.8007 17.1647Z" fill="white"/>
<path fill-rule="evenodd" clip-rule="evenodd" d="M29.0272 16.4769C29.0272 16.4769 28.3395 15.7892 28.5688 15.7892C29.0272 15.3307 29.2565 16.2477 29.0272 16.4769Z" fill="white"/>
<path fill-rule="evenodd" clip-rule="evenodd" d="M29.2578 23.5836C29.2578 23.5836 30.1747 23.1251 29.9455 22.8959C29.4871 22.4374 29.2578 23.3544 29.2578 23.5836Z" fill="white"/>
<path fill-rule="evenodd" clip-rule="evenodd" d="M29.4888 16.4769C29.4888 16.4769 30.1765 15.7892 29.9473 15.7892C29.4889 15.3307 29.2596 16.2477 29.4888 16.4769Z" fill="white"/>
<path fill-rule="evenodd" clip-rule="evenodd" d="M29.258 16.7058C29.258 16.7058 28.7995 18.7688 29.258 22.4364C29.258 20.8318 29.7164 18.7688 29.258 16.7058Z" fill="white"/>
<path fill-rule="evenodd" clip-rule="evenodd" d="M27.8863 43.2959C27.8863 43.2959 27.8863 45.5882 26.9694 46.7343C27.8863 48.7973 27.6571 50.1727 26.9694 51.548C26.9694 54.7571 27.4279 58.4247 26.2817 61.1754C26.7402 60.717 27.4279 60.0293 27.8863 59.8001C29.2617 59.3416 30.8662 60.2585 32.0123 61.1754C31.5539 60.4878 31.0955 59.5709 31.0955 57.9663C30.8662 54.0695 31.0955 50.6311 31.0955 50.6311C30.1786 48.5681 30.8662 47.422 31.3247 46.0466C30.4078 43.9836 30.1785 41.9206 30.4077 41.4622C29.9493 43.2959 29.0325 45.8174 29.0325 45.8174C29.0325 45.8174 28.574 44.442 27.8863 43.2959Z" fill="#681E14"/>
<path fill-rule="evenodd" clip-rule="evenodd" d="M15.2666 62.5508C15.2666 62.5508 16.8711 64.1553 18.9341 63.9261C20.7679 63.6969 21.2264 63.0092 22.6017 62.78H22.831C23.5186 62.78 24.2063 62.78 24.6647 62.5508L23.9771 62.0923C22.831 61.1754 20.5387 62.0924 19.3926 62.5508H19.1634C18.2465 63.0093 17.3296 62.78 17.3296 62.78V62.5508C17.7881 62.5508 18.9341 62.0923 20.0802 61.8631C20.7679 61.6339 21.2264 61.4047 21.6848 61.4047C22.1433 61.1755 22.6018 61.1755 23.0602 61.4047C23.5186 61.4047 23.9771 61.6339 24.2063 61.8631L24.894 62.5508C25.1232 62.3216 25.3525 62.3216 25.5817 62.0923C25.3525 62.0923 25.3524 61.8631 25.1232 61.8631C24.2063 61.1754 22.3725 59.5709 20.768 60.0293C18.9342 60.4878 18.2465 62.78 15.2666 62.5508Z" fill="#0095C6"/>
<path fill-rule="evenodd" clip-rule="evenodd" d="M22.8364 62.7805C22.8364 62.7805 24.441 64.3851 26.504 64.1559C28.1086 63.9267 28.567 63.239 29.7131 63.0098C29.4839 62.7805 29.4839 62.7805 29.4839 62.7805L29.2547 62.5514H29.4839C30.4008 62.5514 31.0885 62.3221 31.5469 62.0929L31.3177 61.8636C30.1716 60.9467 27.8794 61.8637 26.7333 62.3221H26.504C25.5871 62.7806 24.6702 62.5514 24.6702 62.5514V62.3221C25.1286 62.3221 26.2748 61.8636 27.4209 61.6344C28.1086 61.4052 28.567 61.176 29.0255 61.176C29.4839 60.9468 29.9423 60.9468 30.4008 61.176C30.8592 61.176 31.3177 61.4052 31.5469 61.6344L31.7761 61.8636C32.0054 61.6344 32.2346 61.6345 32.4639 61.4052C31.547 60.7176 29.7131 59.3422 28.1085 59.8006C26.504 60.7175 25.5871 63.0097 22.8364 62.7805Z" fill="#3B529D"/>
<path fill-rule="evenodd" clip-rule="evenodd" d="M29.4907 62.78C29.4907 62.78 31.0953 64.3846 33.1583 64.1553C35.2213 63.9261 35.6798 62.78 37.972 63.0092C40.2643 63.2384 41.1811 63.2385 41.8688 62.5508C40.9519 62.78 40.035 62.78 39.1182 61.8631C38.2013 61.1754 36.3675 59.5709 34.7629 60.0293C33.1583 60.717 32.2414 63.0092 29.4907 62.78ZM33.3876 62.78C32.4707 63.2384 31.5537 63.0092 31.5537 63.0092V62.78C32.0122 62.78 33.1583 62.3216 34.3044 62.0923C34.9921 61.8631 35.4506 61.6339 35.909 61.6339C36.3675 61.4046 36.8259 61.4046 37.2843 61.6339C37.7428 61.6339 38.2012 61.8631 38.4304 62.0923L39.1182 62.78L38.4304 62.3216C37.2843 61.4047 34.9921 62.3215 33.846 62.78C33.3875 62.78 33.3876 62.78 33.3876 62.78Z" fill="#0095C6"/>
<path fill-rule="evenodd" clip-rule="evenodd" d="M23.9812 48.1109C23.752 48.1109 21.4597 47.6524 21.6889 45.5894C21.9182 43.5264 23.0643 42.3803 23.7519 41.6926C24.4396 40.7757 24.4396 37.5666 23.7519 36.6497C25.1273 37.3373 27.4196 39.8588 27.6488 41.6926C27.4196 43.2972 26.9611 48.1109 23.9812 48.1109Z" fill="#3CA835"/>
<path fill-rule="evenodd" clip-rule="evenodd" d="M23.9839 46.5066C23.9839 46.5066 26.2761 46.0481 25.8176 45.5897C25.13 44.6728 23.9839 46.0482 23.9839 46.5066Z" fill="white"/>
<path fill-rule="evenodd" clip-rule="evenodd" d="M23.0625 46.5077C23.0625 46.5077 21.4579 44.9031 22.3748 44.6738C23.2917 44.4446 23.5209 46.2784 23.0625 46.5077Z" fill="white"/>
<path fill-rule="evenodd" clip-rule="evenodd" d="M23.3 45.1301C23.3 45.1301 21.9247 43.7547 22.8415 43.5255C23.7584 43.2963 23.7585 44.9009 23.3 45.1301Z" fill="white"/>
<path fill-rule="evenodd" clip-rule="evenodd" d="M23.756 43.9828C23.756 43.9828 22.8391 42.6075 23.5267 42.6075C24.4436 42.3782 24.2144 43.7536 23.756 43.9828Z" fill="white"/>
<path fill-rule="evenodd" clip-rule="evenodd" d="M24.4454 42.8379C24.4454 42.8379 23.7577 41.6918 24.2162 41.6918C25.1331 41.4625 24.9039 42.6087 24.4454 42.8379Z" fill="white" stroke="#FAECBD" stroke-width="0.216" stroke-miterlimit="22.9256"/>
<path fill-rule="evenodd" clip-rule="evenodd" d="M24.901 41.463C24.901 41.463 24.2133 40.5461 24.6717 40.5461C25.3594 40.5461 25.1302 41.463 24.901 41.463Z" fill="white"/>
<path fill-rule="evenodd" clip-rule="evenodd" d="M25.359 40.5448C25.359 40.5448 24.6713 39.3987 25.1298 39.3987C25.8174 39.3987 25.5882 40.3156 25.359 40.5448Z" fill="white"/>
<path fill-rule="evenodd" clip-rule="evenodd" d="M24.6738 44.9016C24.6738 44.9016 26.5076 44.6724 26.2784 43.9847C25.82 43.297 24.6738 44.4431 24.6738 44.9016Z" fill="white"/>
<path fill-rule="evenodd" clip-rule="evenodd" d="M25.587 43.2969C25.587 43.2969 27.1915 43.0677 26.7331 42.6093C26.2746 42.1508 25.3577 43.0677 25.587 43.2969Z" fill="white"/>
<path fill-rule="evenodd" clip-rule="evenodd" d="M25.8242 42.1496C25.8242 42.1496 26.9703 41.6911 26.5119 41.4619C26.0534 41.2327 25.5949 41.9203 25.8242 42.1496Z" fill="white"/>
<path fill-rule="evenodd" clip-rule="evenodd" d="M25.8193 41.004C25.8193 41.004 26.7363 40.5456 26.2778 40.3164C26.0486 40.0872 25.8193 40.7748 25.8193 41.004Z" fill="white"/>
<path fill-rule="evenodd" clip-rule="evenodd" d="M23.7576 47.1932C23.7576 47.1932 23.7576 46.0471 24.2161 44.901C24.6745 43.7549 25.8206 42.6087 25.5914 41.0042C25.5914 41.6918 25.3622 42.6087 24.9037 43.2964C24.4453 43.5256 23.2991 45.1302 23.7576 47.1932Z" fill="white"/>
<path d="M305.442 49.6386L302.787 53.5737H305.11L307.654 49.6386L305.11 45.7034H302.787L305.442 49.6386ZM301.128 49.6386L298.473 53.5737H300.796L303.34 49.6386L300.796 45.7034H298.473L301.128 49.6386ZM289.18 48.7066H290.287C291.946 48.7066 293.384 49.2244 293.384 50.6742C293.384 52.1239 292.057 52.7453 290.508 52.7453C289.955 52.7453 289.512 52.7453 289.18 52.7453V48.7066ZM289.18 43.1145C289.402 43.1145 289.844 43.011 290.619 43.011C292.167 43.011 293.052 43.5287 293.052 44.6679C293.052 45.7034 292.167 46.4283 290.287 46.4283H289.18V43.1145ZM285.751 54.8164C286.525 54.92 287.742 55.0235 289.402 55.0235C292.388 55.0235 294.158 54.6093 295.265 53.7808C296.15 53.056 296.813 52.1239 296.813 50.7777C296.813 49.0173 295.596 47.7746 293.827 47.3603C295.486 46.739 296.26 45.5999 296.26 44.3572C296.26 43.1145 295.486 42.0789 294.49 41.5612C293.384 40.9398 292.167 40.7327 290.065 40.7327C288.406 40.7327 286.526 40.8363 285.641 41.0434V54.8164H285.751ZM279.003 40.8363V54.8164H282.432V40.8363H279.003ZM265.175 40.8363V54.8164H268.494V48.9137H269.158C270.928 48.9137 271.702 50.1564 272.145 51.7097C272.476 52.7453 272.808 53.7808 273.251 54.8164H276.901C276.238 53.4702 275.685 51.9168 275.131 50.3635C274.468 48.7066 273.693 47.4639 271.702 46.9461L276.901 40.7327H272.808L268.715 46.5319H268.383V40.7327H265.175V40.8363ZM249.356 40.8363V54.8164H253.228L256.326 49.7421C257.211 48.2924 258.206 46.4283 258.87 44.7714H258.981C258.759 46.6354 258.759 48.4995 258.759 50.6742V54.8164H261.857V40.8363H258.427L255.219 46.3248C254.334 47.7746 253.339 49.6386 252.564 51.2955H252.454C252.564 49.4315 252.675 47.1532 252.675 44.9785V40.8363H249.356ZM233.648 40.8363V54.8164H237.077V48.9137H242.608V54.8164H246.038V40.8363H242.608V46.2212H237.077V40.8363H233.648ZM223.139 48.7066H224.245C225.905 48.7066 227.343 49.2244 227.343 50.6742C227.343 52.1239 226.015 52.7453 224.466 52.7453C223.913 52.7453 223.471 52.7453 223.139 52.7453V48.7066ZM223.139 43.1145C223.36 43.1145 223.803 43.011 224.577 43.011C226.126 43.011 227.011 43.5287 227.011 44.6679C227.011 45.7034 226.126 46.4283 224.245 46.4283H223.139V43.1145ZM219.71 54.8164C220.484 54.92 221.701 55.0235 223.36 55.0235C226.347 55.0235 228.117 54.6093 229.223 53.7808C230.108 53.056 230.772 52.1239 230.772 50.7777C230.772 49.0173 229.555 47.7746 227.785 47.3603C229.444 46.739 230.219 45.5999 230.219 44.3572C230.219 43.1145 229.444 42.0789 228.449 41.5612C227.343 40.9398 226.126 40.7327 224.024 40.7327C222.365 40.7327 220.484 40.8363 219.599 41.0434V54.8164H219.71ZM212.962 40.8363V54.8164H216.391V40.8363H212.962ZM202.453 43.4252H205.771V52.3311H200.793C201.125 51.7097 201.568 50.7777 201.789 49.9492C202.231 48.4995 202.453 46.9461 202.453 45.2892V43.4252ZM199.355 40.8363V44.5643C199.355 46.2212 199.134 47.7746 198.802 49.2244C198.47 50.3635 198.028 51.3991 197.364 52.3311L196.147 52.4346L196.258 58.3373H198.802L199.023 54.8164H207.762L207.984 58.3373H210.528L210.639 52.4346L209.09 52.3311V40.8363H199.355ZM183.536 40.8363L188.625 50.5706C188.735 50.7777 188.846 50.9848 188.735 51.1919C188.404 51.8133 187.74 52.4346 186.744 52.4346C186.302 52.4346 185.97 52.4346 185.638 52.3311L185.417 54.92C185.859 55.0235 186.302 55.1271 187.076 55.1271C188.846 55.1271 190.063 54.4022 191.059 53.2631C192.165 52.0204 193.05 49.8457 194.045 47.671L196.922 40.7327H193.382L191.722 45.7034C191.39 46.9461 191.059 47.8781 190.948 48.3959H190.837C190.505 47.5674 190.174 46.739 189.731 45.7034L187.519 40.6292H183.536V40.8363ZM174.908 48.1888C175.35 48.1888 175.682 48.0852 176.125 48.0852C176.899 48.0852 177.784 48.2924 178.337 48.7066C178.78 49.0173 179.111 49.535 179.111 50.2599C179.111 50.9848 178.78 51.5026 178.337 51.9168C177.784 52.331 177.01 52.6417 176.125 52.6417C175.682 52.6417 175.24 52.6417 174.797 52.5382V48.1888H174.908ZM171.589 40.8363V54.8164C172.363 54.92 173.58 55.0235 175.24 55.0235C177.563 55.0235 179.886 54.6093 181.324 53.4702C182.209 52.7453 182.762 51.7097 182.762 50.2599C182.762 48.7066 182.098 47.5674 180.992 46.8425C179.886 46.0141 178.226 45.7034 176.788 45.7034C176.235 45.7034 175.461 45.7034 175.018 45.807V43.4252H181.545V40.8363H171.589ZM160.527 48.9137L161.412 45.9105C161.633 45.0821 161.854 44.0465 162.076 43.2181C162.297 44.0465 162.518 45.0821 162.85 45.9105L163.735 48.9137H160.527ZM164.288 51.2955L165.394 54.92H169.045L164.399 40.9398H159.974L155.438 54.92H158.978L160.084 51.2955H164.288ZM144.376 44.0465C145.261 43.6323 146.478 43.2181 147.695 43.2181C149.133 43.2181 149.907 43.8394 149.907 44.7714C149.907 45.9105 148.801 46.5319 147.252 46.5319H145.814V48.9137H147.252C148.69 48.9137 150.46 49.2244 150.46 50.7777C150.46 51.9168 149.465 52.6417 147.695 52.6417C146.257 52.6417 144.708 52.1239 144.044 51.8133L143.38 54.2986C144.597 54.92 146.367 55.2306 147.916 55.2306C150.681 55.2306 154.111 54.1951 154.111 50.9848C154.111 49.1208 152.451 47.8781 150.571 47.671C152.341 47.2568 153.558 46.1177 153.558 44.3572C153.558 42.2861 151.677 40.7327 148.358 40.7327C146.257 40.7327 144.708 41.2505 143.712 41.8718L144.376 44.0465ZM128.557 48.9137L129.442 45.9105C129.663 45.0821 129.884 44.0465 130.106 43.2181C130.327 44.0465 130.548 45.0821 130.88 45.9105L131.765 48.9137H128.557ZM132.318 51.2955L133.424 54.92H137.075L132.429 40.9398H128.004L123.468 54.92H127.008L128.115 51.2955H132.318ZM110.415 40.8363V54.8164H113.734V48.9137H114.397C116.167 48.9137 116.942 50.1564 117.384 51.7097C117.716 52.7453 118.048 53.7808 118.49 54.8164H122.141C121.477 53.4702 120.924 51.9168 120.371 50.3635C119.707 48.7066 118.933 47.4639 116.942 46.9461L122.141 40.7327H118.048L113.955 46.5319H113.623V40.7327H110.415V40.8363ZM96.9191 40.8363V46.9461C96.9191 49.0172 96.6978 50.8813 95.8128 51.7097C95.481 52.1239 94.8172 52.331 94.1535 52.4346L94.596 55.0235C95.8129 55.0235 96.8085 54.7129 97.5828 54.2986C99.7953 53.056 100.348 50.2599 100.348 46.6355V43.3216H103.778V54.7129H107.207V40.7327H96.9191V40.8363ZM88.9543 40.8363V54.8164H92.3836V40.8363H88.9543ZM73.4672 40.8363V54.8164H76.8965V43.4252H82.2063V54.8164H85.6356V40.8363H73.4672ZM70.2591 52.0204C69.5954 52.331 68.4892 52.4346 67.383 52.4346C64.3962 52.4346 62.6262 50.6741 62.6262 47.8781C62.6262 44.7714 64.7281 43.2181 67.383 43.2181C68.5998 43.2181 69.5954 43.4252 70.2591 43.7358L70.9228 41.2505C70.3697 40.9398 69.0423 40.6292 67.2723 40.6292C62.7368 40.6292 59.0863 43.3216 59.0863 48.0852C59.0863 52.1239 61.7412 55.1271 66.9405 55.1271C68.7104 55.1271 70.1485 54.8164 70.8122 54.5057L70.2591 52.0204ZM57.5376 45.7034H55.2145L52.6702 49.6386L55.2145 53.5737H57.5376L54.8826 49.6386L57.5376 45.7034ZM53.2233 45.7034H50.9003L48.356 49.6386L50.9003 53.5737H53.2233L50.5684 49.6386L53.2233 45.7034Z" fill="black"/>
<path d="M270.868 27.9648C270.613 28.0462 270.274 28.0462 269.935 28.0462C268.747 28.0462 267.73 27.4767 267.73 26.5003C267.73 25.3611 268.663 24.9543 269.765 24.9543C270.274 24.9543 270.613 25.0357 270.783 25.0357V27.9648H270.868ZM267.221 34.1487C267.391 33.8232 267.475 33.5791 267.645 33.2536C267.984 32.3586 268.239 30.9754 269.002 30.3245C269.341 30.0804 269.68 29.9176 270.189 29.9176H270.783V34.23H273.327V23.327C272.479 23.1643 271.292 23.0829 270.02 23.0829C268.493 23.0829 267.136 23.327 266.288 23.9779C265.61 24.4661 265.101 25.2798 265.101 26.3375C265.101 27.9648 266.203 28.7785 267.56 29.0226V29.104C267.221 29.2667 266.882 29.4294 266.627 29.6735C265.779 30.4872 265.525 31.7891 265.016 33.0095C264.846 33.4164 264.677 33.9046 264.422 34.23H267.221V34.1487ZM260.351 23.0829V34.1487H262.981V23.1643H260.351V23.0829ZM248.224 23.0829V34.1487H250.853V29.5108H255.093V34.1487H257.722V23.1643H255.093V27.3953H250.853V23.1643H248.224V23.0829ZM239.743 29.4294L240.422 27.0698C240.591 26.4189 240.761 25.6052 240.93 24.9543C241.1 25.6052 241.27 26.4189 241.524 27.0698L242.202 29.4294H239.743ZM242.627 31.3009L243.475 34.1487H246.273L242.711 23.1643H239.319L235.842 34.1487H238.556L239.404 31.3009H242.627ZM224.817 23.0829V34.1487H227.446V25.1984H231.517V34.1487H234.146V23.1643H224.817V23.0829ZM219.983 34.1487H222.527L221.933 23.1643H218.541L217.354 26.8257C216.93 28.0462 216.59 29.5108 216.251 30.8127H216.166C215.912 29.5108 215.573 28.1276 215.234 26.9071L214.131 23.2456H210.654L209.891 34.23H212.265L212.52 30.0804C212.604 28.6971 212.689 26.9885 212.689 25.5239C212.944 26.9885 213.368 28.5344 213.707 29.8363L214.894 34.0673H216.93L218.287 29.7549C218.711 28.4531 219.22 26.9071 219.559 25.5239C219.559 27.1512 219.644 28.6971 219.644 30.0804L219.983 34.1487ZM202.597 24.8729C204.378 24.8729 205.396 26.5816 205.396 28.5344C205.396 30.6499 204.378 32.2773 202.597 32.2773C200.901 32.2773 199.798 30.7313 199.798 28.6158C199.798 26.5003 200.816 24.8729 202.597 24.8729ZM202.682 22.9202C199.29 22.9202 197.085 25.3611 197.085 28.6971C197.085 31.8704 199.12 34.3114 202.512 34.3114C205.905 34.3114 208.11 32.1145 208.11 28.5344C208.11 25.4425 206.244 22.9202 202.682 22.9202ZM187.247 23.0829V34.1487H189.791V29.5108H190.3C191.657 29.5108 192.25 30.4872 192.59 31.7077C192.844 32.5213 193.099 33.335 193.438 34.1487H196.236C195.728 33.0909 195.304 31.8704 194.88 30.6499C194.371 29.3481 193.777 28.3717 192.25 27.9648L196.236 23.0829H193.099L189.961 27.6394H189.706V23.0829H187.247ZM175.374 29.4294L176.052 27.0698C176.222 26.4189 176.391 25.6052 176.561 24.9543C176.731 25.6052 176.9 26.4189 177.155 27.0698L177.833 29.4294H175.374ZM178.257 31.3009L179.105 34.1487H181.904L178.342 23.1643H174.95L171.472 34.1487H174.186L175.034 31.3009H178.257ZM160.278 23.0829V34.1487H162.907V29.5108H167.147V34.1487H169.776V23.1643H167.147V27.3953H162.907V23.1643H160.278V23.0829ZM152.221 28.8599C152.56 28.8599 152.815 28.7785 153.239 28.7785C154.511 28.7785 155.529 29.2667 155.529 30.5686C155.529 31.7891 154.511 32.3586 153.239 32.3586C152.899 32.3586 152.56 32.3586 152.306 32.2773V28.8599H152.221ZM149.677 23.0829V34.0673C150.27 34.1487 151.203 34.23 152.475 34.23C154.256 34.23 156.207 33.9046 157.309 32.8468C157.903 32.2772 158.242 31.5449 158.242 30.4058C158.242 27.9648 156.122 26.8257 153.663 26.8257C153.154 26.8257 152.645 26.9071 152.306 26.9071V23.0829H149.677ZM139.245 23.0829V27.8835C139.245 29.5108 139.076 30.9754 138.397 31.6263C138.143 31.9518 137.634 32.1145 137.125 32.1959L137.464 34.23C138.397 34.23 139.161 33.9859 139.754 33.6605C141.45 32.6841 141.874 30.4872 141.874 27.6394V25.1984H144.503V34.1487H147.132V23.1643H139.245V23.0829ZM135.429 27.4766H131.189V25.1984H135.683V23.1643H128.644V34.1487H135.938V32.1145H131.189V29.5108H135.429V27.4766ZM120.588 29.2667H121.436C122.708 29.2667 123.81 29.6735 123.81 30.8127C123.81 31.9518 122.793 32.44 121.605 32.44C121.181 32.44 120.842 32.44 120.588 32.44V29.2667ZM120.588 24.9543C120.757 24.9543 121.096 24.8729 121.69 24.8729C122.877 24.8729 123.556 25.2798 123.556 26.1748C123.556 26.9885 122.877 27.558 121.436 27.558H120.588V24.9543ZM118.043 34.0673C118.637 34.1487 119.57 34.23 120.842 34.23C123.132 34.23 124.489 33.9046 125.337 33.2536C126.015 32.6841 126.524 31.9518 126.524 30.894C126.524 29.5108 125.591 28.5344 124.234 28.209C125.506 27.7208 126.1 26.8257 126.1 25.8493C126.1 24.8729 125.506 24.0593 124.743 23.6525C123.895 23.1643 122.962 23.0015 121.351 23.0015C120.079 23.0015 118.637 23.0829 117.958 23.2456V34.0673H118.043ZM112.87 23.0829V34.1487H115.499V23.1643H112.87V23.0829ZM104.728 25.117H107.273V32.1145H103.456C103.711 31.6263 104.05 30.894 104.22 30.2431C104.559 29.104 104.728 27.8835 104.728 26.5816V25.117ZM102.354 23.0829V26.0121C102.354 27.3139 102.184 28.5344 101.93 29.6735C101.675 30.5686 101.336 31.3822 100.827 32.1145L99.8943 32.1959L99.9791 36.8337H101.93L102.099 34.0673H108.799L108.969 36.8337H110.919L111.004 32.1959L109.817 32.1145V23.0829H102.354ZM90.2262 23.0829L94.1274 30.7313C94.2122 30.894 94.297 31.0568 94.2122 31.2195C93.9577 31.7077 93.4489 32.1959 92.6856 32.1959C92.3464 32.1959 92.0919 32.1959 91.8375 32.1145L91.6679 34.1487C92.0072 34.23 92.3464 34.3114 92.94 34.3114C94.297 34.3114 95.2299 33.7418 95.9931 32.8468C96.8412 31.8704 97.5197 30.1617 98.283 28.453L100.488 23.0015H97.7741L96.502 26.9071C96.2476 27.8835 95.9931 28.6158 95.9083 29.0226H95.8235C95.5691 28.3717 95.3147 27.7208 94.9754 26.9071L93.2793 22.9202H90.2262V23.0829ZM83.696 28.8599C84.0352 28.8599 84.2896 28.7785 84.6288 28.7785C85.2225 28.7785 85.9009 28.9412 86.325 29.2667C86.6642 29.5108 86.9187 29.9176 86.9187 30.4872C86.9187 31.0568 86.6642 31.4636 86.325 31.7891C85.9009 32.1145 85.3073 32.3586 84.6288 32.3586C84.2896 32.3586 83.9504 32.3586 83.6111 32.2773V28.8599H83.696ZM81.0669 23.0829V34.0673C81.6606 34.1487 82.5934 34.23 83.8656 34.23C85.6465 34.23 87.4275 33.9046 88.53 33.0095C89.2085 32.44 89.6325 31.6263 89.6325 30.4872C89.6325 29.2667 89.1237 28.3717 88.2756 27.8021C87.4275 27.1512 86.1554 26.9071 85.0529 26.9071C84.6288 26.9071 84.0352 26.9071 83.696 26.9885V25.117H88.6996V23.0829H81.0669Z" fill="black"/>
</svg>
