<svg width="13" height="13" viewBox="0 0 13 13" fill="none" xmlns="http://www.w3.org/2000/svg">
<path d="M12.9379 10.3773C12.9123 10.3021 12.8526 10.1861 12.8099 10.1195C12.5412 9.7114 11.0972 8.57503 10.3762 8.20339C9.96457 7.99075 9.65956 7.91987 9.43346 7.98643C9.1903 8.05521 9.06232 8.16902 8.65492 8.67814C8.4907 8.88221 8.3222 9.0734 8.2774 9.10345C8.16648 9.18079 7.94892 9.24311 7.79535 9.24311C7.43915 9.24093 6.79286 9.00895 6.29588 8.7039C5.90982 8.46764 5.415 8.04447 5.03531 7.62557C4.58737 7.13366 4.2824 6.69974 4.04135 6.20996C3.72995 5.58057 3.65104 5.19605 3.78113 4.91463C3.81313 4.84375 3.8558 4.76859 3.87497 4.74493C3.89418 4.72348 4.09469 4.55805 4.31649 4.37761C4.75163 4.02963 4.82201 3.95015 4.90306 3.71171C5.00544 3.4088 4.97773 3.09948 4.81988 2.78802C4.69829 2.55171 4.38049 2.03617 4.15014 1.70322C3.84513 1.26502 3.08579 0.328446 2.93433 0.201672C2.66132 -0.0217104 2.31155 -0.0604 1.92544 0.0899992C1.51809 0.248962 0.754466 0.867612 0.428117 1.29939C0.133768 1.69034 0.0207582 1.96743 0.00367709 2.33261C-0.0112431 2.63334 0.0143429 2.75793 0.172185 3.14246C1.40717 6.1584 3.25001 8.56643 5.78185 10.4783C7.10427 11.4771 8.47576 12.2376 9.89843 12.7574C10.7281 13.0603 11.0886 13.0753 11.5131 12.8262C11.6922 12.7187 12.1359 12.2612 12.3833 11.9282C12.7928 11.374 12.9443 11.1184 12.9869 10.9143C13.0168 10.7747 12.9933 10.532 12.9379 10.3773Z" fill="black"/>
</svg>
