<svg width="16" height="16" viewBox="0 0 16 16" fill="none" xmlns="http://www.w3.org/2000/svg">
<path d="M15.9236 12.7721C15.8921 12.6795 15.8186 12.5367 15.7661 12.4548C15.4353 11.9525 13.6581 10.5539 12.7707 10.0965C12.2641 9.83477 11.8887 9.74753 11.6104 9.82945C11.3111 9.9141 11.1536 10.0542 10.6522 10.6808C10.4501 10.932 10.2427 11.1673 10.1876 11.2042C10.0511 11.2994 9.78329 11.3761 9.59428 11.3761C9.15587 11.3735 8.36045 11.0879 7.74878 10.7125C7.27362 10.4217 6.66462 9.90088 6.19731 9.38532C5.646 8.77988 5.27065 8.24583 4.97397 7.64303C4.59071 6.86839 4.49358 6.39513 4.65369 6.04878C4.69308 5.96154 4.74559 5.86903 4.76919 5.83991C4.79283 5.81351 5.03961 5.60991 5.3126 5.38782C5.84816 4.95954 5.93478 4.86172 6.03453 4.56825C6.16054 4.19545 6.12643 3.81474 5.93217 3.43141C5.78252 3.14057 5.39137 2.50606 5.10786 2.09627C4.73246 1.55695 3.7979 0.40424 3.61148 0.248209C3.27547 -0.026722 2.84498 -0.0743408 2.36978 0.110765C1.86841 0.306414 0.928574 1.06783 0.526913 1.59925C0.164638 2.08041 0.0255486 2.42145 0.00452565 2.87091C-0.0138377 3.24103 0.0176528 3.39437 0.21192 3.86764C1.7319 7.57956 4.00001 10.5433 7.11612 12.8963C8.74372 14.1257 10.4317 15.0616 12.1827 15.7015C13.2039 16.0742 13.6475 16.0927 14.1699 15.7861C14.3904 15.6538 14.9365 15.0907 15.241 14.6809C15.745 13.9988 15.9314 13.6842 15.9839 13.433C16.0207 13.2612 15.9918 12.9624 15.9236 12.7721Z" fill="white"/>
</svg>
