<svg width="25" height="25" viewBox="0 0 25 25" fill="none" xmlns="http://www.w3.org/2000/svg">
<path fill-rule="evenodd" clip-rule="evenodd" d="M12.5 25C19.4036 25 25 19.4036 25 12.5C25 5.59644 19.4036 0 12.5 0C5.59644 0 0 5.59644 0 12.5C0 19.4036 5.59644 25 12.5 25ZM18.397 6.31675C19.7207 7.50829 20.4546 10.1427 19.9589 14.3155C19.5251 17.9971 17.0432 18.6492 16.21 18.868C16.1283 18.8895 16.0625 18.9068 16.016 18.9224C15.791 18.9972 13.8108 19.5095 11.2325 19.2859L10.9759 19.5927C9.66356 21.1627 9.43742 21.4332 8.97059 21.2819C8.53718 21.1455 8.5628 20.467 8.5628 20.467L8.56626 18.7922H8.5628C4.79571 17.6956 4.84833 13.6529 4.89264 11.4948C4.93695 9.33748 5.34129 7.59483 6.4892 6.40745C9.04537 3.98006 16.2611 4.28123 18.3977 6.31606L18.397 6.31675ZM9.34723 20.6706C9.85473 20.1423 11.4866 18.1075 11.4866 18.1075C13.673 18.2536 15.4143 17.8056 15.6019 17.7433C15.6457 17.7288 15.7087 17.7136 15.7872 17.6946C16.4968 17.5233 18.4685 17.0472 18.8331 14.0088C18.8328 13.9937 18.8381 13.9402 18.8466 13.854V13.854C18.9334 12.9801 19.3534 8.74863 17.5599 7.15865C15.9481 5.64378 9.6221 5.17368 7.37957 7.27635C6.40751 8.26987 6.07795 9.74528 6.04333 11.5468L6.03936 11.7381C5.99976 13.5812 5.93015 16.8214 9.01421 17.7052C9.01421 17.7052 9.00175 20.2621 9.00175 20.4857C8.99898 20.8264 9.18107 20.8423 9.34723 20.6706ZM12.3896 7.67172C12.123 7.67172 12.123 8.08713 12.3896 8.09059C14.4576 8.10652 16.1608 9.54799 16.1795 12.1921C16.1795 12.4711 16.588 12.4676 16.5845 12.1886H16.5838C16.5617 9.3396 14.702 7.68765 12.3896 7.67172ZM15.5147 11.7636C15.5113 12.0426 15.1035 12.0294 15.1097 11.7539C15.1416 10.3782 14.3101 9.30088 12.7315 9.18111C12.4656 9.16172 12.4933 8.74285 12.7599 8.76223C14.5801 8.89863 15.5487 10.1926 15.5147 11.7636ZM14.6729 13.5406C14.3309 13.3426 13.9826 13.4659 13.8386 13.6604L13.5374 14.0502C13.3844 14.2482 13.0985 14.2219 13.0985 14.2219C11.0118 13.6701 10.4537 11.4864 10.4537 11.4864C10.4537 11.4864 10.4281 11.1908 10.6192 11.0322L10.9958 10.7207C11.1842 10.5711 11.3032 10.2111 11.1115 9.8573C10.7251 9.15933 10.4345 8.80618 10.2398 8.5696L10.2398 8.5696C10.1762 8.49242 10.1229 8.42765 10.0799 8.36736C9.89569 8.13681 9.61875 8.08488 9.33073 8.24066H9.3245C8.72561 8.59099 8.06996 9.24665 8.27974 9.92169C8.34181 10.0451 8.41288 10.2153 8.49892 10.4214L8.49893 10.4214C8.90905 11.4036 9.65894 13.1995 11.3919 14.6165C12.3771 15.4273 13.9362 16.2581 14.5981 16.4499L14.6044 16.4596C15.2566 16.677 15.8907 15.9957 16.2293 15.3788V15.374C16.3795 15.0756 16.3297 14.7931 16.1102 14.6082C15.7211 14.2288 15.134 13.81 14.6729 13.5406ZM14.0681 11.4077C14.0334 10.6939 13.7108 10.3464 13.0455 10.3076C12.7761 10.2917 12.8011 9.87279 13.0676 9.88872C13.9427 9.93718 14.4288 10.4564 14.4731 11.3884C14.4855 11.6674 14.0805 11.6868 14.0681 11.4077Z" fill="white"/>
</svg>
