<svg width="25" height="25" viewBox="0 0 25 25" fill="none" xmlns="http://www.w3.org/2000/svg">
<path d="M12.5 0C5.5975 0 0 5.5975 0 12.5C0 19.4025 5.5975 25 12.5 25C19.4025 25 25 19.4025 25 12.5C25 5.5975 19.4025 0 12.5 0ZM12.7649 19.7779C12.7647 19.7779 12.7651 19.7779 12.7649 19.7779H12.7619C11.5097 19.7773 10.2793 19.4633 9.18655 18.8675L5.2206 19.9076L6.28204 16.0318C5.62725 14.8977 5.28278 13.611 5.28336 12.2929C5.28507 8.16917 8.64124 4.81434 12.7649 4.81434C14.7661 4.8151 16.6447 5.59406 18.0571 7.0076C19.4696 8.42133 20.2471 10.3004 20.2463 12.2988C20.2446 16.4227 16.888 19.7779 12.7649 19.7779Z" fill="#3E4752"/>
<path d="M12.7679 6.07764C9.3379 6.07764 6.5484 8.86599 6.54688 12.2935C6.54649 13.468 6.87532 14.6119 7.49769 15.6016L7.64551 15.8368L7.01723 18.1307L9.37071 17.5135L9.59787 17.6482C10.5525 18.2147 11.6469 18.5143 12.7627 18.5147H12.7652C16.1925 18.5147 18.982 15.7262 18.9836 12.2985C18.9841 10.6373 18.3379 9.07561 17.164 7.90068C15.99 6.72575 14.4286 6.07821 12.7679 6.07764ZM16.4254 14.9661C16.2696 15.4025 15.5229 15.8009 15.1637 15.8547C14.8416 15.9028 14.4342 15.9228 13.9863 15.7807C13.7147 15.6945 13.3666 15.5795 12.9205 15.387C11.0454 14.5775 9.82065 12.69 9.72719 12.5653C9.63373 12.4406 8.96387 11.5519 8.96387 10.632C8.96387 9.71228 9.44681 9.26005 9.61809 9.07313C9.78956 8.88602 9.99212 8.83929 10.1167 8.83929C10.2412 8.83929 10.366 8.84043 10.4749 8.84577C10.5897 8.85149 10.7438 8.80209 10.8954 9.16659C11.0513 9.54081 11.4251 10.4605 11.4718 10.554C11.5186 10.6476 11.5497 10.7567 11.4875 10.8815C11.4251 11.0062 11.218 11.2754 11.0202 11.5206C10.9372 11.6234 10.8291 11.715 10.9382 11.9021C11.0471 12.089 11.4224 12.7011 11.9781 13.1966C12.6922 13.8333 13.2945 14.0305 13.4814 14.1242C13.6682 14.2176 13.7773 14.202 13.8864 14.0774C13.9953 13.9527 14.3537 13.5317 14.4782 13.3446C14.6028 13.1575 14.7275 13.1888 14.8988 13.2512C15.0703 13.3134 15.9892 13.7656 16.1761 13.859C16.3631 13.9527 16.4876 13.9994 16.5343 14.0774C16.5813 14.1554 16.5813 14.5295 16.4254 14.9661Z" fill="#3E4752"/>
</svg>
