<svg width="25" height="25" viewBox="0 0 25 25" fill="none" xmlns="http://www.w3.org/2000/svg">
<g clip-path="url(#clip0)">
<path d="M12.5 0C5.5975 0 0 5.5975 0 12.5C0 19.4025 5.5975 25 12.5 25C19.4025 25 25 19.4025 25 12.5C25 5.5975 19.4025 0 12.5 0ZM12.7649 19.7779C12.7647 19.7779 12.7651 19.7779 12.7649 19.7779H12.7619C11.5097 19.7773 10.2793 19.4633 9.18655 18.8675L5.2206 19.9076L6.28204 16.0318C5.62725 14.8977 5.28278 13.611 5.28336 12.2929C5.28507 8.16917 8.64124 4.81434 12.7649 4.81434C14.7661 4.8151 16.6447 5.59406 18.0571 7.0076C19.4696 8.42133 20.2471 10.3004 20.2463 12.2988C20.2446 16.4227 16.888 19.7779 12.7649 19.7779Z" fill="white"/>
<path d="M12.7674 6.07764C9.33741 6.07764 6.54791 8.86599 6.54639 12.2935C6.54601 13.468 6.87483 14.6119 7.4972 15.6016L7.64502 15.8368L7.01674 18.1307L9.37022 17.5135L9.59739 17.6482C10.552 18.2147 11.6465 18.5143 12.7623 18.5147H12.7647C16.1921 18.5147 18.9816 15.7262 18.9831 12.2985C18.9837 10.6373 18.3374 9.07561 17.1635 7.90068C15.9895 6.72575 14.4281 6.07821 12.7674 6.07764ZM16.4249 14.9661C16.2691 15.4025 15.5224 15.8009 15.1632 15.8547C14.8411 15.9028 14.4337 15.9228 13.9858 15.7807C13.7142 15.6945 13.3661 15.5795 12.92 15.387C11.0449 14.5775 9.82017 12.69 9.7267 12.5653C9.63324 12.4406 8.96338 11.5519 8.96338 10.632C8.96338 9.71228 9.44632 9.26005 9.6176 9.07313C9.78908 8.88602 9.99164 8.83929 10.1162 8.83929C10.2407 8.83929 10.3655 8.84043 10.4744 8.84577C10.5892 8.85149 10.7433 8.80209 10.895 9.16659C11.0508 9.54081 11.4246 10.4605 11.4714 10.554C11.5181 10.6476 11.5492 10.7567 11.487 10.8815C11.4246 11.0062 11.2175 11.2754 11.0197 11.5206C10.9367 11.6234 10.8286 11.715 10.9377 11.9021C11.0466 12.089 11.422 12.7011 11.9776 13.1966C12.6917 13.8333 13.294 14.0305 13.4809 14.1242C13.6677 14.2176 13.7768 14.202 13.8859 14.0774C13.9948 13.9527 14.3532 13.5317 14.4777 13.3446C14.6023 13.1575 14.727 13.1888 14.8983 13.2512C15.0698 13.3134 15.9887 13.7656 16.1757 13.859C16.3626 13.9527 16.4871 13.9994 16.5339 14.0774C16.5808 14.1554 16.5808 14.5295 16.4249 14.9661Z" fill="white"/>
</g>
<defs>
<clipPath id="clip0">
<rect width="25" height="25" fill="white"/>
</clipPath>
</defs>
</svg>
